<svg width="86" height="100" viewBox="0 0 86 100" fill="none" xmlns="http://www.w3.org/2000/svg">
<path d="M42.9999 56.5218C57.5674 56.5218 69.3767 45.6209 69.3767 32.1739C69.3767 18.727 57.5674 7.82611 42.9999 7.82611C28.4323 7.82611 16.623 18.727 16.623 32.1739C16.623 45.6209 28.4323 56.5218 42.9999 56.5218Z" fill="#A4C639" stroke="white"/>
<path d="M62.9999 26.087H22.9999C19.478 26.087 16.623 28.942 16.623 32.4638V72.4638C16.623 75.9856 19.478 78.8406 22.9999 78.8406H62.9999C66.5217 78.8406 69.3767 75.9856 69.3767 72.4638V32.4638C69.3767 28.942 66.5217 26.087 62.9999 26.087Z" fill="#A4C639" stroke="white"/>
<path d="M24.983 3.92973C24.4785 3.01966 24.8073 1.87295 25.7174 1.36849C26.6275 0.864025 27.7742 1.19284 28.2786 2.10291L38.5369 20.6094C39.0414 21.5194 38.7126 22.6661 37.8025 23.1706C36.8924 23.6751 35.7457 23.3463 35.2413 22.4362L24.983 3.92973Z" fill="#A4C639" stroke="white"/>
<path d="M70.5362 39.1304C70.5362 35.2884 73.6507 32.1739 77.4927 32.1739C81.3347 32.1739 84.4492 35.2884 84.4492 39.1304V63.7681C84.4492 67.6101 81.3347 70.7246 77.4927 70.7246C73.6507 70.7246 70.5362 67.6101 70.5362 63.7681V39.1304Z" fill="#A4C639" stroke="white"/>
<path d="M45.8985 67.2463C45.8985 63.4043 49.013 60.2898 52.855 60.2898C56.697 60.2898 59.8115 63.4043 59.8115 67.2463V91.884C59.8115 95.726 56.697 98.8405 52.855 98.8405C49.013 98.8405 45.8985 95.726 45.8985 91.884V67.2463Z" fill="#A4C639" stroke="white"/>
<path d="M61.017 3.92973C61.5215 3.01966 61.1927 1.87295 60.2826 1.36849C59.3725 0.864025 58.2258 1.19284 57.7214 2.10291L47.4631 20.6094C46.9586 21.5194 47.2874 22.6661 48.1975 23.1706C49.1076 23.6751 50.2543 23.3463 50.7587 22.4362L61.017 3.92973Z" fill="#A4C639" stroke="white"/>
<path d="M15.4638 39.1304C15.4638 35.2884 12.3493 32.1739 8.5073 32.1739C4.66532 32.1739 1.55078 35.2884 1.55078 39.1304V63.7681C1.55078 67.6101 4.66532 70.7246 8.5073 70.7246C12.3493 70.7246 15.4638 67.6101 15.4638 63.7681V39.1304Z" fill="#A4C639" stroke="white"/>
<path d="M40.1015 67.2463C40.1015 63.4043 36.987 60.2898 33.145 60.2898C29.303 60.2898 26.1885 63.4043 26.1885 67.2463V91.884C26.1885 95.726 29.303 98.8405 33.145 98.8405C36.987 98.8405 40.1015 95.726 40.1015 91.884V67.2463Z" fill="#A4C639" stroke="white"/>
<path d="M42.9999 56.5218C57.5674 56.5218 69.3767 45.6209 69.3767 32.1739C69.3767 18.727 57.5674 7.82611 42.9999 7.82611C28.4323 7.82611 16.623 18.727 16.623 32.1739C16.623 45.6209 28.4323 56.5218 42.9999 56.5218Z" fill="#A4C639"/>
<path d="M62.9999 26.087H22.9999C19.478 26.087 16.623 28.942 16.623 32.4638V72.4638C16.623 75.9856 19.478 78.8406 22.9999 78.8406H62.9999C66.5217 78.8406 69.3767 75.9856 69.3767 72.4638V32.4638C69.3767 28.942 66.5217 26.087 62.9999 26.087Z" fill="#A4C639"/>
<path d="M15.4639 33.1884H70.5363H15.4639Z" fill="white"/>
<path d="M15.4639 33.1884H70.5363" stroke="white"/>
<path d="M30.8264 21.4493C31.4667 21.4493 31.9858 20.9302 31.9858 20.2899C31.9858 19.6495 31.4667 19.1304 30.8264 19.1304C30.1861 19.1304 29.667 19.6495 29.667 20.2899C29.667 20.9302 30.1861 21.4493 30.8264 21.4493Z" fill="white" stroke="white"/>
<path d="M55.1741 21.4493C55.8144 21.4493 56.3335 20.9302 56.3335 20.2899C56.3335 19.6495 55.8144 19.1304 55.1741 19.1304C54.5337 19.1304 54.0146 19.6495 54.0146 20.2899C54.0146 20.9302 54.5337 21.4493 55.1741 21.4493Z" fill="white" stroke="white"/>
</svg>
