<svg width="150" height="40" viewBox="0 0 150 40" fill="none" xmlns="http://www.w3.org/2000/svg">
<g clip-path="url(#clip0_1465_4513)">
<path d="M40.9885 13.248L50.3394 25.5578V13.248H52.2087V28.5288H50.2321L40.8821 16.111V28.5288H39.0117V13.248H40.9885Z" fill="#CCCCCC"/>
<path d="M67.3825 27.9304C66.1506 28.4014 64.8213 28.636 63.3966 28.636C57.8622 28.636 55.0938 25.9826 55.0938 20.675C55.0938 15.6525 57.7653 13.1409 63.1074 13.1409C64.6402 13.1409 66.0653 13.3552 67.3823 13.7832V15.4927C66.0651 14.994 64.7108 14.7443 63.3211 14.7443C59.1543 14.7443 57.0714 16.7219 57.0714 20.675C57.0714 24.9134 59.1217 27.0337 63.2263 27.0337C63.8809 27.0337 64.6074 26.9478 65.406 26.7762V21.5834H67.3825V27.9304Z" fill="#CCCCCC"/>
<path d="M70.5352 22.6304V13.2488H72.5106V22.6301C72.5106 25.5652 73.9716 27.0343 76.8928 27.0343C79.8131 27.0343 81.2741 25.565 81.2741 22.6301V13.2488H83.2506V22.6301C83.2506 26.6353 81.1314 28.6366 76.8928 28.6366C72.6544 28.6368 70.5352 26.6353 70.5352 22.6304Z" fill="#CCCCCC"/>
<path d="M96.7475 26.9265V28.5288H86.7773V13.248H88.753V26.9265H96.7475Z" fill="#CCCCCC"/>
<path d="M105.144 11.2324L112.741 28.5293H110.551L108.574 23.7198H103.521L104.065 22.1188H107.912L105.059 15.1933L99.5981 28.5293H97.5469L105.144 11.2324Z" fill="#CCCCCC"/>
<path d="M114.828 28.5288V13.248H121.347C124.254 13.248 125.707 14.4703 125.707 16.913C125.707 18.9012 124.286 20.3725 121.443 21.326L126.69 28.5288H124.082L119.221 21.6582V20.3662C122.141 19.902 123.601 18.7801 123.601 16.9998C123.601 15.5898 122.789 14.8834 121.166 14.8834H116.805V28.5295H114.828L114.828 28.5288Z" fill="#CCCCCC"/>
<path d="M134.094 13.248V24.1266C134.094 27.0614 132.366 28.5286 128.91 28.5286V26.9261C131.048 26.9261 132.117 25.9918 132.117 24.1264V13.248H134.094Z" fill="#CCCCCC"/>
<path d="M137.621 27.9945V26.1776C139.225 26.7474 140.955 27.0334 142.815 27.0334C145.444 27.0334 146.758 26.0715 146.758 24.1465C146.758 22.5105 145.789 21.6893 143.851 21.6893H141.884C138.687 21.6893 137.086 20.3011 137.086 17.5225C137.086 14.6022 139.135 13.1404 143.232 13.1404C145.013 13.1404 146.669 13.3558 148.201 13.7827V15.5993C146.668 15.0289 145.013 14.7438 143.232 14.7438C140.454 14.7438 139.065 15.6703 139.065 17.5225C139.065 19.1602 140.004 19.9797 141.884 19.9797H143.851C147.106 19.9797 148.735 21.3699 148.735 24.1465C148.735 27.1396 146.762 28.6359 142.814 28.6359C140.955 28.6359 139.225 28.4214 137.621 27.9945Z" fill="#CCCCCC"/>
<path d="M41.4883 12.7488L50.8383 25.0587V12.7488H52.7087V28.0296H50.7319L41.3812 15.6117V28.0296H39.5117V12.7488H41.4883Z" fill="black"/>
<path d="M67.8823 27.4311C66.6504 27.9021 65.3217 28.1365 63.8966 28.1365C58.3617 28.1365 55.5938 25.4833 55.5938 20.1757C55.5938 15.1532 58.2653 12.6414 63.6085 12.6414C65.14 12.6414 66.5653 12.8559 67.8823 13.2837V14.993C66.5651 14.4942 65.2108 14.2445 63.8219 14.2445C59.655 14.2445 57.5716 16.2221 57.5716 20.1752C57.5716 24.4139 59.6228 26.5342 63.7263 26.5342C64.3812 26.5342 65.1085 26.4487 65.9068 26.2767V21.0837H67.8825L67.8823 27.4311Z" fill="black"/>
<path d="M71.0352 22.1307V12.748H73.0106V22.1305C73.0106 25.0653 74.4716 26.5336 77.393 26.5336C80.3131 26.5336 81.7741 25.0651 81.7741 22.1305V12.748H83.7506V22.1305C83.7506 26.1354 81.6314 28.1359 77.393 28.1359C73.1544 28.1359 71.0352 26.1358 71.0352 22.1307Z" fill="black"/>
<path d="M97.2466 26.4265V28.0288H87.2773V12.748H89.253V26.4265H97.2466Z" fill="black"/>
<path d="M105.644 10.7317L113.242 28.0294H111.05L109.074 23.2203H104.02L104.566 21.618H108.412L105.559 14.6926L100.098 28.0294H98.0469L105.644 10.7317Z" fill="black"/>
<path d="M115.328 28.0296V12.7488H121.847C124.754 12.7488 126.205 13.9701 126.205 16.414C126.205 18.4011 124.786 19.8732 121.943 20.8265L127.19 28.0296H124.581L119.721 21.1587V19.8655C122.641 19.4012 124.102 18.2804 124.102 16.499C124.102 15.089 123.289 14.3837 121.665 14.3837H117.305V28.0296H115.328Z" fill="black"/>
<path d="M134.593 12.748V23.6268C134.593 26.5625 132.866 28.0288 129.41 28.0288V26.4265C131.547 26.4265 132.616 25.492 132.616 23.6266V12.748H134.593Z" fill="#A6120D"/>
<path d="M138.121 27.4943V25.6779C139.725 26.2474 141.455 26.5336 143.315 26.5336C145.943 26.5336 147.258 25.5712 147.258 23.6474C147.258 22.0105 146.289 21.1902 144.351 21.1902H142.384C139.186 21.1902 137.586 19.8011 137.586 17.0223C137.586 14.102 139.634 12.6404 143.732 12.6404C145.513 12.6404 147.169 12.8558 148.701 13.2827V15.0995C147.168 14.5289 145.513 14.2438 143.732 14.2438C140.953 14.2438 139.564 15.1703 139.564 17.0225C139.564 18.6602 140.504 19.4797 142.384 19.4797H144.351C147.606 19.4797 149.235 20.8692 149.235 23.6474C149.235 26.6398 147.262 28.1359 143.314 28.1359C141.455 28.1357 139.725 27.9212 138.121 27.4943Z" fill="#A6120D"/>
<path d="M119.862 36.186L119.136 33.9792H118.62L119.622 36.7676C119.598 36.8283 119.56 36.9207 119.508 37.0454C119.456 37.1702 119.426 37.2388 119.418 37.2524C119.391 37.293 119.357 37.3271 119.317 37.3549C119.278 37.3828 119.216 37.3966 119.132 37.3966C119.105 37.3966 119.074 37.3938 119.038 37.389C119.003 37.384 118.946 37.3705 118.867 37.3484V37.7635C118.917 37.7771 118.96 37.7859 118.994 37.7913C119.029 37.7961 119.078 37.7987 119.143 37.7987C119.405 37.7987 119.591 37.7229 119.698 37.5712C119.806 37.4194 119.991 36.9984 120.254 36.3075C120.366 36.0142 120.504 35.6343 120.669 35.169C120.89 34.5498 121.033 34.1533 121.096 33.9794H120.593L119.862 36.186ZM117.167 36.3718C116.839 36.3718 116.614 36.2229 116.494 35.9242C116.43 35.766 116.398 35.5594 116.398 35.3048C116.398 34.9525 116.476 34.6996 116.633 34.5457C116.79 34.3927 116.972 34.3158 117.18 34.3158C117.418 34.3158 117.599 34.4097 117.722 34.5966C117.845 34.7838 117.906 35.0199 117.906 35.3048C117.906 35.6253 117.845 35.8832 117.722 36.0787C117.599 36.274 117.414 36.3718 117.167 36.3718ZM115.98 36.688H116.4V36.3418C116.497 36.472 116.587 36.5663 116.672 36.6252C116.814 36.7247 116.988 36.7743 117.195 36.7743C117.564 36.7743 117.853 36.6328 118.061 36.3492C118.269 36.0658 118.373 35.7103 118.373 35.2821C118.373 34.8302 118.268 34.4883 118.057 34.2565C117.846 34.0247 117.572 33.9088 117.233 33.9088C117.071 33.9088 116.92 33.9429 116.781 34.0113C116.642 34.0795 116.523 34.1786 116.423 34.3085V32.9604H115.98V36.688Z" fill="black"/>
<path d="M3.69522 30.6429L18.7405 38.9121L33.8633 30.5309L36.6825 7.14989L18.7215 0.980469L0.875 7.26104L3.69522 30.6429Z" fill="#B3B3B3"/>
<path d="M18.6797 36.9363L32.2749 29.4122L34.9021 8.50108L18.6797 2.96899V36.9363Z" fill="#A6120D"/>
<path d="M18.6809 36.9365V2.96851L2.87891 8.60095L5.29553 29.5123L18.6809 36.9365Z" fill="#DD1B16"/>
<path d="M23.1442 21.0516L18.6787 23.1398H13.9722L11.7597 28.6736L7.64453 28.7498L18.6787 4.20264L23.1442 21.0516ZM22.7125 20.0003L18.7083 12.0732L15.4238 19.8639H18.6785L22.7125 20.0003Z" fill="#F2F2F2"/>
<path d="M22.4362 19.87H18.6881L18.6797 23.1348L23.8623 23.1398L26.2846 28.7506L30.2221 28.8236L18.6797 4.20264L18.7093 12.0732L22.4362 19.87Z" fill="#B3B3B3"/>
<path d="M133.886 34.7292C133.886 35.9306 132.946 36.8159 131.792 36.8159C130.639 36.8159 129.699 35.9306 129.699 34.7292C129.699 33.5194 130.639 32.6426 131.792 32.6426C132.946 32.6426 133.886 33.5194 133.886 34.7292ZM132.969 34.7292C132.969 33.9785 132.425 33.4648 131.792 33.4648C131.16 33.4648 130.616 33.9785 130.616 34.7292C130.616 35.4725 131.16 35.9937 131.792 35.9937C132.425 35.9937 132.969 35.4715 132.969 34.7292Z" fill="black"/>
<path d="M138.401 34.7292C138.401 35.9306 137.462 36.8159 136.308 36.8159C135.155 36.8159 134.215 35.9306 134.215 34.7292C134.215 33.5203 135.155 32.6426 136.308 32.6426C137.462 32.6426 138.401 33.5194 138.401 34.7292ZM137.485 34.7292C137.485 33.9785 136.94 33.4648 136.308 33.4648C135.676 33.4648 135.131 33.9785 135.131 34.7292C135.131 35.4725 135.676 35.9937 136.308 35.9937C136.94 35.9937 137.485 35.4715 137.485 34.7292Z" fill="black"/>
<path d="M142.731 32.7686V36.5149C142.731 38.0559 141.822 38.6853 140.748 38.6853C139.736 38.6853 139.127 38.0088 138.898 37.4557L139.696 37.1236C139.838 37.4632 140.186 37.864 140.747 37.864C141.434 37.864 141.86 37.4397 141.86 36.6409V36.3408H141.828C141.623 36.5939 141.228 36.815 140.73 36.815C139.686 36.815 138.73 35.9062 138.73 34.7368C138.73 33.5589 139.686 32.6426 140.73 32.6426C141.227 32.6426 141.622 32.8637 141.828 33.1092H141.86V32.7696H142.731V32.7686ZM141.925 34.7368C141.925 34.002 141.435 33.4648 140.812 33.4648C140.179 33.4648 139.65 34.002 139.65 34.7368C139.65 35.464 140.179 35.9937 140.812 35.9937C141.435 35.9937 141.925 35.464 141.925 34.7368Z" fill="black"/>
<path d="M144.163 30.5728V36.6879H143.27V30.5728H144.163Z" fill="black"/>
<path d="M147.649 35.416L148.36 35.8901C148.13 36.2298 147.577 36.8149 146.621 36.8149C145.436 36.8149 144.551 35.8986 144.551 34.7283C144.551 33.4874 145.444 32.6416 146.519 32.6416C147.602 32.6416 148.131 33.5034 148.305 33.9691L148.4 34.2061L145.61 35.3614C145.824 35.7801 146.156 35.9936 146.621 35.9936C147.088 35.9936 147.412 35.7641 147.649 35.416ZM145.46 34.6652L147.324 33.891C147.222 33.6304 146.913 33.4488 146.55 33.4488C146.084 33.4488 145.436 33.8599 145.46 34.6652Z" fill="black"/>
<path d="M126.317 34.1863V33.301H129.301C129.33 33.4553 129.345 33.6378 129.345 33.8354C129.345 34.4996 129.163 35.3209 128.578 35.9061C128.009 36.4988 127.282 36.8149 126.318 36.8149C124.533 36.8149 123.031 35.3604 123.031 33.5748C123.031 31.7892 124.533 30.3347 126.318 30.3347C127.306 30.3347 128.01 30.7223 128.539 31.2275L127.914 31.8522C127.535 31.4966 127.021 31.22 126.317 31.22C125.013 31.22 123.994 32.2709 123.994 33.5748C123.994 34.8787 125.013 35.9296 126.317 35.9296C127.163 35.9296 127.645 35.59 127.953 35.2814C128.204 35.0311 128.368 34.6736 128.433 34.1854L126.317 34.1863Z" fill="black"/>
</g>
<defs>
<clipPath id="clip0_1465_4513">
<rect width="150" height="39.9281" fill="white" transform="translate(0 0.0361328)"/>
</clipPath>
</defs>
</svg>
