<svg width="80" height="80" viewBox="0 0 80 80" fill="none" xmlns="http://www.w3.org/2000/svg">
<path d="M27.7813 5.45335H49.4797L26.9547 72.1925C26.7232 72.8783 26.2824 73.4742 25.6945 73.8964C25.1065 74.3186 24.401 74.5457 23.6772 74.5459H6.79051C6.2421 74.5459 5.70155 74.4154 5.21359 74.1651C4.72563 73.9148 4.30428 73.5519 3.9844 73.1065C3.66452 72.661 3.4553 72.1458 3.37406 71.6034C3.29281 71.0611 3.34187 70.5072 3.51717 69.9875L24.503 7.80668C24.7344 7.1206 25.1752 6.52441 25.7634 6.10207C26.3515 5.67974 27.0573 5.45339 27.7813 5.45335Z" fill="url(#paint0_linear_1491_4402)"/>
<path d="M59.3131 50.2175H24.9048C24.5849 50.2172 24.2723 50.3132 24.0078 50.493C23.7432 50.6728 23.539 50.9282 23.4216 51.2258C23.3042 51.5234 23.2792 51.8494 23.3498 52.1614C23.4204 52.4734 23.5833 52.7569 23.8173 52.975L45.9273 73.6117C46.571 74.2122 47.4186 74.546 48.299 74.5459H67.7823L59.3131 50.2175Z" fill="#0078D4"/>
<path d="M27.7808 5.45333C27.0489 5.45052 26.3352 5.68183 25.744 6.11347C25.1529 6.5451 24.7152 7.15445 24.495 7.8525L3.5425 69.9308C3.3554 70.4524 3.29666 71.0113 3.37125 71.5603C3.44584 72.1093 3.65157 72.6323 3.97102 73.085C4.29048 73.5377 4.71427 73.9068 5.20655 74.1611C5.69882 74.4154 6.2451 74.5473 6.79917 74.5458H24.1217C24.7668 74.4306 25.3698 74.1461 25.8691 73.7215C26.3683 73.2969 26.7459 72.7474 26.9633 72.1292L31.1417 59.815L46.0667 73.7358C46.6921 74.2532 47.4767 74.5392 48.2883 74.5458H67.6992L59.1858 50.2175L34.3683 50.2233L49.5575 5.45333H27.7808Z" fill="url(#paint1_linear_1491_4402)"/>
<path d="M55.4949 7.80331C55.2638 7.11834 54.8236 6.52313 54.2364 6.10154C53.6492 5.67995 52.9445 5.45322 52.2216 5.45331H28.0391C28.7619 5.45335 29.4666 5.68012 30.0538 6.10169C30.641 6.52327 31.0812 7.11841 31.3124 7.80331L52.2991 69.9866C52.4745 70.5064 52.5237 71.0604 52.4425 71.6029C52.3613 72.1454 52.1521 72.6608 51.8323 73.1064C51.5124 73.552 51.091 73.9151 50.603 74.1655C50.1149 74.416 49.5743 74.5466 49.0257 74.5466H73.2091C73.7575 74.5465 74.2981 74.4157 74.786 74.1652C75.2739 73.9147 75.6952 73.5517 76.015 73.1061C76.3348 72.6605 76.5439 72.1451 76.625 71.6027C76.7062 71.0603 76.657 70.5063 76.4816 69.9866L55.4949 7.80331Z" fill="url(#paint2_linear_1491_4402)"/>
<defs>
<linearGradient id="paint0_linear_1491_4402" x1="35.6897" y1="10.5733" x2="13.1555" y2="77.145" gradientUnits="userSpaceOnUse">
<stop stop-color="#114A8B"/>
<stop offset="1" stop-color="#0669BC"/>
</linearGradient>
<linearGradient id="paint1_linear_1491_4402" x1="42.7283" y1="41.5975" x2="37.5158" y2="43.36" gradientUnits="userSpaceOnUse">
<stop stop-opacity="0.3"/>
<stop offset="0.071" stop-opacity="0.2"/>
<stop offset="0.321" stop-opacity="0.1"/>
<stop offset="0.623" stop-opacity="0.05"/>
<stop offset="1" stop-opacity="0"/>
</linearGradient>
<linearGradient id="paint2_linear_1491_4402" x1="39.8616" y1="8.63164" x2="64.5974" y2="74.5325" gradientUnits="userSpaceOnUse">
<stop stop-color="#3CCBF4"/>
<stop offset="1" stop-color="#2892DF"/>
</linearGradient>
</defs>
</svg>
