<svg id="logo_2_Full" data-name="logo 2 Full" xmlns="http://www.w3.org/2000/svg" width="3169" height="1585" viewBox="0 0 3169 1585">
  <defs>
    <style>
      .cls-1 {
        font-size: 129.153px;
        text-anchor: middle;
        font-family: Poppins;
        font-weight: 500;
        text-transform: uppercase;
      }

      .cls-2, .cls-4 {
        fill: #3867d6;
      }

      .cls-2, .cls-3, .cls-4 {
        fill-rule: evenodd;
      }

      .cls-4 {
        stroke: #000;
        stroke-linecap: round;
        stroke-linejoin: round;
        stroke-width: 1px;
      }
    </style>
  </defs>
  <text id="software_and_website_development_services" data-name="software and website development services" class="cls-1" transform="translate(1584.896 1507.172)"><tspan x="0">software and website development services</tspan></text>
  <path id="CODE_Masheen._copy" data-name="CODE Masheen. copy" class="cls-2" d="M243.762,1122.78q0,33.9,15.3,60.57a109.605,109.605,0,0,0,41.8,41.64q26.487,14.985,59.4,14.98,38.829,0,67.63-19.59t40.315-54.81H415.222q-7.9,16.47-22.215,24.86t-33.074,8.39q-20.077,0-35.707-9.38a63.758,63.758,0,0,1-24.353-26.67q-8.724-17.28-8.721-39.99,0-23.04,8.721-40.16a63.964,63.964,0,0,1,24.353-26.5q15.627-9.39,35.707-9.38,18.759,0,33.074,8.23t22.215,24.68h52.985q-11.524-34.875-40.48-54.64t-67.465-19.75q-32.911,0-59.4,14.98a109.262,109.262,0,0,0-41.8,41.8Q243.762,1088.875,243.762,1122.78ZM614.326,1240.3a118.952,118.952,0,0,0,59.237-15.15,111.8,111.8,0,0,0,42.618-41.97q15.627-26.82,15.633-60.73,0-33.585-15.633-60.41a112.271,112.271,0,0,0-42.453-41.97q-26.826-15.135-59.4-15.14a119.023,119.023,0,0,0-59.238,15.14,113.107,113.107,0,0,0-42.783,41.97q-15.795,26.835-15.8,60.41,0,33.9,15.8,60.73a112.963,112.963,0,0,0,42.783,41.97A118.926,118.926,0,0,0,614.326,1240.3Zm0-41.15q-20.733,0-36.7-9.38a64,64,0,0,1-24.847-26.83q-8.885-17.445-8.885-40.49t8.885-40.33a63.141,63.141,0,0,1,24.847-26.5q15.96-9.21,36.7-9.21t36.529,9.21a63.471,63.471,0,0,1,24.683,26.5q8.886,17.28,8.885,40.33t-8.885,40.49a64.348,64.348,0,0,1-24.683,26.83Q635.058,1199.145,614.326,1199.15Zm232.013-190.93h-80.3v229.77h80.3q36.2,0,63.681-14.15t42.454-40q14.97-25.83,14.973-60.4t-14.973-60.74a101.086,101.086,0,0,0-42.454-40.32Q882.537,1008.22,846.339,1008.22Zm-1.645,190.6H812.113V1047.06h32.581q36.2,0,55.946,20.25t19.746,56.13q0,35.88-19.746,55.63T844.694,1198.82Zm290.6-153.4v-37.53H1002v230.1h133.29v-37.52h-87.21v-60.9h77.33v-36.54h-77.33v-57.61h87.21Zm318.56-37.2-73.06,170.85-73.06-170.85h-52.32v229.77h46.07V1088.54l61.87,149.45h34.89l61.54-149.45v149.45h46.07V1008.22h-52Zm253.41,229.77h48.7l-82.6-230.1h-53.64l-82.6,230.1h48.37l15.14-43.78h91.49Zm-94.12-80.65,33.24-96.12,33.23,96.12h-66.47Zm253.07,82.96q25.335,0,43.77-9.39t27.98-25.18a65.02,65.02,0,0,0,9.54-34.23q0-21.4-10.2-34.57a65.735,65.735,0,0,0-24.36-19.75q-14.145-6.585-36.53-13.17-16.455-4.935-25.5-8.72a46.306,46.306,0,0,1-15.14-9.87,20.772,20.772,0,0,1-6.09-15.31q0-13.17,8.07-20.08,8.055-6.915,21.55-6.92,15.465,0,24.85,7.74a26.4,26.4,0,0,1,10.04,19.59h50.68q-2.31-30.945-24.52-48.23t-57.76-17.28q-23.685,0-42.12,8.06t-28.63,23.21q-10.215,15.15-10.21,35.55,0,21.735,10.04,34.73a63.552,63.552,0,0,0,24.03,19.42q13.98,6.42,36.36,13.01a259.975,259.975,0,0,1,25.84,8.39,43.911,43.911,0,0,1,15.63,10.37q6.24,6.585,6.25,16.79,0,12.51-9.21,20.24t-25.34,7.74q-15.81,0-24.85-8.23-9.06-8.22-10.04-22.38h-49.36q0.315,21.06,11.51,36.54t30.45,23.7Q1842.185,1240.3,1866.21,1240.3Zm265.58-232.08v94.48h-98.4v-94.48h-46.07v229.77h46.07v-97.77h98.4v97.77h46.08V1008.22h-46.08Zm224.78,37.2v-37.53H2223.28v230.1h133.29v-37.52h-87.21v-60.9h77.34v-36.54h-77.34v-57.61h87.21Zm175.08,0v-37.53H2398.36v230.1h133.29v-37.52h-87.21v-60.9h77.33v-36.54h-77.33v-57.61h87.21Zm238.26-37.53h-46.07V1165.9l-104.32-158.01h-46.08v230.1h46.08V1080.31l104.32,157.68h46.07v-230.1Zm65.82,232.41q12.18,0,20.08-7.74a27.416,27.416,0,0,0,0-38.51q-7.905-7.74-20.08-7.74-12.51,0-20.56,7.74a27.006,27.006,0,0,0,0,38.51Q2823.225,1240.3,2835.73,1240.3ZM232.244,1356.17v-16.46H2878.19v16.46H232.244Z"/>
  <path id="CODE_Masheen._copy_2" data-name="CODE Masheen. copy 2" class="cls-3" d="M243.762,1122.78q0,33.9,15.3,60.57a109.605,109.605,0,0,0,41.8,41.64q26.488,14.985,59.4,14.98,38.829,0,67.63-19.59t40.315-54.81H415.222q-7.9,16.47-22.215,24.86t-33.074,8.39q-20.077,0-35.707-9.38a63.764,63.764,0,0,1-24.353-26.67q-8.724-17.28-8.721-39.99,0-23.04,8.721-40.16a63.97,63.97,0,0,1,24.353-26.5q15.627-9.39,35.707-9.38,18.759,0,33.074,8.23t22.215,24.68h52.985q-11.524-34.875-40.48-54.64t-67.465-19.75q-32.911,0-59.4,14.98a109.331,109.331,0,0,0-41.8,41.8q-15.3,26.835-15.3,60.74h0ZM614.326,1240.3a118.952,118.952,0,0,0,59.237-15.15,111.8,111.8,0,0,0,42.618-41.97q15.627-26.82,15.633-60.73,0-33.585-15.633-60.41a112.271,112.271,0,0,0-42.453-41.97q-26.826-15.135-59.4-15.14a119.023,119.023,0,0,0-59.238,15.14,113.107,113.107,0,0,0-42.783,41.97q-15.795,26.835-15.8,60.41,0,33.9,15.8,60.73a112.963,112.963,0,0,0,42.783,41.97,118.926,118.926,0,0,0,59.238,15.15h0Zm0-41.15q-20.733,0-36.7-9.38a63.994,63.994,0,0,1-24.846-26.83q-8.886-17.445-8.886-40.49t8.886-40.33a63.133,63.133,0,0,1,24.846-26.5q15.96-9.21,36.7-9.21t36.53,9.21a63.475,63.475,0,0,1,24.682,26.5q8.886,17.28,8.886,40.33t-8.886,40.49a64.352,64.352,0,0,1-24.682,26.83q-15.8,9.375-36.53,9.38h0Zm232.013-190.93h-80.3v229.77h80.3q36.2,0,63.681-14.15t42.454-40q14.97-25.83,14.974-60.4t-14.974-60.74a101.086,101.086,0,0,0-42.454-40.32q-27.483-14.16-63.681-14.16h0Zm-1.645,190.6H812.113V1047.06h32.581q36.2,0,55.947,20.25t19.746,56.13q0,35.88-19.746,55.63t-55.947,19.75h0Zm290.6-153.4v-37.53H1002v230.1h133.29v-37.52h-87.21v-60.9h77.33v-36.54h-77.33v-57.61h87.21ZM232.244,1356.17v-16.46H2878.19v16.46H232.244Z"/>
  <path class="cls-3" d="M1751.06,89.008V231.016h-129l-83,83.005-83-83.005H1314.07a96.982,96.982,0,0,0-86,79V662.04a94.944,94.944,0,0,0,84,88.005h157.99V892.053l-141.99-1a226.482,226.482,0,0,1-145-44,231.623,231.623,0,0,1-95.99-170.01q-0.51-186.011-1-372.021A235.973,235.973,0,0,1,1307.07,89.008h443.99Z"/>
  <path class="cls-4" d="M1327.07,671.041h144.99l1-98.006,66,65,69-69V893.054h143.99l-0.99-579.033-92-1-120,120.007L1419.07,314.021l-92-1V671.041Z"/>
</svg>
