<svg id="logo_final" data-name="logo ! final" xmlns="http://www.w3.org/2000/svg" width="3169" height="1585" viewBox="0 0 3169 1585">
  <defs>
    <style>
      .cls-1, .cls-2, .cls-3 {
        fill-rule: evenodd;
      }

      .cls-2, .cls-3 {
        fill: #3867d6;
      }

      .cls-2 {
        stroke: #000;
        stroke-linecap: round;
        stroke-linejoin: round;
        stroke-width: 1px;
      }
    </style>
  </defs>
  <path class="cls-1" d="M1230,390V532H1101l-83,83-83-83H793a96.98,96.98,0,0,0-86,79V963a94.942,94.942,0,0,0,84,88H949v142l-142-1a226.489,226.489,0,0,1-145-44,231.576,231.576,0,0,1-96-170q-0.5-186-1-372A235.965,235.965,0,0,1,786,390h444Z"/>
  <path class="cls-2" d="M806,972H951l1-98,66,65,69-69v324h144l-1-579-92-1L1018,734,898,615l-92-1V972Z"/>
  <g>
    <path id="CODE_Masheen._copy" data-name="CODE Masheen. copy" class="cls-3" d="M1447.06,1190.9h48.71l-82.61-229.945h-53.64L1276.91,1190.9h48.38l15.14-43.75h91.49Zm-94.12-80.6,33.24-96.05,33.23,96.05h-66.47Zm253.08,82.9q25.335,0,43.77-9.37t27.97-25.17a64.986,64.986,0,0,0,9.55-34.21q0-21.375-10.21-34.54a65.677,65.677,0,0,0-24.35-19.74q-14.16-6.57-36.53-13.16-16.455-4.935-25.51-8.72a46.232,46.232,0,0,1-15.14-9.86,20.741,20.741,0,0,1-6.08-15.3q0-13.155,8.06-20.07t21.56-6.906q15.465,0,24.84,7.726a26.308,26.308,0,0,1,10.04,19.58h50.68q-2.3-30.915-24.52-48.2-22.2-17.271-57.75-17.271-23.7,0-42.13,8.06t-28.63,23.191q-10.2,15.135-10.2,35.525,0,21.72,10.03,34.71a63.714,63.714,0,0,0,24.03,19.41q13.98,6.4,36.37,12.99a262.311,262.311,0,0,1,25.83,8.39,43.891,43.891,0,0,1,15.63,10.36q6.255,6.585,6.26,16.78,0,12.51-9.22,20.23-9.21,7.74-25.34,7.73-15.795,0-24.85-8.22t-10.04-22.37h-49.36q0.315,21.06,11.52,36.51,11.175,15.465,30.44,23.69Q1581.985,1193.2,1606.02,1193.2ZM1871.6,961.284V1055.7h-98.4V961.284h-46.07V1190.9h46.07v-97.7h98.4v97.7h46.08V961.284H1871.6Zm224.78,37.172v-37.5H1963.1V1190.9h133.28v-37.5h-87.21v-60.86h77.34v-36.52h-77.34V998.456h87.21Zm175.09,0v-37.5H2138.18V1190.9h133.29v-37.5h-87.22v-60.86h77.34v-36.52h-77.34V998.456h87.22Zm238.27-37.5h-46.08v157.9l-104.32-157.9h-46.08V1190.9h46.08V1033.33l104.32,157.57h46.08V960.955Zm65.82,232.245q12.165,0,20.08-7.73a27.416,27.416,0,0,0,0-38.49q-7.905-7.725-20.08-7.73-12.51,0-20.57,7.73a27.006,27.006,0,0,0,0,38.49Q2563.045,1193.21,2575.56,1193.2Z"/>
    <path id="CODE_Masheen._copy_2" data-name="CODE Masheen. copy 2" class="cls-1" d="M1321.55,687.629q0,42.766,19.3,76.394a138.269,138.269,0,0,0,52.73,52.521q33.42,18.9,74.94,18.891,48.975,0,85.32-24.7,36.315-24.7,50.86-69.128h-66.85q-9.96,20.766-28.02,31.346t-41.73,10.588q-25.32,0-45.04-11.833t-30.73-33.63q-10.995-21.8-11-50.445,0-29.057,11-50.653a80.735,80.735,0,0,1,30.73-33.422q19.71-11.834,45.04-11.833,23.67,0,41.73,10.38t28.02,31.139h66.85q-14.55-44-51.07-68.921-36.54-24.912-85.11-24.911-41.52,0-74.94,18.891a137.91,137.91,0,0,0-52.73,52.728q-19.3,33.844-19.3,76.6h0ZM1789.03,835.85q40.7,0,74.73-19.1a141.014,141.014,0,0,0,53.77-52.937q19.71-33.834,19.72-76.6,0-42.35-19.72-76.187a141.544,141.544,0,0,0-53.56-52.936q-33.84-19.092-74.94-19.1-40.695,0-74.73,19.1a142.546,142.546,0,0,0-53.97,52.936q-19.935,33.844-19.93,76.187,0,42.766,19.93,76.6a142.448,142.448,0,0,0,53.97,52.937q34.035,19.1,74.73,19.1h0Zm0-51.9q-26.145,0-46.29-11.833t-31.35-33.838q-11.205-22-11.2-51.067t11.2-50.861q11.22-21.8,31.35-33.422t46.29-11.625q26.16,0,46.09,11.625t31.14,33.422q11.205,21.8,11.2,50.861t-11.2,51.067q-11.22,22.013-31.14,33.838t-46.09,11.833h0Zm292.7-240.808h-101.3v289.8h101.3q45.66,0,80.34-17.853,34.65-17.847,53.55-50.445t18.89-76.187q0-43.595-18.89-76.6T2162.07,561q-34.68-17.845-80.34-17.853h0Zm-2.08,240.393h-41.1v-191.4h41.1q45.675,0,70.58,25.534t24.91,70.789q0,45.26-24.91,70.167t-70.58,24.911h0Zm366.6-193.477V542.729H2278.11V832.944h168.14V785.613H2336.23V708.8h97.57V662.718h-97.57V590.06h110.02ZM1307.02,909.677V888.923h1203v20.754h-1203Z"/>
  </g>
</svg>
