<svg width="170" height="196" viewBox="0 0 170 196" fill="none" xmlns="http://www.w3.org/2000/svg">
<path d="M66.1104 85.8588C70.9497 88.6687 71.496 92.8836 67.2812 95.3032L53.0755 103.499C50.89 104.748 47.846 105.294 44.7238 105.138C43.6311 105.034 42.5123 104.878 41.3675 104.67C39.6504 104.279 38.0894 103.655 36.6064 102.796L24.43 95.7716C24.352 95.6935 20.6834 93.9764 19.9029 89.3712C18.8882 81.3317 18.0297 68.9213 18.6541 61.4282C19.1225 54.6375 23.4153 47.5347 28.879 44.4125L30.9085 43.2417C36.4502 40.0415 41.7579 41.5246 43.7872 46.9102C46.0508 52.7642 48.3142 64.3161 49.3289 72.3556C50.1875 76.9608 53.778 78.756 53.856 78.756L66.1104 85.8588Z" fill="#0F83F5"/>
<path d="M54.8693 121.607C61.4258 125.432 61.4258 131.52 54.8693 135.345C48.3909 139.091 37.7756 139.091 31.2191 135.345C24.6626 131.52 24.6626 125.432 31.2191 121.607C34.029 120.046 37.6975 119.11 41.366 118.875V127.383C41.366 127.617 41.5222 127.852 41.8344 128.086C42.5369 128.476 43.6295 128.476 44.254 128.086C44.5662 127.852 44.7224 127.617 44.7224 127.383V118.875C48.4689 119.11 52.0594 120.046 54.8693 121.607Z" fill="white"/>
<path d="M44.7255 118.875V127.383C44.7255 127.617 44.5693 127.851 44.2571 128.085C43.6326 128.476 42.54 128.476 41.8375 128.085C41.5253 127.851 41.3691 127.617 41.3691 127.383V104.669C42.5139 104.878 43.6327 105.034 44.7255 105.138V118.875Z" fill="#C2C7CC"/>
<path fill-rule="evenodd" clip-rule="evenodd" d="M45.9703 106.309C45.554 106.309 45.1376 106.309 44.7213 106.309C43.4725 106.205 42.2756 106.022 41.1308 105.762C39.2575 105.372 37.5404 104.669 36.0574 103.811L23.803 96.7861C23.1786 96.3959 19.5882 94.3665 18.7296 89.5272C17.6368 81.1755 16.8564 68.843 17.4808 61.3499C18.0272 54.169 22.4762 46.754 28.3302 43.3977L30.3596 42.2269C33.4817 40.4316 36.7599 39.9633 39.4918 40.9C41.9895 41.7585 43.8627 43.7099 44.8774 46.4418C47.1409 52.3738 49.4045 63.8476 50.4972 72.1993C51.1216 75.8678 53.8535 77.4289 54.3999 77.7411C54.3999 77.7411 54.426 77.7411 54.478 77.7411L66.6544 84.844C69.6204 86.4831 71.2594 88.8247 71.2594 91.1663C71.2594 93.1957 70.0107 95.0689 67.8252 96.3178L53.6193 104.513C51.5899 105.684 48.9363 106.309 45.9703 106.309ZM41.5992 103.499C42.692 103.707 43.7588 103.863 44.7995 103.967C47.7655 104.123 50.5753 103.577 52.4485 102.484L66.6544 94.2884C67.6691 93.664 68.9178 92.6493 68.9178 91.1663C68.9178 89.6833 67.6691 88.1222 65.4836 86.8733L53.3072 79.7705C52.6047 79.4583 49.0142 77.3509 48.1556 72.5896C47.1409 64.316 44.8774 52.9982 42.6919 47.3003C41.9113 45.1929 40.5065 43.788 38.7113 43.0855C36.6038 42.383 34.0281 42.7733 31.5304 44.2563L29.501 45.4271C24.3494 48.3931 20.2907 55.1057 19.8224 61.506C19.198 68.843 19.9785 81.0194 20.9932 89.2149C21.6957 92.8834 24.4275 94.4445 24.9738 94.7567L37.2281 101.781C38.477 102.562 40.0381 103.108 41.5992 103.499Z" fill="#3A3A3A"/>
<path d="M43.0823 129.569C42.4578 129.569 41.7555 129.413 41.2872 129.1C40.5847 128.71 40.1943 128.086 40.1943 127.383V104.67C40.1943 103.967 40.7407 103.499 41.3651 103.499C41.9896 103.499 42.5359 103.967 42.5359 104.67V127.071C42.8481 127.227 43.3165 127.227 43.5507 127.071V105.138C43.5507 104.436 44.097 103.967 44.7215 103.967C45.4239 103.967 45.8923 104.436 45.8923 105.138V127.383C45.8923 128.086 45.502 128.71 44.8775 129.1C44.3312 129.413 43.7067 129.569 43.0823 129.569Z" fill="#3A3A3A"/>
<path d="M43.0831 139.325C38.556 139.325 34.029 138.31 30.6727 136.359C27.0823 134.252 25.1309 131.52 25.1309 128.476C25.1309 125.431 27.0823 122.7 30.6727 120.67C33.5607 118.953 37.2293 117.938 41.288 117.704C41.9905 117.626 42.5368 118.173 42.5368 118.797C42.6148 119.421 42.0685 119.968 41.4441 120.046C37.7756 120.28 34.3412 121.217 31.8435 122.622C29.0336 124.261 27.4725 126.368 27.4725 128.476C27.4725 130.661 29.0336 132.69 31.8435 134.33C38.0097 137.92 48.0786 137.92 54.3229 134.33C57.1328 132.69 58.6158 130.661 58.6158 128.476C58.6158 126.368 57.1328 124.261 54.3229 122.622C51.7471 121.217 48.3127 120.28 44.7223 120.046C44.0198 119.968 43.5515 119.421 43.5515 118.797C43.6296 118.173 44.176 117.626 44.8004 117.704C48.8592 117.938 52.6057 118.953 55.4937 120.592C59.0061 122.7 60.9574 125.431 60.9574 128.476C60.9574 131.52 59.0061 134.252 55.4937 136.359C52.0593 138.31 47.5321 139.325 43.0831 139.325Z" fill="#3A3A3A"/>
<path d="M100.298 157.2C100.298 158.449 98.3467 158.683 97.1759 158.683C94.7562 158.683 91.9464 158.136 90.2292 156.497C85.9363 152.282 81.4092 151.268 81.4092 148.224C81.4092 147.677 81.6434 146.897 81.8776 145.804C82.1898 145.882 86.6387 149.863 88.434 149.863C89.7609 149.863 90.8535 148.38 91.8682 147.443C94.7562 155.092 100.298 155.717 100.298 157.2Z" fill="#3A3A3A"/>
<path d="M91.8666 147.443C90.8519 148.38 89.7593 149.863 88.4324 149.863C86.6371 149.863 82.1882 145.882 81.876 145.804C82.1101 144.789 82.3442 143.462 82.3442 141.823C82.3442 141.667 82.1101 138.467 81.876 135.813C84.6859 136.906 87.2615 136.281 89.525 134.33C89.473 135.423 89.4471 136.49 89.4471 137.53C89.4471 138.701 89.9934 142.526 91.5545 146.506C91.6586 146.819 91.7626 147.131 91.8666 147.443Z" fill="#969A9E"/>
<path d="M81.8775 135.813C81.2531 135.605 80.6027 135.293 79.9262 134.876C80.8628 121.295 76.804 122.622 80.2383 106.621C80.3944 105.841 79.9262 105.06 79.1457 104.904C77.4285 104.592 75.7892 104.358 74.3062 104.201C75.2428 104.982 76.3356 106.153 77.2723 107.324C77.7406 108.416 78.5991 109.119 78.5991 112.085C78.5991 114.036 78.1309 115.909 77.3504 117.705C75.5552 121.217 73.2135 124.807 70.7938 128.476C68.2961 133.003 65.3302 137.608 63.6911 142.526C63.0146 142.786 62.3122 142.942 61.5837 142.994C60.569 143.15 59.6322 142.994 58.6956 142.682C57.3687 142.135 56.0418 141.199 55.0271 139.95C54.0124 138.779 53.232 137.374 52.9978 136.047C56.9785 131.754 58.2273 127.149 60.4908 121.139C63.1446 115.441 64.7839 113.88 65.4863 112.865C59.9446 113.724 29.3477 106.309 29.3477 88.8249C29.3477 86.3272 30.0501 83.8296 31.0648 81.3319C40.197 86.7956 51.6709 83.049 59.6324 76.3364C60.4129 78.9902 61.8178 80.3171 65.4082 82.8148C71.2622 85.8589 79.6139 90.4641 87.1071 94.6009C89.6828 96.0059 91.3218 98.6597 91.4779 101.626C91.9462 109.509 92.1804 111.382 91.0877 120.515C90.3852 124.729 90.0731 129.1 90.4634 133.393C90.1512 133.758 89.8388 134.07 89.5266 134.33C87.263 136.281 84.6874 136.906 81.8775 135.813Z" fill="#3A3A3A"/>
<path d="M62.0506 16.2353C63.1434 18.1085 62.7532 20.3721 61.114 21.777C61.114 21.4648 61.114 21.1526 61.114 20.8404C61.036 19.9818 60.4897 19.2794 59.6311 19.1232C52.216 17.7963 54.1673 27.7871 45.6595 26.2261C45.1911 26.148 44.7228 26.5383 44.8789 27.0847C45.0871 27.8132 45.3733 28.5156 45.7376 29.1921C46.0498 29.8165 46.2058 30.519 46.2058 31.2215C41.5226 34.4997 34.9662 31.2996 34.732 25.5236C32.4685 24.1967 31.5318 21.3868 32.5465 19.0452C30.439 16.4694 30.8294 12.6448 33.4051 10.5374C32.2343 6.47862 35.6687 2.4979 39.8836 3.12233C42.1471 0.546573 46.2058 0.468519 48.5474 3.12233C51.5134 1.01489 55.6503 3.27844 55.4161 7.02499C57.9919 6.94694 60.0212 9.05437 59.8651 11.5521C61.5823 12.4887 62.4409 14.362 62.0506 16.2353Z" fill="#3A3A3A"/>
<path d="M61.7414 51.2027C63.9269 56.7445 61.3511 59.3203 61.1169 59.8667C60.1022 61.5058 58.1508 66.7354 58.6972 71.5747C59.0094 73.6041 59.2437 75.087 59.634 76.3359C51.6725 83.0485 40.1986 86.7951 31.0664 81.3313C33.0958 76.1798 36.1399 71.0283 35.0472 65.6426C29.6615 48.2367 28.4126 39.9631 44.4915 36.2165C44.7517 35.5921 44.986 34.9677 45.1941 34.3433C46.9113 37.4654 51.8286 39.6509 54.0921 36.2946C55.341 36.5288 56.2776 36.4507 57.0582 35.9824C62.1316 39.1825 60.1803 47.222 61.7414 51.2027Z" fill="white"/>
<path d="M61.7402 51.2033C61.1158 49.6422 61.0377 47.5348 60.8816 45.2712C60.7255 49.1739 60.1011 52.9985 58.3839 56.589C55.652 62.0527 49.5639 63.8479 43.7099 64.3162C41.3683 70.8727 38.5583 77.9755 32.9385 82.3465C41.6804 86.3272 52.2178 82.6587 59.6328 76.3364C59.2426 75.0876 59.0083 73.6046 58.696 71.5752C58.1497 66.7359 60.1011 61.5063 61.1158 59.8672C61.3499 59.3208 63.9257 56.745 61.7402 51.2033Z" fill="#DAE0E5"/>
<path d="M59.397 159.229C59.4751 161.336 62.0508 163.6 61.2702 165.551C60.8019 166.644 59.5531 166.566 58.3823 166.098C53.2308 163.99 50.1867 157.902 48.0012 152.828C47.5329 151.892 47.611 150.799 48.3135 149.94C48.8339 149.212 49.4062 148.431 50.0307 147.599C51.2015 150.331 53.3089 154.077 54.5578 154.624C55.8847 155.17 55.9627 153.609 58.8507 153.297C58.9288 155.092 59.0848 157.199 59.397 159.229Z" fill="#3A3A3A"/>
<path d="M46.2071 31.2215C46.2071 30.519 46.0511 29.8165 45.7389 29.1921C45.3746 28.5156 45.0884 27.8132 44.8802 27.0847C44.7241 26.5383 45.1924 26.148 45.6608 26.226C54.1686 27.7871 52.2173 17.7963 59.6324 19.1232C60.491 19.2793 61.0373 19.9818 61.1153 20.8404C61.1153 21.1526 61.1153 21.4648 61.1153 21.777C61.1153 22.8697 61.0113 24.0405 60.8032 25.2894C60.0227 29.5043 59.6324 34.4997 57.0566 35.9827C56.2761 36.451 55.3394 36.5291 54.0906 36.2949C51.827 39.6512 46.9097 37.4657 45.1926 34.3436C45.4527 33.7192 45.7129 33.0687 45.9731 32.3923C46.0772 32.028 46.1551 31.6378 46.2071 31.2215Z" fill="#969A9E"/>
<path d="M58.6941 142.682C59.6307 142.994 60.5675 143.15 61.5822 142.994C60.6976 144.659 59.943 146.272 59.3185 147.833C59.0063 148.614 58.7723 150.721 58.8503 153.297C55.9624 153.609 55.8843 155.17 54.5574 154.624C53.3085 154.078 51.2011 150.331 50.0303 147.599C52.0597 144.711 54.167 141.511 55.0256 139.95C56.0403 141.199 57.3672 142.135 58.6941 142.682Z" fill="#969A9E"/>
<path d="M97.1777 159.853C95.3045 159.853 91.7141 159.541 89.4506 157.277C87.8114 155.716 86.1722 154.623 84.6892 153.687C82.3476 152.126 80.2402 150.721 80.2402 148.223C80.2402 147.677 80.3963 147.052 80.5524 146.35C80.6044 146.09 80.6825 145.829 80.7866 145.569C80.9427 144.633 81.1768 143.462 81.1768 141.823C81.1768 141.588 80.9428 138.544 80.7086 135.969C80.6306 135.344 81.0987 134.72 81.7232 134.642C82.3476 134.564 82.9722 135.032 83.0502 135.656V135.734C83.2844 138.232 83.5184 141.588 83.5184 141.823C83.5184 143.696 83.2844 145.101 83.0502 146.037C82.9462 146.35 82.8681 146.636 82.816 146.896C82.6599 147.442 82.5818 147.911 82.5818 148.223C82.5818 149.394 83.7526 150.252 86.0161 151.735C87.4991 152.672 89.2944 153.921 91.0116 155.638C92.2605 156.809 94.5239 157.511 97.1777 157.511C98.0363 157.511 98.5827 157.355 98.8949 157.277C98.6607 157.121 98.3485 156.887 98.1144 156.731C96.085 155.404 92.8068 153.296 90.7774 147.833C90.6734 147.52 90.5694 147.208 90.4653 146.896C88.8262 142.759 88.2798 138.779 88.2798 137.53C88.2798 136.515 88.2796 135.422 88.3577 134.251C88.4357 133.627 88.9041 133.159 89.6066 133.159C90.231 133.159 90.7773 133.705 90.6993 134.408C90.6212 135.5 90.6214 136.515 90.6214 137.53C90.6214 138.466 91.0896 142.135 92.6506 146.037C92.8067 146.428 92.8849 146.74 92.963 147.052C94.7582 151.735 97.49 153.531 99.3633 154.701C100.456 155.482 101.471 156.106 101.471 157.199C101.471 158.916 99.8316 159.853 97.1777 159.853Z" fill="#3A3A3A"/>
<path d="M59.9462 167.581C59.3998 167.581 58.6974 167.425 57.9949 167.112C52.4531 164.927 49.1748 158.604 46.9893 153.297C46.2868 152.048 46.4429 150.409 47.3796 149.238C47.9259 148.536 48.4724 147.755 49.0188 146.975C51.1262 144.009 53.1555 140.808 54.0141 139.403C54.4044 138.857 55.1069 138.623 55.6533 139.013C56.1997 139.325 56.3558 140.028 56.0436 140.574C55.185 142.057 53.0775 145.335 50.9701 148.301C50.3457 149.16 49.7993 149.941 49.253 150.643C48.8627 151.111 48.7847 151.814 49.0969 152.282C49.0969 152.334 49.0969 152.36 49.0969 152.36C51.1263 157.278 54.0923 163.054 58.8535 165.005C58.9316 165.005 60.0243 165.473 60.1804 165.083C60.4146 164.459 59.9463 163.522 59.3999 162.507C58.8535 161.492 58.3071 160.478 58.2291 159.385C57.8388 156.965 57.7608 154.78 57.6827 153.297C57.6827 152.282 57.6827 148.77 58.2291 147.443C58.8535 145.882 59.556 144.243 60.5707 142.447C60.8048 141.901 61.5854 141.667 62.1317 141.979C62.6781 142.291 62.9122 142.994 62.5999 143.618C61.6633 145.257 60.961 146.818 60.4146 148.301C60.1805 148.692 59.9463 150.409 60.0243 153.219C60.1024 154.624 60.1804 156.809 60.5707 159.073C60.5707 159.125 60.5707 159.151 60.5707 159.151C60.5707 159.775 61.0389 160.634 61.4291 161.414C62.2097 162.819 62.9904 164.38 62.3659 166.02C62.1318 166.41 61.5853 167.581 59.9462 167.581Z" fill="#3A3A3A"/>
<path fill-rule="evenodd" clip-rule="evenodd" d="M60.8829 144.243C59.9463 144.243 59.0618 144.06 58.2292 143.696C56.7462 143.15 55.3413 142.057 54.1705 140.73C52.9216 139.325 52.141 137.764 51.9068 136.203C51.8288 135.813 51.9069 135.501 52.141 135.188C55.3412 131.832 56.6681 128.164 58.3853 123.48C58.6975 122.544 59.4779 120.67 59.4779 120.592C61.039 117.236 62.288 115.285 63.1466 114.036C56.9023 113.568 43.7112 109.977 35.5156 102.952C30.5983 98.7375 28.1787 94.0543 28.1787 88.8247C28.1787 85.8587 29.1154 83.0488 29.974 80.9414C30.3903 79.9527 30.8064 78.938 31.2227 77.8973C33.0179 73.8385 34.6572 69.9359 33.8766 65.9552C30.7545 55.5741 28.725 47.7687 31.8472 42.3831C33.7205 39.0268 37.4671 36.6852 43.6333 35.2022C43.7894 34.7859 43.9454 34.3696 44.1015 33.9533L44.882 32.002C44.9341 31.7418 44.9861 31.4556 45.0381 31.1434C45.0381 30.6751 44.882 30.2068 44.6478 29.7384C44.2836 29.0099 43.9975 28.2294 43.7894 27.3968C43.5552 26.7724 43.7113 26.148 44.1796 25.6797C44.5699 25.2113 45.1942 24.9772 45.8186 25.0552C49.4871 25.7577 50.736 24.0406 52.2971 21.8551C53.702 19.8257 55.5753 17.2499 59.8682 18.0304C61.1951 18.2646 62.2099 19.3574 62.2879 20.7623C62.2879 21.0745 62.2879 21.4127 62.2879 21.777C62.2879 22.9218 62.1839 24.1707 61.9758 25.5236C61.8717 26.096 61.7675 26.7204 61.6635 27.3968C60.961 31.2995 60.3367 35.4363 57.6829 36.9974C56.7983 37.5177 55.7576 37.6999 54.5607 37.5438C53.6241 38.6365 52.219 39.1829 50.736 39.1829C48.9408 39.1049 46.9896 38.0902 45.5846 36.6852C45.4285 36.9974 45.1163 37.2316 44.8041 37.3096C38.9501 38.7146 35.5158 40.6659 33.8766 43.4758C31.2228 48.159 33.1741 55.496 36.1401 65.3307C36.1401 65.3828 36.1662 65.4088 36.2182 65.4088C37.1549 70.17 35.2034 74.541 33.3301 78.8339C32.9138 79.8226 32.5236 80.8113 32.1593 81.8C31.3007 83.8293 30.5203 86.327 30.5203 88.8247C30.5203 93.2738 32.7058 97.4886 36.9988 101.157C46.3652 109.197 62.0538 112.163 65.254 111.694C65.7223 111.616 66.1906 111.85 66.4248 112.163C66.737 112.553 66.737 113.099 66.4248 113.49C66.2687 113.698 66.0605 113.984 65.8003 114.348C65.0198 115.441 63.6149 117.314 61.5855 121.607C61.2213 122.492 60.883 123.376 60.5708 124.261C58.9317 128.788 57.4487 132.769 54.3265 136.359C54.5607 137.296 55.1071 138.31 55.8876 139.247C56.8243 140.262 57.9949 141.12 59.0877 141.589C59.8162 141.849 60.5967 141.927 61.4293 141.823C61.8976 141.823 62.366 141.745 62.8343 141.589C64.1612 137.842 66.1125 134.33 68.0638 130.973C68.6102 129.959 69.7811 127.851 69.7811 127.851C72.513 123.793 74.6203 120.436 76.3375 117.236C77.1181 115.363 77.4302 113.646 77.4302 112.085C77.4302 110.133 77.0399 109.431 76.6497 108.65C76.4936 108.442 76.3635 108.208 76.2594 107.948C75.4008 106.933 74.4642 105.918 73.5275 105.138C73.2153 104.826 72.9551 104.592 72.747 104.435C66.815 100.299 57.9949 95.3812 51.2824 92.5713C50.9701 92.4152 50.658 92.1811 50.58 91.8688C50.5019 91.4786 50.5799 91.1663 50.736 90.8541C51.2564 90.0736 51.7247 89.215 52.141 88.2784C52.3752 87.6539 53.0777 87.3417 53.7021 87.6539C54.2485 87.8881 54.5606 88.5906 54.2484 89.137C53.9882 89.7614 53.7022 90.3598 53.3899 90.9322C60.1025 93.8982 68.3762 98.5814 74.0741 102.484C74.3863 102.744 74.7243 103.03 75.0886 103.343C76.1033 104.201 77.2742 105.45 78.1328 106.621C78.2369 106.673 78.3149 106.751 78.367 106.855C78.419 107.063 78.523 107.271 78.6791 107.479C79.1474 108.338 79.7718 109.587 79.7718 112.085C79.7718 113.958 79.3816 115.987 78.4449 118.173C78.4449 118.173 78.4449 118.199 78.4449 118.251C76.7278 121.607 74.5423 124.963 71.8104 129.1C71.238 130.089 70.6657 131.078 70.0933 132.066C68.1419 135.579 66.1126 139.169 64.8637 142.916C64.7076 143.228 64.4735 143.54 64.0832 143.618C63.2506 143.93 62.444 144.112 61.6635 144.165C61.4033 144.217 61.1431 144.243 60.8829 144.243ZM46.5212 34.2655C47.5359 35.6705 49.2531 36.7633 50.8142 36.8413C51.8288 36.8413 52.5312 36.451 53.0776 35.5924C53.3898 35.2022 53.8582 34.968 54.3265 35.1241C55.2112 35.3323 55.9397 35.2802 56.5121 34.968C58.2292 33.9533 58.7755 30.2848 59.3219 27.0066C59.4259 26.3301 59.5301 25.6797 59.6342 25.0552C59.8423 23.9105 59.9463 22.8177 59.9463 21.777C59.9463 21.4648 59.9463 21.1786 59.9463 20.9184C59.9463 20.6062 59.7902 20.3721 59.4779 20.294C56.59 19.8257 55.5754 21.2307 54.1705 23.182C52.6875 25.3675 50.814 28.0213 46.2089 27.4749C46.365 27.8912 46.5473 28.2815 46.7554 28.6457C47.1457 29.5043 47.3797 30.3629 47.3797 31.2215C47.3277 31.7939 47.2237 32.3142 47.0676 32.7825L46.5212 34.2655Z" fill="#3A3A3A"/>
<path d="M84.5334 137.53C83.5447 137.53 82.5301 137.322 81.4894 136.906C80.7609 136.646 80.0324 136.281 79.3039 135.813C78.9136 135.657 78.6795 135.189 78.7575 134.798C79.1478 129.257 78.6793 126.369 78.211 123.481C77.5866 119.422 77.0404 115.909 79.1478 106.387C79.1478 106.283 79.1217 106.205 79.0697 106.153C79.0697 106.153 79.0177 106.127 78.9136 106.075C77.4306 105.762 75.8695 105.606 74.2304 105.372C73.5279 105.294 73.0595 104.748 73.1375 104.123C73.2156 103.499 73.762 103.031 74.3865 103.031C76.1817 103.265 77.8207 103.499 79.3818 103.811C80.0843 103.889 80.6307 104.279 81.021 104.904C81.4113 105.45 81.5674 106.153 81.4113 106.855C79.4599 115.987 79.9282 119.344 80.5526 123.168C80.9429 125.822 81.4113 128.866 81.0991 134.174C81.5154 134.434 81.9057 134.616 82.2699 134.72C84.6115 135.579 86.7188 135.189 88.7482 133.471C88.9563 133.315 89.1386 133.159 89.2947 133.003C88.9825 129.257 89.1385 125.042 89.919 120.28C90.9337 112.085 90.8558 109.899 90.4655 103.499L90.3093 101.704C90.1531 99.128 88.7483 96.8644 86.4847 95.6156C77.1183 90.386 69.7814 86.4053 64.864 83.9076C64.812 83.8556 64.76 83.8295 64.7079 83.8295C61.1175 81.2538 59.4002 79.7708 58.5416 76.6487C58.1514 75.3998 57.8391 73.8387 57.5269 71.7313C56.9025 66.2675 59.2441 60.7258 60.1027 59.2427C60.1547 59.1907 60.2067 59.0867 60.2588 58.9306C60.8051 58.2281 62.3662 56.0426 60.649 51.6716C60.1027 50.1106 59.9467 48.2373 59.7906 46.2079C59.5564 42.5394 59.2441 38.7928 56.4342 36.9195C55.8879 36.6073 55.7318 35.9048 56.1221 35.3585C56.4343 34.8121 57.1368 34.656 57.6832 34.9682C61.5078 37.4659 61.898 42.2271 62.1321 45.9737C62.2883 47.847 62.3662 49.6422 62.8346 50.813C64.3176 54.4815 64.0834 57.6817 62.2101 60.3355L62.1321 60.4135C61.1175 62.0527 59.3221 66.97 59.8685 71.4191C60.1807 73.4485 60.4149 74.8534 60.7272 76.0242C61.4296 78.2097 62.4444 79.3805 66.0348 81.8002C70.9522 84.3759 78.2111 88.3566 87.6555 93.5862C90.6215 95.2253 92.4947 98.1913 92.6509 101.548L92.8071 103.343C93.1193 109.743 93.2753 112.163 92.2606 120.593C91.4801 125.432 91.3241 129.569 91.6363 133.315C91.7144 133.628 91.5581 133.94 91.324 134.252C91.0118 134.564 90.6735 134.876 90.3093 135.189C88.514 136.75 86.5628 137.53 84.5334 137.53Z" fill="#3A3A3A"/>
<path d="M40.7459 85.1561C37.3116 85.1561 33.7992 84.2975 30.4429 82.3462C29.8966 82.034 29.7405 81.3315 30.0527 80.7851C30.3649 80.1607 31.1455 80.0045 31.6919 80.3168C40.9022 85.8585 52.1419 81.1754 58.8544 75.4775C59.4008 75.0092 60.1032 75.0872 60.4934 75.5555C60.9618 76.1019 60.8838 76.8044 60.4155 77.1946C55.4201 81.4876 48.161 85.1561 40.7459 85.1561Z" fill="#3A3A3A"/>
<path d="M55.0276 155.872C54.7674 155.872 54.4553 155.794 54.091 155.638C52.2177 154.936 49.8761 150.096 48.9394 148.067C48.6272 147.521 48.9396 146.818 49.486 146.584C50.1104 146.272 50.8129 146.506 51.047 147.13C52.6861 150.721 54.3253 153.219 54.9497 153.531C55.0538 153.531 55.1058 153.531 55.1058 153.531C55.1058 153.531 55.3398 153.375 55.4179 153.297C56.0423 152.906 56.979 152.282 58.7742 152.126C59.3986 152.048 59.9451 152.516 60.0231 153.14C60.1012 153.765 59.6328 154.389 59.0084 154.467C57.7596 154.545 57.2131 154.936 56.7448 155.248C56.2764 155.56 55.8082 155.872 55.0276 155.872Z" fill="#3A3A3A"/>
<path d="M88.4352 151.033C86.9522 151.033 84.6887 149.472 81.8788 147.209C81.6706 147.052 81.5144 146.948 81.4104 146.896C81.2022 146.792 81.0461 146.636 80.942 146.428C80.6298 146.038 80.6298 145.413 81.0201 145.023C81.3323 144.633 81.8787 144.555 82.347 144.711C82.5031 144.789 82.6592 144.867 83.2836 145.413C86.7179 148.067 87.9668 148.692 88.4352 148.692C88.9815 148.692 89.8401 147.833 90.3865 147.209C90.6467 147 90.8808 146.792 91.0889 146.584C91.5572 146.116 92.3378 146.194 92.7281 146.662C93.1964 147.131 93.1183 147.833 92.65 148.301C92.4939 148.457 92.3118 148.64 92.1036 148.848C91.167 149.784 89.9182 151.033 88.4352 151.033Z" fill="#3A3A3A"/>
<path d="M41.9945 33.719C40.7457 33.719 39.4187 33.4068 38.2479 32.7824C35.5941 31.4555 33.9551 29.0358 33.6429 26.1478C31.4574 24.5868 30.4426 21.7768 31.2231 19.2011C29.3499 16.3912 29.6621 12.5666 32.0818 10.1469C31.6915 8.03948 32.3158 5.93205 33.7208 4.29293C35.2038 2.65381 37.3113 1.79522 39.4187 1.95133C40.6676 0.702479 42.3848 0 44.18 0H44.258C45.8971 0 47.5363 0.624407 48.7851 1.6391C50.3462 0.93662 52.2196 1.01466 53.7806 1.87325C55.3417 2.73183 56.2783 4.21486 56.5125 5.93203C57.6052 6.08813 58.6978 6.63451 59.4784 7.49309C60.415 8.42973 60.9614 9.6786 61.0394 10.9275C62.6785 12.0983 63.5373 14.0496 63.3031 16.0789C64.3958 18.3425 63.8494 20.9963 61.8981 22.6354C61.4298 23.1038 60.6492 23.0257 60.2589 22.5574C59.8686 22.089 59.8688 21.3085 60.4152 20.9183C61.5079 19.9036 61.82 18.1864 61.0394 16.8595C60.8833 16.6253 60.8834 16.3131 60.8834 16.0789C61.1956 14.674 60.5711 13.2691 59.3223 12.6446C58.932 12.4105 58.6978 11.9421 58.6978 11.5519C58.7759 10.6152 58.4638 9.75667 57.8394 9.13224C57.2149 8.50781 56.3563 8.11754 55.4196 8.19559C55.1074 8.19559 54.7953 8.03948 54.5612 7.80532C54.327 7.57116 54.1708 7.25892 54.2488 6.94671C54.3269 5.69786 53.7026 4.52709 52.6098 3.90266C51.5951 3.27824 50.2682 3.3563 49.2535 4.05878C48.7852 4.37099 48.0827 4.29293 47.6924 3.90266C46.8339 2.88797 45.5849 2.3416 44.258 2.3416H44.18C42.8531 2.3416 41.6042 2.96602 40.7456 3.90266C40.5114 4.21488 40.1213 4.37098 39.731 4.29293C38.0919 4.05877 36.5308 4.60514 35.5161 5.85399C34.4233 7.02479 34.033 8.66389 34.5013 10.225C34.6574 10.6152 34.5013 11.1616 34.1111 11.3958C32.0817 13.1129 31.7695 16.235 33.4087 18.2644C33.7209 18.6547 33.7208 19.045 33.5647 19.4352C32.8622 21.3085 33.5648 23.494 35.36 24.5087C35.6722 24.6648 35.9063 25.0551 35.9063 25.4453C35.9844 27.7089 37.2333 29.6602 39.2627 30.6749C41.3701 31.6896 43.6336 31.5335 45.5069 30.2846C46.0533 29.8944 46.7558 29.9724 47.1461 30.5188C47.5364 31.0652 47.3802 31.7677 46.8338 32.1579C45.4288 33.1726 43.7117 33.719 41.9945 33.719Z" fill="#3A3A3A"/>
<path d="M153.217 139.793C153.217 139.585 153.217 139.377 153.217 139.169V80.3167C153.217 76.7262 151.11 72.6675 148.456 71.1845L103.653 45.2708C102.405 44.5683 101.312 44.4903 100.453 45.0366L105.449 42.1487C106.307 41.6803 107.4 41.6803 108.571 42.3828L153.451 68.2965C156.105 69.7795 158.213 73.9163 158.213 77.4287V136.359C158.213 138.232 157.588 139.637 156.574 140.184L151.656 142.993C152.515 142.447 153.139 141.354 153.217 139.793Z" fill="#C2C7CC"/>
<path d="M108.572 114.036L153.219 139.793C153.14 141.354 152.516 142.447 151.657 142.993L151.579 143.071C150.721 143.54 149.628 143.462 148.457 142.837L103.655 116.924C101.001 115.362 98.8154 111.304 98.8154 107.791V48.8611C98.8154 46.9098 99.5178 45.5829 100.454 45.0365C101.313 44.4902 102.406 44.5682 103.655 45.2707L103.811 45.3487C103.811 45.5829 103.811 45.817 103.811 45.9731V104.903C103.811 108.416 105.918 112.553 108.572 114.036Z" fill="white"/>
<path d="M151.654 144.164C151.264 144.164 150.874 144.008 150.639 143.618C150.327 143.072 150.483 142.369 151.03 142.057C151.576 141.667 151.966 140.808 152.044 139.715C152.044 138.935 152.044 80.8631 152.044 80.3167C152.044 77.1946 150.171 73.4481 147.908 72.1992L103.261 46.3635C102.637 46.0513 102.481 45.3489 102.793 44.8025C103.105 44.2561 103.808 44.022 104.432 44.3342L149.078 70.1698C152.044 71.887 154.386 76.336 154.386 80.3167C154.386 139.637 154.386 139.871 154.386 139.949C154.23 141.823 153.528 143.228 152.279 144.008C152.071 144.112 151.862 144.164 151.654 144.164Z" fill="#3A3A3A"/>
<path d="M150.407 144.555C149.575 144.555 148.742 144.321 147.91 143.852L103.029 117.939C99.9851 116.221 97.6436 111.694 97.6436 107.792V48.8614C97.6436 46.5979 98.5021 44.8026 99.907 44.0221C101.156 43.2416 102.639 43.3977 104.2 44.2563L104.434 44.4124C104.981 44.7246 105.137 45.4271 104.824 45.9734C104.434 46.5198 103.732 46.6759 103.185 46.3637L103.029 46.2857C102.483 45.9735 101.702 45.6613 101.078 46.0515C100.375 46.3637 99.9852 47.4565 99.9852 48.8614V107.792C99.9852 110.836 101.936 114.582 104.2 115.909L149.081 141.823C149.627 142.135 150.407 142.447 151.032 142.057C151.578 141.745 152.281 141.901 152.593 142.447C152.905 142.994 152.749 143.774 152.203 144.086C151.63 144.399 151.032 144.555 150.407 144.555Z" fill="#3A3A3A"/>
<path d="M151.58 144.242C151.19 144.242 150.8 144.008 150.566 143.618C150.253 143.071 150.487 142.369 151.034 142.057L155.951 139.169C156.654 138.778 157.044 137.764 157.044 136.359V77.4286C157.044 74.3065 155.093 70.638 152.829 69.311L108.027 43.3974C107.48 43.0851 106.7 42.7729 106.075 43.1632L101.08 46.0512C100.533 46.3634 99.8309 46.1292 99.4406 45.5828C99.1284 45.0365 99.3625 44.334 99.9089 44.0218L104.904 41.1338C106.075 40.4314 107.636 40.5094 109.197 41.368L154 67.2817C157.044 68.9989 159.385 73.4479 159.385 77.4286V136.359C159.385 138.622 158.527 140.418 157.122 141.198L152.205 144.086C151.996 144.19 151.788 144.242 151.58 144.242Z" fill="#3A3A3A"/>
<path d="M153.449 141.12C153.241 141.12 153.033 141.068 152.825 140.964L108.023 115.05C104.978 113.333 102.637 108.884 102.637 104.903V45.3485C102.637 44.7241 103.183 44.1777 103.808 44.1777C104.432 44.1777 104.978 44.7241 104.978 45.3485V104.903C104.978 108.025 106.93 111.694 109.193 113.021L153.996 138.934C154.542 139.247 154.776 139.949 154.464 140.495C154.23 140.886 153.84 141.12 153.449 141.12Z" fill="#3A3A3A"/>
<path d="M64.3139 191.152C64.3659 190.944 64.3918 190.736 64.3918 190.527V131.597C64.3918 128.085 62.2064 124.026 59.5525 122.465L14.7501 96.5514C13.5012 95.8489 12.4085 95.8488 11.6279 96.3172L16.5451 93.4292C17.4037 92.9609 18.4965 93.0389 19.6673 93.7414L64.5479 119.577C67.2017 121.138 69.3092 125.197 69.3092 128.709V187.639C69.3092 189.591 68.6847 190.918 67.67 191.542L62.7528 194.352C63.6114 193.806 64.2358 192.713 64.3139 191.152Z" fill="#C2C7CC"/>
<path d="M19.6688 165.394L64.3154 191.152C64.2373 192.713 63.6129 193.805 62.7543 194.352H62.6762C61.8956 194.82 60.8029 194.82 59.554 194.118L14.7516 168.204C12.0977 166.721 9.99023 162.584 9.99023 159.072V100.22C9.99023 98.2682 10.6147 96.8632 11.6294 96.3169C12.41 95.8485 13.5027 95.8486 14.7516 96.5511L14.9076 96.7071C14.9076 96.8632 14.9076 97.0974 14.9076 97.3316V156.262C14.9076 159.774 17.093 163.833 19.6688 165.394Z" fill="white"/>
<path d="M62.7532 195.523C62.3629 195.523 61.9725 195.289 61.8164 194.977C61.4261 194.43 61.5823 193.65 62.1287 193.337C62.7531 193.025 63.0654 192.167 63.1434 191.074C63.2215 190.215 63.2214 132.144 63.2214 131.597C63.2214 128.475 61.2701 124.807 59.0066 123.48L14.3602 97.7222C13.8138 97.41 13.5796 96.6295 13.8918 96.0831C14.204 95.5367 14.9846 95.3806 15.531 95.6928L60.1774 121.45C63.1434 123.168 65.563 127.617 65.563 131.597C65.563 190.996 65.485 191.152 65.485 191.23C65.3289 193.103 64.6263 194.586 63.3775 195.367C63.1693 195.471 62.9613 195.523 62.7532 195.523Z" fill="#3A3A3A"/>
<path d="M61.5053 195.835C60.6727 195.835 59.8402 195.601 59.0076 195.133L14.127 169.219C11.161 167.502 8.81934 163.053 8.81934 159.072V100.22C8.81934 97.8783 9.59991 96.1611 11.0049 95.3025C12.2537 94.6001 13.8148 94.6781 15.2978 95.5367L15.532 95.6928C16.0784 96.005 16.2345 96.7856 15.9223 97.332C15.61 97.8783 14.8294 98.0344 14.2831 97.7222L14.127 97.5661C13.5806 97.2539 12.8001 96.9417 12.1757 97.332C11.5512 97.7222 11.1609 98.8149 11.1609 100.22V159.072C11.1609 162.194 13.0342 165.863 15.2978 167.19L60.1784 193.103C60.7248 193.415 61.5053 193.728 62.1297 193.337C62.6761 193.025 63.3786 193.259 63.6908 193.806C64.0811 194.352 63.8469 195.055 63.3005 195.367C62.7281 195.679 62.1297 195.835 61.5053 195.835Z" fill="#3A3A3A"/>
<path d="M62.6776 195.523C62.2874 195.523 61.8971 195.367 61.6629 194.977C61.3507 194.43 61.5849 193.65 62.1313 193.337L67.1266 190.527C67.751 190.137 68.1413 189.044 68.1413 187.64V128.709C68.1413 125.665 66.2682 121.919 63.9266 120.592L19.1239 94.7561C18.5775 94.3659 17.797 94.1317 17.1726 94.444L12.1772 97.3319C11.6308 97.6442 10.9284 97.488 10.6162 96.9417C10.3039 96.3172 10.46 95.6147 11.0064 95.3025L16.0018 92.4145C17.2506 91.7121 18.7336 91.7901 20.2947 92.7268L65.0974 118.562C68.1414 120.358 70.4829 124.807 70.4829 128.709V187.64C70.4829 189.903 69.7024 191.698 68.2974 192.557L63.3021 195.367C63.0939 195.471 62.8858 195.523 62.6776 195.523Z" fill="#3A3A3A"/>
<path d="M64.3168 192.323C64.1087 192.323 63.9264 192.271 63.7703 192.167L19.1239 166.409C16.0798 164.614 13.7383 160.165 13.7383 156.262V96.7074C13.7383 96.0049 14.2847 95.5366 14.9091 95.5366C15.6116 95.5366 16.0799 96.0049 16.0799 96.7074V156.262C16.0799 159.306 18.0311 163.053 20.2947 164.38L64.9411 190.137C65.4875 190.449 65.6436 191.152 65.3314 191.698C65.1753 192.088 64.7851 192.323 64.3168 192.323Z" fill="#3A3A3A"/>
<path d="M168.829 70.5601V74.6188L61.8965 136.359V132.3L168.829 70.5601Z" fill="#969A9E"/>
<path d="M168.828 70.5603L61.8954 132.3L1.16992 97.2545L108.103 35.5144L168.828 70.5603Z" fill="white"/>
<path d="M122.466 56.9791C123.09 56.4327 123.324 55.7303 123.246 55.0278C123.168 53.7009 121.919 52.6862 120.592 52.7642L111.226 53.0765C110.055 55.6522 108.728 58.1499 107.636 60.5696L115.753 60.1013C117.002 60.0232 118.173 59.789 119.187 59.2426C120.436 58.6963 121.529 57.9158 122.466 56.9791Z" fill="#DAE0E5"/>
<path d="M156.805 70.7162C160.396 72.5895 164.611 72.0431 168.513 70.404L154.542 62.3645C152.59 65.0964 153.761 69.1551 156.805 70.7162Z" fill="#DAE0E5"/>
<path d="M106.153 84.2977L77.1953 101.313L99.8308 98.5034L128.867 82.5024L106.153 84.2977Z" fill="#DAE0E5"/>
<path d="M61.8954 132.301V136.359L1.16992 101.313V97.2546L61.8954 132.301Z" fill="#C2C7CC"/>
<path fill-rule="evenodd" clip-rule="evenodd" d="M61.8963 133.471C61.6881 133.471 61.4799 133.419 61.2718 133.315L0.54643 98.2693C0.156164 98.0351 0 97.6449 0 97.2546C0 96.7863 0.156164 96.396 0.54643 96.2399L107.479 34.4998C107.87 34.2657 108.26 34.2657 108.65 34.4998L169.376 69.5457C169.766 69.7799 170 70.1701 170 70.5604C170 70.9507 169.766 71.341 169.376 71.5751L62.4426 133.315C62.2865 133.419 62.1044 133.471 61.8963 133.471ZM3.5124 97.2546L61.8963 130.974L166.488 70.5604L108.104 36.8414L3.5124 97.2546Z" fill="#3A3A3A"/>
<path d="M61.8974 137.53C61.1949 137.53 60.7266 136.984 60.7266 136.359V132.3C60.7266 131.676 61.1949 131.13 61.8974 131.13C62.5218 131.13 63.0682 131.676 63.0682 132.3V136.359C63.0682 136.984 62.5218 137.53 61.8974 137.53Z" fill="#3A3A3A"/>
<path d="M61.8963 137.53C61.6881 137.53 61.4799 137.478 61.2718 137.374L0.54643 102.328C0.156164 102.094 0 101.703 0 101.313V97.2544C0 96.5519 0.468319 96.0836 1.1708 96.0836C1.79522 96.0836 2.3416 96.5519 2.3416 97.2544V100.611L61.8963 135.032L167.658 73.9165V70.5602C167.658 69.9358 168.127 69.3894 168.829 69.3894C169.454 69.3894 170 69.9358 170 70.5602V74.619C170 75.0092 169.766 75.3995 169.376 75.6337L62.4426 137.374C62.2865 137.478 62.1044 137.53 61.8963 137.53Z" fill="#3A3A3A"/>
<path d="M71.028 56.9015C72.0427 59.3211 72.0428 64.7849 68.5304 64.7849H68.4522C66.1106 64.7849 63.3788 62.9896 62.5982 58.0723L60.1787 46.6765H60.2566C62.208 46.8326 65.0961 46.4424 65.4864 44.0227L71.028 56.9015Z" fill="white"/>
<path d="M59.6348 44.1786C59.5568 44.6469 59.1665 45.0372 58.6201 45.1153C57.9957 45.1933 57.4492 45.0372 56.9809 44.725L55.1077 43.3981C54.2491 42.8517 53.7028 41.837 53.7808 40.7443V39.4954C53.8589 38.5588 54.2491 37.7002 54.8735 37.1538L56.2004 35.8269C56.9809 35.1244 58.0737 34.9683 59.0104 35.4366L60.5714 36.2953C61.8983 36.9977 62.991 38.0905 63.6154 39.4954L65.4888 44.0225C65.0986 46.4421 62.2104 46.8324 60.2591 46.6763H60.1812L59.6348 44.1786Z" fill="#969A9E"/>
<path fill-rule="evenodd" clip-rule="evenodd" d="M68.5351 65.9555C65.7252 65.9555 62.3689 63.9261 61.5103 58.2282L58.9345 46.2081C58.8825 46.2601 58.8305 46.2861 58.7785 46.2861C57.9199 46.3642 56.9833 46.13 56.2808 45.6617L54.4855 44.4128C53.2367 43.5542 52.5343 42.1493 52.6123 40.7443V39.4174C52.6904 38.2466 53.1585 37.0758 54.0171 36.2953L55.4221 34.9684C56.5149 33.8756 58.2321 33.6415 59.559 34.422L61.1201 35.2025C62.6811 36.0611 63.93 37.388 64.7106 39.0272L72.0475 56.433C72.828 58.2283 73.2964 61.8968 71.7354 64.2384C71.0329 65.4092 69.862 65.9555 68.5351 65.9555ZM60.8079 44.1787L63.7738 57.838C64.4763 62.1309 66.6618 63.6139 68.457 63.6139C69.0814 63.6139 69.4718 63.4578 69.784 62.9114C70.6426 61.6626 70.5645 58.8527 69.9401 57.2916L62.5251 39.9638C62.0567 38.8711 61.1201 37.8564 60.0274 37.31L58.4663 36.4514C57.998 36.2173 57.3735 36.2953 56.9832 36.6856L55.6563 37.9344C55.2661 38.4027 55.032 38.9491 54.9539 39.4955V40.8224C54.8759 41.4468 55.266 42.0712 55.8124 42.4615L57.6077 43.7104C57.9199 43.8665 58.1541 43.9445 58.4663 43.9445L58.5443 43.8665L58.2321 42.6957C58.1541 42.3054 58.3102 41.8371 58.6224 41.6029L60.1835 40.198C60.4957 39.8858 60.964 39.8077 61.3543 39.9638C61.8226 40.1199 62.0567 40.5882 62.1348 40.9785C62.1348 41.0566 62.2129 42.1493 63.1495 42.6957C63.6959 43.0079 63.852 43.7104 63.5398 44.2567C63.2276 44.8031 62.5251 45.0373 61.9787 44.725C61.5104 44.4649 61.146 44.1526 60.8859 43.7884C60.8859 43.8925 60.86 44.0226 60.8079 44.1787Z" fill="#3A3A3A"/>
<path d="M60.9668 47.9252C60.7066 47.9252 60.4464 47.8992 60.1863 47.8471C59.5618 47.8471 59.0153 47.3008 59.0934 46.5983C59.0934 45.9739 59.6398 45.5055 60.3423 45.5055C61.2009 45.5836 64.0108 45.6616 64.4011 43.7883C64.4791 43.1639 65.1035 42.7736 65.7279 42.8517C66.3523 42.9297 66.8208 43.5542 66.6647 44.1786C66.2744 46.5202 64.167 47.9252 60.9668 47.9252Z" fill="#3A3A3A"/>
<path d="M112.322 66.3456L105.453 84.3759C105.453 84.6101 105.219 85.0003 104.984 85.1565L77.9 100.845C77.5878 100.923 77.4316 100.845 77.4316 100.533L84.3004 82.5027C84.3004 82.1905 84.5346 81.8002 84.7688 81.7221L111.931 66.0334C112.165 65.8773 112.322 66.0334 112.322 66.3456Z" fill="#DAE0E5"/>
<path d="M91.4822 77.8193L87.5796 80.0828L85.004 78.5998L65.1783 89.9956L75.2473 95.7715L80.3987 92.8835L77.4327 100.533C77.4327 100.845 77.5888 100.923 77.9011 100.845L76.9645 101.313C76.7303 101.469 76.2619 101.469 75.9497 101.313L57.5291 90.62C57.2169 90.4639 57.217 90.2297 57.4511 90.0736L84.5356 74.3849C84.7697 74.2288 85.2381 74.3068 85.5503 74.4629L91.4822 77.8193Z" fill="white"/>
<path d="M87.577 80.0828L84.7672 81.722C84.5331 81.8 84.2988 82.1903 84.2988 82.5025L80.3962 92.8836L75.2448 95.7716L65.1758 89.9956L85.0014 78.5999L87.577 80.0828Z" fill="#C2C7CC"/>
<path fill-rule="evenodd" clip-rule="evenodd" d="M76.4948 102.64C76.1046 102.64 75.7144 102.484 75.4022 102.328L56.9036 91.6349C56.3572 91.3227 56.123 90.8544 56.123 90.3081C56.123 89.7617 56.3571 89.2933 56.8254 89.0592L83.988 73.3705C84.6124 73.0583 85.471 73.0583 86.0954 73.4485L92.0275 76.8048C92.5739 77.1951 92.808 77.8976 92.4957 78.444C92.1055 78.9903 91.4031 79.2245 90.8567 78.8342L85.0027 75.4779L59.3231 90.3081L76.4948 100.221L77.2754 99.8305C77.8217 99.4402 78.5243 99.6744 78.9146 100.221C79.2268 100.767 78.9925 101.47 78.4462 101.86L77.5877 102.328C77.2755 102.484 76.8851 102.64 76.4948 102.64Z" fill="#3A3A3A"/>
<path d="M75.2447 96.9425C75.0365 96.9425 74.8283 96.8905 74.6202 96.7864L64.6293 91.0105C64.2391 90.7763 64.0049 90.386 64.0049 89.9958C64.0049 89.6055 64.2391 89.2153 64.6293 88.9811L84.3769 77.5853C84.7671 77.3511 85.2354 77.3511 85.5477 77.5853L88.2014 79.0683C88.7478 79.3805 88.9039 80.083 88.5917 80.6294C88.2794 81.2538 87.577 81.4099 87.0306 81.0977L85.0013 79.9269L67.5173 89.9958L75.2447 94.4448L79.7716 91.8691C80.318 91.4788 81.0205 91.713 81.4108 92.2593C81.723 92.8057 81.4888 93.5082 80.9424 93.8984L75.791 96.7864C75.6349 96.8905 75.4528 96.9425 75.2447 96.9425Z" fill="#3A3A3A"/>
<path fill-rule="evenodd" clip-rule="evenodd" d="M77.6657 102.016C77.4056 102.016 77.1715 101.964 76.9633 101.86C76.495 101.548 76.2607 101.079 76.2607 100.533C76.2607 100.377 76.2868 100.247 76.3389 100.143L83.2076 82.1904C83.2856 81.566 83.676 81.0196 84.2223 80.7074L111.307 65.0187C111.775 64.7845 112.321 64.7065 112.79 65.0187C113.258 65.2528 113.492 65.7212 113.492 66.3456C113.492 66.4497 113.466 66.5797 113.414 66.7358L106.624 84.61C106.546 85.2344 106.155 85.8589 105.531 86.1711L78.4463 101.86C78.1861 101.964 77.9259 102.016 77.6657 102.016ZM85.4711 82.6587C85.4711 82.7628 85.4452 82.8408 85.3931 82.8929L79.461 98.5816L104.282 84.2198C104.282 84.1157 104.308 84.0116 104.36 83.9076L110.37 68.2969L85.4711 82.6587Z" fill="#3A3A3A"/>
<path d="M62.2915 77.8977C56.9059 75.6341 53.4716 74.3072 49.1006 72.7462C47.3834 72.1217 46.0565 70.7167 45.5882 68.9996C43.793 63.3017 42.5441 58.8526 41.2172 53.3889L32.085 54.5597C33.1777 60.1015 35.5193 67.0483 38.1732 75.7122C38.8756 78.1318 40.905 80.0051 43.4027 80.4734C49.1786 81.7223 53.9398 82.2687 59.3255 83.2833C60.106 83.4395 60.9126 83.5695 61.7452 83.6736C61.7452 81.7223 62.0574 79.849 62.916 78.1318C62.7078 78.0277 62.4997 77.9497 62.2915 77.8977Z" fill="white"/>
<path d="M76.341 83.2831L72.8286 81.1757C71.0334 80.0829 69.1601 79.3805 67.1307 78.9902L64.1647 78.4438C63.7484 78.3398 63.3322 78.2357 62.9159 78.1316C62.0573 79.8488 61.7451 81.7221 61.7451 83.6734C62.3695 83.7775 62.9939 83.8555 63.6183 83.9076L67.3649 84.2978C68.1975 84.4019 68.978 84.636 69.7065 85.0003L71.97 86.1711C73.0627 86.7955 74.4678 86.7174 75.5605 85.9369L76.4192 85.3905C76.7314 85.1564 76.9655 84.7661 76.9655 84.2978C76.9655 83.9076 76.7313 83.5173 76.341 83.2831Z" fill="#969A9E"/>
<path d="M73.6103 87.7322C72.8297 87.7322 72.1272 87.5762 71.4247 87.1859L69.1613 86.0931C68.5889 85.7809 67.9643 85.5728 67.2879 85.4687L63.4633 85.0785C61.9803 84.9224 60.4972 84.7663 59.0923 84.454C56.6726 83.9857 54.4091 83.5954 52.0675 83.2052C49.2576 82.7368 46.3697 82.2685 43.1695 81.6441C40.2815 81.0197 37.94 78.9122 37.0034 76.0243C36.431 74.0989 35.8584 72.2517 35.286 70.4825C33.4128 64.3943 31.7738 59.1648 30.9152 54.7938C30.8371 54.1694 31.2273 53.5449 31.8518 53.3888C32.4762 53.3108 33.1007 53.701 33.2568 54.3255C34.0373 58.6184 35.6764 63.7699 37.5497 69.78C38.1221 71.5492 38.6944 73.3965 39.2668 75.3218C39.8913 77.3512 41.6085 78.9122 43.6379 79.3025C46.76 80.005 49.6478 80.4733 52.4578 80.9416C54.7213 81.2539 57.063 81.6441 59.5607 82.1905C60.8876 82.4246 62.2926 82.6588 63.6975 82.8149L67.5221 83.1271C68.4587 83.2312 69.3693 83.5174 70.2539 83.9857L72.5176 85.1565C73.2981 85.5468 74.1567 85.4687 74.8592 85.0004L75.7177 84.454V84.2979L72.2053 82.1124C70.5661 81.1758 68.7709 80.4733 66.8976 80.1611L63.9317 79.6147C63.2032 79.4586 62.5006 79.2244 61.8241 78.9122C56.2043 76.5706 52.7701 75.3218 48.7113 73.8388C46.682 73.1363 45.0428 71.4191 44.4184 69.3897C42.8574 64.1602 41.5304 59.5551 40.1255 53.623C39.9694 52.9986 40.3595 52.3741 40.984 52.218C41.6084 52.0619 42.2329 52.4522 42.389 53.0766C43.7939 58.9306 45.1208 63.5358 46.6819 68.6873C47.0722 70.0922 48.165 71.185 49.4919 71.6533C53.6287 73.0583 57.063 74.3851 62.7609 76.8048C63.2813 77.0129 63.8275 77.1691 64.3999 77.2731L67.366 77.8195C69.4734 78.2098 71.5809 78.9903 73.4542 80.1611L76.9666 82.2685C77.6691 82.7368 78.1374 83.4393 78.1374 84.2979C78.1374 85.1565 77.747 85.937 77.0445 86.3273L76.1861 86.9517C75.4055 87.4981 74.4688 87.7322 73.6103 87.7322Z" fill="#3A3A3A"/>
<path d="M61.9808 84.9224C61.4344 84.9224 60.8881 84.5321 60.81 83.9858C60.3417 81.7222 60.9661 79.1465 62.3711 77.4293C62.8394 76.961 63.5418 76.8829 64.0882 77.3512C64.5565 77.7415 64.6345 78.5221 64.1661 78.9904C63.0734 80.3173 62.8393 82.1906 63.0735 83.5175C63.2296 84.1419 62.8392 84.7663 62.2148 84.9224C62.1107 84.9224 62.0328 84.9224 61.9808 84.9224Z" fill="#3A3A3A"/>
<path d="M113.021 48.0813V57.2135C113.021 57.9941 112.474 58.7746 111.46 59.321C110.445 59.9454 109.118 60.1796 107.791 60.1796C106.464 60.1796 105.137 59.9454 104.123 59.321C103.186 58.7746 102.64 57.9941 102.64 57.2135V48.0813C102.64 48.4455 102.744 48.8098 102.952 49.1741C103.212 49.5383 103.602 49.8765 104.123 50.1887C105.137 50.8132 106.464 51.1254 107.791 51.1254C109.118 51.1254 110.445 50.8132 111.46 50.1887C112.032 49.8765 112.422 49.5383 112.631 49.1741C112.891 48.8098 113.021 48.4455 113.021 48.0813Z" fill="#0F83F5"/>
<path d="M113.021 48.0812C113.021 48.4455 112.891 48.8098 112.631 49.174C112.422 48.8098 112.032 48.4715 111.46 48.1593C110.445 47.5349 109.118 47.2227 107.791 47.2227C106.464 47.2227 105.137 47.5349 104.123 48.1593C103.602 48.4715 103.212 48.8098 102.952 49.174C102.744 48.8098 102.64 48.4455 102.64 48.0812C102.64 47.3788 103.186 46.5982 104.123 45.9738C105.137 45.4274 106.464 45.1152 107.791 45.1152C109.118 45.1152 110.445 45.4274 111.46 45.9738C112.474 46.5982 113.021 47.3788 113.021 48.0812Z" fill="white"/>
<path d="M111.464 48.1593C112.036 48.4715 112.426 48.8097 112.635 49.174C112.426 49.5382 112.036 49.8765 111.464 50.1887C110.449 50.8131 109.122 51.1253 107.795 51.1253C106.468 51.1253 105.142 50.8131 104.127 50.1887C103.606 49.8765 103.216 49.5382 102.956 49.174C103.216 48.8097 103.606 48.4715 104.127 48.1593C105.142 47.5349 106.468 47.2227 107.795 47.2227C109.122 47.2227 110.449 47.5349 111.464 48.1593Z" fill="#3A3A3A"/>
<path fill-rule="evenodd" clip-rule="evenodd" d="M107.787 52.296C106.226 52.296 104.743 51.9058 103.572 51.2033C102.896 50.839 102.375 50.3707 102.011 49.7983C101.621 49.252 101.465 48.7056 101.465 48.0811C101.465 46.9103 102.245 45.7396 103.572 44.959C104.743 44.3346 106.226 43.9443 107.787 43.9443C109.426 43.9443 110.909 44.3346 112.08 44.959C113.407 45.7396 114.188 46.9103 114.188 48.0811C114.188 48.7056 113.953 49.33 113.641 49.7983C113.277 50.3707 112.757 50.839 112.08 51.2033C110.909 51.9058 109.426 52.296 107.787 52.296ZM107.787 46.2859C106.616 46.2859 105.524 46.5201 104.743 46.9884C104.119 47.3787 103.806 47.7689 103.806 48.0811C103.806 48.2373 103.858 48.3934 103.963 48.5495C104.119 48.7576 104.379 48.9658 104.743 49.1739C105.524 49.6422 106.616 49.9544 107.787 49.9544C108.958 49.9544 110.129 49.6422 110.909 49.1739C111.274 48.9658 111.534 48.7576 111.69 48.5495C111.794 48.3934 111.846 48.2373 111.846 48.0811C111.846 47.7689 111.456 47.3787 110.909 46.9884C110.129 46.5201 108.958 46.2859 107.787 46.2859Z" fill="#3A3A3A"/>
<path d="M112.626 50.3449C112.314 50.3449 111.924 50.1888 111.689 49.7985C111.533 49.5904 111.273 49.3823 110.909 49.1741C110.128 48.7058 108.958 48.3936 107.787 48.3936C106.616 48.3936 105.523 48.7058 104.743 49.1741C104.378 49.3823 104.118 49.5904 103.962 49.7985C103.572 50.3449 102.869 50.501 102.323 50.1888C101.777 49.7985 101.62 49.0961 102.011 48.5497C102.375 47.9773 102.895 47.509 103.572 47.1447C104.743 46.4422 106.226 46.052 107.787 46.052C109.426 46.052 110.909 46.4422 112.08 47.1447C112.756 47.509 113.276 47.9773 113.641 48.5497C113.953 49.0961 113.875 49.7985 113.328 50.1888C113.12 50.2929 112.886 50.3449 112.626 50.3449Z" fill="#3A3A3A"/>
<path d="M107.787 61.3502C106.226 61.3502 104.743 61.038 103.572 60.3356C102.245 59.555 101.465 58.4623 101.465 57.2134V48.0812C101.465 47.4568 102.011 46.9104 102.636 46.9104C103.26 46.9104 103.806 47.4568 103.806 48.0812V57.2134C103.806 57.5257 104.119 57.994 104.743 58.3062C105.524 58.7745 106.616 59.0087 107.787 59.0087C108.958 59.0087 110.129 58.7745 110.909 58.3062C111.456 57.994 111.846 57.5257 111.846 57.2134V48.0812C111.846 47.4568 112.314 46.9104 113.017 46.9104C113.641 46.9104 114.188 47.4568 114.188 48.0812V57.2134C114.188 58.4623 113.407 59.555 112.08 60.3356C110.909 61.038 109.426 61.3502 107.787 61.3502Z" fill="#3A3A3A"/>
</svg>
