<svg width="100" height="100" viewBox="0 0 100 100" fill="none" xmlns="http://www.w3.org/2000/svg">
<path d="M90.4209 19.1052C89.6314 17.0263 87.7366 14.1052 85.0524 12.0263C83.4735 10.8421 81.684 9.68419 79.1577 8.94735C76.4208 8.15787 73.0524 7.89471 68.9472 7.89471H31.0524C26.9208 7.89471 23.5787 8.15787 20.8682 8.97366C18.3419 9.73682 16.4735 10.8684 14.9472 12.0526C12.263 14.1052 10.3682 17.0526 9.55243 19.1316C7.92085 23.3158 7.89453 28.0526 7.89453 31.0526V68.9473C7.89453 71.9473 7.92085 76.6842 9.55243 80.8947C10.3682 82.9737 12.263 85.8947 14.9472 87.9737C16.4998 89.1579 18.3419 90.3158 20.8682 91.0526C23.5787 91.8421 26.9208 92.1052 31.0524 92.1052H68.9472C73.0787 92.1052 76.4209 91.8421 79.1314 91.0263C81.6577 90.2631 83.5261 89.1316 85.0524 87.9473C87.7366 85.8947 89.6314 82.9473 90.4472 80.8684C92.1051 76.6842 92.1051 71.921 92.1051 68.921V31.0263C92.1051 28.0263 92.0788 23.2895 90.4472 19.0789L90.4209 19.1052ZM24.5787 65.7895H21.4472V47.0789H24.5787V65.7895ZM23.0261 43.921C21.9735 43.921 21.0787 43.0526 21.0787 41.9737C21.0787 40.8947 21.9472 40.0263 23.0261 40.0263C24.1051 40.0263 24.9998 40.8947 24.9998 41.9737C24.9735 43.0526 24.1051 43.921 23.0261 43.921ZM41.8419 66.2631C33.5787 66.2631 28.3682 60.3684 28.3682 50.9737C28.3682 41.5789 33.5787 35.6579 41.8419 35.6579C50.1051 35.6579 55.3156 41.5789 55.3156 50.9737C55.3156 60.3684 50.1051 66.2631 41.8419 66.2631ZM69.1051 66.2631C62.8945 66.2631 58.5261 62.8421 58.2366 57.7368H61.0524C61.3682 61.2895 64.7103 63.7105 69.3682 63.7105C73.8156 63.7105 76.9998 61.2895 76.9998 57.9473C76.9998 55.1842 75.0787 53.5263 70.684 52.421L66.9998 51.4737C61.4998 50.0789 59.0524 47.7631 59.0524 43.8421C59.0524 39.0526 63.3682 35.6316 69.2103 35.6316C74.9998 35.6316 79.2103 39.0526 79.3945 43.7631H76.5787C76.3156 40.421 73.3419 38.1842 69.1314 38.1842C65.0261 38.1842 61.9735 40.4737 61.9735 43.7368C61.9735 46.2895 63.8156 47.7895 68.184 48.8947L71.3945 49.7105C77.3682 51.2105 79.8682 53.5 79.8682 57.6316C79.8682 62.8421 75.684 66.2631 69.1051 66.2631ZM52.4472 50.9737C52.4472 58.7368 48.3419 63.6579 41.8419 63.6579C35.3419 63.6579 31.263 58.7368 31.263 50.9737C31.263 43.1842 35.3419 38.2631 41.8419 38.2631C48.3419 38.2631 52.4472 43.1842 52.4472 50.9737Z" fill="#AEAEAE"/>
</svg>
