<svg width="40" height="40" viewBox="0 0 40 40" fill="none" xmlns="http://www.w3.org/2000/svg">
<g clip-path="url(#clip0_5053_975)">
<path fill-rule="evenodd" clip-rule="evenodd" d="M0 0H40V40H0V0Z" fill="white"/>
<path fill-rule="evenodd" clip-rule="evenodd" d="M16.6789 21.1107C16.6789 21.1107 15.7235 21.6666 17.3595 21.8544C19.3421 22.0808 20.3548 22.0482 22.5389 21.6351C22.5389 21.6351 23.1139 21.9951 23.9166 22.3066C19.019 24.4052 12.8326 22.1852 16.6789 21.1107ZM16.0802 18.3721C16.0802 18.3721 15.0084 19.1654 16.6459 19.3347C18.7638 19.5535 20.4355 19.5713 23.3302 19.0143C23.3302 19.0143 23.7299 19.42 24.3588 19.6417C18.4382 21.3734 11.8442 19.778 16.0802 18.3721Z" fill="#3174B9"/>
<path fill-rule="evenodd" clip-rule="evenodd" d="M21.1242 13.7259C22.3315 15.1157 20.8077 16.3655 20.8077 16.3655C20.8077 16.3655 23.8719 14.7841 22.4645 12.8029C21.1505 10.9562 20.1426 10.0388 25.5984 6.875C25.5984 6.875 17.0342 9.01304 21.1242 13.7259Z" fill="#CA3132"/>
<path fill-rule="evenodd" clip-rule="evenodd" d="M27.601 23.1363C27.601 23.1363 28.3082 23.7194 26.822 24.1704C23.9958 25.0264 15.0571 25.2845 12.5741 24.2044C11.6822 23.8159 13.3556 23.2774 13.8821 23.1637C14.4312 23.045 14.7446 23.0666 14.7446 23.0666C13.752 22.3677 8.32898 24.4393 11.9904 25.0337C21.9744 26.6525 30.1904 24.3049 27.601 23.1363ZM17.1374 15.5342C17.1374 15.5342 12.5912 16.6143 15.5277 17.0069C16.768 17.1727 19.2387 17.1345 21.542 16.9413C23.4237 16.7834 25.3125 16.4456 25.3125 16.4456C25.3125 16.4456 24.6495 16.7301 24.1691 17.0576C19.5517 18.2721 10.633 17.7065 13.2008 16.4649C15.3719 15.4147 17.1374 15.5342 17.1374 15.5342ZM25.2936 20.0927C29.987 17.6544 27.817 15.3107 26.302 15.6265C25.9315 15.7039 25.7653 15.7707 25.7653 15.7707C25.7653 15.7707 25.9035 15.5545 26.1662 15.4615C29.163 14.4084 31.4673 18.5685 25.2001 20.216C25.1998 20.216 25.2721 20.1508 25.2936 20.0927Z" fill="#3174B9"/>
<path fill-rule="evenodd" clip-rule="evenodd" d="M22.4643 1.76465C22.4643 1.76465 25.063 4.36503 19.9988 8.36242C15.9375 11.5702 19.0728 13.3986 19.9975 15.4885C17.6265 13.3497 15.8873 11.4664 17.0539 9.71418C18.7668 7.14202 23.5129 5.89464 22.4643 1.76465Z" fill="#CA3132"/>
<path fill-rule="evenodd" clip-rule="evenodd" d="M17.5992 26.702C22.1035 26.99 29.0219 26.542 29.1861 24.4102C29.1861 24.4102 28.8711 25.2182 25.463 25.8592C21.618 26.5831 16.8748 26.4988 14.0625 26.0346C14.0625 26.0346 14.6388 26.5115 17.5992 26.702Z" fill="#3174B9"/>
<path fill-rule="evenodd" clip-rule="evenodd" d="M28.9782 30.5249H28.8413V30.4481H29.2109V30.5249H29.0739V30.9084H28.9782V30.5249ZM29.7157 30.544H29.7141L29.578 30.9082H29.5155L29.3802 30.544H29.3785V30.9082H29.2876V30.4479H29.4211L29.5464 30.7735L29.6717 30.4479H29.8039V30.9082H29.7159L29.7157 30.544ZM16.8614 34.8464C16.4366 35.2146 15.9875 35.4217 15.5843 35.4217C15.0099 35.4217 14.6982 35.0766 14.6982 34.5244C14.6982 33.9265 15.0319 33.4891 16.3675 33.4891H16.8611L16.8614 34.8464ZM18.0338 36.1691V32.0744C18.0338 31.0279 17.437 30.3373 15.9983 30.3373C15.1589 30.3373 14.423 30.5446 13.8248 30.8088L13.997 31.5341C14.4683 31.361 15.0775 31.2006 15.6756 31.2006C16.5044 31.2006 16.8611 31.5341 16.8611 32.2245V32.7422H16.4469C14.4336 32.7422 13.5251 33.5233 13.5251 34.6976C13.5251 35.7095 14.1238 36.2847 15.2508 36.2847C15.9753 36.2847 16.5165 35.9857 17.0218 35.548L17.1137 36.1691H18.0338ZM21.947 36.1691H20.485L18.7246 30.4415H20.0017L21.0943 33.9612L21.3375 35.0187C21.8886 33.4891 22.2798 31.9362 22.4755 30.4415H23.7173C23.3848 32.3274 22.7859 34.398 21.947 36.1691ZM27.5576 34.8464C27.1315 35.2146 26.6825 35.4217 26.2801 35.4217C25.7057 35.4217 25.3944 35.0766 25.3944 34.5244C25.3944 33.9265 25.7283 33.4891 27.0631 33.4891H27.5576V34.8464ZM28.7305 36.1691V32.0744C28.7305 31.0279 28.1318 30.3373 26.6945 30.3373C25.8543 30.3373 25.1186 30.5446 24.5204 30.8088L24.6926 31.5341C25.1639 31.361 25.7744 31.2006 26.3727 31.2006C27.2002 31.2006 27.5574 31.5341 27.5574 32.2245V32.7422H27.1432C25.1296 32.7422 24.2217 33.5233 24.2217 34.6976C24.2217 35.7095 24.8192 36.2847 25.9464 36.2847C26.6715 36.2847 27.2119 35.9857 27.7184 35.548L27.8107 36.1691H28.7305ZM12.2396 37.1424C11.9055 37.6307 11.3651 38.0173 10.7743 38.2354L10.1953 37.5535C10.6454 37.3225 11.031 36.9496 11.2105 36.6026C11.3651 36.2934 11.4296 35.8958 11.4296 34.9442V28.4043H12.6758V34.8539C12.6758 36.1268 12.5741 36.6412 12.2396 37.1424Z" fill="#CA3132"/>
</g>
<defs>
<clipPath id="clip0_5053_975">
<rect width="40" height="40" fill="white"/>
</clipPath>
</defs>
</svg>
