<svg width="120" height="22" viewBox="0 0 120 22" fill="none" xmlns="http://www.w3.org/2000/svg">
<g clip-path="url(#clip0_1503_4727)">
<path d="M19.631 5.40668C19.5118 5.02505 19.2255 4.71497 18.8678 4.52416L11.5929 1.04175C11.4021 0.946337 11.1874 0.922485 10.9966 0.922485C10.8057 0.922485 10.5911 0.922485 10.4003 0.97019L3.12537 4.47645C2.76759 4.64342 2.50521 4.95349 2.40981 5.35898L0.620897 13.2063C0.54934 13.6118 0.644749 14.0173 0.88327 14.3512L5.91607 20.5766C6.20229 20.8629 6.60778 21.0537 7.01326 21.0775H15.0276C15.4569 21.1252 15.8624 20.9344 16.1248 20.5766L21.1576 14.3512C21.3961 14.0173 21.4915 13.6118 21.4438 13.2063L19.631 5.40668Z" fill="white" stroke="white" stroke-width="5" stroke-miterlimit="10"/>
<path d="M19.631 5.40668C19.5118 5.02505 19.2255 4.71497 18.8678 4.52416L11.5929 1.04175C11.4021 0.946337 11.1874 0.922485 10.9966 0.922485C10.8057 0.922485 10.5911 0.922485 10.4003 0.97019L3.12537 4.47645C2.76759 4.64342 2.50521 4.95349 2.40981 5.35898L0.620897 13.2063C0.54934 13.6118 0.644749 14.0173 0.88327 14.3512L5.91607 20.5766C6.20229 20.8629 6.60778 21.0537 7.01326 21.0775H15.0276C15.4569 21.1252 15.8624 20.9344 16.1248 20.5766L21.1576 14.3512C21.3961 14.0173 21.4915 13.6118 21.4438 13.2063L19.631 5.40668Z" fill="#326DE6"/>
<path d="M18.5103 12.8962C18.4865 12.8962 18.4626 12.8962 18.4626 12.8724C18.4626 12.8485 18.4149 12.8485 18.3672 12.8485C18.2718 12.8247 18.1764 12.8247 18.081 12.8247C18.0333 12.8247 17.9856 12.8247 17.9379 12.8008H17.914C17.6517 12.777 17.3654 12.7293 17.1031 12.6577C17.0315 12.6339 16.96 12.5623 16.9361 12.4908L16.7453 12.4431C16.8407 11.7513 16.793 11.0358 16.6499 10.3441C16.4829 9.65236 16.1967 8.9845 15.8151 8.3882L15.9582 8.24509V8.22123C15.9582 8.14968 15.982 8.05427 16.0297 8.00657C16.2444 7.81575 16.4591 7.67264 16.6976 7.52952C16.7453 7.50567 16.793 7.48182 16.8407 7.45797C16.9361 7.41026 17.0077 7.36256 17.1031 7.31485C17.1269 7.291 17.1508 7.291 17.1746 7.26715C17.1985 7.2433 17.1746 7.2433 17.1746 7.21945C17.3893 7.05248 17.437 6.76626 17.27 6.55159C17.1985 6.45618 17.0554 6.38462 16.9361 6.38462C16.8168 6.38462 16.6976 6.43233 16.6022 6.50388L16.5783 6.52773C16.5545 6.55159 16.5306 6.57544 16.5068 6.57544C16.4352 6.64699 16.3636 6.71855 16.3159 6.79011C16.2921 6.83781 16.2444 6.86166 16.2205 6.88552C16.0536 7.07633 15.8389 7.26715 15.6242 7.41026C15.5765 7.43411 15.5288 7.45797 15.4811 7.45797C15.4573 7.45797 15.4096 7.45797 15.3857 7.43411H15.3619L15.171 7.55337C14.9802 7.36256 14.7656 7.17174 14.5747 6.98092C13.6922 6.28921 12.595 5.85987 11.474 5.74061L11.4501 5.5498V5.57365C11.3786 5.52594 11.3547 5.45439 11.3309 5.38283C11.3309 5.12046 11.3309 4.85809 11.3786 4.57186V4.54801C11.3786 4.5003 11.4024 4.4526 11.4024 4.4049C11.4263 4.30949 11.4263 4.21408 11.4501 4.11867V3.97556C11.474 3.73704 11.2831 3.49851 11.0446 3.47466C10.9015 3.45081 10.7584 3.52237 10.6391 3.64163C10.5437 3.73704 10.496 3.8563 10.496 3.97556V4.09482C10.496 4.19023 10.5199 4.28563 10.5437 4.38104C10.5676 4.42875 10.5676 4.47645 10.5676 4.52416V4.54801C10.6153 4.81038 10.6153 5.07275 10.6153 5.35898C10.5914 5.43054 10.5676 5.50209 10.496 5.5498V5.5975L10.4722 5.78832C10.2098 5.81217 9.94743 5.85987 9.6612 5.90758C8.54016 6.1461 7.51451 6.7424 6.72739 7.57723L6.58428 7.48182H6.56043C6.53658 7.48182 6.51272 7.50567 6.46502 7.50567C6.41732 7.50567 6.36961 7.48182 6.32191 7.45797C6.10724 7.291 5.89257 7.10018 5.72561 6.90937C5.70175 6.86166 5.65405 6.83781 5.6302 6.81396C5.55864 6.7424 5.51094 6.67085 5.43938 6.59929C5.41553 6.57544 5.39168 6.57544 5.36782 6.55159C5.34397 6.52773 5.34397 6.52773 5.34397 6.52773C5.24856 6.45618 5.1293 6.40847 5.01004 6.40847C4.86693 6.40847 4.74767 6.45618 4.67611 6.57544C4.533 6.79011 4.5807 7.07633 4.77152 7.2433C4.79537 7.2433 4.79537 7.26715 4.79537 7.26715C4.79537 7.26715 4.84308 7.31485 4.86693 7.31485C4.93849 7.36256 5.03389 7.41026 5.1293 7.45797C5.17701 7.48182 5.22471 7.50567 5.27242 7.52952C5.51094 7.67264 5.74946 7.81575 5.94027 8.00657C5.98798 8.05427 6.03568 8.14968 6.01183 8.22123V8.19738L6.15494 8.34049C6.13109 8.3882 6.10724 8.41205 6.08339 8.45975C5.34397 9.62851 5.03389 11.0119 5.24856 12.3715L5.05775 12.4192C5.05775 12.4431 5.03389 12.4431 5.03389 12.4431C5.01004 12.5146 4.93849 12.5623 4.86693 12.61C4.60456 12.6816 4.34218 12.7293 4.05596 12.7531C4.00825 12.7531 3.96055 12.7531 3.91284 12.777C3.81744 12.777 3.72203 12.8008 3.62662 12.8008C3.60277 12.8008 3.57891 12.8247 3.53121 12.8247C3.50736 12.8247 3.50736 12.8247 3.48351 12.8485C3.22113 12.8962 3.05417 13.1348 3.10187 13.3971C3.14958 13.6118 3.36425 13.7549 3.57891 13.7311C3.62662 13.7311 3.65047 13.7311 3.69818 13.7072C3.72203 13.7072 3.72203 13.7072 3.72203 13.6834C3.72203 13.6595 3.79358 13.6834 3.81744 13.6834C3.91284 13.6595 4.00825 13.6118 4.07981 13.588C4.12751 13.5641 4.17522 13.5403 4.22292 13.5403H4.24677C4.50915 13.4448 4.74767 13.3733 5.03389 13.3256H5.05775C5.1293 13.3256 5.20086 13.3494 5.24856 13.3971C5.27241 13.3971 5.27242 13.421 5.27242 13.421L5.48708 13.3971C5.84487 14.4943 6.51273 15.4723 7.44296 16.1878C7.65763 16.3548 7.84844 16.4979 8.08697 16.6172L7.9677 16.7841C7.9677 16.808 7.99156 16.808 7.99156 16.808C8.03926 16.8796 8.03926 16.975 8.01541 17.0465C7.92 17.285 7.77689 17.5236 7.63377 17.7382V17.7621C7.60992 17.8098 7.58607 17.8336 7.53837 17.8813C7.49066 17.929 7.44296 18.0245 7.3714 18.1199C7.34755 18.1437 7.34755 18.1676 7.3237 18.1914C7.3237 18.1914 7.3237 18.2153 7.29984 18.2153C7.18058 18.4538 7.27599 18.74 7.49066 18.8593C7.53837 18.8831 7.60992 18.907 7.65763 18.907C7.84844 18.907 8.01541 18.7877 8.11082 18.6208C8.11082 18.6208 8.11082 18.5969 8.13467 18.5969C8.13467 18.5731 8.15852 18.5492 8.18237 18.5253C8.20622 18.4299 8.25393 18.3584 8.27778 18.263L8.32549 18.1199C8.39704 17.8575 8.5163 17.619 8.63556 17.3804C8.68327 17.3089 8.75482 17.2612 8.82638 17.2373C8.85023 17.2373 8.85023 17.2373 8.85023 17.2135L8.94564 17.0227C9.6135 17.285 10.3052 17.4043 11.0208 17.4043C11.4501 17.4043 11.8795 17.3566 12.3088 17.2373C12.5712 17.1896 12.8335 17.0942 13.0721 17.0227L13.1675 17.1896C13.1913 17.1896 13.1913 17.1896 13.1913 17.2135C13.2629 17.2373 13.3344 17.285 13.3821 17.3566C13.5014 17.5951 13.6207 17.8336 13.6922 18.096V18.1199L13.7399 18.263C13.7638 18.3584 13.7876 18.4538 13.8353 18.5253C13.8592 18.5492 13.8592 18.5731 13.883 18.5969C13.883 18.5969 13.883 18.6208 13.9069 18.6208C14.0023 18.7877 14.1693 18.907 14.3601 18.907C14.4316 18.907 14.4793 18.8831 14.5509 18.8593C14.6463 18.8116 14.7417 18.7162 14.7656 18.5969C14.7894 18.4776 14.7894 18.3584 14.7417 18.2391C14.7417 18.2153 14.7179 18.2153 14.7179 18.2153C14.7179 18.1914 14.694 18.1676 14.6701 18.1437C14.6224 18.0483 14.5747 17.9767 14.5032 17.9052C14.4793 17.8575 14.4555 17.8336 14.4078 17.7859V17.7382C14.2408 17.5236 14.1215 17.285 14.0261 17.0465C14.0023 16.975 14.0023 16.8796 14.05 16.808C14.05 16.7841 14.0738 16.7841 14.0738 16.7841L14.0023 16.5933C15.2187 15.8539 16.149 14.709 16.5783 13.3494L16.7691 13.3733C16.793 13.3733 16.793 13.3494 16.793 13.3494C16.8407 13.3017 16.9122 13.2779 16.9838 13.2779H17.0077C17.27 13.3256 17.5324 13.3971 17.7709 13.4926H17.7948C17.8425 13.5164 17.8902 13.5403 17.9379 13.5403C18.0333 13.588 18.1049 13.6357 18.2003 13.6595C18.2241 13.6595 18.248 13.6834 18.2957 13.6834C18.3195 13.6834 18.3195 13.6834 18.3434 13.7072C18.3911 13.7311 18.4149 13.7311 18.4626 13.7311C18.6773 13.7311 18.8681 13.588 18.9397 13.3971C18.9158 13.1348 18.725 12.944 18.5103 12.8962ZM11.6171 12.1568L10.9731 12.4669L10.3291 12.1568L10.1621 11.4651L10.6153 10.8927H11.3309L11.784 11.4651L11.6171 12.1568ZM15.505 10.6064C15.6242 11.1073 15.6481 11.6082 15.6004 12.1091L13.3344 11.4651C13.1198 11.4174 13.0005 11.2027 13.0482 10.9881C13.0721 10.9165 13.0959 10.8688 13.1436 10.8211L14.9325 9.19917C15.1949 9.62851 15.3857 10.1056 15.505 10.6064ZM14.217 8.31664L12.2611 9.70006C12.0941 9.79547 11.8556 9.77162 11.7363 9.60466C11.6886 9.55695 11.6648 9.50925 11.6648 9.43769L11.5217 7.02863C12.5712 7.14789 13.5014 7.60108 14.217 8.31664ZM9.89973 7.10018L10.3768 7.00478L10.2575 9.38999C10.2575 9.60466 10.0667 9.77162 9.85202 9.77162C9.78046 9.77162 9.73276 9.74777 9.6612 9.72392L7.68148 8.31664C8.30163 7.72034 9.0649 7.291 9.89973 7.10018ZM6.98977 9.19917L8.75482 10.7734C8.92179 10.9165 8.94564 11.155 8.80253 11.322C8.75482 11.3936 8.70712 11.4174 8.61171 11.4413L6.29806 12.1091C6.2265 11.1073 6.46502 10.0817 6.98977 9.19917ZM6.58428 13.2302L8.94564 12.8247C9.13646 12.8247 9.32727 12.944 9.35113 13.1348C9.37498 13.2063 9.37498 13.3017 9.32727 13.3733L8.42089 15.5677C7.58607 15.0191 6.91821 14.1843 6.58428 13.2302ZM11.9987 16.1878C11.6648 16.2594 11.3309 16.3071 10.9731 16.3071C10.4722 16.3071 9.94743 16.2117 9.47039 16.0686L10.6391 13.9457C10.7584 13.8026 10.9492 13.7549 11.1162 13.8503C11.1877 13.898 11.2354 13.9457 11.307 14.0173L12.4519 16.0924C12.3088 16.1163 12.1657 16.1401 11.9987 16.1878ZM14.9087 14.1127C14.5509 14.6852 14.05 15.1861 13.4775 15.5438L12.5473 13.3017C12.4996 13.1109 12.595 12.9201 12.762 12.8485C12.8335 12.8247 12.9051 12.8008 12.9766 12.8008L15.3619 13.2063C15.2426 13.5403 15.0995 13.8503 14.9087 14.1127Z" fill="white"/>
<path d="M30.5545 11.8707C30.8169 11.5844 31.0554 11.2982 31.3417 11.012C31.604 10.7019 31.8664 10.4157 32.1288 10.1295C32.3912 9.81938 32.6297 9.55701 32.8443 9.29464C33.059 9.03226 33.2737 8.79374 33.4406 8.60293H36.4937C35.8736 9.29464 35.2773 9.98635 34.7048 10.6304C34.1085 11.2744 33.4884 11.9422 32.7966 12.6101C33.1783 12.9679 33.5361 13.3256 33.87 13.7311C34.2278 14.1605 34.5856 14.5898 34.9433 15.0668C35.2773 15.52 35.6112 15.9971 35.8974 16.4503C36.1836 16.9035 36.4222 17.3328 36.613 17.7144H33.6553C33.4645 17.4044 33.2498 17.0943 33.0113 16.7365C32.7728 16.3787 32.5104 16.0209 32.2719 15.6393C32.0095 15.2815 31.7233 14.9237 31.4132 14.5898C31.1508 14.2797 30.8646 13.9935 30.5545 13.755V17.7383H27.9785V4.66733L30.5545 4.26184V11.8707Z" fill="black"/>
<path d="M45.5817 17.3567C45.0331 17.4998 44.4607 17.6191 43.8882 17.6906C43.1727 17.8099 42.4332 17.8576 41.7177 17.8576C41.0498 17.8814 40.4058 17.7622 39.7857 17.5475C39.3086 17.3567 38.9031 17.0705 38.5692 16.6888C38.2591 16.2833 38.0445 15.8301 37.9252 15.3293C37.7821 14.7807 37.7344 14.1843 37.7344 13.6119V8.5791H40.3104V13.3257C40.3104 14.1605 40.4297 14.7568 40.6443 15.1146C40.859 15.4724 41.2645 15.6632 41.8608 15.6632C42.0516 15.6632 42.2424 15.6632 42.4571 15.6393C42.6718 15.6155 42.8387 15.6155 43.0057 15.5678V8.5791H45.5817V17.3567Z" fill="black"/>
<path d="M53.8351 13.0633C53.8351 11.3936 53.215 10.5827 51.9985 10.5827C51.7361 10.5827 51.4738 10.6065 51.2114 10.6781C50.9967 10.7258 50.7821 10.8212 50.5912 10.9404V15.6154C50.7105 15.6393 50.8775 15.6632 51.0683 15.687C51.2591 15.7109 51.4738 15.7109 51.7123 15.7109C52.3324 15.7586 52.9287 15.4962 53.3104 14.9953C53.6682 14.4228 53.859 13.755 53.8351 13.0633ZM56.4589 13.1587C56.4589 13.8265 56.3635 14.4944 56.1249 15.1384C55.9341 15.7109 55.624 16.2118 55.2186 16.6411C54.7892 17.0704 54.2883 17.4044 53.7397 17.619C53.0957 17.8575 52.4279 17.953 51.7361 17.953C51.4261 17.953 51.0921 17.9291 50.7582 17.9053C50.4243 17.8814 50.0903 17.8337 49.7564 17.8098C49.4463 17.7621 49.1363 17.7144 48.8262 17.6429C48.5161 17.5952 48.2537 17.5236 48.0391 17.4282V4.66733L50.6151 4.26184V8.79374C50.9013 8.67448 51.2114 8.57907 51.5215 8.50752C51.8554 8.43596 52.1893 8.41211 52.5233 8.41211C53.1196 8.41211 53.692 8.50752 54.2406 8.76989C54.7177 8.98456 55.147 9.31849 55.4809 9.72398C55.8387 10.1772 56.1011 10.6781 56.2442 11.2267C56.3873 11.823 56.4589 12.4908 56.4589 13.1587Z" fill="black"/>
<path d="M58.0084 13.2064C57.9846 12.4908 58.1277 11.7752 58.3662 11.1074C58.5809 10.5349 58.9148 10.034 59.3442 9.58084C59.7496 9.17535 60.2028 8.86527 60.7276 8.67446C61.2523 8.45979 61.8009 8.36438 62.3495 8.36438C63.6375 8.36438 64.6632 8.76987 65.4026 9.55699C66.142 10.3441 66.5236 11.5129 66.5236 13.0155C66.5236 13.1587 66.5236 13.3256 66.4998 13.5164C66.4759 13.7073 66.4759 13.8504 66.4759 13.9935H60.6322C60.6799 14.4944 60.9423 14.9714 61.3716 15.2576C61.8963 15.5916 62.5165 15.7585 63.1367 15.7347C63.5898 15.7347 64.0669 15.687 64.5201 15.6154C64.9017 15.5439 65.2833 15.4246 65.6411 15.2815L65.9989 17.3805C65.8319 17.4759 65.6411 17.5236 65.4503 17.5951C65.1879 17.6667 64.9256 17.7383 64.6632 17.7621C64.377 17.8098 64.0907 17.8575 63.7568 17.9052C63.4467 17.9291 63.1128 17.9529 62.7789 17.9529C62.0395 17.9768 61.3239 17.8575 60.6322 17.5951C60.0597 17.3805 59.5588 17.0466 59.1295 16.6172C58.724 16.1879 58.4378 15.6631 58.247 15.1145C58.1039 14.4705 58.0084 13.8504 58.0084 13.2064ZM64.0669 12.2284C64.0669 12.0138 64.0192 11.7991 63.9476 11.5844C63.8999 11.3697 63.7807 11.2028 63.6614 11.0358C63.5183 10.8689 63.3513 10.7257 63.1605 10.6303C62.922 10.5111 62.6835 10.4634 62.4211 10.4634C62.1587 10.4634 61.9202 10.5111 61.6817 10.6303C61.4909 10.7257 61.3 10.845 61.1569 11.012C61.0138 11.1789 60.8945 11.3697 60.823 11.5844C60.7514 11.7991 60.7037 12.0138 60.6799 12.2284H64.0669Z" fill="black"/>
<path d="M74.0133 10.8689C73.7748 10.8212 73.5124 10.7496 73.2024 10.7019C72.8684 10.6304 72.5345 10.6065 72.2006 10.6065C72.0098 10.6065 71.8189 10.6304 71.6043 10.6542C71.4373 10.6781 71.2703 10.7019 71.1034 10.7496V17.6906H68.5273V9.05612C69.0521 8.8653 69.6007 8.72219 70.1493 8.60293C70.841 8.43597 71.5566 8.36441 72.2483 8.38826C72.4152 8.38826 72.5822 8.41211 72.7492 8.41211C72.94 8.41211 73.1308 8.43597 73.3455 8.48367C73.5363 8.50752 73.7271 8.53137 73.9418 8.57908C74.1087 8.60293 74.2757 8.65063 74.4427 8.72219L74.0133 10.8689Z" fill="black"/>
<path d="M75.8262 8.88921C76.3748 8.74609 76.9472 8.62683 77.5197 8.53142C78.2352 8.41216 78.9747 8.36446 79.6902 8.36446C80.3342 8.34061 80.9782 8.45987 81.5984 8.67454C82.0754 8.8415 82.5048 9.12773 82.8148 9.50936C83.1249 9.891 83.3396 10.3442 83.4588 10.8212C83.602 11.3698 83.6497 11.9423 83.6497 12.5147V17.6429H81.0975V12.8487C81.0975 12.0138 80.9782 11.4414 80.7636 11.0836C80.5489 10.7497 80.1434 10.5589 79.5471 10.5589C79.3563 10.5589 79.1655 10.5589 78.9508 10.5827C78.7361 10.5827 78.5692 10.6066 78.4022 10.6304V17.6429H75.8262V8.88921Z" fill="black"/>
<path d="M85.6052 13.2064C85.5813 12.4908 85.7244 11.7752 85.9629 11.1074C86.1776 10.5349 86.5115 10.034 86.9409 9.58084C87.3464 9.17535 87.7996 8.86527 88.3243 8.67446C88.8491 8.45979 89.3977 8.36438 89.9463 8.36438C91.2343 8.36438 92.2599 8.76987 92.9993 9.55699C93.7387 10.3441 94.1204 11.5129 94.1204 13.0394C94.1204 13.1825 94.1204 13.3495 94.0965 13.5403C94.0727 13.7311 94.0727 13.8742 94.0727 14.0173H88.2289C88.2766 14.5182 88.539 14.9953 88.9683 15.2815C89.4931 15.6154 90.1132 15.7824 90.7334 15.7585C91.1866 15.7585 91.6636 15.7108 92.1168 15.6393C92.4984 15.5677 92.8801 15.4485 93.2617 15.2815L93.6195 17.3805C93.4525 17.4759 93.2617 17.5236 93.0709 17.5951C92.8085 17.6667 92.5461 17.7383 92.2838 17.7621C91.9975 17.8098 91.7113 17.8575 91.3774 17.9052C91.0673 17.9291 90.7334 17.9529 90.3994 17.9529C89.66 17.9768 88.9445 17.8575 88.2528 17.5951C87.6803 17.3805 87.1794 17.0466 86.7501 16.6172C86.3446 16.1879 86.0584 15.6631 85.8675 15.1145C85.6767 14.4705 85.5813 13.8265 85.6052 13.2064ZM91.6398 12.2284C91.6398 12.0138 91.5921 11.7991 91.5205 11.5844C91.4728 11.3697 91.3535 11.2028 91.2343 11.0358C91.0912 10.8689 90.9242 10.7257 90.7334 10.6303C90.4948 10.5111 90.2563 10.4634 89.994 10.4634C89.7316 10.4634 89.4931 10.5111 89.2545 10.6303C89.0637 10.7257 88.8968 10.845 88.7536 11.012C88.6105 11.1789 88.4913 11.3697 88.4197 11.5844C88.3482 11.7991 88.3005 12.0138 88.2766 12.2284H91.6398Z" fill="black"/>
<path d="M96.0294 6.31308L98.6054 5.90759V8.57903H101.706V10.7257H98.6054V13.9219C98.5816 14.3751 98.677 14.8283 98.8917 15.2099C99.0825 15.52 99.4641 15.687 100.06 15.687C100.347 15.687 100.633 15.6631 100.895 15.6154C101.181 15.5677 101.444 15.4961 101.706 15.4007L102.064 17.4043C101.73 17.5474 101.372 17.6428 101.014 17.7382C100.561 17.8337 100.084 17.8814 99.6072 17.8814C99.0109 17.9052 98.4146 17.8098 97.866 17.5951C97.4367 17.4282 97.055 17.1419 96.7688 16.808C96.4826 16.4502 96.2918 16.0209 96.1725 15.5677C96.0533 15.043 96.0055 14.4944 96.0294 13.9696V6.31308Z" fill="black"/>
<path d="M103.018 13.2064C102.994 12.4908 103.137 11.7752 103.376 11.1074C103.591 10.5349 103.925 10.034 104.354 9.58084C104.759 9.17535 105.213 8.86527 105.737 8.67446C106.262 8.45979 106.811 8.36438 107.359 8.36438C108.647 8.36438 109.673 8.76987 110.412 9.55699C111.152 10.3441 111.533 11.5129 111.533 13.0394C111.533 13.1825 111.533 13.3495 111.51 13.5403C111.51 13.7311 111.486 13.8742 111.486 14.0173H105.666C105.713 14.5182 105.976 14.9953 106.405 15.2815C106.93 15.6154 107.55 15.7824 108.17 15.7585C108.623 15.7585 109.1 15.7108 109.554 15.6393C109.935 15.5677 110.317 15.4485 110.675 15.2815L111.033 17.3805C110.866 17.4759 110.675 17.5236 110.484 17.5951C110.222 17.6667 109.959 17.7383 109.697 17.7621C109.411 17.8098 109.124 17.8575 108.79 17.9052C108.48 17.9291 108.146 17.9529 107.812 17.9529C107.073 17.9768 106.358 17.8575 105.666 17.5951C105.093 17.3805 104.592 17.0466 104.163 16.6172C103.758 16.1879 103.471 15.6631 103.281 15.1145C103.114 14.4705 103.018 13.8265 103.018 13.2064ZM109.053 12.2284C109.053 12.0138 109.005 11.7991 108.934 11.5844C108.886 11.3697 108.767 11.2028 108.647 11.0358C108.504 10.8689 108.337 10.7257 108.146 10.6303C107.908 10.5111 107.669 10.4634 107.407 10.4634C107.145 10.4634 106.906 10.5111 106.668 10.6303C106.477 10.7257 106.286 10.845 106.143 11.012C106 11.1789 105.88 11.3697 105.809 11.5844C105.737 11.7991 105.69 12.0138 105.666 12.2284H109.053Z" fill="black"/>
<path d="M116.161 15.8301C116.495 15.8539 116.852 15.8062 117.162 15.687C117.353 15.5916 117.472 15.3769 117.449 15.1622C117.425 14.9237 117.282 14.709 117.067 14.6375C116.709 14.4228 116.304 14.232 115.898 14.1127C115.493 13.9696 115.135 13.8027 114.801 13.6357C114.491 13.4926 114.229 13.3018 113.966 13.0632C113.728 12.8247 113.561 12.5624 113.441 12.2523C113.298 11.8945 113.251 11.5129 113.251 11.1312C113.227 10.3441 113.585 9.58084 114.205 9.1038C114.849 8.6029 115.707 8.36438 116.805 8.36438C117.329 8.36438 117.878 8.41208 118.403 8.53134C118.808 8.6029 119.214 8.69831 119.619 8.84142L119.166 10.8689C118.832 10.7496 118.522 10.678 118.188 10.5826C117.806 10.4872 117.401 10.4634 117.019 10.4634C116.208 10.4634 115.803 10.678 115.803 11.1312C115.803 11.2266 115.827 11.322 115.851 11.4175C115.898 11.5129 115.97 11.5844 116.065 11.656C116.161 11.7275 116.304 11.7991 116.471 11.8945C116.638 11.9899 116.876 12.0853 117.162 12.1807C117.639 12.3477 118.116 12.5624 118.546 12.8009C118.88 12.9678 119.166 13.1825 119.404 13.4687C119.619 13.6834 119.762 13.9458 119.858 14.2559C119.953 14.5898 120.001 14.9237 120.001 15.2576C120.049 16.0686 119.667 16.8557 118.975 17.3089C118.307 17.7621 117.353 18.0006 116.113 18.0006C115.421 18.0245 114.753 17.9529 114.085 17.786C113.704 17.6906 113.346 17.5713 112.988 17.452L113.418 15.3531C113.847 15.52 114.3 15.6631 114.753 15.7585C115.23 15.7824 115.684 15.8301 116.161 15.8301Z" fill="black"/>
</g>
<defs>
<clipPath id="clip0_1503_4727">
<rect width="120" height="21.3476" fill="white" transform="translate(0 0.326172)"/>
</clipPath>
</defs>
</svg>
