<svg width="164" height="41" viewBox="0 0 164 41" fill="none" xmlns="http://www.w3.org/2000/svg">
<g clip-path="url(#clip0_1465_4558)">
<path d="M6.44275 0.0112305V33.4584H18.5447V39.2192H0V0.0112305H6.44275ZM41.2684 16.6405V13.1144H47.392V39.2337H41.2975V35.6931C40.4558 36.999 39.295 38.0148 37.7859 38.7403C36.2768 39.5094 34.7386 39.8721 33.215 39.8721C31.227 39.8721 29.4132 39.5094 27.7735 38.7838C26.1707 38.0892 24.7283 37.0716 23.5364 35.7946C22.3546 34.5276 21.4196 33.0513 20.7793 31.4414C20.12 29.7593 19.7899 27.9662 19.8071 26.1595C19.8071 24.3312 20.1409 22.5754 20.7938 20.9357C21.4265 19.3046 22.3619 17.8078 23.5509 16.5244C24.7319 15.2406 26.1642 14.2132 27.759 13.5062C29.4132 12.7807 31.2415 12.4179 33.2005 12.4179C34.7241 12.4179 36.2477 12.7952 37.7569 13.5352C39.266 14.2898 40.4268 15.3055 41.2394 16.6115L41.2684 16.6405ZM40.717 29.3664C41.0993 28.3454 41.2959 27.2643 41.2975 26.174C41.2975 25.0422 41.0943 23.9974 40.717 22.9817C40.3696 22.0043 39.8375 21.1028 39.1499 20.3262C38.4638 19.5791 37.6348 18.9772 36.7121 18.5559C35.72 18.1007 34.6403 17.8679 33.5488 17.8739C32.3879 17.8739 31.3431 18.1206 30.4144 18.5704C29.5047 18.993 28.6864 19.5895 28.0057 20.3262C27.3198 21.0991 26.7966 22.0022 26.4675 22.9817C26.1076 24.0073 25.926 25.0871 25.9306 26.174C25.9306 27.2914 26.1048 28.3506 26.4675 29.3664C26.8158 30.3821 27.3382 31.2528 28.0057 31.9783C28.6805 32.7365 29.4993 33.3531 30.4144 33.7922C31.3431 34.2275 32.3879 34.4596 33.5488 34.4596C34.7096 34.4596 35.7689 34.242 36.7121 33.7922C37.6376 33.3627 38.4668 32.7507 39.1499 31.9928C39.8328 31.2292 40.3646 30.3428 40.717 29.3809V29.3664ZM52.2095 39.2337V13.1144H68.7807V19.1218H58.304V39.2192H52.2095V39.2337ZM90.9096 16.6405V13.1144H97.0041V39.2337H90.9096V35.6931C90.097 36.999 88.9216 38.0148 87.427 38.7403C85.9034 39.5094 84.3798 39.8721 82.8416 39.8721C80.8537 39.8721 79.0398 39.5094 77.4001 38.7838C75.7973 38.0892 74.3549 37.0716 73.163 35.7946C71.9812 34.5276 71.0462 33.0513 70.4059 31.4414C69.7515 29.7583 69.4264 27.9652 69.4482 26.1595C69.4482 24.3312 69.7675 22.5754 70.4204 20.9357C71.0531 19.3046 71.9885 17.8078 73.1775 16.5244C74.3585 15.2406 75.7909 14.2132 77.3856 13.5062C79.0398 12.7807 80.8682 12.4179 82.8271 12.4179C84.3507 12.4179 85.8744 12.7952 87.3835 13.5352C88.8926 14.2898 90.0679 15.3055 90.866 16.6115L90.9096 16.6405ZM90.3582 29.3664C90.7306 28.3436 90.9173 27.2625 90.9096 26.174C90.9096 25.0422 90.7209 23.9974 90.3582 22.9817C90.0151 22.0054 89.488 21.104 88.8055 20.3262C88.1109 19.576 87.2718 18.9738 86.3387 18.5559C85.3955 18.1206 84.3362 17.8739 83.1899 17.8739C82.029 17.8739 80.9842 18.1206 80.0411 18.5704C79.1313 18.993 78.313 19.5895 77.6323 20.3262C76.9464 21.0991 76.4232 22.0022 76.0941 22.9817C75.7392 24.0082 75.5625 25.0879 75.5718 26.174C75.5718 27.2914 75.7459 28.3506 76.0941 29.3664C76.4569 30.3821 76.9648 31.2528 77.6323 31.9783C78.3071 32.7365 79.1259 33.3531 80.0411 33.7922C80.9842 34.2275 82.029 34.4596 83.1899 34.4596C84.3507 34.4596 85.3955 34.242 86.3532 33.7922C87.2891 33.366 88.1284 32.7538 88.82 31.9928C89.4978 31.228 90.0246 30.3417 90.3727 29.3809L90.3582 29.3664ZM121.498 13.1144H127.694L117.682 39.2337H109.991L99.9788 13.1144H106.146L113.836 33.1102L121.498 13.1289V13.1144ZM141.001 12.4469C149.315 12.4469 154.989 19.8183 153.915 28.4377H133.644C133.644 30.6724 135.936 35.0256 141.334 35.0256C145.978 35.0256 149.098 30.9626 149.098 30.9626L153.219 34.1549C149.518 38.0728 146.5 39.8867 141.755 39.8867C133.31 39.8867 127.593 34.5177 127.593 26.145C127.593 18.5559 133.513 12.4179 140.986 12.4179L141.001 12.4469ZM133.673 23.9104H148.328C148.27 23.4025 147.458 17.2935 140.957 17.2935C134.427 17.2935 133.731 23.417 133.673 23.9104ZM157.906 39.1901V0.0112305H164V39.2192H157.906V39.1901Z" fill="#FF2D20"/>
</g>
<defs>
<clipPath id="clip0_1465_4558">
<rect width="164" height="40.9344" fill="white"/>
</clipPath>
</defs>
</svg>
