<svg width="80" height="80" viewBox="0 0 80 80" fill="none" xmlns="http://www.w3.org/2000/svg">
<path d="M73.6018 36.7361C73.4074 36.7361 73.2184 36.7762 73.051 36.8709L67.756 39.9287C67.4134 40.1262 67.2051 40.4991 67.2051 40.8958V47.0003C67.2051 47.3967 67.4134 47.7691 67.756 47.967L69.1388 48.7653C69.8107 49.0964 70.0584 49.0912 70.3641 49.0912C71.3588 49.0912 71.9268 48.4876 71.9268 47.4387V41.4128C71.9268 41.3276 71.853 41.2667 71.7695 41.2667H71.1062C71.0212 41.2667 70.9488 41.3276 70.9488 41.4128V47.4387C70.9488 47.9036 70.4645 48.3712 69.6785 47.9783L68.2395 47.1351C68.1885 47.1075 68.1495 47.0586 68.1495 47.0003V40.8956C68.1495 40.8378 68.188 40.7789 68.2395 40.7495L73.5232 37.7031C73.5471 37.6892 73.5742 37.6818 73.6019 37.6818C73.6295 37.6818 73.6567 37.6892 73.6805 37.7031L78.9645 40.7497C79.0148 40.78 79.0545 40.8361 79.0545 40.8959V47.0005C79.0545 47.0587 79.0251 47.1184 78.9757 47.1466L73.6805 50.1931C73.6352 50.2201 73.5727 50.2201 73.5232 50.1931L72.1629 49.3837C72.1422 49.3725 72.119 49.3666 72.0955 49.3666C72.0719 49.3666 72.0487 49.3725 72.028 49.3837C71.6526 49.5966 71.582 49.6212 71.2298 49.7434C71.143 49.7737 71.0113 49.8208 71.2748 49.9684L73.051 51.0137C73.2185 51.1104 73.4086 51.1608 73.602 51.16C73.7953 51.1612 73.9854 51.1108 74.1527 51.0139L79.4479 47.9672C79.7905 47.768 79.9987 47.3969 79.9987 47.0005V40.8958C79.9987 40.4992 79.7905 40.127 79.4479 39.9291L74.1527 36.8712C73.9868 36.7764 73.7965 36.7362 73.602 36.7362L73.6018 36.7361Z" fill="#83CD29"/>
<path d="M75.0182 41.0981C73.5104 41.0981 72.6125 41.7399 72.6125 42.8071C72.6125 43.9646 73.5037 44.2827 74.9509 44.4258C76.6821 44.5953 76.817 44.8496 76.817 45.1903C76.817 45.7814 76.3457 46.0335 75.232 46.0335C73.8325 46.0335 73.525 45.6841 73.422 44.988C73.4098 44.9133 73.3521 44.853 73.2757 44.853H72.59C72.5056 44.853 72.4326 44.9258 72.4326 45.0105C72.4326 45.9016 72.9173 46.9553 75.232 46.9553C76.9075 46.9553 77.8739 46.2977 77.8739 45.1453C77.8739 44.0031 77.0932 43.6964 75.4679 43.4816C73.8257 43.2642 73.6692 43.1578 73.6692 42.7733C73.6692 42.4558 73.802 42.0311 75.0182 42.0311C76.1048 42.0311 76.5064 42.2655 76.6709 42.9981C76.6853 43.0669 76.7459 43.1217 76.817 43.1217H77.5029C77.5451 43.1217 77.5861 43.0958 77.6153 43.0655C77.644 43.0331 77.6643 42.9967 77.6603 42.9531C77.554 41.6916 76.7128 41.0981 75.0182 41.0981Z" fill="#83CD29"/>
<path d="M42.4719 28.7317C42.4127 28.7317 42.3546 28.7472 42.3032 28.7765C42.2521 28.8064 42.2097 28.8491 42.1801 28.9004C42.1506 28.9516 42.1349 29.0097 42.1346 29.0689V37.6692C42.1346 37.7536 42.0954 37.8292 42.0222 37.8715C41.9864 37.8924 41.9457 37.9034 41.9042 37.9034C41.8627 37.9034 41.822 37.8924 41.7861 37.8715L40.3808 37.0622C40.2783 37.0029 40.162 36.9716 40.0436 36.9716C39.9251 36.9716 39.8088 37.0029 39.7063 37.0622L34.0965 40.2998C33.8868 40.4209 33.7593 40.6536 33.7593 40.8958V47.3712C33.7593 47.6131 33.8869 47.8347 34.0965 47.9558L39.7063 51.1936C39.8087 51.253 39.9251 51.2844 40.0436 51.2844C40.162 51.2844 40.2784 51.253 40.3808 51.1936L45.9907 47.9558C46.0934 47.8966 46.1787 47.8115 46.2379 47.7088C46.2971 47.6062 46.3282 47.4897 46.328 47.3712V31.2275C46.3279 31.1062 46.2955 30.9871 46.2343 30.8824C46.1731 30.7777 46.0852 30.6912 45.9796 30.6315L42.6405 28.7653C42.5882 28.7361 42.53 28.7309 42.4719 28.7317ZM6.38442 36.8148C6.27754 36.819 6.17692 36.8378 6.08098 36.8934L0.470979 40.1312C0.368216 40.1903 0.282896 40.2754 0.223678 40.3781C0.164459 40.4808 0.133448 40.5972 0.133792 40.7158L0.145042 49.4062C0.145042 49.527 0.207386 49.6394 0.313636 49.6984C0.364574 49.729 0.422881 49.7452 0.482308 49.7452C0.541734 49.7452 0.600041 49.729 0.650979 49.6984L3.97864 47.7873C4.18942 47.662 4.32707 47.4442 4.32707 47.2026V43.1442C4.32707 42.902 4.45442 42.6798 4.66442 42.5595L6.08082 41.7389C6.18323 41.6793 6.29971 41.6483 6.41817 41.6489C6.53379 41.6489 6.65254 41.6778 6.75535 41.7389L8.17192 42.5595C8.27478 42.6185 8.36018 42.7037 8.41943 42.8064C8.47869 42.9091 8.50968 43.0256 8.50926 43.1442V47.2025C8.50926 47.444 8.64832 47.6634 8.8577 47.7872L12.1854 49.6984C12.2363 49.729 12.2946 49.7452 12.354 49.7452C12.4135 49.7452 12.4718 49.729 12.5227 49.6984C12.574 49.6687 12.6165 49.6261 12.6462 49.5748C12.6758 49.5235 12.6914 49.4653 12.6914 49.4061L12.7024 40.7158C12.7031 40.5972 12.6722 40.4806 12.6129 40.3778C12.5537 40.2751 12.4682 40.19 12.3652 40.1312L6.75535 36.8934C6.66051 36.8378 6.55957 36.8192 6.45192 36.8148H6.38442ZM56.7944 36.8934C56.6772 36.8934 56.5624 36.9231 56.4572 36.9834L50.8474 40.2212C50.7447 40.2803 50.6594 40.3655 50.6001 40.4681C50.5409 40.5708 50.5098 40.6873 50.51 40.8058V47.2812C50.51 47.5248 50.6472 47.7455 50.8585 47.8659L56.4235 51.0362C56.6289 51.1534 56.8799 51.1623 57.0868 51.0472L60.4594 49.1698C60.5664 49.1105 60.6388 48.9995 60.6393 48.8776C60.6398 48.8183 60.6245 48.7599 60.5949 48.7085C60.5652 48.657 60.5223 48.6145 60.4707 48.5853L54.8271 45.3475C54.7214 45.2872 54.6472 45.1651 54.6472 45.0439V43.0205C54.6472 42.8994 54.7222 42.7884 54.8271 42.7281L56.5808 41.7162C56.6321 41.6866 56.6903 41.6709 56.7495 41.6709C56.8087 41.6709 56.8669 41.6866 56.9182 41.7162L58.6718 42.7281C58.7231 42.7576 58.7658 42.8002 58.7954 42.8515C58.8251 42.9028 58.8406 42.961 58.8405 43.0203V44.6167C58.8403 44.6759 58.8559 44.7342 58.8855 44.7855C58.9151 44.8368 58.9577 44.8794 59.0091 44.9089C59.1143 44.9697 59.2414 44.9698 59.3463 44.9089L62.7079 42.9531C62.8104 42.8938 62.8955 42.8085 62.9548 42.7059C63.014 42.6033 63.0452 42.4869 63.0452 42.3684V40.8059C63.0452 40.5645 62.9171 40.3425 62.7079 40.2212L57.1318 36.9834C57.0293 36.9241 56.9128 36.893 56.7944 36.8934ZM40.021 41.7276C40.0504 41.7276 40.0847 41.7348 40.111 41.75L42.0335 42.863C42.0857 42.8931 42.1235 42.9489 42.1235 43.009V45.235C42.1235 45.2955 42.086 45.3511 42.0335 45.3812L40.111 46.4942C40.0853 46.5089 40.0563 46.5166 40.0267 46.5166C39.9971 46.5166 39.9681 46.5089 39.9424 46.4942L38.02 45.3812C37.9677 45.3509 37.93 45.2955 37.93 45.235V43.009C37.93 42.9487 37.9679 42.8934 38.02 42.863L39.9424 41.7501C39.966 41.7354 39.9933 41.7277 40.0211 41.7278L40.021 41.7276Z" fill="#404137"/>
<path d="M23.2365 36.8597C23.1196 36.8597 23.004 36.8894 22.8993 36.9497L17.2895 40.1763C17.0796 40.2971 16.9521 40.5302 16.9521 40.7721V47.2476C16.9521 47.4897 17.0798 47.711 17.2895 47.8322L22.8993 51.0699C23.0018 51.1294 23.1181 51.1608 23.2366 51.1608C23.3551 51.1608 23.4714 51.1294 23.5739 51.0699L29.1837 47.8322C29.2864 47.7731 29.3717 47.6879 29.4309 47.5852C29.4901 47.4825 29.5211 47.3661 29.5209 47.2476V40.7721C29.5209 40.5299 29.3934 40.2971 29.1837 40.1763L23.5739 36.9497C23.4713 36.8905 23.3549 36.8595 23.2365 36.8597ZM56.7832 42.6383C56.7609 42.6383 56.7361 42.6383 56.7159 42.6496L55.6367 43.2791C55.6166 43.2903 55.5997 43.3066 55.5879 43.3263C55.576 43.3461 55.5696 43.3686 55.5692 43.3916V44.6282C55.5692 44.6747 55.5961 44.7174 55.6367 44.7407L56.7159 45.359C56.7564 45.3824 56.7995 45.3824 56.8395 45.359L57.9187 44.7405C57.9388 44.7293 57.9555 44.713 57.9674 44.6933C57.9792 44.6736 57.9857 44.6512 57.9862 44.6282V43.3915C57.9857 43.3685 57.9792 43.346 57.9674 43.3263C57.9555 43.3066 57.9388 43.2904 57.9187 43.2791L56.8395 42.6494C56.8195 42.6377 56.8057 42.6383 56.7832 42.6383Z" fill="#83CD29"/>
</svg>
