<svg width="207" height="171" viewBox="0 0 207 171" fill="none" xmlns="http://www.w3.org/2000/svg">
<path d="M205.762 54.6068C206.266 54.9095 206.569 55.5149 206.468 56.0194L194.158 120.663C194.091 120.965 193.923 121.133 193.688 121.201L188.34 122.344C188.575 122.277 188.743 122.109 188.811 121.806L200.717 57.9701C200.818 57.4656 200.515 56.8602 200.044 56.5575L106.981 2.8452C106.779 2.71067 106.577 2.67702 106.409 2.71066L112.16 0.759932C112.329 0.726299 112.53 0.759941 112.699 0.894474L205.762 54.6068Z" fill="#969A9E"/>
<path fill-rule="evenodd" clip-rule="evenodd" d="M200.043 56.5577C200.514 56.8604 200.817 57.4658 200.716 57.9703L188.81 121.806C188.743 122.109 188.574 122.277 188.339 122.344C188.171 122.378 187.969 122.344 187.801 122.244C187.778 122.244 187.767 122.232 187.767 122.21L94.7039 68.4975C94.2331 68.1948 93.9303 67.5894 93.9976 67.0849L105.937 3.249C105.971 2.94631 106.173 2.74449 106.408 2.71086C106.576 2.67723 106.778 2.71087 106.98 2.8454L200.043 56.5577ZM178.047 72.029C178.215 71.0873 177.644 69.9101 176.735 69.4056L146.096 51.7145C145.658 51.4455 145.221 51.4118 144.851 51.5464C144.515 51.6809 144.246 51.9836 144.145 52.4545C143.977 53.3962 144.548 54.5734 145.457 55.0779L176.063 72.769C176.534 73.038 176.971 73.0717 177.341 72.9371C177.677 72.8026 177.946 72.4663 178.047 72.029ZM175.155 61.1319C175.357 60.1901 174.751 59.013 173.877 58.5085L129.413 32.8463C128.976 32.5772 128.539 32.5436 128.169 32.6781C127.799 32.8126 127.564 33.1153 127.463 33.5862C127.261 34.5279 127.833 35.7051 128.741 36.2096L173.204 61.8718C173.641 62.1409 174.078 62.1745 174.448 62.04C174.818 61.9054 175.087 61.6027 175.155 61.1319ZM170.009 95.0678C170.211 94.1261 169.605 92.9489 168.731 92.4444L150.838 82.119C150.367 81.85 149.93 81.7827 149.593 81.9509C149.223 82.0854 148.954 82.3881 148.854 82.8589C148.685 83.8007 149.257 84.9779 150.165 85.4823L168.058 95.8077C168.495 96.0768 168.933 96.1104 169.303 95.9759C169.672 95.8414 169.942 95.5387 170.009 95.0678ZM166.141 74.3834C166.309 73.4416 165.737 72.2645 164.829 71.7263L125.68 49.1584C125.243 48.8894 124.806 48.8557 124.436 48.9566C124.099 49.1248 123.83 49.4275 123.729 49.8983C123.561 50.8064 124.133 51.9836 125.041 52.5217L164.157 75.1233C164.628 75.3587 165.065 75.426 165.401 75.2915C165.771 75.1569 166.04 74.8206 166.141 74.3834ZM149.661 74.0807C149.862 73.1726 149.291 71.9954 148.383 71.4573L129.346 60.4592C128.909 60.2238 128.438 60.1565 128.102 60.291C127.732 60.4256 127.463 60.7619 127.395 61.2327C127.194 62.1408 127.765 63.318 128.674 63.8561L147.71 74.8542C148.147 75.0897 148.584 75.1569 148.954 75.0224C149.324 74.8879 149.593 74.5515 149.661 74.0807ZM146.432 81.4464C146.6 80.5046 146.028 79.3274 145.12 78.8229L134.795 72.8362C134.358 72.6008 133.92 72.5335 133.55 72.6681C133.18 72.8026 132.911 73.1389 132.844 73.5762C132.642 74.5179 133.214 75.6951 134.122 76.2332L144.481 82.1863C144.918 82.4553 145.356 82.489 145.726 82.3544C146.062 82.2199 146.331 81.9172 146.432 81.4464ZM141.555 50.941C141.723 50.0329 141.151 48.8557 140.243 48.3176L132.239 43.6762C131.801 43.4407 131.364 43.4071 130.994 43.5417C130.624 43.6762 130.355 43.9789 130.288 44.4498C130.086 45.3915 130.658 46.5687 131.566 47.0732L139.604 51.7145C140.042 51.95 140.479 52.0172 140.849 51.8827C141.185 51.7482 141.454 51.4118 141.555 50.941Z" fill="white"/>
<path d="M188.441 122.882V129.575C188.441 129.811 188.306 130.012 187.97 130.181L126.993 165.395C126.454 165.731 125.614 165.765 125.143 165.496L32.0795 111.75C31.8441 111.615 31.7432 111.447 31.7432 111.279V104.586C31.7432 104.754 31.8441 104.922 32.0795 105.057L125.143 158.769C125.614 159.072 126.454 159.038 126.993 158.702L187.97 123.488C188.306 123.319 188.441 123.084 188.441 122.882Z" fill="#373A3A"/>
<path fill-rule="evenodd" clip-rule="evenodd" d="M188.104 122.411C188.34 122.546 188.441 122.714 188.441 122.882C188.441 123.084 188.306 123.32 187.97 123.488L126.993 158.702C126.454 159.038 125.614 159.072 125.143 158.769L32.0795 105.057C31.8441 104.922 31.7432 104.754 31.7432 104.586C31.7432 104.384 31.9113 104.149 32.214 103.98L93.1912 68.7664C93.7293 68.43 94.5701 68.3964 95.041 68.6655L187.768 122.21C187.768 122.232 187.779 122.243 187.802 122.243L188.104 122.411ZM170.279 122.781C170.749 122.512 170.817 122.109 170.38 121.873L165.839 119.25C165.435 119.014 164.695 119.048 164.258 119.284L159.92 121.806C159.449 122.075 159.381 122.479 159.785 122.714L164.359 125.371C164.763 125.607 165.469 125.573 165.94 125.304L170.279 122.781ZM160.424 117.064C160.895 116.795 160.929 116.391 160.525 116.156L155.951 113.532C155.547 113.297 154.841 113.33 154.404 113.599L150.031 116.088C149.561 116.357 149.527 116.761 149.93 117.03L154.505 119.653C154.908 119.889 155.615 119.855 156.085 119.586L160.424 117.064ZM159.987 128.701C160.458 128.432 160.525 127.995 160.121 127.759L155.547 125.136C155.144 124.9 154.437 124.934 153.966 125.203L149.628 127.725C149.157 127.995 149.09 128.398 149.493 128.634L154.067 131.257C154.471 131.492 155.177 131.459 155.648 131.19L159.987 128.701ZM150.57 111.38C151.04 111.111 151.074 110.707 150.67 110.472L146.096 107.848C145.693 107.613 144.986 107.646 144.516 107.915L140.177 110.404C139.706 110.673 139.672 111.077 140.076 111.312L144.65 113.969C145.054 114.205 145.76 114.171 146.231 113.902L150.57 111.38ZM150.132 122.983C150.603 122.714 150.67 122.311 150.233 122.075L145.693 119.452C145.289 119.216 144.583 119.25 144.112 119.519L139.773 122.008C139.302 122.277 139.235 122.68 139.639 122.916L144.213 125.573C144.616 125.808 145.323 125.775 145.794 125.506L150.132 122.983ZM149.695 134.62C150.166 134.351 150.233 133.914 149.83 133.679L135.468 125.405C135.065 125.169 134.358 125.203 133.887 125.472L129.549 127.995C129.078 128.264 129.044 128.667 129.448 128.903L143.776 137.176C144.179 137.412 144.885 137.378 145.356 137.109L149.695 134.62ZM140.715 105.662C141.152 105.393 141.219 104.989 140.816 104.754L136.242 102.131C135.838 101.895 135.132 101.929 134.661 102.198L130.322 104.687C129.851 104.956 129.818 105.393 130.221 105.628L134.762 108.252C135.165 108.487 135.905 108.454 136.376 108.185L140.715 105.662ZM140.345 140.069C140.816 139.8 140.85 139.396 140.446 139.161L135.905 136.537C135.468 136.302 134.762 136.336 134.291 136.605L129.952 139.094C129.481 139.363 129.448 139.766 129.851 140.002L134.426 142.659C134.829 142.894 135.535 142.86 136.006 142.591L140.345 140.069ZM140.278 117.266C140.749 116.996 140.782 116.593 140.379 116.357L135.804 113.734C135.401 113.499 134.695 113.499 134.224 113.801L129.885 116.29C129.414 116.559 129.381 116.963 129.784 117.198L134.358 119.855C134.762 120.091 135.468 120.057 135.939 119.788L140.278 117.266ZM130.827 99.9444C131.298 99.6753 131.365 99.2381 130.961 99.0363L126.387 96.3793C125.984 96.1438 125.277 96.1775 124.806 96.4465L120.468 98.969C119.997 99.2381 119.93 99.6417 120.333 99.8771L124.907 102.501C125.311 102.736 126.017 102.702 126.488 102.433L130.827 99.9444ZM130.524 134.385C130.961 134.116 131.029 133.712 130.625 133.477L126.051 130.853C125.647 130.584 124.941 130.618 124.47 130.887L120.131 133.41C119.661 133.679 119.627 134.082 120.03 134.318L124.571 136.941C124.975 137.176 125.715 137.176 126.185 136.907L130.524 134.385ZM130.423 111.548C130.894 111.279 130.928 110.875 130.524 110.64L125.95 108.016C125.546 107.781 124.84 107.815 124.369 108.084L120.03 110.573C119.56 110.842 119.526 111.279 119.93 111.481L124.504 114.138C124.907 114.373 125.614 114.339 126.084 114.07L130.423 111.548ZM129.986 123.185C130.457 122.916 130.49 122.479 130.087 122.243L125.546 119.62C125.143 119.384 124.403 119.418 123.932 119.687L119.593 122.176C119.156 122.445 119.089 122.882 119.492 123.118L124.066 125.741C124.47 125.977 125.176 125.943 125.647 125.674L129.986 123.185ZM120.972 94.2267C121.443 93.9577 121.477 93.5541 121.073 93.3186L116.533 90.6953C116.129 90.4598 115.423 90.4934 114.952 90.7625L110.613 93.2514C110.142 93.5204 110.075 93.9577 110.479 94.1595L115.053 96.8165C115.456 97.0519 116.163 97.0183 116.634 96.7492L120.972 94.2267ZM120.67 128.667C121.14 128.398 121.208 127.995 120.77 127.759L86.4645 107.949C86.0609 107.714 85.3546 107.747 84.8837 108.016L80.545 110.539C80.0742 110.808 80.0406 111.212 80.4441 111.447L114.75 131.257C115.154 131.492 115.86 131.459 116.331 131.19L120.67 128.667ZM120.535 105.83C121.006 105.561 121.073 105.158 120.67 104.922L116.095 102.299C115.692 102.063 114.985 102.063 114.515 102.332L110.176 104.855C109.705 105.124 109.638 105.528 110.075 105.763L114.616 108.42C115.019 108.622 115.725 108.622 116.196 108.353L120.535 105.83ZM120.131 117.434C120.602 117.165 120.636 116.761 120.232 116.526L115.658 113.902C115.255 113.667 114.548 113.7 114.077 113.969L109.739 116.458C109.268 116.727 109.234 117.131 109.638 117.366L114.212 120.023C114.616 120.259 115.322 120.225 115.793 119.956L120.131 117.434ZM111.118 88.4754C111.589 88.2064 111.622 87.8028 111.219 87.5673L106.644 84.944C106.241 84.7085 105.535 84.7422 105.064 84.9776L100.725 87.5001C100.254 87.7692 100.221 88.1727 100.624 88.4082L105.198 91.0652C105.602 91.3006 106.308 91.267 106.779 90.9979L111.118 88.4754ZM110.68 100.079C111.151 99.8099 111.219 99.4063 110.815 99.1708L106.241 96.5474C105.837 96.312 105.131 96.3456 104.66 96.6147L100.321 99.1036C99.8505 99.3726 99.7833 99.7762 100.187 100.012L104.761 102.669C105.165 102.904 105.871 102.87 106.342 102.601L110.68 100.079ZM110.243 111.682C110.714 111.447 110.781 111.01 110.378 110.774L105.804 108.151C105.4 107.915 104.694 107.949 104.223 108.218L99.8841 110.707C99.4133 111.01 99.3797 111.413 99.7833 111.649L104.324 114.272C104.727 114.508 105.467 114.474 105.905 114.205L110.243 111.682ZM101.263 82.7578C101.734 82.4551 101.768 82.0515 101.364 81.8161L96.7899 79.1927C96.3863 78.9572 95.68 78.9909 95.2092 79.2599L90.8705 81.7824C90.3996 82.0179 90.3659 82.4551 90.7695 82.6905L95.3437 85.3139C95.7473 85.5494 96.4536 85.5157 96.9244 85.2467L101.263 82.7578ZM100.826 94.3949C101.297 94.1258 101.33 93.7222 100.927 93.4868L96.3863 90.8298C95.9491 90.5943 95.2428 90.628 94.7719 90.897L90.4332 93.4195C89.996 93.6886 89.9287 94.0922 90.3323 94.3276L94.9065 96.951C95.3101 97.1865 96.0163 97.1528 96.4872 96.8838L100.826 94.3949ZM100.389 106.032C100.86 105.763 100.927 105.359 100.523 105.124L95.9491 102.467C95.5455 102.231 94.8392 102.265 94.3683 102.534L90.0296 105.057C89.5588 105.326 89.4915 105.729 89.8951 105.965L94.4692 108.588C94.8728 108.824 95.5791 108.79 96.05 108.555L100.389 106.032ZM90.9713 88.7109C91.4422 88.4082 91.4758 88.0046 91.0723 87.7692L86.4981 85.1458C86.0945 84.9103 85.3882 84.9439 84.9173 85.213L80.5787 87.7019C80.1078 87.9709 80.0742 88.4082 80.4778 88.61L85.0519 91.267C85.4555 91.5024 86.1618 91.4688 86.6327 91.1998L90.9713 88.7109ZM90.5005 100.314C90.9714 100.045 91.005 99.6417 90.635 99.4063L76.24 91.0988C75.8364 90.8634 75.1301 90.897 74.6592 91.1661L70.3205 93.655C69.8497 93.924 69.7824 94.3613 70.186 94.5631L84.581 102.904C84.9846 103.14 85.6909 103.106 86.1618 102.837L90.5005 100.314ZM81.0832 105.763C81.5541 105.46 81.5877 105.057 81.1841 104.821L76.6436 102.198C76.24 101.962 75.5337 101.996 75.0628 102.265L70.6905 104.754C70.2533 105.023 70.186 105.46 70.5896 105.696L75.1637 108.319C75.5673 108.555 76.2736 108.521 76.7445 108.252L81.0832 105.763ZM71.2622 100.079C71.7331 99.8099 71.7668 99.4063 71.3632 99.1708L66.7891 96.5474C66.3855 96.312 65.6791 96.3456 65.2083 96.6147L60.8696 99.1036C60.3987 99.3726 60.3651 99.7762 60.7687 100.012L65.3428 102.669C65.7464 102.904 66.4527 102.87 66.9235 102.601L71.2622 100.079Z" fill="white"/>
<path d="M176.736 69.4054C177.644 69.9435 178.216 71.1207 178.048 72.0288C177.947 72.4996 177.678 72.836 177.342 72.9705C176.972 73.105 176.534 73.0378 176.097 72.8023L145.457 55.1112C144.549 54.5731 143.977 53.3959 144.145 52.4878C144.246 52.017 144.515 51.6806 144.852 51.5461C145.222 51.4116 145.659 51.4788 146.13 51.7143L176.736 69.4054Z" fill="#C2C7CC"/>
<path d="M173.877 58.5082C174.785 59.0463 175.357 60.2235 175.155 61.1652C175.088 61.6361 174.818 61.9388 174.448 62.0733C174.079 62.2079 173.641 62.1742 173.204 61.9052L128.741 36.243C127.866 35.7048 127.261 34.5277 127.463 33.6196C127.564 33.1487 127.833 32.846 128.169 32.6779C128.539 32.5433 128.976 32.6106 129.414 32.8797L173.877 58.5082Z" fill="#C2C7CC"/>
<path d="M170.412 121.907C170.816 122.142 170.782 122.546 170.311 122.815L165.972 125.304C165.502 125.606 164.795 125.606 164.392 125.371L159.818 122.748C159.414 122.512 159.448 122.109 159.918 121.839L164.257 119.317C164.728 119.048 165.434 119.014 165.838 119.25L170.412 121.907Z" fill="white"/>
<path d="M168.732 92.444C169.64 92.9821 170.212 94.1593 170.01 95.0674C169.943 95.5382 169.674 95.8746 169.304 96.0091C168.967 96.1436 168.496 96.0764 168.059 95.8409L150.166 85.5155C149.258 84.9774 148.686 83.8002 148.888 82.8585C148.955 82.4212 149.224 82.0849 149.594 81.9504C149.931 81.8159 150.402 81.8495 150.839 82.1186L168.732 92.444Z" fill="#969A9E"/>
<path d="M164.829 71.7597C165.737 72.2642 166.309 73.4413 166.141 74.3831C166.04 74.8539 165.771 75.1566 165.401 75.2911C165.065 75.4257 164.628 75.392 164.157 75.123L125.041 52.5551C124.133 52.0169 123.561 50.8398 123.729 49.9317C123.83 49.4608 124.099 49.1245 124.436 48.99C124.806 48.8554 125.243 48.9227 125.714 49.1581L164.829 71.7597Z" fill="#969A9E"/>
<path d="M160.557 116.189C160.961 116.425 160.927 116.862 160.457 117.131L156.118 119.62C155.647 119.889 154.941 119.923 154.537 119.687L149.963 117.064C149.559 116.828 149.593 116.425 150.064 116.156L154.403 113.633C154.873 113.364 155.58 113.33 155.983 113.566L160.557 116.189Z" fill="white"/>
<path d="M160.121 127.826C160.558 128.062 160.491 128.465 160.02 128.734L155.682 131.257C155.211 131.526 154.504 131.56 154.101 131.324L149.527 128.667C149.123 128.432 149.19 128.028 149.661 127.759L154 125.27C154.471 125.001 155.177 124.967 155.581 125.203L160.121 127.826Z" fill="white"/>
<path d="M150.703 110.505C151.107 110.741 151.073 111.178 150.602 111.413L146.263 113.936C145.793 114.205 145.086 114.238 144.683 114.003L140.109 111.38C139.705 111.111 139.739 110.707 140.209 110.438L144.548 107.949C145.019 107.68 145.725 107.646 146.129 107.882L150.703 110.505Z" fill="white"/>
<path d="M150.267 122.142C150.704 122.378 150.637 122.781 150.166 123.05L145.827 125.573C145.356 125.842 144.65 125.875 144.246 125.64L139.672 122.983C139.269 122.748 139.336 122.344 139.807 122.075L144.145 119.586C144.616 119.317 145.323 119.283 145.726 119.519L150.267 122.142Z" fill="white"/>
<path d="M149.863 133.78C150.267 134.015 150.2 134.419 149.729 134.688L145.39 137.176C144.919 137.479 144.213 137.479 143.809 137.244L129.482 128.97C129.078 128.735 129.112 128.331 129.582 128.062L133.921 125.539C134.392 125.27 135.098 125.237 135.502 125.472L149.863 133.78Z" fill="#5F646B"/>
<path d="M148.383 71.4907C149.291 71.9952 149.862 73.1723 149.694 74.1141C149.593 74.5849 149.324 74.8876 148.954 75.0222C148.618 75.1567 148.147 75.1231 147.71 74.854L128.673 63.8896C127.799 63.3514 127.194 62.1743 127.395 61.2325C127.463 60.7953 127.732 60.459 128.102 60.3244C128.438 60.1899 128.909 60.2235 129.346 60.4926L148.383 71.4907Z" fill="#C2C7CC"/>
<path d="M145.121 78.8229C146.029 79.361 146.601 80.5382 146.432 81.4463C146.332 81.9171 146.063 82.2535 145.726 82.388C145.356 82.5225 144.919 82.4553 144.482 82.2198L134.123 76.2331C133.248 75.7286 132.643 74.5514 132.845 73.6097C132.946 73.1388 133.181 72.8362 133.551 72.7016C133.921 72.5671 134.358 72.6007 134.795 72.8698L145.121 78.8229Z" fill="#373A3A"/>
<path d="M140.243 48.3513C141.152 48.8558 141.723 50.0329 141.555 50.9747C141.454 51.4455 141.185 51.7482 140.849 51.8828C140.479 52.0173 140.042 51.9837 139.604 51.7146L131.566 47.1068C130.692 46.5687 130.086 45.3915 130.288 44.4498C130.355 44.0126 130.624 43.6762 130.994 43.5417C131.364 43.4072 131.801 43.4744 132.239 43.7099L140.243 48.3513Z" fill="#373A3A"/>
<path d="M140.849 104.821C141.253 105.057 141.219 105.46 140.749 105.729L136.41 108.252C135.939 108.521 135.199 108.555 134.795 108.319L130.255 105.662C129.851 105.427 129.885 105.023 130.356 104.754L134.695 102.265C135.165 101.996 135.872 101.963 136.275 102.198L140.849 104.821Z" fill="white"/>
<path d="M140.479 139.262C140.882 139.464 140.849 139.901 140.378 140.17L136.039 142.659C135.568 142.928 134.862 142.961 134.458 142.726L129.884 140.103C129.481 139.867 129.548 139.464 129.985 139.194L134.324 136.672C134.795 136.403 135.501 136.369 135.938 136.605L140.479 139.262Z" fill="white"/>
<path d="M140.411 116.458C140.815 116.694 140.781 117.097 140.31 117.366L135.972 119.855C135.501 120.158 134.795 120.158 134.391 119.922L129.817 117.299C129.413 117.064 129.481 116.66 129.918 116.391L134.256 113.869C134.727 113.599 135.434 113.566 135.871 113.801L140.411 116.458Z" fill="white"/>
<path d="M130.994 99.1373C131.398 99.3727 131.33 99.7763 130.859 100.045L126.521 102.568C126.083 102.837 125.344 102.837 124.94 102.602L120.399 99.9781C119.962 99.7427 120.029 99.3391 120.5 99.07L124.839 96.5475C125.31 96.2785 126.016 96.2448 126.42 96.5139L130.994 99.1373Z" fill="white"/>
<path d="M130.659 133.578C131.063 133.813 131.029 134.217 130.558 134.486L126.219 137.008C125.749 137.244 125.042 137.277 124.639 137.042L120.065 134.419C119.661 134.183 119.695 133.779 120.165 133.51L124.504 130.988C124.975 130.719 125.681 130.685 126.085 130.921L130.659 133.578Z" fill="white"/>
<path d="M130.559 110.774C130.962 111.01 130.929 111.413 130.458 111.683L126.119 114.171C125.648 114.44 124.942 114.474 124.538 114.239L119.964 111.615C119.561 111.38 119.628 110.976 120.065 110.707L124.404 108.185C124.875 107.916 125.581 107.882 126.018 108.117L130.559 110.774Z" fill="white"/>
<path d="M130.153 122.378C130.556 122.613 130.489 123.05 130.018 123.286L125.68 125.808C125.209 126.077 124.502 126.111 124.099 125.875L119.525 123.252C119.121 123.017 119.188 122.579 119.659 122.31L123.998 119.821C124.469 119.552 125.175 119.519 125.579 119.754L130.153 122.378Z" fill="white"/>
<path d="M121.14 93.4534C121.544 93.6888 121.477 94.0924 121.006 94.3615L116.667 96.8503C116.23 97.1194 115.49 97.153 115.086 96.9176L110.546 94.2942C110.109 94.0588 110.176 93.6552 110.647 93.3861L114.986 90.8636C115.456 90.5946 116.163 90.5609 116.566 90.7964L121.14 93.4534Z" fill="white"/>
<path d="M120.838 127.894C121.241 128.129 121.174 128.533 120.703 128.802L116.365 131.324C115.927 131.593 115.187 131.627 114.784 131.392L80.4779 111.582C80.0743 111.346 80.1416 110.943 80.6124 110.64L84.9511 108.151C85.422 107.882 86.1283 107.848 86.5319 108.084L120.838 127.894Z" fill="#5F646B"/>
<path d="M120.702 105.057C121.106 105.292 121.072 105.729 120.601 105.998L116.262 108.487C115.792 108.756 115.085 108.79 114.682 108.555L110.108 105.931C109.704 105.696 109.738 105.292 110.208 104.989L114.547 102.501C115.018 102.232 115.724 102.198 116.128 102.433L120.702 105.057Z" fill="white"/>
<path d="M120.299 116.694C120.703 116.929 120.636 117.333 120.165 117.602L115.826 120.124C115.355 120.393 114.649 120.427 114.245 120.192L109.671 117.535C109.268 117.299 109.335 116.895 109.806 116.626L114.144 114.138C114.615 113.868 115.322 113.835 115.725 114.07L120.299 116.694Z" fill="white"/>
<path d="M111.286 87.7354C111.689 87.9709 111.622 88.4081 111.151 88.6772L106.812 91.166C106.342 91.4351 105.635 91.4687 105.232 91.2333L100.658 88.6099C100.254 88.3745 100.321 87.9709 100.792 87.6682L105.131 85.1793C105.602 84.9102 106.308 84.8766 106.712 85.112L111.286 87.7354Z" fill="white"/>
<path d="M110.849 99.3726C111.252 99.6081 111.218 100.012 110.748 100.281L106.409 102.803C105.938 103.072 105.232 103.106 104.828 102.87L100.254 100.213C99.8504 99.978 99.884 99.5744 100.355 99.3054L104.694 96.8165C105.164 96.5474 105.871 96.5138 106.274 96.7492L110.849 99.3726Z" fill="white"/>
<path d="M110.411 111.01C110.848 111.245 110.781 111.649 110.31 111.918L105.972 114.44C105.501 114.71 104.794 114.71 104.391 114.474L99.8168 111.851C99.4132 111.615 99.4804 111.212 99.9513 110.943L104.29 108.42C104.727 108.151 105.467 108.117 105.871 108.386L110.411 111.01Z" fill="white"/>
<path d="M101.431 82.0516C101.835 82.287 101.768 82.6906 101.297 82.9597L96.958 85.4822C96.4871 85.7513 95.7808 85.7849 95.3773 85.5494L90.8031 82.8924C90.3995 82.657 90.4668 82.2534 90.9376 81.9843L95.2763 79.4955C95.7472 79.2264 96.4535 79.1928 96.8571 79.4282L101.431 82.0516Z" fill="white"/>
<path d="M100.994 93.6886C101.398 93.924 101.33 94.3276 100.893 94.5967L96.5544 97.1192C96.0836 97.3883 95.3772 97.4219 94.94 97.1865L90.3995 94.5294C89.9959 94.294 90.0296 93.8904 90.5004 93.6213L94.8391 91.0988C95.31 90.8634 96.0163 90.8298 96.4199 91.0652L100.994 93.6886Z" fill="white"/>
<path d="M100.557 105.326C100.994 105.561 100.927 105.965 100.456 106.234L96.1172 108.723C95.6463 108.992 94.94 109.025 94.5364 108.79L89.9623 106.167C89.5587 105.931 89.6259 105.528 90.0968 105.258L94.4355 102.736C94.8727 102.467 95.6127 102.433 96.0163 102.669L100.557 105.326Z" fill="white"/>
<path d="M91.1395 88.0047C91.5431 88.2401 91.4759 88.6437 91.0386 88.9127L86.6999 91.4016C86.2291 91.7043 85.4891 91.7043 85.0855 91.4689L80.545 88.8455C80.1414 88.6101 80.1751 88.2065 80.6459 87.9374L84.9846 85.4149C85.4555 85.1458 86.1618 85.1122 86.5654 85.3476L91.1395 88.0047Z" fill="white"/>
<path d="M90.6675 99.6082C91.0711 99.8436 91.0374 100.247 90.5666 100.516L86.2279 103.005C85.757 103.308 85.0507 103.308 84.6471 103.072L70.2521 94.765C69.8485 94.5295 69.8821 94.1259 70.353 93.8569L74.6917 91.368C75.1625 91.099 75.8688 91.0653 76.2724 91.3008L90.6675 99.6082Z" fill="#5F646B"/>
<path d="M81.2509 105.057C81.6545 105.292 81.6208 105.696 81.1499 105.965L76.8112 108.454C76.3404 108.723 75.6341 108.756 75.2305 108.521L70.6564 105.897C70.2528 105.662 70.2864 105.258 70.7573 104.989L75.096 102.467C75.5668 102.198 76.2731 102.164 76.6767 102.4L81.2509 105.057Z" fill="white"/>
<path d="M71.4305 99.3726C71.8341 99.6081 71.8005 100.012 71.3297 100.281L66.991 102.803C66.5201 103.072 65.8138 103.106 65.4102 102.87L60.836 100.213C60.4324 99.978 60.4661 99.5744 60.937 99.3054L65.2757 96.8165C65.7465 96.5474 66.4528 96.5138 66.8564 96.7492L71.4305 99.3726Z" fill="white"/>
<path d="M125.951 159.475C125.547 159.475 125.177 159.374 124.874 159.206L31.811 105.494C31.4411 105.258 31.2393 104.955 31.2393 104.585C31.2393 104.182 31.5083 103.778 31.9455 103.543L92.9227 68.3288C93.629 67.9252 94.638 67.8915 95.277 68.2278C95.5461 68.396 95.6133 68.6987 95.4788 68.9342C95.3443 69.1696 95.0416 69.2705 94.8061 69.1023C94.5034 68.9678 93.8644 68.9342 93.4608 69.2032L32.45 104.417C32.3491 104.485 32.2819 104.518 32.2483 104.585C32.2707 104.585 32.2931 104.597 32.3155 104.619L125.379 158.331C125.681 158.5 126.32 158.5 126.758 158.264L187.735 123.05C187.836 122.983 187.903 122.916 187.937 122.882C187.914 122.882 187.892 122.871 187.869 122.848L187.533 122.646C187.298 122.512 187.23 122.209 187.365 121.974C187.499 121.738 187.802 121.637 188.038 121.806L188.374 121.974C188.744 122.209 188.946 122.512 188.946 122.882C188.946 123.286 188.677 123.655 188.239 123.925L127.262 159.139C126.859 159.374 126.388 159.475 125.951 159.475Z" fill="#3A3A3A"/>
<path fill-rule="evenodd" clip-rule="evenodd" d="M188.205 122.848C188.004 122.848 187.791 122.792 187.566 122.68C187.544 122.68 187.533 122.669 187.533 122.647L94.4694 68.9343C93.7968 68.5307 93.3932 67.6899 93.5277 66.9836L105.434 3.14764C105.535 2.67678 105.871 2.30682 106.308 2.20592C106.611 2.17228 106.914 2.23956 107.216 2.40773L200.28 56.12C200.952 56.5236 201.356 57.3645 201.221 58.0708L189.315 121.907C189.214 122.378 188.878 122.748 188.441 122.815C188.374 122.837 188.295 122.848 188.205 122.848ZM188.004 121.772C188.004 121.772 188.015 121.772 188.037 121.772C188.138 121.839 188.205 121.839 188.205 121.839C188.228 121.839 188.239 121.839 188.239 121.839C188.273 121.839 188.306 121.772 188.306 121.739L200.246 57.869C200.28 57.5999 200.078 57.1627 199.775 56.9945L106.712 3.28219C106.577 3.21492 106.51 3.21492 106.51 3.21492C106.477 3.21492 106.443 3.21491 106.443 3.31581L94.5031 67.1854C94.4694 67.4545 94.6712 67.8917 94.9739 68.0599L188.004 121.772Z" fill="#3A3A3A"/>
<path fill-rule="evenodd" clip-rule="evenodd" d="M85.3217 103.745C84.9854 103.745 84.649 103.677 84.38 103.543L69.985 95.2019C69.6486 95.0337 69.4805 94.731 69.4805 94.3947C69.4805 94.0247 69.7159 93.6548 70.1195 93.4193L74.4582 90.9305C75.0636 90.5605 75.9717 90.5269 76.5435 90.8632L90.9385 99.1706C91.2748 99.3724 91.443 99.6751 91.443 100.011C91.443 100.381 91.2075 100.718 90.8039 100.953L86.4653 103.442C86.1289 103.644 85.7253 103.745 85.3217 103.745ZM84.8845 102.635C85.1199 102.769 85.6244 102.769 85.9608 102.568L90.2994 100.079C90.3443 100.056 90.3779 100.034 90.4003 100.011L76.039 91.7377C75.8035 91.6031 75.299 91.6031 74.9627 91.8049L70.624 94.2938C70.5791 94.3162 70.5455 94.3386 70.5231 94.361L84.8845 102.635Z" fill="#3A3A3A"/>
<path fill-rule="evenodd" clip-rule="evenodd" d="M95.2434 109.462C94.8735 109.462 94.5371 109.395 94.2681 109.227L89.7276 106.604C89.3912 106.402 89.1895 106.099 89.1895 105.763C89.1895 105.393 89.4249 105.056 89.8285 104.821L94.1672 102.298C94.8062 101.929 95.7143 101.929 96.2524 102.231L100.827 104.888C101.163 105.056 101.365 105.359 101.365 105.695C101.365 106.065 101.129 106.435 100.692 106.671L96.3533 109.16C96.017 109.361 95.6134 109.462 95.2434 109.462ZM90.2657 105.729L94.7726 108.352C95.008 108.487 95.5461 108.487 95.8488 108.285L100.188 105.796C100.232 105.774 100.266 105.751 100.288 105.729L95.7479 103.106C95.5125 102.971 95.008 102.971 94.6717 103.173L90.333 105.695C90.2881 105.718 90.2657 105.729 90.2657 105.729Z" fill="#3A3A3A"/>
<path fill-rule="evenodd" clip-rule="evenodd" d="M105.098 115.146C104.728 115.146 104.392 115.079 104.156 114.911L99.5821 112.288C99.2458 112.086 99.0439 111.783 99.0439 111.447C99.0439 111.077 99.2794 110.741 99.683 110.505L104.022 107.983C104.661 107.646 105.569 107.613 106.107 107.949L110.681 110.572C111.017 110.774 111.219 111.077 111.219 111.413C111.219 111.783 110.984 112.119 110.547 112.355L106.208 114.877C105.905 115.046 105.468 115.146 105.098 115.146ZM100.12 111.447L104.661 114.037C104.863 114.171 105.401 114.171 105.737 114.003L110.076 111.48C110.098 111.458 110.121 111.436 110.143 111.413L105.602 108.823C105.367 108.689 104.863 108.689 104.526 108.857L100.187 111.38C100.165 111.402 100.143 111.424 100.12 111.447Z" fill="#3A3A3A"/>
<path fill-rule="evenodd" clip-rule="evenodd" d="M114.952 120.83C114.582 120.83 114.246 120.763 114.011 120.629L109.437 117.972C109.1 117.804 108.898 117.501 108.898 117.164C108.898 116.794 109.134 116.425 109.537 116.189L113.876 113.7C114.515 113.33 115.39 113.297 115.961 113.633L120.536 116.256C120.872 116.458 121.074 116.761 121.074 117.097C121.074 117.467 120.838 117.804 120.435 118.039L116.096 120.561C115.76 120.73 115.322 120.83 114.952 120.83ZM114.515 119.754C114.717 119.889 115.255 119.889 115.591 119.687L119.93 117.164C119.953 117.142 119.975 117.131 119.997 117.131L115.457 114.507C115.255 114.373 114.717 114.373 114.381 114.575L110.042 117.064C110.02 117.086 109.997 117.108 109.975 117.131L114.515 119.754Z" fill="#3A3A3A"/>
<path fill-rule="evenodd" clip-rule="evenodd" d="M124.807 126.548C124.437 126.548 124.101 126.447 123.865 126.313L119.291 123.689C118.955 123.487 118.753 123.185 118.753 122.848C118.753 122.478 118.988 122.108 119.392 121.873L123.731 119.384C124.37 119.014 125.278 118.98 125.816 119.317L130.39 121.94C130.726 122.142 130.928 122.445 130.928 122.781C130.928 123.151 130.693 123.521 130.289 123.723L125.95 126.245C125.614 126.447 125.177 126.548 124.807 126.548ZM124.37 125.438C124.571 125.573 125.11 125.573 125.446 125.371L129.785 122.848C129.807 122.848 129.829 122.837 129.852 122.815L125.311 120.191C125.11 120.057 124.571 120.057 124.235 120.259L119.896 122.747C119.874 122.77 119.852 122.792 119.829 122.815L124.37 125.438Z" fill="#3A3A3A"/>
<path fill-rule="evenodd" clip-rule="evenodd" d="M144.517 137.916C144.181 137.916 143.844 137.849 143.575 137.681L129.214 129.407C128.877 129.205 128.709 128.902 128.709 128.566C128.676 128.196 128.911 127.86 129.348 127.624L133.687 125.102C134.292 124.765 135.2 124.732 135.772 125.068L150.1 133.342C150.436 133.51 150.638 133.813 150.638 134.149C150.638 134.553 150.403 134.889 149.999 135.124L145.66 137.613C145.324 137.815 144.92 137.916 144.517 137.916ZM144.08 136.806C144.281 136.941 144.82 136.941 145.156 136.739L149.495 134.25C149.517 134.228 149.539 134.205 149.562 134.183L135.268 125.909C135.032 125.808 134.528 125.808 134.191 125.976L129.853 128.499C129.808 128.521 129.774 128.544 129.752 128.566L144.08 136.806Z" fill="#3A3A3A"/>
<path fill-rule="evenodd" clip-rule="evenodd" d="M85.7918 92.141C85.4555 92.141 85.1192 92.0738 84.8501 91.9056L80.276 89.2822C79.9397 89.0804 79.7715 88.7777 79.7715 88.4414C79.7715 88.0714 79.9733 87.7351 80.4105 87.4997L84.7492 84.9772C85.3546 84.6408 86.2627 84.6072 86.8345 84.9099L91.375 87.5669C91.7113 87.7351 91.9131 88.0378 91.9131 88.3741C91.9131 88.7441 91.6776 89.114 91.274 89.3495L86.9353 91.8383C86.599 92.0401 86.1954 92.141 85.7918 92.141ZM85.3546 91.0311C85.59 91.1657 86.0945 91.1657 86.4308 90.9639L90.7695 88.475C90.8144 88.4526 90.848 88.4302 90.8705 88.4077L86.33 85.7843C86.0945 85.6498 85.59 85.6834 85.2537 85.8516L80.915 88.3741C80.8702 88.3965 80.8365 88.4077 80.8141 88.4077L85.3546 91.0311Z" fill="#3A3A3A"/>
<path fill-rule="evenodd" clip-rule="evenodd" d="M95.6463 97.8252C95.31 97.8252 94.9737 97.7579 94.7046 97.5898L90.1305 94.9663C89.7941 94.7645 89.626 94.4618 89.626 94.1255C89.626 93.7555 89.8278 93.4192 90.2314 93.1838L94.6037 90.6613C95.2091 90.325 96.1172 90.2913 96.689 90.6277L101.263 93.2511C101.566 93.4529 101.768 93.7556 101.768 94.0919C101.768 94.4619 101.532 94.7982 101.129 95.0336L96.7899 97.5561C96.4535 97.7243 96.0499 97.8252 95.6463 97.8252ZM90.6686 94.1255L95.2091 96.7489C95.4446 96.8498 95.949 96.8498 96.2854 96.6817L100.624 94.1592C100.669 94.1367 100.703 94.1143 100.725 94.0919L96.1845 91.5021C95.949 91.3676 95.4446 91.3676 95.0746 91.5694L90.7695 94.0583C90.7247 94.0807 90.6911 94.1031 90.6686 94.1255Z" fill="#3A3A3A"/>
<path fill-rule="evenodd" clip-rule="evenodd" d="M105.502 103.509C105.165 103.509 104.829 103.442 104.56 103.307L99.9859 100.65C99.6496 100.482 99.4814 100.18 99.4814 99.8432C99.4814 99.4732 99.7169 99.1033 100.12 98.8678L104.459 96.3789C105.098 96.009 105.973 95.9753 106.544 96.3117L111.119 98.9351C111.455 99.1369 111.623 99.4396 111.623 99.7759C111.623 100.146 111.388 100.482 110.984 100.718L106.645 103.24C106.309 103.442 105.905 103.509 105.502 103.509ZM100.524 99.8095L105.065 102.433C105.3 102.567 105.805 102.567 106.141 102.366L110.48 99.8432C110.524 99.8207 110.558 99.8095 110.58 99.8095L106.04 97.1862C105.804 97.0516 105.3 97.0516 104.964 97.2534L100.625 99.7423C100.58 99.7647 100.546 99.7871 100.524 99.8095Z" fill="#3A3A3A"/>
<path fill-rule="evenodd" clip-rule="evenodd" d="M115.356 109.227C115.02 109.227 114.684 109.126 114.415 108.991L109.84 106.368C109.538 106.166 109.336 105.864 109.336 105.527C109.336 105.157 109.571 104.787 109.975 104.552L114.314 102.063C114.953 101.693 115.827 101.659 116.399 101.996L120.973 104.619C121.309 104.821 121.478 105.124 121.478 105.46C121.478 105.83 121.242 106.2 120.838 106.435L116.5 108.924C116.163 109.126 115.76 109.227 115.356 109.227ZM110.379 105.494L114.919 108.117C115.154 108.252 115.659 108.252 115.995 108.05L120.334 105.561C120.379 105.538 120.412 105.516 120.435 105.494L115.894 102.87C115.659 102.736 115.154 102.736 114.818 102.937L110.479 105.426C110.435 105.449 110.401 105.471 110.379 105.494Z" fill="#3A3A3A"/>
<path fill-rule="evenodd" clip-rule="evenodd" d="M125.212 114.911C124.875 114.911 124.539 114.844 124.27 114.675L119.696 112.052C119.393 111.85 119.191 111.548 119.191 111.211C119.191 110.841 119.427 110.505 119.83 110.269L124.169 107.747C124.775 107.377 125.683 107.377 126.254 107.68L130.829 110.337C131.165 110.505 131.333 110.808 131.333 111.144C131.333 111.548 131.098 111.884 130.694 112.119L126.355 114.608C126.019 114.81 125.615 114.911 125.212 114.911ZM124.775 113.801C125.01 113.935 125.514 113.935 125.851 113.734L130.19 111.245C130.234 111.222 130.268 111.2 130.29 111.178L125.75 108.554C125.514 108.42 125.01 108.42 124.674 108.621L120.335 111.144C120.29 111.166 120.256 111.178 120.234 111.178L124.775 113.801Z" fill="#3A3A3A"/>
<path fill-rule="evenodd" clip-rule="evenodd" d="M135.065 120.595C134.729 120.595 134.393 120.528 134.124 120.359L129.583 117.736C129.247 117.534 129.045 117.232 129.045 116.895C129.045 116.525 129.28 116.189 129.684 115.954L134.023 113.431C134.662 113.095 135.536 113.061 136.108 113.364L140.682 116.021C141.018 116.223 141.22 116.525 141.187 116.862C141.187 117.232 140.951 117.568 140.547 117.803L136.209 120.292C135.872 120.494 135.469 120.595 135.065 120.595ZM134.628 119.485C134.863 119.62 135.368 119.62 135.704 119.418L140.043 116.929C140.088 116.906 140.121 116.884 140.144 116.862L135.603 114.238C135.368 114.137 134.863 114.137 134.527 114.305L130.188 116.828C130.144 116.85 130.11 116.873 130.088 116.895L134.628 119.485Z" fill="#3A3A3A"/>
<path fill-rule="evenodd" clip-rule="evenodd" d="M144.953 126.279C144.583 126.279 144.247 126.212 144.012 126.077L139.438 123.42C139.101 123.218 138.899 122.916 138.899 122.579C138.899 122.209 139.135 121.873 139.538 121.638L143.877 119.149C144.516 118.779 145.391 118.745 145.962 119.081L150.537 121.705C150.873 121.907 151.075 122.209 151.075 122.546C151.075 122.916 150.839 123.252 150.436 123.487L146.063 126.01C145.761 126.178 145.323 126.279 144.953 126.279ZM144.516 125.203C144.718 125.337 145.256 125.337 145.559 125.135L149.931 122.613C149.954 122.591 149.976 122.568 149.998 122.546L145.458 119.956C145.222 119.821 144.718 119.821 144.382 120.023L140.043 122.512C140.021 122.534 139.998 122.557 139.976 122.579L144.516 125.203Z" fill="#3A3A3A"/>
<path fill-rule="evenodd" clip-rule="evenodd" d="M154.809 131.996C154.439 131.996 154.103 131.896 153.867 131.761L149.293 129.104C148.957 128.936 148.755 128.633 148.755 128.263C148.755 127.893 148.99 127.557 149.394 127.321L153.733 124.833C154.372 124.463 155.246 124.429 155.818 124.765L160.392 127.389C160.728 127.59 160.93 127.893 160.93 128.23C160.93 128.599 160.695 128.936 160.291 129.171L155.952 131.694C155.616 131.896 155.179 131.996 154.809 131.996ZM154.372 130.887C154.573 131.021 155.112 131.021 155.414 130.819L159.787 128.297C159.809 128.297 159.831 128.286 159.854 128.263L155.313 125.64C155.112 125.505 154.573 125.505 154.237 125.707L149.898 128.196C149.876 128.218 149.854 128.241 149.831 128.263L154.372 130.887Z" fill="#3A3A3A"/>
<path fill-rule="evenodd" clip-rule="evenodd" d="M96.0843 86.2218C95.7143 86.2218 95.3779 86.1209 95.1425 85.9864L90.5684 83.3293C90.2321 83.1612 90.0303 82.8585 90.0303 82.5221C90.0303 82.1522 90.2657 81.7822 90.6693 81.5468L95.008 79.0579C95.647 78.6879 96.5551 78.6543 97.0933 78.9906L101.667 81.614C102.004 81.8158 102.206 82.1185 102.206 82.4549C102.206 82.8248 101.97 83.1612 101.566 83.3966L97.2278 85.9191C96.8915 86.1209 96.4542 86.2218 96.0843 86.2218ZM95.647 85.1119C95.8488 85.2464 96.387 85.2464 96.7233 85.0446L101.062 82.5221C101.084 82.4997 101.107 82.4885 101.129 82.4885L96.5888 79.8651C96.387 79.7306 95.8488 79.7306 95.5125 79.9324L91.1738 82.4212C91.1514 82.4437 91.1289 82.4661 91.1065 82.4885L95.647 85.1119Z" fill="#3A3A3A"/>
<path fill-rule="evenodd" clip-rule="evenodd" d="M105.94 91.9057C105.57 91.9057 105.233 91.8048 104.998 91.6703L100.424 89.0469C100.088 88.8451 99.8857 88.5424 99.8857 88.2061C99.8857 87.8361 100.121 87.4998 100.525 87.2307L104.863 84.7418C105.503 84.3719 106.411 84.3719 106.949 84.6746L111.523 87.298C111.859 87.4998 112.061 87.8025 112.061 88.1388C112.061 88.5088 111.826 88.8787 111.422 89.1142L107.083 91.603C106.747 91.8048 106.31 91.9057 105.94 91.9057ZM100.962 88.1724L105.503 90.7958C105.704 90.9304 106.242 90.9304 106.579 90.7286L110.917 88.2397C110.94 88.2173 110.962 88.1949 110.985 88.1724L106.444 85.549C106.242 85.4145 105.704 85.4145 105.368 85.6163L101.029 88.1052C101.007 88.1276 100.984 88.15 100.962 88.1724Z" fill="#3A3A3A"/>
<path fill-rule="evenodd" clip-rule="evenodd" d="M115.794 97.5898C115.458 97.5898 115.122 97.5225 114.852 97.3544L110.278 94.731C109.942 94.5292 109.74 94.2265 109.74 93.8902C109.74 93.5202 109.976 93.1838 110.379 92.9484L114.752 90.4259C115.357 90.0559 116.265 90.056 116.837 90.3587L121.377 93.0157C121.714 93.1838 121.915 93.4865 121.915 93.8565C121.915 94.2265 121.68 94.5628 121.276 94.7982L116.938 97.2871C116.601 97.4889 116.198 97.5898 115.794 97.5898ZM110.816 93.8565L115.357 96.4799C115.592 96.6144 116.097 96.6144 116.433 96.4126L120.772 93.9238C120.794 93.9014 120.817 93.8789 120.839 93.8565L116.299 91.2331C116.097 91.0986 115.592 91.0986 115.222 91.3004L110.884 93.8229C110.861 93.8453 110.839 93.8565 110.816 93.8565Z" fill="#3A3A3A"/>
<path fill-rule="evenodd" clip-rule="evenodd" d="M125.647 103.274C125.31 103.274 124.974 103.206 124.705 103.038L120.131 100.415C119.795 100.213 119.593 99.9103 119.593 99.574C119.593 99.204 119.828 98.8677 120.265 98.6323L124.604 96.1098C125.209 95.7734 126.118 95.7398 126.689 96.0762L131.23 98.6995C131.566 98.9013 131.768 99.204 131.768 99.5404C131.768 99.9103 131.533 100.247 131.129 100.482L126.79 103.005C126.454 103.173 126.05 103.274 125.647 103.274ZM120.669 99.574L125.21 102.164C125.445 102.298 125.949 102.298 126.286 102.13L130.624 99.6076C130.669 99.5852 130.692 99.5628 130.692 99.5404L126.185 96.9506C125.949 96.8161 125.445 96.8161 125.109 96.9842L120.77 99.5067C120.725 99.5292 120.691 99.5516 120.669 99.574Z" fill="#3A3A3A"/>
<path fill-rule="evenodd" clip-rule="evenodd" d="M135.503 108.958C135.166 108.958 134.83 108.89 134.561 108.756L129.987 106.099C129.651 105.931 129.482 105.628 129.482 105.292C129.482 104.922 129.684 104.552 130.088 104.316L134.46 101.827C135.066 101.457 135.974 101.424 136.545 101.76L141.12 104.384C141.422 104.585 141.624 104.888 141.624 105.224C141.624 105.594 141.389 105.931 140.985 106.166L136.646 108.689C136.31 108.857 135.906 108.958 135.503 108.958ZM130.525 105.258L135.066 107.881C135.301 108.016 135.805 107.982 136.142 107.814L140.481 105.292C140.525 105.269 140.559 105.258 140.581 105.258L136.041 102.635C135.805 102.5 135.301 102.5 134.965 102.702L130.626 105.191C130.581 105.213 130.548 105.236 130.525 105.258Z" fill="#3A3A3A"/>
<path fill-rule="evenodd" clip-rule="evenodd" d="M145.357 114.676C145.021 114.676 144.685 114.575 144.416 114.44L139.841 111.817C139.505 111.615 139.337 111.312 139.337 110.976C139.337 110.606 139.572 110.236 139.976 110.001L144.315 107.512C144.92 107.142 145.828 107.108 146.4 107.444L150.974 110.068C151.31 110.27 151.479 110.572 151.479 110.909C151.479 111.279 151.243 111.649 150.839 111.85L146.501 114.373C146.164 114.575 145.761 114.676 145.357 114.676ZM144.92 113.566C145.155 113.7 145.66 113.7 145.996 113.498L150.335 110.976C150.38 110.976 150.413 110.965 150.436 110.942L145.895 108.319C145.66 108.184 145.155 108.184 144.819 108.386L140.48 110.875C140.436 110.898 140.402 110.92 140.38 110.942L144.92 113.566Z" fill="#3A3A3A"/>
<path fill-rule="evenodd" clip-rule="evenodd" d="M155.212 120.36C154.875 120.36 154.539 120.292 154.27 120.124L149.696 117.501C149.36 117.299 149.191 116.996 149.191 116.66C149.191 116.29 149.427 115.92 149.83 115.718L154.169 113.196C154.775 112.826 155.683 112.792 156.254 113.129L160.829 115.786C161.165 115.954 161.333 116.256 161.333 116.593C161.333 116.963 161.098 117.333 160.694 117.568L156.355 120.057C156.019 120.259 155.615 120.36 155.212 120.36ZM150.234 116.626L154.775 119.25C155.01 119.384 155.514 119.384 155.851 119.183L160.189 116.694C160.234 116.671 160.268 116.649 160.29 116.626L155.75 114.003C155.514 113.869 155.01 113.869 154.674 114.07L150.335 116.593C150.29 116.615 150.256 116.626 150.234 116.626Z" fill="#3A3A3A"/>
<path fill-rule="evenodd" clip-rule="evenodd" d="M165.066 126.044C164.73 126.044 164.394 125.976 164.125 125.808L159.55 123.185C159.248 122.983 159.046 122.68 159.046 122.344C159.046 121.974 159.281 121.638 159.685 121.402L164.024 118.88C164.663 118.543 165.537 118.51 166.109 118.812L170.683 121.47C171.019 121.638 171.188 121.94 171.188 122.277C171.188 122.68 170.952 123.017 170.549 123.252L166.21 125.741C165.873 125.943 165.47 126.044 165.066 126.044ZM164.629 124.934C164.864 125.068 165.369 125.068 165.705 124.866L170.044 122.378C170.089 122.355 170.122 122.333 170.145 122.31L165.604 119.687C165.369 119.586 164.864 119.586 164.528 119.754L160.189 122.277C160.145 122.299 160.111 122.31 160.089 122.31L164.629 124.934Z" fill="#3A3A3A"/>
<path fill-rule="evenodd" clip-rule="evenodd" d="M66.0828 103.509C65.7465 103.509 65.4102 103.442 65.1411 103.307L60.567 100.65C60.2307 100.449 60.0625 100.146 60.0625 99.8432C60.0625 99.4396 60.2643 99.1033 60.7015 98.8678L65.0402 96.3789C65.6456 96.009 66.5537 95.9753 67.1255 96.3117L71.6996 98.9351C72.0023 99.1369 72.2041 99.4396 72.2041 99.7759C72.2041 100.146 71.9687 100.482 71.5651 100.718L67.2264 103.24C66.89 103.408 66.4864 103.509 66.0828 103.509ZM61.1051 99.8095L65.6456 102.433C65.881 102.567 66.3855 102.567 66.7219 102.366L71.0606 99.8432C71.1054 99.8207 71.1391 99.8095 71.1615 99.8095L66.621 97.1862C66.3856 97.0516 65.881 97.0516 65.5447 97.2534L61.206 99.7423C61.1612 99.7647 61.1275 99.7871 61.1051 99.8095Z" fill="#3A3A3A"/>
<path fill-rule="evenodd" clip-rule="evenodd" d="M75.9051 109.193C75.5688 109.193 75.2324 109.126 74.9634 108.958L70.3893 106.334C70.0866 106.132 69.8848 105.83 69.8848 105.493C69.8848 105.123 70.1202 104.787 70.5238 104.552L74.8625 102.029C75.5015 101.659 76.4096 101.659 76.9478 101.962L81.5219 104.619C81.8582 104.787 82.0264 105.09 82.0264 105.426C82.0264 105.796 81.7909 106.166 81.3873 106.402L77.0487 108.89C76.7123 109.092 76.3087 109.193 75.9051 109.193ZM75.4679 108.083C75.7033 108.218 76.2078 108.218 76.5442 108.016L80.8828 105.527C80.9277 105.505 80.9613 105.482 80.9837 105.46L76.4433 102.836C76.2078 102.702 75.7033 102.735 75.367 102.904L71.0283 105.426C70.9835 105.449 70.9498 105.46 70.9274 105.46L75.4679 108.083Z" fill="#3A3A3A"/>
<path fill-rule="evenodd" clip-rule="evenodd" d="M125.31 137.714C124.974 137.714 124.638 137.647 124.369 137.479L119.795 134.855C119.458 134.654 119.29 134.351 119.29 134.015C119.29 133.645 119.525 133.308 119.929 133.073L124.268 130.55C124.907 130.214 125.781 130.18 126.353 130.517L130.927 133.14C131.263 133.342 131.432 133.645 131.432 133.981C131.432 134.351 131.196 134.687 130.793 134.923L126.454 137.412C126.118 137.613 125.714 137.714 125.31 137.714ZM120.333 134.015L124.873 136.604C125.109 136.739 125.613 136.739 125.949 136.537L130.288 134.048C130.333 134.026 130.367 134.003 130.389 133.981L125.849 131.358C125.613 131.257 125.109 131.257 124.772 131.425L120.434 133.947C120.389 133.97 120.355 133.992 120.333 134.015Z" fill="#3A3A3A"/>
<path fill-rule="evenodd" clip-rule="evenodd" d="M135.133 143.398C134.796 143.398 134.46 143.331 134.191 143.163L129.65 140.539C129.314 140.338 129.112 140.035 129.112 139.698C129.112 139.329 129.348 138.992 129.751 138.757L134.09 136.234C134.729 135.864 135.637 135.864 136.175 136.167L140.749 138.824C141.086 138.992 141.254 139.295 141.254 139.631C141.288 140.001 141.052 140.371 140.649 140.607L136.276 143.095C135.94 143.297 135.536 143.398 135.133 143.398ZM134.695 142.288C134.931 142.423 135.435 142.423 135.805 142.221L140.144 139.732C140.166 139.71 140.189 139.687 140.211 139.665L135.671 137.041C135.435 136.907 134.931 136.907 134.595 137.109L130.256 139.631C130.211 139.631 130.177 139.642 130.155 139.665L134.695 142.288Z" fill="#3A3A3A"/>
<path fill-rule="evenodd" clip-rule="evenodd" d="M115.491 132.03C115.155 132.03 114.818 131.963 114.549 131.828L80.2432 112.018C79.9069 111.817 79.7051 111.514 79.7051 111.178C79.7051 110.808 79.9405 110.471 80.3441 110.202L84.6828 107.713C85.3219 107.343 86.2299 107.31 86.7681 107.646L121.074 127.456C121.41 127.658 121.612 127.961 121.612 128.297C121.612 128.667 121.377 129.003 120.973 129.239L116.634 131.761C116.298 131.929 115.894 132.03 115.491 132.03ZM80.7814 111.144L115.054 130.954C115.289 131.089 115.794 131.089 116.13 130.887L120.469 128.364C120.513 128.342 120.536 128.331 120.536 128.331L86.2636 108.521C86.0618 108.386 85.5236 108.386 85.1873 108.588L80.8486 111.077C80.8262 111.099 80.8038 111.122 80.7814 111.144Z" fill="#3A3A3A"/>
<path d="M125.951 166.168C125.547 166.168 125.177 166.101 124.874 165.933L31.811 112.187C31.4411 111.985 31.2393 111.649 31.2393 111.279V104.586C31.2393 104.316 31.4747 104.081 31.7438 104.081C32.0128 104.081 32.2483 104.316 32.2483 104.586V111.279C32.2483 111.279 32.2819 111.279 32.3155 111.312L125.379 165.058C125.681 165.226 126.32 165.226 126.758 164.957L187.735 129.777C187.869 129.676 187.937 129.609 187.937 129.575V122.882C187.937 122.613 188.172 122.378 188.441 122.378C188.71 122.378 188.946 122.613 188.946 122.882V129.575C188.946 129.979 188.677 130.382 188.239 130.651L127.262 165.832C126.859 166.067 126.388 166.168 125.951 166.168Z" fill="#3A3A3A"/>
<path d="M188.341 122.848C188.106 122.848 187.904 122.68 187.837 122.445C187.769 122.176 187.971 121.907 188.24 121.839L193.588 120.696C193.622 120.696 193.655 120.629 193.655 120.561L205.965 55.9182C206.032 55.6491 205.831 55.2119 205.528 55.0437L112.465 1.33136C112.364 1.26409 112.33 1.26409 112.263 1.26409L106.579 3.18119C106.31 3.28209 106.007 3.14755 105.94 2.87848C105.839 2.60942 105.973 2.34036 106.242 2.23946L111.994 0.288716C112.016 0.288716 112.039 0.288716 112.061 0.288716C112.33 0.22145 112.666 0.288716 112.969 0.456883L206.032 54.1692C206.705 54.5728 207.109 55.4136 206.974 56.1199L194.664 120.763C194.563 121.234 194.227 121.604 193.79 121.671L188.442 122.815C188.397 122.837 188.364 122.848 188.341 122.848Z" fill="#3A3A3A"/>
<path d="M117.24 32.9129C117.038 32.9129 116.836 32.812 116.769 32.6102C116.668 32.3412 116.802 32.0385 117.072 31.9376L121.444 30.2559L118.451 24.2019C118.316 23.9329 118.417 23.6302 118.686 23.5293C118.921 23.3947 119.224 23.4956 119.359 23.731L122.587 30.3232C122.655 30.4577 122.655 30.5922 122.621 30.7268C122.554 30.8613 122.453 30.9622 122.318 30.9958L117.408 32.8793C117.363 32.9017 117.307 32.9129 117.24 32.9129Z" fill="#3A3A3A"/>
<path d="M112.262 58.0369C112.06 58.0369 111.892 57.9024 111.791 57.7006C111.69 57.4315 111.825 57.1625 112.094 57.0616L116.5 55.3799L113.507 49.2923C113.372 49.0568 113.473 48.7541 113.708 48.6196C113.977 48.4851 114.28 48.6196 114.415 48.855L117.644 55.4472C117.711 55.5481 117.711 55.7162 117.677 55.8508C117.61 55.9853 117.509 56.0862 117.374 56.1198L112.464 58.0033C112.397 58.0257 112.329 58.0369 112.262 58.0369Z" fill="#3A3A3A"/>
<path fill-rule="evenodd" clip-rule="evenodd" d="M174.046 62.6446C173.676 62.6446 173.306 62.5437 172.936 62.3419L128.506 36.6798C127.396 36.0407 126.724 34.6618 126.959 33.5182C127.094 32.9128 127.463 32.442 128.002 32.2065C128.506 32.0384 129.112 32.1056 129.683 32.442L174.113 58.0705C175.223 58.7096 175.895 60.1222 175.66 61.2657C175.525 61.8711 175.155 62.3419 174.617 62.5437C174.438 62.611 174.247 62.6446 174.046 62.6446ZM128.607 33.1146C128.517 33.1146 128.428 33.1258 128.338 33.1483C128.136 33.2492 128.002 33.451 127.968 33.72C127.8 34.4263 128.304 35.4017 129.011 35.8053L173.44 61.4675C173.743 61.6356 174.046 61.6693 174.281 61.602C174.55 61.5011 174.651 61.2657 174.685 61.0639C174.819 60.3239 174.315 59.3822 173.608 58.945L129.179 33.3164C128.977 33.1819 128.786 33.1146 128.607 33.1146Z" fill="#3A3A3A"/>
<path fill-rule="evenodd" clip-rule="evenodd" d="M140.413 52.4537C140.077 52.4537 139.707 52.3528 139.337 52.151L131.332 47.5433C130.222 46.9042 129.55 45.5253 129.785 44.3818C129.92 43.7427 130.29 43.2719 130.828 43.0701C131.332 42.8683 131.938 42.9355 132.509 43.2719L140.514 47.9132C141.59 48.5523 142.263 49.9312 142.061 51.0748C141.927 51.6802 141.557 52.151 141.019 52.3528C140.839 52.4201 140.637 52.4537 140.413 52.4537ZM139.841 51.2766C140.144 51.4447 140.447 51.512 140.649 51.4111C140.918 51.3102 141.019 51.0748 141.052 50.873C141.187 50.1667 140.716 49.1913 140.01 48.7877L132.005 44.1463C131.702 43.9782 131.4 43.9445 131.164 44.0118C130.929 44.1127 130.828 44.3818 130.761 44.5499C130.626 45.2899 131.13 46.2316 131.837 46.6688L139.841 51.2766Z" fill="#3A3A3A"/>
<path fill-rule="evenodd" clip-rule="evenodd" d="M176.905 73.5422C176.568 73.5422 176.198 73.4413 175.828 73.2395L145.188 55.5484C144.112 54.9094 143.439 53.5304 143.675 52.3869C143.776 51.7479 144.146 51.3106 144.684 51.0752C145.188 50.8734 145.794 50.9743 146.366 51.277L177.005 68.9681C178.082 69.6071 178.754 70.9861 178.553 72.1296C178.418 72.7687 178.048 73.2395 177.51 73.4413C177.308 73.5086 177.106 73.5422 176.905 73.5422ZM145.289 51.9833C145.2 51.9833 145.121 51.9945 145.054 52.0169C144.785 52.1178 144.684 52.3869 144.65 52.5551C144.516 53.295 144.987 54.2367 145.693 54.674L176.333 72.3651C176.635 72.5332 176.938 72.5669 177.14 72.4996C177.342 72.3987 177.51 72.2305 177.544 71.9615C177.678 71.2215 177.207 70.2798 176.501 69.8426L145.861 52.1515C145.659 52.0506 145.457 51.9833 145.289 51.9833Z" fill="#3A3A3A"/>
<path fill-rule="evenodd" clip-rule="evenodd" d="M164.999 75.8965C164.629 75.8965 164.259 75.762 163.922 75.5602L124.773 52.9923C123.697 52.3532 123.024 50.9743 123.26 49.8308C123.361 49.2254 123.731 48.7209 124.269 48.5191C124.807 48.3173 125.379 48.4181 125.95 48.7208L165.1 71.3224C166.176 71.9614 166.849 73.3404 166.613 74.4839C166.512 75.0893 166.142 75.5602 165.604 75.762C165.402 75.8517 165.201 75.8965 164.999 75.8965ZM124.874 49.4272C124.785 49.4272 124.706 49.4384 124.639 49.4608C124.37 49.5617 124.269 49.8308 124.235 49.9989C124.101 50.7389 124.572 51.6806 125.278 52.1178L164.427 74.6857C164.73 74.8539 164.999 74.9212 165.234 74.8203C165.503 74.7194 165.604 74.4839 165.638 74.2821C165.772 73.5758 165.301 72.6005 164.595 72.1969L125.446 49.5953C125.244 49.4832 125.054 49.4272 124.874 49.4272Z" fill="#3A3A3A"/>
<path fill-rule="evenodd" clip-rule="evenodd" d="M148.551 75.5936C148.181 75.5936 147.811 75.4927 147.475 75.2909L128.439 64.3265C127.329 63.6874 126.656 62.2749 126.892 61.1313C127.026 60.5259 127.396 60.0551 127.934 59.8533C128.439 59.6515 129.044 59.7187 129.582 60.0551L148.619 71.0531C149.729 71.6922 150.401 73.0711 150.166 74.2147C150.031 74.8201 149.661 75.2909 149.157 75.4927C148.955 75.56 148.753 75.5936 148.551 75.5936ZM147.98 74.4165C148.249 74.5846 148.551 74.6519 148.787 74.551C149.056 74.4501 149.157 74.2147 149.19 74.0129C149.325 73.3066 148.854 72.3312 148.114 71.9276L129.111 60.9295C128.809 60.7614 128.506 60.7277 128.271 60.795C128.035 60.8959 127.934 61.1313 127.867 61.3331C127.732 62.073 128.237 63.0148 128.943 63.452L147.98 74.4165Z" fill="#3A3A3A"/>
<path fill-rule="evenodd" clip-rule="evenodd" d="M145.29 82.9595C144.953 82.9595 144.583 82.8586 144.213 82.6568L133.888 76.6701C132.778 76.0647 132.105 74.652 132.341 73.5085C132.475 72.8695 132.845 72.4323 133.383 72.2305C133.888 72.0287 134.493 72.0959 135.065 72.4322L145.391 78.3853C146.467 79.0244 147.139 80.4033 146.938 81.5469C146.803 82.1859 146.433 82.6568 145.895 82.8586C145.716 82.9258 145.514 82.9595 145.29 82.9595ZM133.955 73.1386C133.888 73.1386 133.809 73.1498 133.72 73.1722C133.518 73.2395 133.383 73.4188 133.316 73.7103C133.182 74.4503 133.686 75.392 134.392 75.7956L144.718 81.7823C145.021 81.9505 145.323 81.9841 145.559 81.9168C145.727 81.8496 145.895 81.6478 145.929 81.3787C146.063 80.6388 145.592 79.6971 144.886 79.2598L134.561 73.3067C134.359 73.1946 134.157 73.1386 133.955 73.1386Z" fill="#3A3A3A"/>
<path fill-rule="evenodd" clip-rule="evenodd" d="M168.9 96.5806C168.53 96.5806 168.16 96.4797 167.824 96.2779L149.931 85.9525C148.821 85.3134 148.148 83.9345 148.384 82.791C148.518 82.1519 148.888 81.6811 149.393 81.4793C149.931 81.2775 150.536 81.3784 151.108 81.681L168.967 92.0065C170.077 92.6455 170.75 94.0245 170.514 95.168C170.414 95.807 170.01 96.2779 169.472 96.4797C169.292 96.547 169.102 96.5806 168.9 96.5806ZM149.998 82.3874C149.908 82.3874 149.83 82.3986 149.763 82.421C149.561 82.5107 149.426 82.6901 149.359 82.9591C149.225 83.6991 149.695 84.6408 150.435 85.078L168.328 95.4034C168.597 95.5716 168.9 95.6052 169.135 95.538C169.337 95.4483 169.472 95.2689 169.539 94.9998C169.674 94.2599 169.169 93.2845 168.463 92.8809L150.57 82.5555C150.368 82.4546 150.166 82.3874 149.998 82.3874Z" fill="#3A3A3A"/>
<path d="M140.097 76.5917V121.87C140.097 124.935 138.221 126.373 135.907 124.997L63.2985 83.0958C60.9846 81.7824 59.1084 78.2177 59.1084 75.0907V29.8122C59.1084 26.7477 60.9846 25.3093 63.2985 26.6852L135.907 68.5866C138.221 69.9 140.097 73.5273 140.097 76.5917Z" fill="white"/>
<path fill-rule="evenodd" clip-rule="evenodd" d="M137.596 126.498C136.908 126.498 136.22 126.248 135.47 125.81L62.8614 83.9089C60.2347 82.4079 58.1709 78.5305 58.1709 75.0908V29.8123C58.1709 27.8735 58.9214 26.31 60.1096 25.6221C61.1728 24.9967 62.4861 25.1218 63.7994 25.8723L136.408 67.7737C139.034 69.2746 141.036 73.1521 141.036 76.5918V121.87C141.036 123.809 140.348 125.373 139.159 126.06C138.659 126.352 138.138 126.498 137.596 126.498ZM61.6731 27.123C61.4646 27.123 61.2562 27.1647 61.0477 27.2481C60.4223 27.6234 60.0471 28.5615 60.0471 29.8123V75.0908C60.0471 77.8425 61.7982 81.1571 63.7994 82.2828L136.408 124.184C136.908 124.497 137.596 124.747 138.221 124.434C138.784 124.059 139.159 123.121 139.159 121.87V76.5918C139.159 73.84 137.471 70.588 135.47 69.3997L62.8614 27.4983C62.4861 27.3107 62.1109 27.123 61.6731 27.123Z" fill="black"/>
<path d="M72.0543 57.2669C71.7416 57.2669 71.4289 57.0792 71.2413 56.7665C70.9911 56.3288 71.1162 55.7659 71.6165 55.5158L77.0574 52.3263L71.2413 42.2574C70.9911 41.8196 71.1162 41.2568 71.6165 41.0066C72.0543 40.6939 72.6171 40.8815 72.8673 41.3193L79.1838 52.2012C79.4339 52.6389 79.2463 53.2643 78.8086 53.5145L72.5546 57.1418C72.3878 57.2252 72.221 57.2669 72.0543 57.2669Z" fill="black"/>
<path d="M106.514 70.0876C106.347 70.0876 106.181 70.0459 106.014 69.9625L86.2513 58.5804C85.751 58.2677 85.6259 57.7048 85.876 57.267C86.1262 56.8293 86.6891 56.6417 87.1894 56.9543L106.952 68.3365C107.452 68.6492 107.577 69.2121 107.327 69.6499C107.139 69.9625 106.827 70.0876 106.514 70.0876Z" fill="black"/>
<path d="M124.525 91.6637C124.358 91.6637 124.191 91.622 124.025 91.5386L92.5673 73.4022C92.1296 73.152 91.942 72.5267 92.1921 72.0889C92.5048 71.6511 93.0677 71.526 93.5054 71.7762L124.963 89.9126C125.401 90.1628 125.588 90.7256 125.338 91.2259C125.15 91.4761 124.838 91.6637 124.525 91.6637Z" fill="black"/>
<path d="M121.898 101.357C121.731 101.357 121.564 101.316 121.397 101.232L79.5586 77.0294C79.1208 76.7793 78.9332 76.2164 79.1833 75.7787C79.4335 75.2783 80.0589 75.1532 80.4967 75.4034L122.336 99.6062C122.836 99.8563 122.961 100.419 122.711 100.857C122.523 101.17 122.211 101.357 121.898 101.357Z" fill="black"/>
<path d="M37.6968 105.493C39.0421 107.848 39.9165 110 39.9165 111.379C39.9165 113.095 38.5376 114.171 37.125 114.944C35.107 115.987 32.4836 117.198 30.7683 117.87C29.9274 118.207 29.2884 118.409 29.1203 118.409C28.1785 118.409 27.0014 117.366 26.026 116.761C25.869 116.626 25.7121 116.503 25.5551 116.391C25.0843 116.054 24.6807 115.785 24.6807 115.146C24.6807 114.743 24.9497 114.608 25.3197 114.608C25.7906 114.608 26.4296 114.81 26.8332 114.81C28.044 114.81 28.7167 112.792 29.6248 112.792C29.7817 112.792 29.9611 112.825 30.1629 112.893C30.3647 112.938 30.5889 113.027 30.8356 113.162C32.6518 111.716 33.4253 111.211 33.9298 110.942C33.3917 109.798 32.8536 108.789 32.3827 107.949C34.0644 106.738 35.7797 105.931 37.6968 105.493Z" fill="white"/>
<path d="M13.9853 107.209C13.5817 103.206 10.8911 99.1367 10.0166 95.1343C8.97397 95.5379 8.06589 96.1097 7.25869 96.7824C5.98063 96.177 5.20703 94.9326 5.20703 91.8047C5.20703 91.4011 5.24068 91.0087 5.30795 90.6275C8.46947 87.6678 12.0682 85.8516 14.7925 86.2888C14.9495 86.3336 15.1064 86.3785 15.2634 86.4233C15.3307 86.4233 15.3979 86.4345 15.4652 86.457C15.8688 86.6139 16.2724 86.7709 16.676 86.9278C16.8778 89.0467 18.9294 90.3584 21.1828 90.3584C21.8891 90.3584 22.7636 90.2575 23.7726 89.9885C24.6022 90.3921 25.4206 90.8069 26.2278 91.2329C26.9678 91.6141 27.6292 92.0849 28.2122 92.6455C28.257 92.7128 28.3131 92.78 28.3804 92.8473C30.7011 95.2016 35.0734 100.785 37.6968 105.493C35.7797 105.931 34.0644 106.738 32.3827 107.949C31.7437 106.771 31.1383 105.796 30.6338 105.023C30.432 107.444 30.1629 109.866 30.1629 112.153C30.1629 112.399 30.1629 112.646 30.1629 112.893C29.9611 112.825 29.7818 112.792 29.6248 112.792C28.7167 112.792 28.044 114.81 26.8332 114.81C26.4296 114.81 25.7906 114.608 25.3197 114.608C24.9498 114.608 24.6807 114.743 24.6807 115.146C24.6807 115.785 25.0843 116.054 25.5552 116.391C25.2188 116.413 24.8825 116.424 24.5462 116.424C20.4429 116.424 16.9114 114.44 13.7163 111.615C13.7387 111.458 13.7611 111.312 13.7835 111.177C14.9943 111.043 16.1042 109.967 16.1042 109.496C16.1042 109.193 15.8015 109.159 15.5325 109.159C15.0952 109.159 14.4562 109.294 13.9517 109.428C13.9965 108.98 14.019 108.543 14.019 108.117C14.019 107.825 14.0078 107.523 13.9853 107.209Z" fill="#C2C7CC"/>
<path d="M34.635 163.612C35.3413 163.612 36.1485 163.881 36.1485 164.587C36.1485 165.562 34.8705 166.269 34.0633 166.672C31.3054 168.32 27.7402 170.372 25.9577 170.372C25.5541 170.372 25.1505 170.237 24.7805 170.036C24.4778 169.867 24.2424 169.666 24.0742 169.397C28.2447 170.372 30.0273 166.369 30.1618 163.948C30.5654 164.116 31.0027 164.217 31.4735 164.217C32.5162 164.217 33.5251 163.612 34.635 163.612Z" fill="#373A3A"/>
<path d="M33.929 110.942C33.4245 111.211 32.651 111.715 30.8348 113.162C30.5881 113.027 30.3639 112.937 30.1621 112.893C30.1621 112.646 30.1621 112.399 30.1621 112.153C30.1621 109.866 30.4312 107.444 30.633 105.022C31.1375 105.796 31.7429 106.771 32.3819 107.949C32.8528 108.789 33.3909 109.798 33.929 110.942Z" fill="white"/>
<path d="M21.8885 133.812C20.7113 137.512 19.8368 140.976 19.1978 143.97C18.6933 146.459 18.4242 149.015 18.4578 151.571C18.4915 154.598 18.7269 156.784 18.7269 156.784C18.7494 156.851 18.7606 156.919 18.7606 156.986C18.9287 160.585 16.3053 163.511 12.5384 162.67C12.4039 162.625 12.2693 162.58 12.1348 162.535C11.7312 162.434 11.4958 162.064 11.563 161.661C12.1348 158.129 12.2357 155.17 11.4285 147.098C11.2267 140.438 13.7492 136.537 13.7492 130.315C13.7492 129.799 13.7492 129.294 13.7492 128.801C13.7492 127.557 13.7828 126.312 13.8501 125.101C13.9174 123.857 13.9846 122.613 13.9846 121.301C13.9846 120.763 13.8837 120.191 13.6819 119.686C13.3456 118.745 13.2447 117.702 13.2447 116.626C13.2447 115.011 13.5138 113.296 13.7156 111.615C16.9107 114.44 20.4422 116.424 24.5455 116.424C24.8818 116.424 25.2181 116.413 25.5545 116.39C25.7114 116.503 25.8684 116.626 26.0253 116.76C27.0007 117.366 28.1779 118.408 29.1196 118.408C29.2878 118.408 29.9268 118.207 30.7676 117.87C31.373 121.099 32.1466 124.294 32.1466 127.624C32.1466 135.494 28.716 141.918 28.7496 155.237C28.7496 156.358 28.8281 157.479 28.9851 158.6C29.3214 160.887 29.7923 162.233 29.9941 162.771C30.1286 163.04 30.1959 163.331 30.1959 163.645C30.1959 163.735 30.1847 163.836 30.1622 163.948C30.0277 166.369 28.2452 170.372 24.0746 169.396C23.9625 169.352 23.8392 169.318 23.7046 169.296C23.2001 169.127 22.8638 168.69 22.8302 168.152C22.7965 166.639 22.662 163.174 22.4266 159.744C22.393 158.836 22.3257 157.961 22.2248 157.087C22.1239 155.741 21.9893 154.497 21.8212 153.454C21.6866 152.445 21.4512 151.403 21.4512 150.192C21.4512 147.199 22.3257 145.046 22.3257 141.245C22.3257 138.757 22.1575 136.268 21.8885 133.812Z" fill="#5F646B"/>
<path d="M25.353 76.9387C26.0593 78.654 26.0929 80.4702 26.0593 82.4209C26.0593 82.7348 26.0593 83.0488 26.0593 83.3627C26.0369 83.3851 26.0145 83.4187 25.9921 83.4636C25.7566 83.8335 25.3194 84.8089 24.7813 84.7753C24.2431 84.7753 23.9404 82.7237 23.9404 82.1183C23.9741 81.3111 24.6467 80.6047 24.6467 79.7303C24.6804 79.2594 24.5122 78.7885 24.2431 78.3849C24.7476 78.015 25.1512 77.4769 25.353 76.9387Z" fill="white"/>
<path d="M26.0596 83.3628C26.0596 83.5422 26.0596 83.7328 26.0596 83.9346C26.026 85.179 25.9587 86.558 24.6806 86.558C24.277 86.5244 23.8398 86.0871 23.4362 85.4481C23.1335 84.9436 22.8308 84.3046 22.5954 83.6992C22.4945 83.4637 22.2927 83.2956 22.0236 83.2619C21.7545 83.1947 21.5191 83.2956 21.3509 83.4974C20.6446 84.3382 19.9047 85.8517 18.8957 85.8517C18.6603 85.8517 18.4249 85.7508 18.1895 85.5827C16.8778 84.6073 15.936 81.2103 15.9696 79.7641C16.0705 75.19 21.7546 74.2482 23.5035 74.2819C24.647 74.3155 25.5551 74.9545 25.5215 76.0981C25.5215 76.3671 25.4654 76.6474 25.3533 76.9389C25.1179 77.477 24.7479 78.0152 24.2434 78.3851C24.5125 78.7887 24.6807 79.2596 24.647 79.7305C24.647 80.6049 23.9744 81.3112 23.9407 82.1184C23.9407 82.7238 24.2434 84.7754 24.7816 84.7754C25.3197 84.8091 25.7569 83.8337 25.9924 83.4638C26.0148 83.4189 26.0372 83.3853 26.0596 83.3628Z" fill="#373A3A"/>
<path d="M23.5369 89.8875C23.6042 89.9323 23.6827 89.966 23.7724 89.9884C22.7634 90.2574 21.8889 90.3584 21.1826 90.3584C18.9292 90.3584 16.8776 89.0466 16.6758 86.9278C16.9224 87.0174 17.1691 87.1071 17.4157 87.1968C17.5502 87.2641 17.7184 87.2641 17.8529 87.1632C17.9875 87.0959 18.0547 86.9614 18.0884 86.8269C18.1556 86.4233 18.1893 85.986 18.1893 85.5824C18.4247 85.7506 18.6601 85.8515 18.8956 85.8515C19.9046 85.8515 20.6445 84.338 21.3508 83.4972C21.5189 83.2954 21.7544 83.1945 22.0234 83.2617C22.2925 83.2954 22.4943 83.4635 22.5952 83.6989C22.8307 84.3043 23.1334 84.9434 23.4361 85.4479C23.2006 86.4569 23.0661 87.5331 23.0324 88.5758C23.0324 88.7776 23.0324 88.9682 23.0324 89.1475C23.0324 89.4502 23.2342 89.7529 23.5369 89.8875Z" fill="white"/>
<path d="M22.2245 157.087C22.3254 157.961 22.3926 158.836 22.4263 159.744C21.72 159.979 21.0473 160.215 20.3747 160.618C18.1549 161.964 16.305 163.982 14.4215 163.982C14.1525 163.982 13.8834 163.937 13.6143 163.847C13.0426 163.679 12.6726 163.208 12.5381 162.67C16.305 163.511 18.9284 160.585 18.7602 156.986C19.1302 157.121 19.6011 157.188 20.1728 157.188C20.8455 157.188 21.5855 157.121 22.2245 157.087Z" fill="#373A3A"/>
<path d="M21.8885 133.812C22.1576 136.268 22.3257 138.757 22.3257 141.245C22.3257 145.046 21.4513 147.199 21.4513 150.192C21.4513 151.403 21.6867 152.445 21.8212 153.454C21.9894 154.497 22.1239 155.741 22.2248 157.087C21.5858 157.12 20.8458 157.188 20.1732 157.188C19.6014 157.188 19.1306 157.12 18.7606 156.986C18.7606 156.919 18.7494 156.851 18.727 156.784C18.727 156.784 18.4915 154.598 18.4579 151.571C18.4243 149.015 18.6933 146.459 19.1978 143.97C19.8369 140.976 20.7113 137.512 21.8885 133.812Z" fill="white"/>
<path d="M13.9513 109.428C14.4558 109.294 15.0949 109.159 15.5321 109.159C15.8012 109.159 16.1039 109.193 16.1039 109.496C16.1039 109.967 14.994 111.043 13.7832 111.177C13.6935 111.2 13.6038 111.211 13.5141 111.211C11.0925 111.211 5.03852 104.383 1.33886 99.9775C0.329861 98.8003 0.228994 97.1186 1.03619 95.807C2.21336 93.8899 3.6932 92.1073 5.3076 90.6274C5.24033 91.0086 5.20668 91.401 5.20668 91.8046C5.20668 94.9325 5.98028 96.1769 7.25835 96.7823C7.03412 96.9393 6.82111 97.1186 6.61931 97.3204C6.38387 97.5559 6.35022 97.9259 6.55202 98.1949C11.597 105.022 11.967 108.049 12.7069 108.049C13.0096 108.049 13.4469 107.579 13.985 107.209C14.0074 107.523 14.0186 107.825 14.0186 108.117C14.0186 108.543 13.9962 108.98 13.9513 109.428Z" fill="white"/>
<path d="M14.792 86.2891C14.9489 86.3115 15.1059 86.3563 15.2629 86.4236C15.1059 86.3788 14.9489 86.3339 14.792 86.2891Z" fill="white"/>
<path d="M13.9844 107.209C13.4463 107.579 13.009 108.05 12.7063 108.05C11.9664 108.05 11.5964 105.023 6.55144 98.1952C6.34964 97.9261 6.3833 97.5561 6.61873 97.3207C6.82053 97.1189 7.03355 96.9395 7.25777 96.7826C8.06497 96.1099 8.97305 95.5381 10.0157 95.1345C10.8901 99.1369 13.6145 103.207 13.9844 107.209Z" fill="white"/>
<path fill-rule="evenodd" clip-rule="evenodd" d="M24.7476 87.0625C24.7251 87.0625 24.7027 87.0625 24.6803 87.0625C24.1085 87.0289 23.5704 86.5916 23.0322 85.7172C22.7183 85.2463 22.4156 84.6409 22.1241 83.901C22.0905 83.8001 22.0232 83.7664 21.956 83.7328C21.8551 83.7328 21.7878 83.7664 21.7206 83.8337C21.5524 84.0019 21.3842 84.2709 21.2161 84.5064C20.6107 85.3808 19.938 86.3562 18.929 86.3562C18.9066 86.3562 18.8954 86.3562 18.8954 86.3562C18.559 86.3338 18.2339 86.2105 17.92 85.9862C16.3729 84.8427 15.4311 81.2776 15.4647 79.7641C15.4984 77.6116 16.7092 75.9299 18.8954 74.8536C20.6779 73.9791 22.6286 73.7773 23.5031 73.7773C24.3103 73.811 24.983 74.0801 25.4538 74.5509C25.8574 74.9545 26.0256 75.4926 26.0256 76.098C26.0256 76.3671 25.9807 76.6362 25.8911 76.9053C26.5637 78.6878 26.5974 80.5376 26.5637 82.4211C26.5637 82.6453 26.5637 82.8808 26.5637 83.1274V83.3628C26.5637 83.5646 26.5637 83.7664 26.5637 83.9346C26.5301 85.1118 26.4629 87.0625 24.7476 87.0625ZM21.8887 82.7238C21.956 82.7238 22.0345 82.735 22.1241 82.7574C22.5277 82.8247 22.8977 83.0938 23.0659 83.4974C23.335 84.1925 23.604 84.7642 23.8731 85.2127C24.3776 86.0199 24.6803 86.0535 24.7139 86.0535C25.1175 86.0535 25.3529 85.7844 25.4538 85.0445C25.252 85.2127 25.0502 85.2799 24.7812 85.2799C23.5367 85.2463 23.4358 82.1184 23.4358 82.0848C23.4358 81.6139 23.6376 81.1767 23.8394 80.7731C24.0076 80.4031 24.1421 80.0668 24.1421 79.7304C24.1758 79.3941 24.0412 79.0241 23.8058 78.6205C23.7049 78.4187 23.7385 78.116 23.9403 77.9815C24.3439 77.6788 24.6803 77.208 24.8821 76.7371C24.9717 76.5129 25.0166 76.2886 25.0166 76.0644C25.0166 75.7281 24.9157 75.459 24.7139 75.2572C24.4448 74.9545 24.0076 74.7863 23.4695 74.7863C22.7632 74.7863 20.9806 74.9545 19.3326 75.7617C17.4827 76.6698 16.5074 78.0151 16.4737 79.7977C16.4401 81.0758 17.3482 84.3382 18.4917 85.179C18.6487 85.2911 18.7944 85.3472 18.929 85.3472C19.3998 85.3472 19.938 84.5736 20.3752 83.9346C20.577 83.6655 20.7788 83.3965 20.947 83.161C21.1824 82.892 21.5524 82.7238 21.8887 82.7238ZM24.8821 78.486C25.0839 78.9344 25.1736 79.3605 25.1511 79.7641C25.1511 80.3022 24.9494 80.7731 24.7476 81.1767C24.613 81.513 24.4448 81.8157 24.4448 82.1184C24.4448 82.6565 24.6803 83.8337 24.8821 84.2373C25.0166 84.1252 25.2072 83.8337 25.4538 83.3628C25.4875 83.3292 25.5547 83.1947 25.5547 83.1947V83.1274C25.5547 82.8808 25.5547 82.6341 25.5547 82.3875C25.5884 80.874 25.5547 79.495 25.2184 78.1497C25.1063 78.2618 24.9942 78.3739 24.8821 78.486Z" fill="#3A3A3A"/>
<path d="M17.5839 87.7351C17.4494 87.7351 17.3261 87.7127 17.214 87.6679C16.9785 87.567 15.1959 86.8943 15.1287 86.8943C14.9941 86.8495 14.8596 86.8158 14.7251 86.7934C14.456 86.7598 14.2542 86.5243 14.2878 86.2216C14.3215 85.9526 14.5906 85.7508 14.8596 85.8181C15.0614 85.8405 15.252 85.8741 15.4314 85.919C15.4987 85.9414 15.5659 85.9638 15.6332 85.9862C16.0368 86.1544 17.3485 86.6252 17.5839 86.7261C17.6512 86.3562 17.6848 85.9526 17.6848 85.549C17.7185 85.2799 17.9539 85.0781 18.223 85.0781C18.492 85.0781 18.7275 85.3135 18.6938 85.6162C18.6938 86.0198 18.6602 86.4571 18.5929 86.8943C18.5257 87.197 18.3575 87.4661 18.0884 87.6006C17.9315 87.6903 17.7633 87.7351 17.5839 87.7351Z" fill="#3A3A3A"/>
<path d="M13.8171 163.309C13.3687 163.309 12.909 163.253 12.4381 163.141C12.2812 163.118 12.1355 163.085 12.0009 163.04C11.3619 162.838 10.9583 162.233 11.0592 161.56C11.6309 158.163 11.7318 155.237 10.9246 147.131C10.9246 147.131 10.9246 147.12 10.9246 147.098C10.8237 143.566 11.4628 140.775 12.1018 138.084C12.6736 135.561 13.2453 133.207 13.2453 130.315C13.2453 130.046 13.2453 129.037 13.2453 128.801C13.2453 127.59 13.279 126.413 13.3462 125.236V125.068C13.4135 123.857 13.4808 122.613 13.4808 121.301C13.4808 120.83 13.3799 120.326 13.2117 119.855C12.8754 118.913 12.7408 117.87 12.7408 116.626C12.7408 115.146 12.9427 113.565 13.1781 112.018L13.279 111.11C13.3126 110.841 13.5817 110.639 13.8507 110.673C14.1198 110.706 14.3216 110.976 14.288 111.245L14.1535 112.153C13.9517 113.666 13.7498 115.213 13.7498 116.626C13.7498 117.769 13.8844 118.711 14.1535 119.518C14.3553 120.09 14.4898 120.696 14.4898 121.301C14.4898 122.646 14.4225 123.891 14.3552 125.102V125.303C14.288 126.447 14.2543 127.624 14.2543 128.801C14.2543 129.037 14.2543 130.046 14.2543 130.315C14.2543 133.342 13.6489 135.864 13.0772 138.286C12.4718 140.943 11.8327 143.667 11.9336 147.064C12.7408 155.271 12.6399 158.23 12.0682 161.728C12.0345 161.896 12.1354 162.031 12.27 162.064C12.4045 162.109 12.5278 162.143 12.64 162.165C14.1535 162.502 15.4988 162.199 16.5414 161.325C17.6849 160.383 18.324 158.735 18.2567 156.986C18.2567 156.941 18.2455 156.885 18.2231 156.818C18.2231 156.818 17.9876 154.598 17.954 151.571C17.9204 148.981 18.1894 146.391 18.7276 143.869C19.4339 140.405 20.342 136.94 21.4182 133.644C21.4182 133.622 21.4182 133.611 21.4182 133.611C21.5191 133.409 21.6873 133.308 21.8891 133.308C22.1582 133.308 22.3936 133.51 22.3936 133.813C22.3936 133.857 22.3824 133.913 22.3599 133.981C21.3173 137.243 20.4429 140.64 19.7029 144.071C19.1648 146.526 18.9294 149.048 18.963 151.571C18.9966 154.531 19.2321 156.683 19.2321 156.717C19.2545 156.806 19.2657 156.885 19.2657 156.952C19.3666 159.004 18.5594 160.955 17.1805 162.098C16.2387 162.905 15.0616 163.309 13.8171 163.309Z" fill="#3A3A3A"/>
<path d="M14.4215 164.486C14.0852 164.486 13.7601 164.43 13.4461 164.318C12.7398 164.083 12.2017 163.477 12.0336 162.771C11.9999 162.502 12.1681 162.233 12.4371 162.165C12.7062 162.098 12.9753 162.266 13.0426 162.535C13.1098 162.939 13.4125 163.242 13.7825 163.376C13.9843 163.444 14.1973 163.477 14.4215 163.477C15.5314 163.477 16.7422 162.603 18.0203 161.627C18.693 161.123 19.3656 160.618 20.1392 160.181C20.8791 159.71 21.6863 159.441 22.2917 159.273C22.5608 159.206 22.8635 159.34 22.9307 159.609C22.998 159.878 22.8635 160.147 22.5944 160.248C22.0227 160.416 21.3163 160.652 20.6437 161.022C19.9374 161.459 19.2647 161.964 18.592 162.434C17.1795 163.511 15.8677 164.486 14.4215 164.486Z" fill="#3A3A3A"/>
<path d="M13.9507 109.933C13.9507 109.933 13.9395 109.933 13.9171 109.933C13.648 109.899 13.4462 109.664 13.4462 109.361C13.491 108.935 13.5135 108.52 13.5135 108.117C13.5135 107.848 13.5023 107.567 13.4799 107.276C13.2444 105.09 12.3363 102.803 11.3946 100.616C10.6883 98.8676 9.91471 97.0514 9.54475 95.2352C9.41022 94.7307 9.34297 94.2934 9.30933 93.8226C9.2757 93.5535 9.47747 93.3181 9.74654 93.2844C10.0156 93.2508 10.2847 93.4526 10.3183 93.7217C10.352 94.1253 10.4192 94.5625 10.5201 95.0334C10.8901 96.7487 11.63 98.5312 12.3363 100.247C13.2781 102.5 14.2534 104.854 14.4889 107.175C14.5113 107.511 14.5225 107.825 14.5225 108.117C14.5225 108.543 14.5 108.991 14.4552 109.462C14.4552 109.731 14.2198 109.933 13.9507 109.933Z" fill="#3A3A3A"/>
<path d="M28.3801 93.3521C28.2456 93.3521 28.1111 93.2848 28.0102 93.1839C27.9653 93.1166 27.9093 93.0606 27.842 93.0157C27.3039 92.4776 26.6648 92.0404 25.9922 91.6704C25.2186 91.2668 24.3777 90.8632 23.5369 90.4596C23.3015 90.3251 23.167 90.0224 23.3015 89.787C23.436 89.5179 23.7387 89.417 23.9742 89.5515C24.8486 89.9551 25.6895 90.3924 26.463 90.796C27.2254 91.1771 27.9205 91.6704 28.5483 92.2758C28.6155 92.3431 28.6828 92.4103 28.7501 92.4776C28.9519 92.6794 28.9519 93.0157 28.7501 93.1839C28.6492 93.2848 28.5146 93.3521 28.3801 93.3521Z" fill="#3A3A3A"/>
<path d="M23.7728 90.4931C23.6831 90.4931 23.6046 90.4819 23.5373 90.4595L23.3019 90.3586C22.831 90.1231 22.5283 89.6522 22.5283 89.1477C22.5283 88.9684 22.5283 88.7778 22.5283 88.576C22.562 87.4997 22.6965 86.3562 22.9656 85.3472C23.0328 85.0781 23.3019 84.91 23.571 84.9772C23.8401 85.0445 24.0082 85.3136 23.9409 85.5826C23.7055 86.5244 23.571 87.567 23.5373 88.6096C23.5373 88.789 23.5373 88.9572 23.5373 89.1141C23.5373 89.2487 23.6383 89.3832 23.7392 89.4505L23.9746 89.5514C24.2436 89.6859 24.3445 89.9886 24.21 90.224C24.1091 90.3922 23.9409 90.4931 23.7728 90.4931Z" fill="#3A3A3A"/>
<path d="M30.1627 113.397C29.8936 113.397 29.6582 113.195 29.6582 112.893C29.6582 112.646 29.6582 112.399 29.6582 112.153C29.6582 110.303 29.8264 108.352 29.9945 106.469C30.0394 105.976 30.0842 105.482 30.1291 104.989C30.1291 104.72 30.3981 104.518 30.6672 104.518C30.9363 104.552 31.1381 104.787 31.1381 105.056C31.0932 105.572 31.0484 106.076 31.0035 106.57C30.8354 108.42 30.6672 110.337 30.6672 112.153C30.6672 112.399 30.6672 112.635 30.6672 112.859C30.6672 113.162 30.4654 113.397 30.1963 113.397C30.1739 113.397 30.1627 113.397 30.1627 113.397Z" fill="#3A3A3A"/>
<path d="M25.3525 170.036C24.9041 170.036 24.4445 169.98 23.9736 169.867C23.8391 169.845 23.7045 169.811 23.57 169.767C22.8637 169.565 22.3592 168.926 22.3256 168.186C22.2247 165.058 22.0901 162.233 21.9556 159.777C21.8547 158.768 21.8211 157.894 21.7538 157.12C21.6193 155.674 21.4847 154.463 21.3502 153.522C21.3053 153.297 21.2605 153.062 21.2157 152.815C21.0811 152.008 20.9466 151.167 20.9466 150.192C20.9466 148.746 21.1484 147.501 21.3502 146.19C21.5856 144.71 21.8211 143.196 21.8211 141.245C21.8211 138.925 21.6865 136.503 21.3838 133.846C21.182 131.996 20.8793 130.012 20.5093 127.826C20.3075 126.615 19.7694 125.472 18.9286 124.563C17.7851 123.353 17.1797 121.738 17.1797 120.023C17.1797 119.081 17.3142 118.173 17.4487 117.299V117.198C17.4824 116.929 17.7515 116.727 18.0205 116.761C18.2896 116.794 18.4914 117.063 18.4577 117.332V117.433C18.3232 118.341 18.1887 119.182 18.1887 120.023C18.1887 121.503 18.7268 122.848 19.6685 123.891C20.6102 124.933 21.2829 126.245 21.5183 127.658C21.8883 129.844 22.191 131.862 22.3928 133.745C22.6955 136.436 22.8301 138.891 22.8301 141.245C22.8301 143.297 22.5946 144.844 22.3592 146.358C22.1574 147.636 21.9556 148.813 21.9556 150.192C21.9556 151.1 22.0901 151.874 22.2247 152.647C22.2695 152.894 22.3031 153.14 22.3256 153.387C22.4937 154.363 22.6283 155.54 22.7292 157.053C22.7964 157.827 22.8637 158.701 22.931 159.71C23.0991 162.165 23.2337 165.024 23.3346 168.152C23.3682 168.455 23.57 168.724 23.839 168.791C23.9736 168.836 24.0969 168.87 24.209 168.892C25.4871 169.195 26.597 169.027 27.5051 168.354C28.8504 167.345 29.5567 165.394 29.6576 163.914C29.68 163.825 29.6912 163.735 29.6912 163.645C29.6912 163.399 29.6464 163.174 29.5567 162.973C29.2876 162.367 28.8168 161.022 28.4805 158.668C28.3459 157.558 28.245 156.414 28.245 155.271C28.245 147.636 29.3213 142.288 30.2967 137.613C31.0366 134.048 31.642 130.987 31.642 127.624C31.642 125.034 31.1375 122.478 30.6666 119.989C30.5321 119.317 30.3975 118.644 30.263 117.971C30.2294 117.702 30.3976 117.433 30.6666 117.366C30.9693 117.332 31.2047 117.5 31.272 117.77C31.3841 118.442 31.5075 119.115 31.642 119.787C32.1465 122.344 32.651 124.967 32.651 127.624C32.651 131.088 32.0119 134.216 31.272 137.815C30.3303 142.456 29.254 147.737 29.254 155.237C29.254 156.381 29.3549 157.457 29.4895 158.533C29.8258 160.854 30.2967 162.132 30.4648 162.569C30.6218 162.905 30.7002 163.264 30.7002 163.645C30.7002 163.757 30.689 163.87 30.6666 163.982C30.5657 165.562 29.8258 167.883 28.1105 169.161C27.2809 169.744 26.3615 170.036 25.3525 170.036Z" fill="#3A3A3A"/>
<path d="M25.9585 170.877C25.5212 170.877 25.0504 170.742 24.5459 170.473C24.1759 170.271 23.8732 170.002 23.6714 169.632C23.5032 169.397 23.6041 169.094 23.8396 168.96C24.075 168.825 24.3777 168.892 24.5122 169.128C24.6468 169.33 24.8149 169.464 25.0167 169.599C25.3531 169.778 25.667 169.868 25.9585 169.868C27.741 169.868 31.8106 167.412 33.795 166.235C33.795 166.213 33.8062 166.202 33.8287 166.202C34.2659 166 35.6448 165.327 35.6448 164.587C35.6448 164.217 34.9722 164.116 34.6358 164.116C34.1313 164.116 33.6605 164.251 33.156 164.419C32.6179 164.554 32.0461 164.722 31.4743 164.722C30.9362 164.722 30.3981 164.621 29.9608 164.386C29.6918 164.251 29.5909 163.948 29.7254 163.713C29.8599 163.444 30.1626 163.343 30.3981 163.477C30.7007 163.646 31.0707 163.713 31.4743 163.713C31.9116 163.713 32.3824 163.578 32.8869 163.444C33.4251 163.276 33.9968 163.107 34.6358 163.107C35.8466 163.107 36.6538 163.713 36.6538 164.587C36.6538 165.798 35.4094 166.572 34.2995 167.11C31.2389 168.926 27.8419 170.877 25.9585 170.877Z" fill="#3A3A3A"/>
<path d="M20.1738 157.692C19.5011 157.692 18.9966 157.625 18.5594 157.457C18.2903 157.322 18.1894 157.053 18.2903 156.784C18.3912 156.515 18.6939 156.414 18.963 156.515C19.2321 156.616 19.6357 156.683 20.1738 156.683C20.611 156.683 21.0819 156.65 21.5528 156.616C21.777 156.594 22.0012 156.582 22.2254 156.582C22.4945 156.582 22.7299 156.784 22.7299 157.053C22.7636 157.322 22.5618 157.558 22.2591 157.591C22.0573 157.591 21.8443 157.603 21.62 157.625C21.1492 157.659 20.6447 157.692 20.1738 157.692Z" fill="#3A3A3A"/>
<path d="M24.5457 116.929C20.7451 116.929 17.1128 115.315 13.3795 111.985C13.1777 111.783 13.1777 111.48 13.3458 111.279C13.5476 111.043 13.8503 111.043 14.0521 111.211C17.5836 114.373 21.0142 115.92 24.5457 115.92C24.8596 115.92 25.1847 115.909 25.5211 115.886C25.8238 115.886 26.0592 116.088 26.0592 116.357C26.0928 116.626 25.8911 116.862 25.5884 116.895C25.2296 116.918 24.882 116.929 24.5457 116.929Z" fill="#3A3A3A"/>
<path d="M21.1829 90.8632C18.4923 90.8632 16.3734 89.2488 16.1716 86.9617C16.138 86.6926 16.3398 86.4572 16.6425 86.4236C16.9115 86.3899 17.147 86.5917 17.1806 86.8944C17.3488 88.8452 19.3331 89.8542 21.1829 89.8542C21.6874 89.8542 22.4947 89.8205 23.6382 89.5178C23.9073 89.4506 24.1763 89.6187 24.2436 89.8878C24.3109 90.1569 24.1427 90.4259 23.8736 90.4932C22.8982 90.7286 21.9565 90.8632 21.1829 90.8632Z" fill="#3A3A3A"/>
<path d="M13.5141 111.716C12.7741 111.716 10.5207 111.716 0.935202 100.314C-0.174696 98.9687 -0.309229 97.0516 0.598869 95.5717C1.80967 93.6546 3.28953 91.8048 4.97119 90.2576C8.43542 87.0288 12.1351 85.3472 14.893 85.8181C15.0724 85.8405 15.2406 85.8741 15.3975 85.9189C15.6666 85.9862 15.8347 86.2889 15.7675 86.558C15.7002 86.827 15.3975 86.9616 15.1284 86.8943C14.9939 86.8495 14.8594 86.8158 14.7248 86.7934C12.2696 86.3898 8.87265 87.9706 5.64386 90.9976C4.0631 92.4774 2.61686 94.26 1.47333 96.0762C0.767027 97.2197 0.867952 98.6323 1.70878 99.6413C10.0835 109.63 12.7741 110.707 13.5141 110.707C13.5813 110.707 13.6486 110.695 13.7158 110.673C14.523 110.572 15.2294 110 15.4984 109.664C15.0948 109.664 14.4894 109.799 14.0858 109.899L13.8168 109.967C13.4132 110.068 13.2786 110.101 13.1777 110.101C12.9087 110.101 12.6732 109.899 12.6396 109.597C12.6396 109.328 12.875 109.092 13.1441 109.092C13.1777 109.092 13.3795 109.025 13.5813 108.991L13.8504 108.924C14.3549 108.79 15.0275 108.655 15.532 108.655C16.5074 108.655 16.6083 109.227 16.6083 109.496C16.6083 110.269 15.2293 111.514 13.8504 111.682C13.7383 111.704 13.6262 111.716 13.5141 111.716Z" fill="#3A3A3A"/>
<path d="M12.7068 108.554C12.1014 108.554 11.8324 107.982 11.227 106.805C10.5207 105.325 9.17534 102.567 6.14835 98.4978C5.77838 97.9933 5.84565 97.3543 6.28289 96.9507C6.48469 96.7489 6.69771 96.5583 6.92193 96.3789C7.79639 95.6726 8.77174 95.1009 9.84801 94.6636C10.0834 94.5627 10.3861 94.6636 10.487 94.9327C10.5879 95.2018 10.487 95.4708 10.218 95.6054C9.2426 96.009 8.36813 96.5134 7.56093 97.1525C7.35913 97.3319 7.15735 97.5112 6.95555 97.6906C6.92192 97.7243 6.92192 97.8251 6.95555 97.8924C10.0498 102.063 11.3952 104.855 12.1351 106.368C12.3705 106.839 12.6059 107.31 12.7741 107.512C12.8414 107.444 13.0432 107.31 13.1777 107.209C13.3122 107.074 13.514 106.94 13.6822 106.805C13.9176 106.637 14.2203 106.704 14.3885 106.94C14.5567 107.175 14.4894 107.478 14.254 107.646C14.097 107.758 13.9513 107.87 13.8167 107.982C13.4131 108.285 13.0768 108.554 12.7068 108.554Z" fill="#3A3A3A"/>
<path d="M29.1199 118.913C28.2791 118.913 27.4046 118.308 26.5637 117.702C26.261 117.501 26.0256 117.332 25.7566 117.164C25.7341 117.164 25.7117 117.153 25.6893 117.131C25.5547 117.03 25.4202 116.929 25.2857 116.794H25.2521C24.7476 116.424 24.1758 116.021 24.1758 115.146C24.1758 114.911 24.2431 114.104 25.3193 114.104C25.622 114.104 25.9247 114.171 26.2274 114.205C26.4628 114.272 26.6983 114.305 26.8328 114.305C27.2364 114.305 27.64 113.835 28.0436 113.364C28.4808 112.859 28.9517 112.288 29.6244 112.288C29.8262 112.288 30.0616 112.332 30.3307 112.422C30.4652 112.444 30.5997 112.489 30.7343 112.557C32.0796 111.514 32.8195 111.009 33.2568 110.74C32.8195 109.832 32.4159 108.991 31.9451 108.184C31.4069 107.175 30.8352 106.234 30.1961 105.292C29.7253 104.585 29.3217 104.014 28.9517 103.509C28.3127 102.668 27.8418 101.996 27.5055 101.256C27.4046 100.987 27.5055 100.684 27.7746 100.583C28.0436 100.482 28.3463 100.583 28.4472 100.852C28.7163 101.491 29.1535 102.097 29.7589 102.904C30.1289 103.442 30.5661 104.014 31.037 104.754C31.676 105.695 32.2478 106.671 32.8196 107.68C33.3577 108.655 33.8622 109.664 34.3667 110.707C34.5012 110.942 34.4003 111.245 34.1649 111.379C33.7613 111.615 33.0886 112.018 31.1379 113.532C30.9697 113.666 30.7679 113.7 30.5997 113.599C30.3979 113.51 30.2074 113.431 30.028 113.364C29.871 113.319 29.7365 113.297 29.6244 113.297C29.4226 113.297 29.0863 113.7 28.8172 114.036C28.3127 114.608 27.7073 115.314 26.8328 115.314C26.5974 115.314 26.3283 115.247 26.0592 115.214C25.7902 115.18 25.5211 115.113 25.3193 115.113C25.2521 115.113 25.2072 115.124 25.1848 115.146C25.1848 115.483 25.3193 115.617 25.8238 115.954L25.8574 115.987C25.992 116.088 26.1602 116.189 26.3283 116.323C26.5974 116.492 26.8665 116.693 27.1355 116.895C27.8082 117.366 28.5818 117.904 29.1199 117.904C29.1199 117.904 29.3889 117.871 30.5997 117.4C32.1132 116.794 34.7367 115.617 36.8555 114.474C38.6045 113.566 39.4117 112.59 39.4117 111.379C39.4117 110.202 38.6717 108.252 37.2591 105.729C34.7703 101.289 30.4652 95.639 28.0436 93.1838C28.0436 93.1838 27.8754 93.0493 27.8418 93.0156C27.64 92.8138 27.64 92.5112 27.8418 92.3094C28.0436 92.1076 28.3463 92.0739 28.5481 92.2757C28.593 92.3206 28.6378 92.3654 28.6826 92.4103L28.7499 92.4775C31.2388 94.9664 35.6111 100.718 38.1672 105.258C39.6807 107.949 40.4207 110 40.4207 111.379C40.4207 113.498 38.6717 114.675 37.36 115.382C35.1739 116.525 32.5169 117.702 30.9697 118.341C29.4899 118.913 29.2208 118.913 29.1199 118.913Z" fill="#3A3A3A"/>
<path d="M32.3828 108.453C32.2482 108.453 32.0801 108.386 31.9792 108.218C31.811 108.016 31.8782 107.68 32.1137 107.511C33.9299 106.233 35.6788 105.426 37.5959 104.989C37.865 104.955 38.1341 105.123 38.2013 105.392C38.2686 105.662 38.1004 105.931 37.7977 105.998C36.0151 106.368 34.4008 107.141 32.6855 108.352C32.5958 108.419 32.4949 108.453 32.3828 108.453Z" fill="#3A3A3A"/>
<path d="M7.25831 97.2872C7.16862 97.2872 7.09012 97.2648 7.02285 97.2199C5.40846 96.4463 4.70215 94.832 4.70215 91.805C4.70215 91.3565 4.7358 90.9417 4.80306 90.5605C4.8367 90.2915 5.10575 90.0897 5.37481 90.1233C5.64388 90.1569 5.8457 90.426 5.81206 90.6951C5.7448 91.0314 5.71115 91.4014 5.71115 91.805C5.71115 95.0338 6.552 95.8746 7.4601 96.3118C7.72917 96.4463 7.83005 96.749 7.69552 96.9845C7.59462 97.1863 7.42648 97.2872 7.25831 97.2872Z" fill="#3A3A3A"/>
</svg>
