<svg width="472" height="476" viewBox="0 0 472 476" fill="none" xmlns="http://www.w3.org/2000/svg">
<g filter="url(#filter0_d_4_4016)">
<path d="M410.736 347.02C407.978 403.499 364.88 454.681 312.05 465.69C259.22 476.7 201.402 447.417 175.659 397.741C172.819 392.259 170.289 386.509 167.759 380.76C161.229 365.917 154.701 351.079 142.83 340.87C129.275 329.212 111.843 326.095 94.2355 322.946C83.0545 320.946 71.8027 318.933 61.4281 314.714C36.4184 304.541 16.9997 280.443 11.5865 252.861C2.81432 208.164 30.6003 162.529 67.6538 138.676C104.707 114.824 149.232 108.181 192.421 103.062C208.942 101.103 222.362 88.0307 231.947 73.7661C235.658 68.2438 238.996 62.441 242.332 56.6426C247.614 47.4631 252.889 38.2944 259.624 30.266C288.145 -3.72901 341.256 -9.46553 377.583 14.9789C413.91 39.4233 431.298 89.6882 421.638 133.842C419.974 141.447 417.612 148.852 415.25 156.258L415.25 156.259C412.989 163.348 410.728 170.437 409.078 177.703C405.553 193.233 404.88 209.305 404.479 225.264C404 244.293 403.888 263.371 405.585 282.322C406.175 288.915 406.985 295.499 407.794 302.082C409.632 317.041 411.47 331.993 410.736 347.02Z" fill="#9DB9E8"/>
<path d="M192.361 89.572C212.114 79.2535 227.836 61.3335 237.737 40.6308C239.035 37.9164 240.265 35.0322 240.219 31.9951C240.174 28.958 238.491 25.7411 235.693 24.9698C231.683 23.8644 228.235 27.9012 225.735 31.3732C208.558 55.2243 183.557 73.9484 155.345 78.032C144.51 79.6003 133.509 79.0113 122.586 78.4191L105.525 77.4942C91.7833 76.7493 77.851 76.0192 64.4002 79.0638C50.9493 82.1085 37.8063 89.4309 30.4187 101.62C28.0672 105.5 26.3059 110.072 26.9565 114.619C27.6233 119.28 30.7782 123.235 34.5784 125.742C38.3787 128.25 42.7938 129.504 47.1693 130.554C50.3728 131.322 53.6448 132.003 56.9228 131.76C62.282 131.364 67.1453 128.566 71.8774 125.843C72.1926 125.662 72.5072 125.481 72.8214 125.301C81.092 120.563 89.662 116.356 98.6005 113.23C111.635 108.671 125.341 106.44 139.013 104.214C157.432 101.216 175.789 98.2281 192.361 89.572Z" fill="#9DB9E8"/>
<path d="M89.6362 364.461L89.6478 364.462C90.4529 364.496 91.2575 364.529 92.06 364.573C104.753 365.267 117.315 368.534 128.848 374.143C133.245 376.282 137.699 378.958 140.169 383.336C143.225 388.753 146.893 393.789 151.072 398.304C152.694 400.056 154.449 401.769 156.614 402.664C158.778 403.559 161.451 403.477 163.207 401.875C165.341 399.929 165.479 396.474 164.822 393.588C163.745 388.859 161.057 384.737 158.398 380.756C149.67 367.692 140.482 354.631 128.337 345.039C116.191 335.447 100.517 329.639 85.6513 332.952C80.5183 334.096 75.4309 336.428 72.0277 340.622C68.6245 344.816 67.2797 351.128 69.7307 356C71.6751 359.865 75.6171 362.243 79.6529 363.315C82.9056 364.178 86.275 364.32 89.6362 364.461Z" fill="#9DB9E8"/>
<path d="M432.975 167.975C429.582 166.631 425.739 168.254 422.867 170.579C417.194 175.17 413.839 182.353 412.312 189.701C410.784 197.049 410.908 204.65 411.038 212.169L412.16 276.778C412.242 281.499 412.442 286.586 415.206 290.309C416.071 291.474 417.256 292.497 418.655 292.647C420.352 292.829 421.921 291.704 423.146 290.458C429.846 283.647 430.726 272.917 431.528 263.137L431.557 262.782C432.736 248.426 434.776 234.149 437.663 220.062C438.474 216.101 439.366 212.114 441.064 208.475C446.387 197.068 445.114 182.588 437.892 172.397C436.586 170.553 435.023 168.785 432.975 167.975Z" fill="#9DB9E8"/>
<path d="M311.429 255.428C315.009 256.464 318.216 259.594 318.568 263.476C319.247 261.932 320.739 260.816 322.35 260.646L320.011 263.257L322.971 263.319L318.897 265.708C321.423 270.613 321.014 276.663 319.395 281.973C318.404 285.223 316.971 288.479 317.25 291.879C317.525 295.224 320.354 298.64 323.445 297.956L323.6 297.918C327.316 296.932 331.385 297.503 334.724 299.478C339.522 302.316 342.432 307.587 345.73 312.218C348.641 316.306 352.086 320.107 356.392 322.475C360.699 324.844 365.979 325.626 370.465 323.659C372.691 322.684 374.684 321.069 377.046 320.555C379.408 320.041 381.828 321.419 382.696 323.77C383.079 324.809 382.255 328.662 380.152 333.161C380.494 333.058 380.852 332.992 381.226 332.966C392.275 332.213 403.425 329.691 412.933 323.734C415.956 321.841 418.779 319.623 421.582 317.386L423.215 316.078L424.204 315.279C430.355 310.276 436.426 304.699 438.955 297.09L439.087 296.68L439.367 295.781C439.908 294.078 440.594 292.318 442.16 291.789C444.326 291.058 446.299 293.26 447.616 295.209L457.106 309.257C457.35 309.618 457.599 309.991 457.692 310.423C458.103 312.332 455.389 313.296 453.641 312.618C450.46 311.386 447.908 307.713 444.572 308.343C442.226 308.786 440.825 311.171 439.666 313.417L439.373 313.99C432.35 327.795 420.533 338.84 406.66 344.564C403.084 346.04 399.389 347.17 395.7 348.298L388.247 350.578L389.56 350.824C400.68 352.871 412.544 354.121 422.643 348.947C429.367 345.502 434.546 339.571 439.432 333.577L441.205 331.39L441.937 330.476C444.935 326.698 447.785 322.655 448.66 317.868C448.996 316.029 451.205 315.153 452.924 315.651C454.643 316.149 455.951 317.576 457.168 318.944L466.394 329.312C467.12 330.129 467.885 331.03 467.992 332.143C468.098 333.255 467.149 334.513 466.126 334.202L456.122 331.151C455.184 330.865 454.145 330.585 453.261 331.023C452.584 331.359 452.147 332.048 451.76 332.728L441.005 351.798C437.977 357.169 432.364 360.282 426.849 362.611C413.625 368.195 399.275 370.818 385.032 370.256C383.485 370.195 381.936 370.097 380.407 369.844C374.661 368.893 369.472 365.825 364.447 362.722C365.329 366.105 364.544 368.959 359.311 369.176C354.677 369.368 343.325 349.332 339.795 348.293C320.526 342.619 317.362 331.42 311.172 323.77C311.172 323.77 298.662 325.467 290.402 323.659C271.041 319.421 258.03 306.383 253.339 305.553C248.649 304.723 245.555 307.88 244.107 305.965V304.578C244.331 304.196 246.573 301.997 252.967 303.425C261.896 305.42 276.17 312.95 287.07 314.356C298.513 315.833 308.206 313.879 308.153 313.551C308.044 312.882 310.92 310.039 308.622 308.603C306.324 307.168 272.962 293.108 265.71 281.391L265.623 281.245C264.377 279.072 263.43 273.672 265.938 276.144L266.641 274.836C269.342 277.511 278.211 283.625 287.424 289.653C297.165 296.026 310.92 300.107 311.172 299.928C316.778 295.947 311.806 293.065 310.878 292.219C308.706 290.238 305.823 289.158 303.951 286.864C299.463 281.362 302.669 271.519 297.538 266.674C296.761 265.941 295.82 265.365 295.257 264.441C294.293 262.859 294.767 260.657 295.934 259.233C297.102 257.81 298.809 257.015 300.498 256.396C304.004 255.11 307.848 254.393 311.429 255.428Z" fill="white"/>
<path d="M315.76 283.565C315.76 284.333 315.168 284.955 314.437 284.955C313.705 284.955 313.113 284.333 313.113 283.565C313.113 282.798 313.705 282.175 314.437 282.175C315.168 282.175 315.76 282.798 315.76 283.565Z" fill="#FFB61D"/>
<path d="M307.347 283.565C307.347 284.333 306.907 284.955 306.365 284.955C305.823 284.955 305.383 284.333 305.383 283.565C305.383 282.798 305.823 282.175 306.365 282.175C306.907 282.175 307.347 282.798 307.347 283.565Z" fill="#FFB61D"/>
<path d="M258.392 290.302C246.084 286.96 233.148 286.189 220.558 288.046C221.511 283.106 222.703 278.216 224.129 273.404C220.033 274.792 215.197 270.85 215.462 266.339C215.727 261.828 220.987 258.539 224.89 260.445C226.231 257.197 226.316 253.4 225.122 250.089C224.549 248.5 226.832 247.584 228.45 247.584L237.387 247.582C238.636 247.581 240.378 246.972 240.068 245.701C239.332 242.688 241.305 239.246 244.185 238.518C247.013 237.803 250.196 239.836 250.927 242.782L250.965 242.947C251.643 246.111 255.461 247.116 258.55 247.054L260.087 247.015C262.758 246.956 265.542 247.048 267.33 249.01C269.469 251.356 268.991 255.093 268.286 258.278L268.239 258.49C267.24 262.912 266.175 267.317 265.045 271.704C267.24 290.256 261.804 291.228 258.392 290.302Z" fill="white"/>
<path d="M155.734 274.812C154.429 265.896 154.431 256.77 155.74 247.854L155.806 247.422C156.13 245.399 156.7 243.263 158.311 242.148C159.516 241.313 161.039 241.251 162.491 241.25L173.607 241.282C174.113 241.284 174.668 241.304 175.048 241.654C175.429 242.004 175.419 242.809 174.931 242.95C173.766 243.289 173.097 244.699 173.238 245.959C173.38 247.219 174.16 248.31 175.076 249.137C177.262 251.109 180.658 251.81 183.077 250.166C185.496 248.521 186.064 244.285 183.772 242.451C188.965 242.34 194.16 242.357 199.353 242.502L201.299 242.563C201.929 242.584 202.624 242.637 203.064 243.11C203.394 243.465 203.503 243.982 203.577 244.472C204.152 248.246 203.523 252.211 201.815 255.586C201.543 256.123 200.913 256.716 200.483 256.307C198.659 254.568 195.591 254.805 193.724 256.493C191.858 258.182 191.136 260.986 191.466 263.55C191.783 266.018 193.496 268.653 195.865 268.529C197.73 268.431 199.805 266.718 201.214 268.005L198.839 279.146C198.417 281.125 197.66 283.473 195.771 283.898C184.867 286.347 173.433 286.162 162.606 283.361L162.081 283.221C160.767 282.86 159.458 282.393 158.432 281.471C156.648 279.867 156.091 277.25 155.734 274.812Z" fill="white"/>
<path d="M241.285 187.381L267.636 187.937L268.067 187.948C268.858 187.974 269.656 188.047 270.368 188.396C271.979 189.186 272.718 191.132 273.207 192.926C275.822 202.503 275.499 212.939 272.298 222.319L272.164 222.703C271.747 223.857 271.202 225.007 270.219 225.656C269.409 226.191 268.422 226.302 267.461 226.356L267.256 226.367C263.338 226.562 259.406 226.457 255.502 226.053C257.535 224.738 258.048 221.539 256.757 219.43C255.466 217.321 252.739 216.441 250.442 217.126C249.042 217.543 247.738 218.548 247.232 219.98C246.725 221.413 247.215 223.252 248.509 223.952C249.404 224.436 249.249 225.959 248.466 226.623C247.682 227.286 246.594 227.333 245.587 227.35L232.366 227.575C231.372 227.592 230.328 227.597 229.455 227.097C228.218 226.388 227.649 224.861 227.3 223.427C226.459 219.967 226.346 216.315 226.97 212.805C227.721 215.577 230.975 217.26 233.526 216.197C236.078 215.134 237.347 211.567 236.084 209.008C234.821 206.449 231.313 205.48 229.015 207.056L228.919 206.162C228.59 203.027 228.333 199.851 228.907 196.763C229.535 193.381 231.326 190.06 234.263 188.523C236.405 187.402 238.878 187.341 241.285 187.381Z" fill="white"/>
<path d="M161.364 218.505C157.653 218.521 153.942 218.36 150.245 218.025L149.886 217.99C148.562 217.852 147.173 217.573 146.306 216.54C145.135 215.144 145.421 213.041 145.773 211.2L145.808 211.017C147.379 202.941 147.996 194.661 147.642 186.427L147.576 185.007C147.478 182.454 147.633 179.559 149.653 178.246C150.267 177.847 150.98 177.662 151.691 177.511L151.928 177.462C164.859 174.817 178.324 175.085 191.15 178.243C192.839 178.659 193.309 181.061 192.749 182.785C192.189 184.509 190.986 185.958 190.536 187.717C190.086 189.476 190.911 191.858 192.645 191.915C196.254 192.033 199.312 195.883 198.827 199.639C198.342 203.396 194.475 206.245 190.936 205.499C190.105 205.324 189.811 206.613 189.902 207.498L190.913 217.304C191.077 218.904 188.914 219.41 187.386 219.285L178.468 218.556C177.067 218.441 175.188 218.695 174.972 220.153C174.434 223.784 170.889 226.618 167.413 226.197C163.937 225.776 161.1 222.169 161.364 218.505Z" fill="white"/>
<path fill-rule="evenodd" clip-rule="evenodd" d="M137.359 278.855C138.349 279.108 139.765 279.556 139.687 280.539C138.103 300.34 131.287 296.696 125.209 302.374C123.603 303.874 122.643 307.423 121.953 307.504C124.511 308.745 128.223 313.721 134.612 313.948C152.412 314.582 158.891 300.944 158.891 300.944C159.31 296.571 157.198 288.696 159.834 290.901C161.654 292.423 161.294 285.008 163.78 285.746C164.527 285.968 163.222 290.899 163.78 291.194C164.088 291.357 164.544 290.012 165.339 288.943C166.002 288.051 167.025 287.391 167.236 287.586C167.38 287.718 167.242 288.992 166.645 290.07C165.806 291.586 164.403 293.044 164.599 293.287C164.816 293.555 168.516 289.939 168.741 290.255C170.238 292.353 160.755 316.49 144.753 321.047L143.486 321.404C134.158 324.006 130.241 324.361 121.598 321.047C117.5 319.475 114.951 334.155 112.674 339.041C111.235 342.126 104.249 349.687 101.059 347.4C96.8506 344.383 93.4188 338.768 89.8372 335.928L89.607 335.75C87.1662 333.913 81.6455 331.124 73.0448 327.385L73.4323 327.197C75.2267 326.34 79.8487 324.246 83.3977 321.047C88.4403 316.501 91.1714 306.736 94.6867 301.47C98.1574 296.271 102.815 297.036 100.004 296.116C100.004 296.116 92.8814 292.154 89.607 291.791C78.6718 290.58 64.4165 296.006 59.8561 299.503C53.5989 304.301 59.8158 311.362 51.1699 307.902C48.2883 306.748 56.0116 291.805 66.6649 285.746C81.4728 277.324 95.4742 275.008 109.512 288.414C115.225 293.87 115.79 298.727 117.322 302.43L117.009 301.522C133.943 300.35 108.57 282.548 129.753 278.093C131.977 277.625 134.312 278.112 136.542 278.654L137.359 278.855Z" fill="white"/>
<path d="M127.777 291.211C127.777 291.978 127.185 292.601 126.454 292.601C125.723 292.601 125.13 291.978 125.13 291.211C125.13 290.443 125.723 289.821 126.454 289.821C127.185 289.821 127.777 290.443 127.777 291.211Z" fill="#FFB61D"/>
<path d="M135.059 293.991C135.059 294.758 134.466 295.381 133.735 295.381C133.004 295.381 132.411 294.758 132.411 293.991C132.411 293.223 133.004 292.601 133.735 292.601C134.466 292.601 135.059 293.223 135.059 293.991Z" fill="#FFB61D"/>
<path fill-rule="evenodd" clip-rule="evenodd" d="M56.8824 345.118C71.2317 355.551 52.8722 341.14 68.5504 358.313C71.7165 361.781 87.7467 341.975 89.4004 353.713C90.0035 357.995 88.6882 362.452 89.4901 366.697C90.2383 370.658 106.648 368.28 107.915 366.547C112.51 360.267 98.2107 344.133 95.2124 341.554C78.4813 327.163 72.9603 328.161 57.3272 343.05L56.8824 345.118Z" fill="white"/>
<path fill-rule="evenodd" clip-rule="evenodd" d="M430.163 84.343C432.977 84.6963 435.594 85.0248 435.594 81.5804C435.594 80.7609 426.122 73.5619 423.315 76.3342C419.706 79.8994 416.839 83.9877 414.062 87.9477C408.234 96.261 402.801 104.009 391.725 105.163L391.591 105.178C387.297 105.723 395.297 109.724 404.28 105.163C410.457 102.027 418.675 92.105 422.578 87.3923C423.599 86.1591 424.325 85.2826 424.642 84.9778L424.723 84.9046C426.054 83.8274 428.158 84.0915 430.163 84.343ZM443.525 93.6651L452.897 101.476C454.723 102.998 452.585 106.278 450.259 106.435C448.909 106.526 447.614 106.09 446.313 105.651C445.372 105.334 444.427 105.016 443.455 104.895C437.951 104.212 433.755 109.655 430.341 114.239C427.221 118.428 423.804 122.373 420.129 126.033L419.632 126.523L419.114 127.023C416.158 129.846 412.842 132.402 408.941 133.138C403.199 134.223 397.494 131.135 392.803 127.492C391.659 126.603 390.535 125.67 389.41 124.737C385.926 121.846 382.436 118.949 378.305 117.326C374.724 119.378 371.374 121.857 368.314 124.684L368.45 124.572C373.587 129.978 377.179 136.983 378.65 144.462L377.668 144.281L377.019 144.165C370.949 143.096 364.448 142.464 359.318 145.875C357.51 147.077 355.897 148.755 354.303 150.415C353.193 151.571 352.092 152.717 350.939 153.687C351.232 153.87 351.532 154.06 351.838 154.257C357.515 156.695 363.532 158.256 369.637 158.876C370.57 158.97 371.512 159.045 372.458 159.121C376.837 159.47 381.273 159.824 385.015 162.132L386.328 162.956C388.433 164.265 390.778 165.511 392.543 163.995C393.05 163.559 393.382 162.962 393.716 162.361C393.919 161.996 394.122 161.63 394.366 161.298C395.011 160.422 396.29 159.805 397.091 160.525L397.417 163.203C397.652 161.48 399.236 160.079 400.893 160.128C402.55 160.176 404.057 161.667 404.201 163.401C404.463 166.549 401.064 168.432 398.179 169.434L383.228 174.494C377.885 176.301 371.963 175.365 366.812 173.022C362.017 170.84 357.787 167.519 353.744 164.029L352.849 163.251C349.795 160.584 345.669 157.686 342.205 159.726C348.224 160.11 352.613 165.557 356.203 170.707L356.548 171.205C357.129 172.046 357.728 172.931 357.871 173.959C358.273 176.838 355.159 178.749 352.529 179.663C354.745 180.91 353.647 184.53 351.93 186.458C349.431 189.263 346.159 191.281 342.63 192.281L342.308 193.452C342.287 193.53 342.278 193.572 342.28 193.573C343.945 193.451 344.971 195.8 344.293 197.401C343.615 199.001 341.941 199.854 340.335 200.331C335.044 201.902 329.067 200.662 324.742 197.097L323.901 197.557C320.247 199.543 316.467 201.39 312.405 202.016C308.031 202.69 303.216 201.744 300.054 198.5L300.263 198.978C300.71 200.019 301.112 201.096 301.126 202.231C301.142 203.54 300.498 204.953 299.317 205.373C297.368 206.066 295.665 203.879 294.654 201.998C294.1 203.446 294.671 205.076 295.227 206.661C295.86 208.469 296.474 210.218 295.372 211.572C294.225 212.982 292.049 212.621 290.47 211.79C284.556 208.675 281.778 200.835 283.059 194.02C284.34 187.204 289.007 181.497 294.565 177.728C290.791 174.824 288.031 170.5 286.907 165.732C287.206 166.138 288.544 164.832 290.444 162.978C293.921 159.585 299.279 154.355 303.609 154.404C304.439 154.413 305.778 155.087 307.09 155.747C308.04 156.225 308.975 156.696 309.693 156.902C309.752 156.821 309.824 156.749 309.907 156.685L309.088 156.067C307.44 154.838 305.72 153.682 303.768 153.173C301.492 152.578 298.797 153.067 297.347 155.003C293.8 159.737 289.307 163.684 284.244 166.515L287.246 172.333C286.005 172.955 284.46 172.841 283.309 172.056L283.167 171.955L283.256 172.071C284.984 174.439 283.465 178.566 280.636 179.034C277.764 180.299 274.869 176.52 275.151 173.264C275.35 170.982 276.426 168.959 277.505 166.933C277.965 166.068 278.426 165.203 278.819 164.316C280.147 161.32 280.731 157.992 281.311 154.686C282.106 150.154 282.894 145.661 285.581 142.119C287.463 139.638 290.099 137.913 292.803 136.498C303.533 130.882 316.23 129.54 327.811 132.796C329.783 125.376 333.694 118.534 339.002 113.216L339.319 112.905C341.349 110.94 343.875 109.185 346.569 109.507L346.782 109.537C349.457 109.965 351.782 107.798 353.726 105.792L354.325 105.174L354.795 104.699C358.653 100.83 363.131 97.2596 368.402 96.8744C373.091 96.5317 377.579 98.7923 381.627 101.302C386.206 104.141 390.561 107.378 394.635 110.967L395.351 111.605C395.539 111.774 395.729 111.945 395.919 112.117L395.927 112.124C399.768 115.589 403.972 119.38 408.973 119.065C414.1 118.743 417.845 114.275 421.296 110.157L421.297 110.155L421.3 110.152L421.314 110.136L421.319 110.13C421.59 109.806 421.86 109.484 422.129 109.167C426.386 104.134 431.234 99.7042 436.141 95.3646L438.246 93.5089C438.883 92.9483 439.568 92.3645 440.392 92.2521C441.552 92.0941 442.609 92.9017 443.525 93.6651ZM350.861 178.965C349.82 178.747 348.398 178.842 346.597 179.25C347.783 179.255 348.781 179.233 349.592 179.184C349.985 179.133 350.375 179.069 350.759 178.988L350.861 178.965ZM312.269 154.87C312.65 154.461 313.051 154.029 313.495 153.659C314.323 153.201 315.254 152.969 316.193 153.062C319.368 153.379 321.772 156.925 321.357 160.245C319.681 164.606 315.533 167.094 311.431 169.555C308.904 171.071 306.394 172.577 304.49 174.504C304.968 173.676 305.491 173.016 306.021 172.61C307.677 171.345 309.408 170.248 311.04 169.215C312.412 168.346 313.713 167.521 314.84 166.679C316.613 165.353 317.803 164.094 318.726 163.117C319.432 162.371 319.981 161.79 320.514 161.472C320.557 161.446 322.558 157.188 317.721 154.404C314.069 152.302 312.442 154.961 311.568 156.39C311.284 156.854 311.079 157.188 310.911 157.188C310.867 157.188 310.806 157.18 310.729 157.166C310.85 156.713 311.034 156.275 311.269 155.866C311.597 155.595 311.924 155.242 312.269 154.87ZM313.302 153.772C312.471 154.277 311.759 155.011 311.269 155.866L311.149 155.961C310.908 156.145 310.666 156.28 310.417 156.342C309.914 156.466 308.717 155.502 307.703 154.685C307.097 154.197 306.556 153.761 306.269 153.643C304.373 152.862 304.15 152.851 302.836 152.786C302.614 152.775 302.36 152.762 302.063 152.744L301.517 152.708C301.398 152.701 301.266 152.695 301.126 152.689C300.037 152.641 298.468 152.572 298.781 151.682C304.382 135.764 328.313 132.3 324.357 150.294C324.029 151.782 323.17 153.084 322.311 154.386C321.882 155.037 321.452 155.688 321.089 156.363C319.543 154.055 317.858 152.839 316.035 152.714C315.018 152.644 314.202 153.073 313.495 153.659L313.302 153.772ZM356.711 139.492L356.716 139.483C355.399 142.112 353.985 145.276 352.473 148.975C353.61 145.688 355.033 142.513 356.711 139.492ZM367.381 141.916L367.198 141.924C365.737 141.988 364.427 142.217 363.268 142.612C361.981 143.05 360.612 143.781 359.161 144.808C361.701 143.33 364.507 142.342 367.381 141.916Z" fill="white"/>
<path fill-rule="evenodd" clip-rule="evenodd" d="M292.71 208.582C291.562 209.992 289.9 209.537 288.376 207.978C285.188 204.714 283.907 198.417 285.188 191.602C286.469 184.786 291.462 181.978 297.02 178.209C294.526 177.131 290.008 170.292 289.554 163.647C291.092 165.73 291.173 169.468 292.71 171.55C294.168 173.527 297.083 175.933 298.542 177.909C298.728 178.161 298.889 178.585 298.624 178.743C293.297 181.92 289.844 182.972 286.702 191.601C283.559 200.231 289.939 208.213 290.787 207.978C291.831 207.688 291.461 206.233 290.862 205.29C289.17 202.629 290.779 199.081 292.158 196.229C292.896 197.097 291.123 199.587 291.496 202.176C291.861 204.704 293.731 207.327 292.71 208.582Z" fill="#E7EAEE"/>
<path d="M315.76 180.008C315.76 180.776 315.168 181.398 314.437 181.398C313.705 181.398 313.113 180.776 313.113 180.008C313.113 179.241 313.705 178.618 314.437 178.618C315.168 178.618 315.76 179.241 315.76 180.008Z" fill="#FFB61D"/>
<path d="M311.127 174.448C311.127 175.216 310.534 175.838 309.803 175.838C309.072 175.838 308.479 175.216 308.479 174.448C308.479 173.681 309.072 173.058 309.803 173.058C310.534 173.058 311.127 173.681 311.127 174.448Z" fill="#FFB61D"/>
<path d="M111.832 188.1C112.598 189.599 111.395 191.744 109.774 191.768C108.387 183.577 106.89 175.102 102.375 168.266C93.7285 155.176 75.9115 150.877 68.5089 136.972C63.4686 140.738 55.7616 139.778 51.7007 134.878C49.1753 131.83 44.7731 131.456 40.9805 132.136C37.1878 132.816 33.4825 134.319 29.6369 134.191C27.9682 134.135 26.1502 133.664 25.179 132.238C24.2078 130.813 24.7689 128.303 26.4216 128.055C33.6215 126.973 40.8214 125.891 48.0213 124.808C48.5867 124.723 49.1867 124.622 49.6159 124.227C50.1016 123.779 50.2541 123.063 50.3801 122.398C51.4224 116.89 52.1734 110.323 48.3107 106.439C45.1093 103.22 40.0566 103.331 35.7073 104.229C31.358 105.127 26.8756 106.605 22.5893 105.419C18.303 104.233 14.7185 98.8869 17.0292 94.915C18.5768 92.2548 16.8317 88.707 14.4445 86.8538C12.0572 85.0007 9.08627 84.0879 6.77236 82.1348C4.45844 80.1817 2.98994 76.4133 4.83302 73.9694C5.64361 72.8946 6.91282 72.3284 8.15803 71.9159C12.2792 70.5508 16.8745 70.4468 20.847 72.2327C24.8195 74.0187 28.0455 77.8468 28.6919 82.3332C29.2186 85.9882 28.2179 90.2403 30.519 93.0379C33.5276 96.6956 39.0881 94.6441 43.6908 94.6C48.3983 94.555 53.0533 97.1757 55.6228 101.318C58.1922 105.459 58.5936 110.989 56.6517 115.492C62.1197 109.651 69.4844 105.169 77.2797 105.475C84.4799 105.756 91.0955 110.105 95.9111 115.732C100.727 121.36 104.012 128.214 107.233 134.981C108.433 137.502 111.477 138.869 114.042 138.038C116.607 137.207 118.388 134.277 118.027 131.484C120.262 131.995 120.495 135.168 120.564 137.57C120.708 142.615 122.448 147.595 125.445 151.542C126.447 149.6 127.212 147.524 127.714 145.379C129.902 148.019 130.718 151.841 129.814 155.209C128.91 158.577 126.313 161.388 123.135 162.441C121.443 163.001 119.375 163.27 118.536 164.91C121.708 170.741 124.436 176.839 126.685 183.125C127.892 186.495 128.762 190.833 126.223 193.253C123.287 190.977 121.619 187.367 120.061 183.902C117.631 178.497 115.202 173.091 112.772 167.686" fill="white"/>
<path d="M119.847 133.994C119.209 140.539 121.542 147.335 126.01 151.947C127.604 150.938 128.622 149 128.587 147.047C130.262 149.938 129.324 153.858 127.241 156.44C125.159 159.023 122.172 160.571 119.273 162.049C117.612 162.896 115.887 163.759 114.042 163.817C111.226 163.905 108.703 162.128 106.401 160.423L99.6465 155.422C103.136 162.26 111.08 166.242 118.338 164.792C123.385 172.226 126.476 181.11 127.18 190.211L125.824 187.578C125.811 187.546 125.795 187.514 125.774 187.483L125.824 187.578C126.019 188.083 125.256 188.641 124.743 188.38C124.197 188.103 123.991 187.412 123.829 186.798C121.842 179.232 118.281 172.127 113.467 166.123L120.756 182.339C122.314 185.804 123.982 189.414 126.918 191.69C129.457 189.269 128.587 184.932 127.38 181.561C125.131 175.275 122.403 169.178 119.231 163.347C119.913 162.015 121.405 161.587 122.847 161.173C123.181 161.078 123.512 160.983 123.83 160.877C127.008 159.825 129.605 157.014 130.509 153.646C131.413 150.278 130.597 146.456 128.41 143.816C127.907 145.96 127.142 148.037 126.14 149.979C123.143 146.032 121.404 141.051 121.259 136.006C121.19 133.605 120.957 130.432 118.722 129.92C119.083 132.713 117.302 135.643 114.737 136.474C112.172 137.306 109.128 135.939 107.928 133.418C104.707 126.651 101.422 119.797 96.6062 114.169C91.7907 108.542 85.175 104.193 77.9748 103.911C70.1795 103.606 62.8148 108.087 57.3468 113.929C59.2888 109.426 58.8873 103.896 56.3179 99.7543C53.7484 95.6124 49.0934 92.9917 44.3859 93.0367C43.1918 93.0481 41.9332 93.1947 40.6715 93.3416C37.0698 93.761 33.4422 94.1834 31.2141 91.4746C29.6405 89.5615 29.611 86.9681 29.5812 84.3507C29.5674 83.1406 29.5536 81.9254 29.387 80.7699C28.7406 76.2835 25.5146 72.4554 21.5421 70.6694C17.5696 68.8834 12.9743 68.9875 8.85313 70.3526C7.60793 70.765 6.33871 71.3313 5.52812 72.4061C3.68504 74.85 5.15354 78.6184 7.46746 80.5715C8.68527 81.5994 10.0851 82.3391 11.486 83.0795C12.7469 83.7458 14.0087 84.4127 15.1396 85.2905C17.5268 87.1437 19.2719 90.6915 17.7243 93.3517C15.4136 97.3235 18.9981 102.67 23.2844 103.856C26.8277 104.836 30.505 103.996 34.1303 103.168C34.8905 102.995 35.6485 102.822 36.4024 102.666C40.7517 101.768 45.8044 101.657 49.0058 104.876C52.8685 108.76 52.1175 115.326 51.0752 120.834C50.9492 121.5 50.7967 122.216 50.311 122.663C49.8818 123.059 49.2818 123.16 48.7164 123.245L27.1167 126.491C25.464 126.74 24.9029 129.249 25.8741 130.675C26.8453 132.101 28.6633 132.572 30.332 132.628C32.8834 132.712 35.3731 132.079 37.8674 131.445C39.1327 131.123 40.3992 130.801 41.6756 130.572C45.4682 129.892 49.8704 130.266 52.3958 133.314C56.4567 138.215 64.1637 139.175 69.204 135.408C73.0993 142.725 79.8783 147.382 86.6873 152.06C92.8181 156.272 98.9733 160.501 103.07 166.702C107.585 173.539 109.082 182.014 110.469 190.205C112.09 190.181 113.293 188.036 112.527 186.536L111.005 188.645C110.443 175.735 104.163 163.224 94.3391 155.439C91.9062 153.512 89.2383 151.822 86.5761 150.135C80.7263 146.43 74.9043 142.742 71.6651 136.587C71.3734 136.033 71.1018 135.446 71.0546 134.814C70.9948 134.016 71.298 133.245 71.5907 132.502L71.6324 132.396C72.8001 129.422 73.6157 126.158 73.0422 122.998C72.4686 119.838 70.2029 116.85 67.1728 116.374C72.3017 119.819 73.3531 128.368 69.2259 133.068C65.0987 137.768 56.8986 137.359 53.2137 132.27C50.2604 128.192 44.355 128.691 39.6015 129.848C34.8481 131.004 29.2504 132.215 25.5784 128.841C33.4344 126.573 41.5184 125.176 49.6524 124.682C51.5901 124.564 52.3502 122.026 52.6112 120.007C53.0124 116.902 53.4136 113.748 52.974 110.649C52.5345 107.551 51.1318 104.459 48.6275 102.756C45.6202 100.711 41.738 101.028 38.1745 101.419L28.7044 102.46C26.6639 102.684 24.5668 102.904 22.5884 102.333C20.61 101.763 18.7486 100.214 18.3692 98.0967C18.1296 96.7596 18.4942 95.4429 18.8618 94.1154C19.1264 93.1598 19.3925 92.1985 19.4359 91.2201C19.5595 88.4341 17.8454 85.8813 15.7626 84.1505C14.4865 83.09 13.0645 82.2555 11.6413 81.4203C10.7415 80.8923 9.84129 80.364 8.97702 79.7781C7.35019 78.6752 5.68099 76.8932 6.13332 74.9162C6.4226 73.6519 7.51224 72.7754 8.60772 72.1691C12.3064 70.1219 16.9296 70.0299 20.6995 71.9284C24.4694 73.8269 27.2951 77.6701 28.0899 81.9803C28.286 83.0435 28.3751 84.154 28.4641 85.2623C28.6698 87.8259 28.8745 90.3775 30.4 92.3036C32.2222 94.6044 35.3714 95.184 38.2181 95.0415C39.194 94.9927 40.1698 94.8779 41.1448 94.7633C43.0137 94.5435 44.88 94.324 46.738 94.5697C52.986 95.396 57.9086 102.222 56.9721 108.761C56.9203 109.122 56.8536 109.487 56.7868 109.853C56.5484 111.157 56.3076 112.474 56.732 113.699C57.2753 115.268 59.6519 116.104 60.4048 114.633C63.7788 108.046 71.5173 104.727 78.5926 105.597C85.6679 106.467 91.9997 110.94 96.6449 116.611C101.29 122.282 104.45 129.106 107.332 135.947C108.347 138.356 111.369 139.228 113.784 138.512C116.198 137.795 118.114 135.9 119.847 133.994Z" fill="#00160A"/>
<path d="M107.168 145.475C107.236 145.465 107.395 145.792 107.635 146.285C108.226 147.499 109.306 149.719 110.73 150.394C110.667 151.023 109.725 150.687 109.333 150.206C108.219 148.84 107.038 147.268 107.168 145.475Z" fill="#00160A"/>
<path d="M110.529 156.258C111.264 157.389 106.862 157.952 105.399 156.965C105.656 156.913 105.996 156.941 106.372 156.971C106.818 157.008 107.315 157.048 107.788 156.965C108.479 156.843 109.147 156.62 109.652 156.451C110.141 156.288 110.476 156.176 110.529 156.258Z" fill="#00160A"/>
<path d="M109.472 152.055C107.72 152.37 105.567 149.92 105.567 147.615C106.072 149.319 107.867 150.671 108.858 151.418C109.362 151.798 109.659 152.021 109.472 152.055Z" fill="#00160A"/>
<path d="M115.75 161.692C113.416 161.692 112.359 157.56 113.416 157.295C113.67 157.174 113.682 157.544 113.699 158.091C113.718 158.666 113.742 159.435 114.061 160.035C114.414 160.701 115.162 161.146 115.599 161.406C115.93 161.602 116.082 161.692 115.75 161.692Z" fill="#00160A"/>
<path d="M118.35 156.066C118.863 156.362 119.33 156.822 119.463 157.42C119.595 158.018 119.277 158.743 118.704 158.868C118.525 158.591 118.622 158.415 118.725 158.23C118.875 157.957 119.037 157.664 118.35 156.999C118.061 156.719 117.724 156.598 117.488 156.512C117.306 156.447 117.184 156.402 117.189 156.324C117.219 155.827 117.935 155.825 118.35 156.066Z" fill="#00160A"/>
<path d="M113.982 150.681C113.866 150.765 113.787 150.823 113.855 150.89C114.066 151.096 114.314 151.194 114.562 151.045C114.751 150.931 114.847 150.699 114.892 150.475C115.141 149.223 113.882 147.93 112.695 148.219C112.8 148.511 113.002 148.604 113.247 148.717C113.529 148.848 113.869 149.005 114.184 149.524C114.61 150.223 114.22 150.508 113.982 150.681Z" fill="#00160A"/>
<path d="M113.583 162.483C112.209 162.063 110.85 158.655 111.581 158.397C112.038 158.236 112.035 158.262 112.009 158.531C111.984 158.778 111.94 159.229 112.209 159.929C112.543 160.797 113.01 161.502 113.308 161.951C113.512 162.258 113.636 162.446 113.583 162.483Z" fill="#00160A"/>
<path fill-rule="evenodd" clip-rule="evenodd" d="M428.336 85.1168C425.386 85.4973 423.061 87.9957 421.595 90.7107C420.885 92.0235 420.318 93.4129 419.751 94.8019L419.75 94.803C419.145 96.2862 418.539 97.769 417.761 99.1582C414.049 105.787 406.995 109.411 400.236 112.372C399.07 112.883 397.028 112.643 397.392 111.373C408.459 109.168 417.986 99.9678 421.003 88.5723C421.358 87.2299 419.695 86.0969 418.412 86.4519C417.251 86.7731 416.424 87.7899 415.678 88.7987L415.445 89.1162C409.281 97.5349 400.432 104.652 390.328 105.112C389.612 105.144 388.589 104.686 388.904 104.011C396.387 103.748 403.442 99.8692 408.999 94.5994C414.556 89.3296 418.793 82.7245 422.757 76.0546C423.371 75.0228 424.843 75.2433 425.939 75.6358C429.303 76.8403 432.53 78.4649 435.53 80.4645C437.141 81.538 435.865 84.4023 434.034 84.9639C432.981 85.2867 431.882 85.2083 430.778 85.1297C429.961 85.0714 429.142 85.013 428.336 85.1168ZM425.462 78.5474L425.204 78.4652C424.416 78.2282 423.537 78.0966 422.904 78.6097C422.658 78.8086 422.483 79.0831 422.321 79.3633L420.215 83.0921C421.32 83.3607 422.38 83.8363 423.329 84.4897C424.104 85.0236 425.172 85.0441 425.965 84.5403C426.758 84.0365 427.237 83.0338 427.146 82.065C427.113 81.7037 427.677 81.6054 427.912 81.8712C428.088 82.0698 428.141 82.3422 428.193 82.6136C428.211 82.7055 428.228 82.7973 428.251 82.8861C428.34 83.237 428.612 83.615 428.951 83.5428C429.295 83.1999 429.483 82.692 429.45 82.1954C429.573 81.6831 430.334 82.1398 430.452 82.6535C430.57 83.1672 430.791 83.8978 431.277 83.7606C431.991 83.5752 432.216 82.5306 431.867 81.8499C431.519 81.1691 430.819 80.7843 430.151 80.4595C428.629 79.7188 427.062 79.0797 425.462 78.5474ZM419.061 84.6094C420.161 85.7712 421.761 86.3895 423.315 86.2532C422.362 84.9933 420.741 84.3351 419.229 84.5787L419.061 84.6094Z" fill="#00160A"/>
<path d="M340.335 200.331C335.044 201.902 329.067 200.662 324.742 197.097C320.827 199.252 316.779 201.342 312.405 202.016C308.031 202.69 303.216 201.744 300.054 198.5C300.577 199.688 301.109 200.922 301.126 202.231C301.142 203.54 300.498 204.953 299.317 205.373C297.368 206.066 295.665 203.879 294.654 201.998C294.1 203.446 294.671 205.076 295.227 206.661C295.86 208.469 296.474 210.218 295.372 211.572C294.225 212.982 292.049 212.621 290.47 211.79C284.556 208.675 281.778 200.835 283.059 194.02C284.34 187.204 289.007 181.497 294.565 177.728C290.791 174.824 288.031 170.5 286.907 165.732C287.675 166.773 288.245 167.983 288.815 169.192C289.385 170.402 289.955 171.612 290.724 172.654C291.453 173.642 292.381 174.461 293.309 175.281C294.237 176.101 295.165 176.921 295.894 177.909C296.081 178.161 296.241 178.585 295.977 178.743C290.649 181.92 286.092 186.983 284.58 193.218C283.068 199.453 285.172 206.813 290.389 210.186C291.309 210.78 292.405 211.257 293.449 210.968C294.494 210.678 295.277 209.302 294.677 208.359C292.985 205.698 292.78 202.072 294.159 199.219L298.531 204.366C299.536 204.095 299.785 202.675 299.517 201.622C299.432 201.288 299.316 200.958 299.2 200.629C298.95 199.921 298.702 199.215 298.769 198.474C298.867 197.389 300.215 196.419 300.928 197.211C303.771 200.375 308.339 201.273 312.428 200.576C316.518 199.88 320.264 197.819 323.928 195.787L328.252 193.39C327.94 194.699 326.929 195.799 325.693 196.172C329.867 199.321 335.448 200.31 340.375 198.775C341.224 198.51 342.095 198.145 342.646 197.416C343.196 196.688 343.285 195.504 342.62 194.89C342.539 194.815 342.448 194.75 342.358 194.684C342.18 194.555 342.003 194.427 341.902 194.231C341.748 193.935 341.986 193.438 342.28 193.573C343.945 193.451 344.971 195.8 344.293 197.401C343.615 199.001 341.941 199.854 340.335 200.331Z" fill="#00160A"/>
<path d="M310.794 177.093C309.843 176.772 308.777 177.461 308.364 178.415C307.95 179.37 308.068 180.492 308.38 181.487C308.479 180.364 308.615 179.517 309.02 178.779C309.195 178.46 309.736 178.16 310.211 177.896C310.825 177.555 311.33 177.274 310.794 177.093Z" fill="#00160A"/>
<path d="M309.988 174.271C311.375 173.908 312.941 174.469 313.828 175.645C314.715 176.822 314.876 178.551 314.221 179.885C314.064 179.686 314.027 179.325 313.98 178.871C313.843 177.533 313.623 175.393 309.988 174.271Z" fill="#00160A"/>
<path d="M308.785 184.614C308.346 185.189 309.875 186.709 312.265 185.661C312.708 185.467 312.346 185.444 311.777 185.409C311.257 185.377 310.565 185.335 310.152 185.141C309.803 184.978 309.624 184.715 309.489 184.519C309.291 184.229 309.191 184.082 308.785 184.614Z" fill="#00160A"/>
<path d="M313.628 186.538C315.16 185.736 314.199 188.086 310.995 187.798C310.706 187.772 310.328 187.655 310.331 187.349C310.332 187.241 310.603 187.217 311.024 187.178C311.679 187.118 312.696 187.025 313.628 186.538Z" fill="#00160A"/>
<path d="M304.178 182.079C304.754 182.67 305.593 182.685 306.153 182.572C306.494 182.503 306.662 182.182 306.349 182.079C306.276 182.054 306.155 182.034 306.009 182.01C305.676 181.955 305.216 181.879 304.908 181.684C304.71 181.558 304.597 181.13 304.5 180.763C304.401 180.386 304.318 180.073 304.178 180.22C303.901 180.509 303.601 181.487 304.178 182.079Z" fill="#00160A"/>
<path d="M304.689 184.078C304.968 184.524 303.905 184.371 303.677 184.078C303.448 183.786 303.223 182.685 303.606 182.685C303.717 182.685 303.755 182.859 303.8 183.067C303.842 183.258 303.891 183.479 304.009 183.62C304.238 183.893 304.392 183.933 304.505 183.963C304.581 183.983 304.639 183.999 304.689 184.078Z" fill="#00160A"/>
<path fill-rule="evenodd" clip-rule="evenodd" d="M352.492 181.865C353.065 183.066 352.062 184.414 351.096 185.295C347.166 188.877 342.47 191.527 337.457 192.991C342.86 193.029 348.239 190.601 351.93 186.458C353.647 184.53 354.745 180.91 352.529 179.663C355.159 178.749 358.273 176.838 357.871 173.959C357.728 172.931 357.129 172.046 356.548 171.205L356.203 170.707C352.613 165.557 348.224 160.11 342.205 159.726C345.669 157.686 349.795 160.584 352.849 163.251L353.744 164.029C357.787 167.519 362.017 170.84 366.812 173.022C371.963 175.365 377.885 176.301 383.228 174.494L398.179 169.434C401.064 168.432 404.463 166.549 404.201 163.401C404.057 161.667 402.55 160.176 400.893 160.128C399.236 160.079 397.652 161.48 397.417 163.203L397.091 160.525C396.29 159.805 395.011 160.422 394.366 161.298C394.122 161.63 393.919 161.996 393.716 162.361C393.382 162.962 393.05 163.559 392.543 163.995C390.778 165.511 388.433 164.265 386.328 162.956L385.015 162.132C381.273 159.824 376.837 159.47 372.458 159.121L372.455 159.121C371.511 159.045 370.568 158.97 369.637 158.876C363.532 158.256 357.515 156.695 351.838 154.257C357.044 158.739 363.846 159.492 370.707 160.251C374.165 160.633 377.637 161.017 380.928 161.881C383.539 162.566 386.424 163.963 387.065 166.708C387.995 170.692 383.487 173.779 379.596 174.151C373.232 174.761 367.031 171.919 361.629 168.293L361.02 167.879C359.065 166.531 357.17 165.081 355.275 163.632C351.8 160.972 348.327 158.315 344.491 156.296C348.453 156.505 351.347 153.492 354.303 150.415C355.897 148.755 357.51 147.077 359.318 145.875C364.631 142.342 371.415 143.147 377.668 144.281L378.65 144.462C377.179 136.983 373.587 129.978 368.45 124.572L377.278 142.794C367.983 139.543 356.837 143.606 351.46 152.205C355.61 137.5 365.483 124.673 378.305 117.326C382.436 118.949 385.926 121.846 389.41 124.737C390.535 125.67 391.659 126.603 392.803 127.492C397.494 131.135 403.199 134.223 408.941 133.138C413.071 132.359 416.546 129.539 419.632 126.523L420.129 126.033C423.804 122.373 427.221 118.428 430.341 114.239C433.755 109.655 437.951 104.212 443.455 104.895C444.427 105.016 445.372 105.334 446.313 105.651C447.614 106.09 448.909 106.526 450.259 106.435C452.585 106.278 454.723 102.998 452.897 101.476L443.525 93.6651C442.609 92.9017 441.552 92.0941 440.392 92.2521C439.568 92.3645 438.883 92.9483 438.246 93.5089L436.141 95.3646C431.234 99.7042 426.386 104.134 422.129 109.167C421.853 109.493 421.575 109.824 421.296 110.157C417.845 114.275 414.1 118.743 408.973 119.065C403.972 119.38 399.768 115.589 395.927 112.124C395.734 111.95 395.542 111.776 395.351 111.605L394.635 110.967C390.561 107.378 386.206 104.141 381.627 101.302C377.579 98.7923 373.091 96.5317 368.402 96.8744C362.916 97.2753 358.289 101.127 354.325 105.174L353.726 105.792C351.782 107.798 349.457 109.965 346.782 109.537L346.569 109.507C343.875 109.185 341.349 110.94 339.319 112.905L339.002 113.216C333.694 118.534 329.783 125.376 327.811 132.796C316.23 129.54 303.533 130.882 292.803 136.498C290.099 137.913 287.463 139.638 285.581 142.119C282.894 145.661 282.106 150.154 281.311 154.686C280.731 157.992 280.147 161.32 278.819 164.316C278.426 165.203 277.965 166.068 277.505 166.933C276.426 168.959 275.35 170.982 275.151 173.264C274.869 176.52 277.764 180.299 280.636 179.034C283.513 178.558 285.035 174.301 283.167 171.955C284.331 172.831 285.953 172.981 287.246 172.333L284.244 166.515C289.307 163.684 293.8 159.737 297.347 155.003C298.797 153.067 301.492 152.578 303.768 153.173C305.72 153.682 307.44 154.838 309.088 156.067L309.907 156.685C308.953 157.414 309.503 159.352 310.681 159.413C309.921 156.161 313.018 152.746 316.193 153.062C319.368 153.379 321.772 156.925 321.357 160.245C319.681 164.606 315.533 167.094 311.431 169.555C306.98 172.226 302.581 174.864 301.453 179.827C300.316 184.827 303.989 190.427 308.843 191.096C313.697 191.764 318.621 187.348 318.751 182.209C318.751 182.209 319.469 182.287 319.723 181.487C320.124 180.227 320.503 178.831 320.879 177.448C321.586 174.847 322.282 172.288 323.084 170.76C325.335 166.477 329.524 163.085 334.181 162.967C335.661 162.929 337.131 162.699 338.599 162.469C340.475 162.175 342.348 161.881 344.235 161.99C347.601 162.185 351.289 164.254 351.775 167.756C348.043 166.995 344.149 167.123 340.47 168.129L353.495 169.755C356.355 170.113 356.89 174.763 354.852 176.899C352.93 178.914 350.001 179.245 347.26 179.373L346.764 179.395C347.243 180.421 348.434 180.527 349.627 180.633C350.816 180.739 352.006 180.845 352.492 181.865ZM421.777 122.102C417.739 126.809 413.018 131.868 406.989 132.105C401.716 132.311 397.104 128.743 392.839 125.443L392.524 125.2L391.505 124.418C386.739 120.788 381.803 117.405 376.721 114.284C372.785 111.868 368.258 109.534 363.844 110.732L370.832 113.042C369.654 113.705 369.234 115.511 369.988 116.67C370.15 114.935 372.062 113.831 373.702 114.102C375.343 114.374 376.677 115.638 377.693 117.018C368.884 120.565 361.388 127.587 357.032 136.375C356.222 138.009 355.518 139.699 354.813 141.388L354.813 141.39C353.858 143.68 352.903 145.97 351.688 148.116C349.576 151.846 346.448 155.24 342.423 156.228C341.86 156.366 341.282 156.457 340.705 156.548C339.548 156.73 338.394 156.911 337.365 157.474C337.25 157.537 337.13 157.604 337.007 157.673C335.799 158.351 334.309 159.186 333.564 158.084C332.345 156.28 330.4 155.035 328.313 154.723C331.763 142.553 340.638 132.211 351.808 127.345C352.44 127.07 352.198 126.077 351.853 125.456L346.772 116.328C346.303 115.485 346.852 114.338 347.679 113.891C348.506 113.444 349.491 113.511 350.414 113.631C356.291 114.4 361.95 116.932 366.548 120.851C367.283 121.478 368.488 122.094 369.026 121.275C363.781 115.72 356.278 113.145 348.894 112.107C355.276 111.452 361.877 113.562 366.829 117.842L367.07 118.049C368.253 119.057 369.685 120.129 371.049 119.511C365.519 113.941 357.957 110.654 350.296 110.49C351.872 109.259 353.344 107.89 354.816 106.522C356.312 105.132 357.808 103.741 359.413 102.495C362.598 100.022 366.404 98.0917 370.359 98.3342C373.229 98.5103 375.921 99.811 378.461 101.227C383.829 104.22 388.884 107.833 393.505 111.979C393.833 112.273 394.162 112.571 394.493 112.871C398.885 116.845 403.677 121.18 409.354 120.62C412.815 120.279 415.882 118.083 418.318 115.478C419.666 114.038 420.868 112.459 422.07 110.881L422.071 110.879C423.041 109.605 424.012 108.33 425.06 107.128C426.572 105.392 428.323 103.76 430.473 103.097C432.622 102.435 435.242 102.983 436.519 104.916L421.777 122.102ZM282.663 154.342C283.441 149.869 284.211 145.446 287.09 142.189C288.5 140.594 290.303 139.446 292.14 138.438C301.533 133.279 312.488 131.315 322.979 132.909C325.546 133.299 328.728 134.812 328.686 137.372C328.671 137.528 328.657 137.685 328.643 137.841C328.67 137.681 328.684 137.524 328.686 137.372C329.732 126.669 335.669 116.601 344.342 110.867C345.111 116.499 347.461 121.883 351.022 126.171C341.585 130.345 333.749 138.37 329.54 148.172L329.473 148.327C328.277 151.075 326.381 154.449 323.612 153.765L324.983 144.872C325.109 144.056 325.225 143.173 324.857 142.443C324.446 141.628 323.567 141.253 322.709 140.981L322.409 140.89C317.446 139.414 311.879 137.998 307.347 140.583C304.949 141.95 303.228 144.242 301.619 146.595L300.424 148.357C297.588 152.515 294.413 156.418 290.944 160.009C289.548 161.455 288.037 162.892 286.167 163.515C284.297 164.137 281.973 163.719 280.863 162.02C281.749 159.593 282.207 156.959 282.663 154.342ZM313.246 188.996C310.3 190.144 307.902 189.578 305.603 188.172C304.618 187.57 303.692 186.796 303.137 185.751C302.306 184.185 302.431 182.24 302.91 180.519C303.627 177.946 305.093 175.609 307.062 173.902C308.423 172.722 309.991 171.855 311.558 170.989C312.099 170.691 312.639 170.392 313.172 170.08C318.369 167.036 322.852 162.659 326.121 157.437C326.773 156.395 328.149 156.057 329.3 156.365C330.451 156.672 331.41 157.5 332.24 158.393C332.834 159.031 333.275 160.301 332.482 160.623C326.933 162.879 322.464 167.885 320.679 173.845C320.63 174.008 320.583 174.172 320.535 174.337C320.264 175.28 319.99 176.234 319.407 176.997C318.723 177.892 317.35 181.047 318.051 182.543C318.051 182.543 316.193 187.849 313.246 188.996ZM320.945 141.78C321.845 141.992 322.824 142.296 323.317 143.114C323.721 143.783 323.695 144.633 323.632 145.423C323.382 148.545 322.756 151.634 321.776 154.593C321.61 155.093 321.099 155.695 320.725 155.339C320.302 153.098 318.353 151.277 316.185 151.096C314.016 150.915 311.818 152.391 311.063 154.533C310.914 154.956 310.391 155.113 309.977 154.996C309.665 154.909 309.4 154.711 309.146 154.498L308.894 154.283C306.311 152.08 302.815 151.102 299.53 151.663C301.28 148.571 303.5 145.772 306.081 143.406C307.137 142.438 308.282 141.525 309.616 141.071C310.871 140.643 312.219 140.648 313.537 140.718C316.029 140.851 318.51 141.207 320.945 141.78ZM438.731 102.426C437.475 101.021 435.754 100.08 433.936 99.8132L435.999 97.062C436.653 96.1996 437.417 95.3148 438.449 95.1787C439.193 95.0806 439.925 95.4011 440.602 95.7399C442.868 96.8736 445.004 98.2936 446.949 99.9596C447.598 100.516 448.251 101.136 448.533 101.964C448.815 102.792 448.588 103.876 447.832 104.255C447.076 104.634 445.987 103.804 446.297 102.987L446.327 102.895C446.454 102.431 446.253 101.882 445.853 101.638L445.123 103.108C445.056 103.236 444.977 103.361 444.857 103.431C444.37 103.714 443.973 102.918 443.942 102.334L443.936 102.253C443.884 101.678 443.597 100.945 443.093 101.124C443.025 102.109 442.355 103.019 441.464 103.334C440.573 103.65 439.514 103.353 438.892 102.612L438.731 102.426ZM281.447 175.001L280.565 171.489C280.146 171.366 279.737 171.807 279.678 172.259C279.638 172.561 279.702 172.86 279.788 173.154L279.924 173.593C280.377 175.083 280.366 176.725 279.892 178.209C279.018 176.331 278.562 174.239 278.57 172.149C278.001 171.82 277.612 172.823 277.654 173.504L277.9 177.569C276.705 176.439 276.284 174.604 276.488 172.929C276.692 171.253 277.441 169.706 278.283 168.267C278.723 167.516 279.21 166.764 279.91 166.276C280.609 165.788 281.572 165.621 282.286 166.084C282.88 166.469 283.155 167.152 283.435 167.846C283.646 168.37 283.859 168.899 284.214 169.309C284.339 169.454 284.486 169.603 284.635 169.754C285.213 170.339 285.83 170.963 285.426 171.593C284.183 170.792 283.045 169.809 282.057 168.682C281.7 171.01 282.027 173.448 282.984 175.581C283.18 176.017 282.533 176.433 282.126 176.209C281.719 175.986 281.564 175.467 281.447 175.001ZM400.845 163.512C401.482 162.92 402.064 162.379 402.346 162.526C403.166 162.956 400.937 164.845 399.757 165.378C399.842 165.977 400.669 165.708 401.152 165.378C401.635 165.048 402.988 164.693 402.723 165.052C401.074 167.292 397.888 169.073 394.944 169.421C393.75 169.563 392.274 169.228 391.894 168.031C391.547 166.94 392.319 165.863 393.136 165.052L393.332 164.862C393.676 164.54 394.227 164.225 394.544 164.577C395.385 165.512 396.856 164.747 397.825 163.96C397.825 163.96 400.344 161.409 400.766 161.572C401.186 161.734 399.51 164.611 399.51 164.611C399.925 164.367 400.399 163.927 400.845 163.512ZM388.788 165.88C389.089 165.808 389.403 165.936 389.663 166.111C390.61 166.749 391.062 168.094 390.706 169.215C390.351 170.335 389.221 171.127 388.099 171.041C387.939 171.029 387.773 170.998 387.648 170.893C387.387 170.672 387.42 170.252 387.478 169.905L387.901 167.366C388.003 166.754 388.21 166.018 388.788 165.88ZM335.433 160.117C337.056 159.829 338.736 159.9 340.332 160.322C340.24 161.013 339.471 161.327 338.82 161.469C336.812 161.904 334.737 161.999 332.7 161.746C333.21 160.739 334.362 160.307 335.433 160.117ZM437.17 103.838L432.911 101.198C435.009 100.868 437.247 102.026 438.277 103.973C437.982 104.256 437.514 104.052 437.17 103.838ZM343.846 156.801C342.041 157.303 340.256 157.887 338.498 158.55C340.324 159.61 342.916 158.762 343.846 156.801ZM326.198 154.404C326.695 154.512 326.47 155.333 326.073 155.665C324.866 156.677 323.033 156.765 321.744 155.872L326.198 154.404ZM439.531 93.148C439.824 93.0753 440.125 93.1995 440.399 93.3293C442.177 94.1726 443.807 95.3621 445.179 96.8194L439.058 93.5381C439.152 93.3446 439.33 93.1981 439.531 93.148ZM346.289 110.875L346.35 110.92C346.902 110.836 347.472 110.885 348.004 111.062C347.539 111.983 346.893 112.803 346.118 113.454C345.73 112.647 345.799 111.619 346.289 110.875ZM451.018 101.859L451.03 101.899C451.707 102.188 452.167 102.958 452.12 103.723C450.727 102.964 449.6 101.681 448.992 100.162C449.824 100.465 450.552 101.074 451.018 101.859ZM324.299 157.948L324.198 158.093C323.845 158.597 323.425 159.143 322.833 159.215C322.242 159.288 321.636 158.485 322.053 158.038C322.754 157.709 323.576 157.675 324.299 157.948ZM282.413 164.184C282.941 164.313 283.537 164.717 283.454 165.279C282.245 165.113 281.053 164.82 279.9 164.405C280.688 164.058 281.581 163.98 282.413 164.184ZM394.66 164.076C394.385 164.201 394.137 163.675 394.397 163.521C394.397 163.521 396.2 160.202 396.278 162.526C396.316 163.105 395.151 163.812 394.66 164.076ZM318.509 181.115C318.642 180.108 318.895 178.209 319.407 178.209C320.133 178.128 319.854 179.427 319.657 180.342C319.603 180.594 319.555 180.818 319.536 180.974C319.47 181.524 318.981 181.956 318.421 181.691C318.443 181.611 318.471 181.399 318.508 181.117L318.509 181.115Z" fill="#00160A"/>
<path fill-rule="evenodd" clip-rule="evenodd" d="M149.583 215.94C153.28 216.275 156.991 216.435 160.702 216.42C160.438 220.084 163.275 223.691 166.751 224.112C170.227 224.533 173.772 221.699 174.31 218.068C174.526 216.61 176.405 216.356 177.806 216.471L186.724 217.2C188.252 217.325 190.415 216.819 190.251 215.219L189.24 205.413C189.149 204.528 189.443 203.239 190.274 203.414C193.814 204.16 197.68 201.311 198.165 197.554C198.65 193.798 195.592 189.948 191.983 189.83C190.249 189.773 189.424 187.391 189.874 185.632C190.116 184.686 190.576 183.83 191.036 182.972C191.432 182.235 191.828 181.497 192.087 180.7C192.647 178.976 192.177 176.574 190.488 176.158C177.662 173 164.198 172.732 151.266 175.377L151.03 175.426C150.318 175.577 149.605 175.762 148.991 176.161C146.971 177.474 146.816 180.369 146.914 182.922L146.98 184.342C147.335 192.576 146.717 200.856 145.146 208.932L145.111 209.115C144.759 210.956 144.473 213.059 145.644 214.455C146.512 215.488 147.9 215.767 149.224 215.905L149.583 215.94ZM172.332 217.915C172.436 218.445 172.306 218.997 172.103 219.495L172.038 219.646C170.845 222.292 167.292 223.426 164.912 221.879C162.486 220.302 161.892 216.341 163.738 214.057C159.047 214.647 154.294 214.686 149.595 214.172C148.141 214.014 146.24 213.189 146.537 211.686C148.582 201.35 149.221 190.708 148.428 180.184C148.284 178.276 150.52 177.287 152.312 176.941C163.875 174.712 175.84 174.804 187.371 177.211C188.846 177.519 190.745 178.697 190.091 180.119C188.552 183.467 187.937 187.277 188.339 190.971C188.442 191.913 189.144 193.146 189.927 192.673C192.036 191.402 195.089 192.421 196.11 194.739C197.131 197.057 195.895 200.16 193.607 201.024C191.318 201.889 188.483 200.323 187.864 197.854C187.311 202.94 187.508 208.116 188.446 213.14C188.772 214.881 186.357 215.538 184.671 215.406L171.218 214.354C170.806 215.036 171.228 215.741 171.673 216.482C171.95 216.944 172.236 217.421 172.332 217.915Z" fill="#00160A"/>
<path fill-rule="evenodd" clip-rule="evenodd" d="M241.947 185.991L268.298 186.547L268.729 186.558C269.52 186.584 270.318 186.657 271.03 187.006C272.641 187.796 273.38 189.741 273.869 191.536C276.484 201.113 276.161 211.549 272.96 220.929L272.826 221.313C272.409 222.467 271.864 223.617 270.881 224.266C270.071 224.801 269.084 224.912 268.123 224.966L267.918 224.977C264 225.172 260.068 225.067 256.164 224.663C258.197 223.348 258.71 220.149 257.419 218.04C256.128 215.931 253.401 215.051 251.104 215.736C249.704 216.153 248.4 217.158 247.894 218.59C247.387 220.023 247.877 221.862 249.171 222.562C250.066 223.046 249.911 224.569 249.128 225.233C248.344 225.896 247.255 225.943 246.249 225.96L233.028 226.185C232.034 226.202 230.99 226.207 230.117 225.707C228.88 224.998 228.311 223.471 227.962 222.037C227.121 218.577 227.008 214.925 227.632 211.415C228.383 214.187 231.637 215.87 234.188 214.807C236.74 213.744 238.009 210.177 236.746 207.618C235.483 205.059 231.975 204.09 229.677 205.666L229.581 204.771C229.252 201.637 228.995 198.461 229.569 195.373C230.197 191.991 231.988 188.67 234.925 187.133C237.067 186.012 239.54 185.951 241.947 185.991ZM270.712 188.885C270.053 188.468 269.257 188.397 268.483 188.362L268.29 188.354C260.093 188.033 251.891 187.87 243.688 187.866L240.954 187.871C239.224 187.877 237.438 187.903 235.855 188.635C233.492 189.727 231.962 192.261 231.337 194.89C230.713 197.52 230.863 200.276 231.016 202.981C235.17 201.78 239.638 206.211 239.145 210.705C238.652 215.199 233.907 218.445 229.679 217.578C229.487 218.998 229.298 220.472 229.695 221.844C230.092 223.217 231.252 224.457 232.617 224.411L244.875 223.997C245.634 223.971 246.682 223.559 246.462 222.796C245.21 218.464 248.823 213.407 253.135 213.458C257.446 213.509 260.95 218.651 259.605 222.952C262.299 223.589 265.1 223.723 267.839 223.346C268.728 223.223 269.656 223.025 270.337 222.413C271.007 221.81 271.335 220.9 271.615 220.022C274.459 211.071 274.771 201.252 272.5 192.123C272.206 190.943 271.799 189.672 270.858 188.984L270.712 188.885Z" fill="#00160A"/>
<path fill-rule="evenodd" clip-rule="evenodd" d="M154.41 274.117C153.106 265.201 153.107 256.075 154.416 247.159L154.482 246.727C154.807 244.704 155.377 242.568 156.987 241.453C158.192 240.618 159.715 240.556 161.167 240.555L172.284 240.587C172.79 240.589 173.344 240.609 173.725 240.959C174.105 241.309 174.095 242.114 173.607 242.255C172.443 242.594 171.773 244.004 171.915 245.264C172.056 246.524 172.836 247.615 173.753 248.442C175.938 250.414 179.334 251.115 181.753 249.471C184.172 247.826 184.741 243.59 182.449 241.756C187.641 241.645 192.837 241.662 198.029 241.807L199.976 241.868C200.605 241.889 201.301 241.942 201.74 242.415C202.07 242.77 202.179 243.287 202.253 243.777C202.828 247.551 202.199 251.516 200.491 254.891C200.219 255.428 199.589 256.021 199.16 255.612C197.335 253.873 194.267 254.109 192.4 255.798C190.534 257.487 189.812 260.291 190.142 262.855C190.46 265.323 192.172 267.958 194.541 267.834C195.208 267.799 195.903 267.557 196.584 267.32C197.806 266.894 198.985 266.483 199.89 267.31L197.516 278.451C197.094 280.43 196.336 282.778 194.447 283.203C183.543 285.652 172.109 285.467 161.282 282.666L160.757 282.526C159.443 282.165 158.134 281.698 157.109 280.776C155.324 279.172 154.767 276.555 154.41 274.117ZM197.785 269.302C194.701 270.825 190.682 269.518 188.751 266.568C186.82 263.618 187.01 259.402 188.99 256.489C190.971 253.576 194.532 252.027 197.929 252.332L198.212 252.358C198.688 252.4 199.177 252.419 199.581 252.169C200.092 251.852 200.31 251.203 200.452 250.598C201.02 248.184 200.988 245.619 200.363 243.222L185.991 243.332C186.253 247.521 182.969 251.609 178.992 252.044C175.015 252.479 170.999 249.19 170.433 245.034L170.354 244.416C170.269 243.793 170.136 243.177 169.693 242.781C169.381 242.503 168.972 242.393 168.568 242.309L168.417 242.279C164.236 241.449 158.935 241.104 156.74 244.933C155.993 246.236 155.792 247.796 155.64 249.309C154.767 257.996 154.974 266.802 156.256 275.433L156.318 275.837C156.527 277.122 156.853 278.441 157.764 279.303C158.389 279.895 159.211 280.189 160.026 280.43L160.23 280.49C170.657 283.501 181.759 283.903 192.36 281.659L192.948 281.532C193.469 281.416 194.011 281.284 194.421 280.926C194.954 280.46 195.16 279.709 195.337 279.005L197.785 269.302Z" fill="#00160A"/>
<path fill-rule="evenodd" clip-rule="evenodd" d="M275.342 291.377C275.342 291.377 275.402 289.641 275.61 289.071C275.987 288.04 277.099 286.575 277.099 286.575C277.022 286.972 276.914 287.396 276.802 287.834C276.42 289.334 275.997 290.992 276.639 292.219C277.134 293.164 284.375 298.147 286.863 299.314C297.505 304.308 308.2 308.827 318.945 313.367L318.947 313.368C323.342 315.224 327.744 317.085 332.155 318.982C324.58 318.013 317.605 314.309 310.809 310.665C309.342 319.21 313.877 327.824 319.995 333.666C324.45 337.92 329.694 341.073 334.938 344.226C336.895 345.403 338.852 346.58 340.768 347.814L341.472 348.272C348.27 352.74 354.772 358.38 357.773 366.16C358.323 367.587 360.013 368.399 361.402 367.904C362.791 367.409 363.66 365.684 363.269 364.2C364.723 365.453 363.884 368.251 362.124 368.943C360.363 369.635 358.344 368.696 357.045 367.27C356.066 366.195 355.383 364.882 354.7 363.571C354.477 363.142 354.253 362.713 354.02 362.292C349.824 354.738 342.411 350.047 335.057 345.754L331.605 343.747C323.624 339.068 315.448 333.447 312.03 324.59C299.621 326.657 286.704 325.255 274.96 320.566C272.448 319.563 269.989 318.413 267.53 317.263C263.614 315.432 259.7 313.602 255.584 312.371C253.29 311.684 250.128 311.611 249.269 313.947L249.268 313.948L249.265 313.953C249.241 313.998 249.077 314.299 248.346 314.365C248.003 314.396 247.687 313.763 247.59 313.345C247.506 313.228 247.477 312.897 247.477 312.218C247.477 311.851 248.188 310.251 249.525 309.261C250.455 308.573 251.501 308.323 252.05 308.193C252.296 308.134 252.443 308.099 252.431 308.059C252.403 307.967 251.452 307.708 250.588 308.148C249.921 308.487 249.29 308.936 248.709 309.348C247.811 309.986 247.035 310.538 246.438 310.465C245.63 310.367 245.057 309.971 245.048 309.117C245.039 308.263 245.255 307.224 245.882 306.688C247.223 305.542 248.954 304.91 250.684 304.936C251.057 304.941 251.471 304.997 251.714 305.294C251.958 305.592 251.838 306.185 251.465 306.203C249.224 306.308 246.632 306.702 245.76 309.117C245.506 309.82 247.11 309.932 247.73 309.558C248.09 309.34 248.399 309.048 248.709 308.755C248.932 308.544 249.157 308.331 249.4 308.148C250.129 307.597 251.034 307.309 251.931 307.343C252.293 307.356 252.691 307.444 252.905 307.751C253.118 308.058 252.968 308.616 252.606 308.622C250.282 308.661 248.161 310.776 248.002 313.21C248.011 313.298 248.075 313.7 248.346 313.796C248.662 313.908 249.011 313.637 249.025 313.61C250.235 311.342 252.444 309.826 254.818 310.585C255.716 310.872 256.579 311.309 257.439 311.743C258.943 312.504 260.437 313.26 262.077 313.196L261.092 307.715C257.102 303.873 251.087 302.519 245.947 304.305C245.397 304.496 244.803 304.773 244.578 305.334C244.354 305.895 244.846 306.709 245.387 306.492C244.537 307.318 243.098 305.916 243.422 304.747C243.746 303.578 244.967 302.977 246.088 302.671C252.384 300.953 258.658 303.948 264.722 306.842L264.724 306.843C265.849 307.38 266.966 307.913 268.075 308.412C280.422 313.969 294.371 315.523 307.554 312.811C306.982 314.454 305.033 314.951 303.377 315.146C291.635 316.533 279.575 314.836 268.595 310.253C267.254 312.042 267.893 314.821 269.419 316.438C270.946 318.056 273.104 318.79 275.182 319.442C286.823 323.096 299.166 325.89 311.062 323.292L309.134 311.448L309.095 311.232C309 310.759 308.825 310.27 308.404 310.12L308.298 310.083C293.05 304.646 281.429 300.502 266.341 285.399C266.311 285.369 266.281 285.338 266.252 285.306C266.141 289.845 264.77 290.844 259.054 289.607C246.58 286.907 233.81 285.494 221.22 287.351C222.172 282.411 223.365 277.521 224.791 272.709C220.695 274.097 215.859 270.155 216.124 265.644C216.389 261.133 221.649 257.844 225.552 259.75C226.893 256.502 226.978 252.705 225.784 249.394C225.211 247.805 227.494 246.889 229.112 246.889L238.049 246.887C239.298 246.886 241.04 246.277 240.73 245.006C239.994 241.993 241.967 238.551 244.847 237.823C247.675 237.108 250.858 239.141 251.589 242.087L251.627 242.252C252.305 245.416 256.123 246.421 259.211 246.359L260.749 246.32C263.42 246.261 266.204 246.353 267.992 248.315C270.131 250.661 269.653 254.398 268.948 257.583L268.901 257.795C268.557 259.317 268.056 260.554 267.552 261.798C266.591 264.168 265.621 266.564 265.707 271.009C265.742 272.821 265.804 274.484 265.875 276.007C266.123 274.938 266.341 274.231 266.341 274.231C266.341 274.231 295.471 297.005 313.462 300.096C315.617 298.096 314.373 294.199 312.202 292.219C311.286 291.384 310.245 290.709 309.206 290.036C307.779 289.112 306.358 288.191 305.275 286.864C303.125 284.228 302.74 280.596 302.359 276.994C301.945 273.078 301.534 269.198 298.862 266.674C298.623 266.449 298.369 266.239 298.115 266.029C297.542 265.554 296.971 265.081 296.581 264.441C295.617 262.859 296.091 260.656 297.258 259.233C298.425 257.81 300.133 257.015 301.822 256.396C305.328 255.11 309.172 254.393 312.753 255.428C316.333 256.464 319.54 259.594 319.892 263.476C320.571 261.932 322.062 260.816 323.674 260.646L321.334 263.257L324.295 263.319L320.221 265.708C322.747 270.613 322.338 276.663 320.719 281.973C320.521 282.623 320.305 283.274 320.088 283.926C319.223 286.532 318.35 289.159 318.574 291.879C318.849 295.224 321.677 298.64 324.769 297.956L324.924 297.918C328.64 296.932 332.709 297.503 336.048 299.478C339.942 301.782 342.593 305.687 345.216 309.553L345.217 309.554C345.826 310.451 346.433 311.346 347.054 312.218C349.965 316.306 353.41 320.107 357.716 322.475C362.023 324.844 367.303 325.626 371.789 323.659C372.614 323.298 373.406 322.849 374.197 322.401L374.198 322.4C375.542 321.638 376.883 320.878 378.37 320.555C380.732 320.041 383.739 321.254 384.02 323.77C382.798 321.626 379.903 321.246 377.626 321.969C376.341 322.377 375.155 323.043 373.968 323.711C373.052 324.226 372.134 324.742 371.17 325.14C366.339 327.132 360.712 325.925 356.265 323.116C351.956 320.395 348.581 316.332 345.536 312.123L345.243 311.715C344.933 311.282 344.624 310.847 344.316 310.412L344.315 310.411L344.314 310.41L344.314 310.409C342.173 307.388 340.016 304.345 337.19 302.047C334.021 299.469 329.764 297.946 325.948 299.183L325.715 299.262C322.064 300.56 318.198 296.894 317.541 292.906C316.884 288.918 318.432 284.934 319.947 281.213C321.51 277.374 318.64 272.896 315.022 271.166C311.665 269.561 307.633 269.597 304.303 271.263C303.224 271.802 303.029 273.289 303.065 274.56L303.07 274.7C303.257 279.187 304.398 283.904 307.518 286.977C308.445 287.891 309.517 288.629 310.587 289.365C311.925 290.287 313.261 291.206 314.307 292.466C316.189 294.731 316.478 298.975 313.864 300.201C318.35 301.051 322.789 302.178 327.151 303.572C303.686 301.051 282.111 289.43 266.621 275.393C266.304 276.043 266.081 276.731 265.945 277.436C265.981 278.139 266.018 278.81 266.053 279.448C266.102 280.348 266.148 281.184 266.184 281.959C266.93 284.535 268.672 286.807 271.066 287.805C270.876 285.995 271.457 284.111 272.621 282.762C271.866 284.535 270.668 287.935 275.342 291.377ZM311.385 256.692C309.297 256.284 307.175 256.067 305.051 256.044C304.906 256.324 304.852 256.655 304.898 256.97C307.266 257.177 309.598 257.832 311.748 258.895C310.849 259.838 309.364 259.273 308.158 258.814L308.087 258.787C306.027 258.004 303.764 257.814 301.611 258.244C300.513 258.464 299.415 258.859 298.569 259.626C297.723 260.394 297.17 261.588 297.359 262.745C297.6 264.223 298.923 265.232 300.244 265.801C303.519 267.209 307.445 266.812 310.404 264.773C310.644 264.608 310.982 264.884 310.996 265.185C311.01 265.486 310.817 265.751 310.613 265.964C309.434 267.196 307.68 267.589 306.019 267.69C305.534 267.72 305.046 267.73 304.559 267.74L304.558 267.74C303.376 267.764 302.194 267.788 301.052 268.092C301.206 269.081 302.383 269.421 303.334 269.494C306.972 269.771 310.663 269.257 314.105 267.994C314.968 267.677 315.76 268.584 316.269 269.381L319.977 275.192C321.196 273.988 321.123 271.907 320.548 270.257C320.324 269.612 320.038 268.991 319.753 268.37C319.308 267.401 318.864 266.435 318.655 265.388C318.539 264.81 318.498 264.218 318.457 263.627C318.399 262.796 318.341 261.968 318.079 261.186C317.157 258.434 314.117 257.227 311.385 256.692ZM266.582 309.741L263.216 307.71C262.842 307.485 262.154 307.447 262.192 307.898C262.077 309.722 262.219 311.958 263.336 313.478C264.04 314.436 264.548 314.927 267.034 315.575L266.851 310.465C266.842 310.194 266.806 309.876 266.582 309.741ZM256.601 287.187C245.768 284.397 234.451 283.691 223.38 285.118C225.301 280.417 226.145 275.235 225.819 270.131C222.934 272.254 218.198 269.763 218.088 266.066C217.979 262.369 222.559 259.574 225.564 261.505C226.361 262.017 227.236 260.956 227.555 260.034C228.64 256.894 228.65 253.358 227.584 250.211C227.169 248.985 228.931 248.321 230.169 248.346L240.683 248.565C241.388 248.579 242.138 248.582 242.741 248.196C243.344 247.811 243.686 246.882 243.243 246.305C241.424 243.935 243.515 239.693 246.408 239.884C249.302 240.075 250.871 244.558 248.783 246.67C248.394 247.064 249.151 247.572 249.691 247.585L263.438 247.917C266.172 247.983 268.104 251.041 268.215 253.91C268.31 256.338 267.489 258.663 266.677 260.96C266.607 261.161 266.536 261.361 266.466 261.56L266.242 262.21C263.807 269.383 263.024 277.168 263.976 284.717C264.162 286.19 262.871 287.5 261.489 287.819C260.269 288.1 259.014 287.822 257.793 287.501L256.601 287.187Z" fill="#00160A"/>
<path d="M317.846 281.943C318.255 281.693 318.516 281.25 318.759 280.824C319.195 280.062 319.644 279.255 319.664 278.367C319.683 277.478 319.098 276.509 318.252 276.474C317.832 276.457 317.432 276.667 317.088 276.922C316.325 277.489 315.737 278.31 315.429 279.236C315.818 279.826 316.699 279.299 317.091 278.712C317.483 278.125 318.063 277.383 318.686 277.676C318.275 279.174 317.547 280.575 316.571 281.75C316.832 282.165 317.436 282.192 317.846 281.943Z" fill="#00160A"/>
<path d="M324.58 325.105C323.644 323.544 322.633 321.858 320.965 321.351C324.666 328.664 330.402 334.826 337.28 338.879C339.682 340.293 342.215 341.455 344.746 342.616C348.275 344.236 351.8 345.853 354.957 348.15C358.912 351.029 362.184 354.935 364.397 359.422C363.527 353.024 358.432 348.127 352.992 345.102C350.53 343.732 347.943 342.628 345.357 341.525C342.231 340.191 339.106 338.858 336.207 337.058C331.585 334.188 327.624 330.153 324.751 325.389C324.694 325.295 324.637 325.2 324.58 325.105Z" fill="#00160A"/>
<path fill-rule="evenodd" clip-rule="evenodd" d="M336.205 327.269L336.308 327.509C336.764 328.616 337.079 330.007 336.224 330.756C335.543 331.353 334.51 331.125 333.706 330.729C331.968 329.872 330.532 328.36 329.721 326.532C330.736 326.321 331.687 325.786 332.415 325.015C333.02 324.375 334.091 324.504 334.773 325.053C335.455 325.601 335.842 326.451 336.205 327.269ZM335.653 329.887C336.529 328.237 334.743 325.802 333.871 325.644C333.491 325.576 333.099 325.97 332.679 326.394C332.247 326.829 331.784 327.295 331.273 327.322C331.273 327.322 334.778 331.538 335.653 329.887Z" fill="#00160A"/>
<path d="M379.808 334.633C401.066 333.899 421.82 323.025 435.16 305.63C435.851 304.73 437.218 304.715 438.178 305.28C439.138 305.846 439.787 306.84 440.4 307.8C441.069 307.697 441.089 306.607 440.628 306.088C440.401 305.832 440.116 305.645 439.83 305.46C439.537 305.268 439.244 305.077 439.014 304.81C438.085 303.731 438.581 302.032 439.125 300.694L441.551 294.73C441.876 293.931 442.384 292.999 443.211 293.011C443.816 293.02 444.282 293.552 444.666 294.043C448.852 299.397 452.734 305.012 456.287 310.848C454.097 311.204 451.991 310.071 449.914 308.954C447.594 307.706 445.31 306.477 442.983 307.362C440.955 308.134 439.761 310.277 438.688 312.241C435.176 318.665 431.154 324.852 426.059 329.974C414.226 341.869 397.714 347.018 381.629 350.273C391.579 354.227 402.539 355.337 413.025 353.45C419.026 352.371 425.01 350.245 429.687 346.152C431.581 344.495 433.223 342.549 434.858 340.611L446.904 326.334C447.609 325.498 448.911 326.3 449.568 327.178C450.225 328.056 451.116 329.151 452.118 328.777C451.401 327.09 450.156 325.657 448.622 324.752C448.531 322.738 448.474 320.581 449.494 318.873C450.514 317.165 453.056 316.332 454.379 317.794C458.716 322.585 462.872 327.557 466.834 332.694C464.51 333.078 462.301 332.028 460.108 330.985C459.43 330.663 458.754 330.341 458.077 330.063C455.208 328.885 451.186 328.91 449.877 331.838C446.299 339.848 442.581 348.063 436.438 354.119C426.18 364.233 411.191 366.516 397.208 368.181C391.007 368.919 384.637 369.62 378.599 367.962C374.204 366.755 370.206 364.354 366.266 361.979L363.14 360.095C362.22 360.337 362.959 361.801 363.776 362.307C369.01 365.547 374.405 368.85 380.407 369.844C381.936 370.097 383.485 370.195 385.032 370.256C399.275 370.818 413.625 368.195 426.849 362.611C432.364 360.282 437.977 357.169 441.005 351.798L451.678 332.873C452.086 332.149 452.536 331.383 453.261 331.023C454.145 330.585 455.184 330.865 456.122 331.151L466.126 334.202C467.149 334.513 468.098 333.255 467.992 332.143C467.885 331.03 467.12 330.129 466.394 329.312L457.168 318.944C455.951 317.576 454.643 316.149 452.924 315.651C451.205 315.153 448.996 316.029 448.66 317.868C447.668 323.295 444.137 327.767 440.729 331.979C435.455 338.497 429.964 345.196 422.643 348.947C412.146 354.325 399.741 352.763 388.247 350.578L395.7 348.298C399.389 347.17 403.084 346.04 406.66 344.564C420.533 338.84 432.35 327.795 439.373 313.99C440.592 311.594 442.025 308.824 444.572 308.343C446.664 307.948 448.448 309.245 450.273 310.572C451.357 311.36 452.455 312.159 453.641 312.618C455.389 313.296 458.103 312.332 457.692 310.423C457.599 309.991 457.35 309.618 457.106 309.257L447.616 295.209C446.299 293.26 444.326 291.058 442.16 291.789C440.419 292.377 439.766 294.487 439.19 296.348L439.138 296.516L439.087 296.68C436.386 305.323 429.122 311.36 422.229 316.869C419.212 319.279 416.188 321.695 412.933 323.734C403.425 329.691 392.275 332.213 381.226 332.966C378.104 333.179 376.143 336.254 374.347 339.068C374.242 339.232 374.138 339.395 374.035 339.557C373.927 339.725 373.819 339.891 373.712 340.056C370.637 344.76 366.258 348.514 361.252 350.735C362.089 351.707 363.615 351.125 364.673 350.43C369.696 347.134 373.957 342.567 376.992 337.226C377.662 336.048 378.502 334.678 379.808 334.633Z" fill="#00160A"/>
<path d="M313.108 284.207C312.62 285.331 311.53 286.14 310.358 286.25C309.186 286.359 307.977 285.765 307.307 284.749C307.061 284.376 307.063 283.647 307.494 283.686C308.39 284.936 310.26 285.259 311.49 284.377C312.023 283.995 312.948 283.551 313.108 284.207Z" fill="#00160A"/>
<path d="M303.686 276.038C303.792 275.097 304.548 274.279 305.441 274.139C306.334 273.999 307.285 274.55 307.648 275.418C306.995 275.418 306.557 275.294 306.193 275.191C305.452 274.981 305.014 274.856 303.686 276.038Z" fill="#00160A"/>
<path d="M310.607 281.283L309.591 281.741L309.532 281.705C309.269 282.232 308.493 281.636 308.433 281.044C308.421 280.921 308.415 280.792 308.409 280.661C308.386 280.16 308.363 279.639 307.968 279.413C307.475 280.16 307.249 281.141 307.536 281.998C307.823 282.855 308.696 283.506 309.548 283.344C310.399 283.183 311.011 282.087 310.607 281.283Z" fill="#00160A"/>
<path d="M311.827 274.009C313.113 274.117 313.455 274.19 313.809 275.078C313.879 275.253 313.33 275.088 312.806 274.931C312.421 274.816 312.05 274.705 311.95 274.736C307.648 276.075 310.542 273.9 311.827 274.009Z" fill="#00160A"/>
<path d="M311.464 276.342C312.174 276.933 311.969 279.288 310.92 278.845C310.481 278.659 309.956 275.086 311.464 276.342Z" fill="#00160A"/>
<path d="M345.467 339.404C345.128 338.961 345.512 338.169 346.053 338.197C346.292 338.359 346.455 338.64 346.482 338.937C346.277 339.287 345.853 339.479 345.47 339.394L345.467 339.404Z" fill="#00160A"/>
<path d="M335.807 334.814L336.546 334.695L336.605 334.673C336.862 334.17 336.023 333.595 335.688 334.045C335.614 334.302 335.66 334.594 335.807 334.814Z" fill="#00160A"/>
<path d="M341.066 337.873C340.638 337.994 340.58 337.222 340.821 336.831L341.844 337.32C341.686 337.61 341.393 337.815 341.078 337.856L341.066 337.873Z" fill="#00160A"/>
<path d="M328.298 326.619C328.185 326.324 327.778 326.212 327.541 326.409L327.606 326.478C327.401 326.759 327.563 327.239 327.892 327.322C328.193 327.292 328.411 326.914 328.298 326.619Z" fill="#00160A"/>
<path d="M305.835 278.9C305.424 278.9 304.993 278.477 305.014 277.742C305.035 277.008 305.226 276.33 305.835 276.69C306.445 277.051 306.259 278.9 305.835 278.9Z" fill="#00160A"/>
<path d="M114.126 189.673C114.374 190.016 114.94 189.865 115.158 189.501C115.376 189.137 115.349 188.674 115.309 188.246C114.739 182.058 113.209 175.969 110.799 170.29C110.113 168.672 109.391 166.656 110.442 165.271C112.872 171.647 115.322 178.103 116.207 184.907C116.448 186.764 116.535 188.798 115.549 190.361C114.563 191.923 112.106 192.522 111.01 191.043C112.695 190.673 113.984 188.881 113.863 187.078C114.641 187.635 114.775 188.957 114.126 189.673Z" fill="#00160A"/>
<path d="M135.571 284.012C135.673 284.003 135.78 283.993 135.889 283.992C136.025 283.99 136.182 284.015 136.331 284.04C136.73 284.105 137.065 284.159 136.749 283.639C136.316 282.927 135.048 282.847 134.84 283.664C134.898 284.075 135.2 284.047 135.571 284.012Z" fill="#00160A"/>
<path d="M136.591 287.534L136.592 287.531C136.598 287.508 136.604 287.484 136.61 287.46C136.918 286.234 136.739 285.267 135.889 285.267C135.561 285.293 135.06 287.048 135.107 287.58C135.155 288.112 135.726 288.605 136.169 288.34C136.431 288.184 136.515 287.843 136.591 287.534Z" fill="#00160A"/>
<path d="M130.98 287.162C130.387 286.297 130.325 285.066 130.828 284.14C130.903 284.001 130.993 283.866 131.125 283.786C131.457 283.586 131.902 283.857 132.049 284.229C132.196 284.602 132.132 285.024 132.065 285.42C132.065 285.42 131.573 288.027 130.98 287.162Z" fill="#00160A"/>
<path fill-rule="evenodd" clip-rule="evenodd" d="M165.624 287.7C165.135 288.024 164.74 288.534 164.45 289.068C164.903 287.562 165.361 285.664 164.247 285.512C162.357 285.254 160.51 288.484 160.838 290.199C160.314 288.832 158.132 289.424 157.603 290.789C157.198 291.836 157.37 292.983 157.541 294.122C157.593 294.467 157.645 294.812 157.681 295.153C158.248 300.596 154.362 305.684 149.65 308.031C145.208 310.244 140.167 310.555 135.236 310.716L134.086 310.751C131.271 310.828 128.222 310.761 126.074 308.874C123.86 306.929 123.863 302.317 126.642 301.502C133.698 299.433 139.08 292.213 139.3 284.525C139.364 282.252 140.768 280.361 142.124 278.534C142.196 278.437 142.268 278.341 142.339 278.244C142.389 278.177 142.438 278.11 142.488 278.043L142.786 277.633C144.304 275.518 145.552 272.605 144.277 270.319C142.302 272.981 138.602 274.054 135.606 272.834C134.356 272.325 133.248 271.475 132.148 270.63C130.674 269.499 129.212 268.377 127.437 268.096C123.966 267.547 120.523 271.238 121.117 274.87C120.178 274.042 118.719 275.296 118.617 276.58C118.558 277.334 118.747 278.068 118.936 278.805C119.069 279.322 119.203 279.841 119.251 280.37C119.308 280.985 119.248 281.601 119.188 282.218C119.147 282.635 119.106 283.052 119.101 283.469C119.076 285.632 119.994 287.633 120.897 289.604C120.989 289.803 121.08 290.001 121.17 290.2L121.411 290.741C122.44 293.083 123.203 295.87 122.107 298.178C121.011 300.487 117.278 301.21 116.221 298.882C111.039 287.471 99.2931 279.702 87.2536 279.721C73.3139 279.743 60.7718 289.389 52.5568 301.214C51.5322 302.689 50.5294 304.277 50.3062 306.088C50.0829 307.898 50.883 309.976 52.5231 310.581C54.1632 311.187 56.2899 309.493 55.7555 307.756C56.5877 308.776 58.2895 307.811 58.6815 306.533C58.9017 305.815 58.899 305.057 58.8963 304.297C58.8942 303.704 58.8921 303.11 58.9958 302.532C59.5039 299.696 62.2818 298.058 64.7821 296.861L65.2864 296.62C71.1759 293.822 77.312 291.323 83.7539 290.848C90.3799 290.359 97.4506 292.293 102.004 297.371C95.7909 298.919 92.1826 305.465 89.3065 311.511L88.9075 312.354C86.0035 318.477 82.2 325.158 75.8318 326.456C76.0739 327.775 77.1832 328.866 78.4527 329.034L55.1069 343.608L56.8979 345.94C51.2137 355.088 44.7849 363.725 37.7046 371.726C33.8551 376.077 28.8564 380.585 23.2836 379.573C22.2759 379.389 21.2989 379.026 20.3252 378.664C18.8995 378.134 17.4811 377.607 15.9841 377.651C13.4649 377.727 10.9368 380.945 12.6468 382.889C16.4339 387.194 20.7562 390.979 25.4694 394.118L25.5915 394.199C26.1653 394.574 26.7964 394.924 27.4617 394.845C28.1342 394.764 28.6818 394.261 29.1821 393.782L60.7999 363.512C63.3894 361.052 66.2391 358.592 69.6887 358.23L69.9797 358.194C72.5311 357.821 74.6328 356.127 76.7406 354.429C77.6583 353.689 78.5772 352.949 79.5349 352.316C82.7752 350.175 88.1498 349.955 89.4101 353.751C90.0799 355.768 89.2032 357.82 88.3393 359.842C88.0819 360.445 87.8254 361.045 87.6115 361.641C86.6796 364.235 87.4432 368.226 90.0836 368.177L104.86 367.902C105.391 367.897 105.95 367.928 106.363 368.269C106.796 368.626 106.947 369.22 107.03 369.802L107.064 370.069C107.621 374.822 107.544 379.655 106.837 384.385C106.071 389.511 104.032 395.149 99.4259 397.028C96.5206 398.214 93.2846 397.598 90.2246 396.862L71.6314 392.302C71.6003 389.938 73.6373 388.013 75.8088 387.387C77.65 386.855 79.5838 387.018 81.499 387.178L81.8517 387.207L82.5271 387.26C87.2327 387.6 91.9898 387.141 96.5577 385.906L89.9666 368.587C90.6385 374.337 92.1197 379.982 94.3469 385.281L72.6796 386.02C70.7929 386.075 68.6982 385.987 67.43 384.542C67.1044 384.17 66.8331 383.714 66.5642 383.261C66.012 382.332 65.47 381.42 64.4895 381.301C63.6423 381.198 62.8749 381.792 62.226 382.373C57.9899 386.167 54.4726 390.842 51.9384 396.048C52.8521 398.423 55.8792 399.088 58.2308 398.406C59.6065 398.007 60.8621 397.289 62.1201 396.569C63.0125 396.059 63.9066 395.547 64.8451 395.149C70.0827 392.926 75.8407 394.432 81.3719 396.181L84.6574 397.232C91.1501 399.279 99.0665 400.329 103.932 395.373C106.803 392.448 107.849 388.095 108.418 383.937C110.058 371.939 108.728 359.507 104.594 348.19C109.204 346.323 111.379 340.908 113.07 336.034L116.382 326.487C117.488 323.298 120.002 319.384 122.994 320.669C131.548 324.343 141.652 322.789 149.615 317.866C157.579 312.943 163.541 304.967 167.556 296.227L167.664 295.991C168.449 294.254 169.451 290.202 168.556 289.753C168.223 289.478 167.629 289.934 167.224 290.245C167.005 290.413 166.841 290.539 166.804 290.484C166.782 290.45 166.855 290.226 166.959 289.908C167.368 288.656 168.251 285.955 165.624 287.7ZM133.765 312.543C142.582 312.035 152.795 310.699 157.42 302.801C158.619 300.753 158.363 297.533 158.152 294.88C157.983 292.749 157.843 290.983 158.509 290.484C160.005 289.364 161.202 292.252 161.202 292.252C161.246 292.061 161.296 291.825 161.353 291.559L161.353 291.557C161.771 289.589 162.541 285.965 163.75 286.646C164.247 286.926 164.076 288.688 163.958 289.899C163.93 290.183 163.906 290.437 163.893 290.634C163.865 290.821 163.861 290.978 163.882 291.088C163.899 291.081 163.917 291.071 163.935 291.058C163.948 291.056 163.963 291.044 163.982 291.021C164.177 290.847 164.445 290.419 164.743 289.943C165.36 288.956 166.107 287.762 166.607 288.201C167.393 288.89 164.599 293.287 164.599 293.287C164.599 293.287 167.917 289.459 168.197 291.088C168.477 292.718 160.921 307.432 154.101 313.203C147.281 318.974 137.67 322.205 128.981 321.048C129.175 317.43 130.319 312.742 133.765 312.543ZM163.982 291.021C163.966 291.035 163.95 291.047 163.935 291.058C163.883 291.067 163.877 290.903 163.893 290.634C163.958 290.208 164.147 289.625 164.45 289.068C164.393 289.259 164.335 289.444 164.281 289.618C164.039 290.398 163.864 290.963 164.046 290.919C164.021 290.964 164 290.998 163.982 291.021ZM109.018 341.288C107.983 343.731 106.271 346.606 103.743 346.281C102.39 346.108 101.368 345.035 100.448 343.933L99.9554 343.334C94.6136 336.823 87.3568 332.495 80.0633 328.512L77.6333 327.194C83.5744 325.967 87.2394 319.797 89.8565 314.064L90.6905 312.237C93.0835 307.028 95.8064 301.668 100.742 299.323C101.425 298.998 102.207 298.74 102.911 299.01C103.017 299.05 103.132 299.097 103.252 299.145C104.121 299.496 105.24 299.947 105.222 299.083C103.638 298.413 103.378 295.988 104.291 294.473C105.125 293.09 106.57 292.292 108 291.604L108.408 291.41C107.496 290.089 105.518 291.2 104.485 292.419L104.4 292.518C103.363 293.713 101.771 295.021 100.574 294.05C95.6287 290.037 89.0376 288.749 82.8167 289.379C76.5958 290.009 70.6605 292.397 64.9773 295.128C62.8944 296.129 60.7787 297.22 59.2329 298.995C58.0371 300.368 57.9132 302.195 57.7886 304.032C57.7522 304.57 57.7157 305.109 57.6522 305.637C57.4987 306.914 56.8296 306.963 56.2402 307.006C55.9244 307.029 55.6314 307.05 55.453 307.258C55.4386 307.275 55.3924 307.349 55.3229 307.461C54.9691 308.032 54.0116 309.576 53.5791 309.422C52.9439 309.196 53.2678 307.756 53.2678 307.756C53.2678 307.756 51.3828 308.322 51.2425 307.756C50.7516 305.777 53.5791 301.726 53.5791 301.726C58.3329 294.383 65.3827 288.29 73.1333 284.749C81.0275 281.141 90.2393 280.445 98.3093 283.594C107.407 287.144 114.612 295.626 116.934 305.522C117.513 307.989 120.246 309.078 122.634 309.488C122.859 309.527 123.087 309.564 123.315 309.601C125.519 309.963 127.863 310.347 129.268 312.114C129.682 312.635 129.567 313.406 129.425 314.068L129.383 314.258C128.859 316.618 127.946 319.259 125.762 319.976C123.777 320.626 121.426 318.946 121.274 316.769C121.26 316.577 121.256 316.374 121.252 316.169C121.236 315.323 121.218 314.431 120.541 314.082L109.018 341.288ZM90.2495 354.193C89.5074 350.189 87.2516 346.586 84.2921 343.944C84.4076 345.518 85.0417 347.044 86.0616 348.204C81.0464 349.878 76.3168 352.491 72.1626 355.884C71.0507 356.792 69.1618 357.62 68.5106 356.308C65.9485 351.149 61.87 346.834 56.9758 344.105L77.0966 331.964C78.006 331.415 78.9679 330.851 80.0167 330.84C80.8297 330.832 81.6021 331.159 82.3372 331.539L82.7017 331.733C90.2312 335.805 96.9712 341.478 102.395 348.309C103.737 350 104.362 352.166 104.894 354.308L107.288 364.126C107.446 364.776 107.562 365.581 107.077 366.018C106.804 366.264 106.42 366.307 106.061 366.336L105.641 366.369C99.6833 366.851 94.8765 367.24 88.9075 366.336C88.0168 364.543 88.6899 362.321 89.3848 360.026C89.9804 358.06 90.592 356.041 90.2495 354.193ZM60.3166 348.156C62.5491 350.22 64.5617 352.547 66.305 355.078C66.4915 355.349 66.6834 355.651 66.6635 355.984C66.6404 356.374 66.3401 356.673 66.0606 356.93L40.055 380.829C38.9707 381.825 37.2409 381.651 36.0263 380.837C34.9635 380.124 34.2036 379.032 33.5064 377.918L33.2107 377.441C39.9882 373.701 44.3358 367.001 48.722 360.242C51.4732 356.002 54.2397 351.739 57.6306 348.168C57.9602 347.821 58.332 347.462 58.7958 347.407C59.3696 347.34 59.8832 347.755 60.3166 348.156ZM136.048 281.493L136.712 281.707C138.005 282.127 138.22 283.946 138.055 285.357C137.374 291.197 133.916 296.978 128.586 298.793L128.395 298.861C124.921 300.148 122.438 303.964 122.586 307.835C120.254 308.293 117.754 306.335 117.509 303.857C117.46 303.363 117.6 302.721 118.067 302.646C120.186 302.304 122.134 300.939 123.248 299.016C124.362 297.093 124.62 294.649 123.935 292.517C123.795 292.081 123.617 291.645 123.438 291.208C122.932 289.967 122.423 288.721 122.779 287.468C123.591 287.547 123.745 288.716 123.659 289.568L123.65 289.671C123.584 290.51 123.726 291.587 124.501 291.699C125.012 290.467 125.118 289.087 125.224 287.718C125.357 285.989 125.489 284.276 126.433 282.899C127.513 281.324 129.449 280.6 131.297 280.577C132.914 280.557 134.495 280.998 136.048 281.493ZM19.2016 379.966L19.3684 379.764C20.2991 379.55 21.1879 380.802 20.727 381.678C20.4312 382.239 21.3407 382.795 21.8485 382.438C22.3562 382.08 22.4587 381.355 22.5145 380.716C23.0254 380.547 23.4674 381.162 23.5638 381.715C23.5893 381.861 23.6051 382.012 23.6209 382.164C23.665 382.585 23.7091 383.007 23.9622 383.323C24.3062 383.754 25.2175 383.531 25.0681 382.992C24.8451 382.186 25.751 381.529 26.5416 381.41C26.7311 381.382 26.9267 381.365 27.1229 381.348L27.1247 381.348C27.7464 381.295 28.3732 381.241 28.8258 380.816L28.894 380.759C29.4684 380.331 30.1795 381.123 30.613 381.825L30.8147 382.166C31.7679 383.722 33.3882 384.812 35.1349 385.061C35.4772 385.109 35.3031 385.67 35.0516 385.919L29.1563 391.748C28.8705 392.031 28.4074 391.83 28.0726 391.614C24.5732 389.365 21.3427 386.654 18.4808 383.567C17.5792 382.594 18.3438 381.042 19.2016 379.966ZM70.7573 390.816C70.5873 391.552 70.104 392.374 69.3855 392.319C67.6538 392.184 65.8979 392.404 64.2445 392.96C64.3962 392.22 64.0877 391.399 63.4956 390.967C63.0636 391.615 63.2403 392.621 63.8643 393.065L62.216 394.775L61.4269 392.871C61.0378 392.98 61.0265 393.481 61.0533 393.941L61.0725 394.226C61.1515 395.432 60.1778 396.604 59.0298 396.685C57.8818 396.766 56.767 395.742 56.6911 394.537C56.6084 393.224 57.5663 392.122 58.4569 391.196L64.7806 384.621C64.915 384.487 65.069 384.361 65.2506 384.365C65.4512 384.369 65.6139 384.529 65.7551 384.678L68.2226 387.293C68.7012 387.8 68.3988 388.576 68.104 389.332C67.8007 390.11 67.5055 390.867 68.0784 391.289C68.6362 391.323 69.1007 390.815 69.3151 390.273C69.4245 389.997 69.4909 389.705 69.5574 389.413C69.6213 389.133 69.6851 388.853 69.787 388.586C69.995 388.042 70.4438 387.523 71.0024 387.536C71.5611 387.548 71.9921 388.386 71.5601 388.759C71.0995 389.155 70.968 389.8 70.8401 390.427C70.8134 390.559 70.7868 390.689 70.7573 390.816ZM27.521 393.724C21.8371 390.531 16.8129 386.052 12.8913 380.68C13.4055 380.168 14.1789 380.712 14.6762 381.292L14.7994 381.443C18.5255 386.285 23.2051 390.314 28.4568 393.201C28.4142 393.637 27.8886 393.93 27.521 393.724ZM54.7803 392.501C57.2425 389.12 59.9705 385.953 62.9276 383.041C63.386 382.59 64.338 382.286 64.454 382.934C61.0115 386.385 57.7189 390 54.5899 393.765C54.2499 393.456 54.5069 392.877 54.7803 392.501ZM35.8711 384.048C34.153 383.406 32.6213 382.225 31.5239 380.695C31.111 380.12 30.8506 379.12 31.4762 378.825C31.9707 378.591 32.4457 379.082 32.7906 379.558L33.0492 379.927C34.1606 381.467 35.7457 382.625 37.5088 383.179C37.5119 383.673 37.1225 384.135 36.6553 384.193C36.3892 384.226 36.1235 384.142 35.8711 384.048ZM120.183 283.992C120.991 284.012 121.675 284.896 121.528 285.73L121.547 285.742C121.659 286.347 121.585 286.987 121.34 287.547C120.457 286.638 120.014 285.278 120.183 283.992Z" fill="#00160A"/>
<path fill-rule="evenodd" clip-rule="evenodd" d="M110.079 155.075C110.179 154.395 111.042 154.002 111.667 154.235C112.291 154.469 112.848 155.408 112.39 155.94C111.667 156.782 109.885 156.395 110.079 155.075Z" fill="#FFB61D"/>
<path fill-rule="evenodd" clip-rule="evenodd" d="M381.733 331.25C381.325 331.609 380.506 331.739 380.431 331.185C382.023 329.484 383.118 327.277 383.534 324.933C384.054 324.787 384.204 325.656 384.074 326.204C383.634 328.051 383.122 330.025 381.733 331.25Z" fill="#00160A"/>
<path d="M30.229 128.595C30.2128 129.143 29.4207 129.111 28.9416 128.892C29.1141 128.403 29.8131 128.239 30.1672 128.605L30.229 128.595Z" fill="black"/>
<path fill-rule="evenodd" clip-rule="evenodd" d="M256.278 279.234C255.726 279.75 254.798 278.962 254.88 278.191C254.962 277.42 255.612 276.868 256.236 276.453C258.473 274.965 261.063 274.069 263.703 273.868C263.774 274.926 262.469 275.362 261.478 275.565C259.376 275.996 257.373 276.952 255.682 278.333C255.988 278.529 256.21 278.865 256.278 279.234Z" fill="#00160A"/>
<path fill-rule="evenodd" clip-rule="evenodd" d="M263.778 280.583C262.539 281.211 261.278 281.791 259.999 282.322C260.144 282.889 260.92 282.87 261.446 282.671C261.972 282.471 262.663 282.262 263.004 282.727C262.139 284.114 259.995 284.33 258.895 283.142C258.416 282.625 257.55 282.965 256.932 282.652C256.048 282.203 256.212 280.801 256.733 279.927C257.82 278.101 259.893 276.975 261.94 277.098C262.72 277.145 263.651 277.549 263.703 278.368C261.258 278.206 258.765 279.265 257.115 281.165C258.052 281.928 259.398 281.359 260.455 280.796C261.513 280.233 262.909 279.736 263.778 280.583Z" fill="#00160A"/>
<path fill-rule="evenodd" clip-rule="evenodd" d="M133.619 287.866C134.321 288.603 134.612 288.94 134.612 290.025C134.612 291.109 134.052 291.805 133.107 292.123C132.671 292.27 132.068 292.158 131.954 291.692C135.105 291.016 133.947 289.574 133.619 287.866Z" fill="#00160A"/>
<path fill-rule="evenodd" clip-rule="evenodd" d="M129.416 283.253C129.752 282.082 131.214 281.45 132.238 282.032C132.643 282.262 132.979 282.682 133 283.165C131.806 283.194 130.822 282.383 129.416 283.253Z" fill="#00160A"/>
<path fill-rule="evenodd" clip-rule="evenodd" d="M132.276 293.706C125.612 289.82 130.829 294.799 132.276 293.706V293.706Z" fill="#00160A"/>
</g>
<defs>
<filter id="filter0_d_4_4016" x="0" y="0" width="472" height="476" filterUnits="userSpaceOnUse" color-interpolation-filters="sRGB">
<feFlood flood-opacity="0" result="BackgroundImageFix"/>
<feColorMatrix in="SourceAlpha" type="matrix" values="0 0 0 0 0 0 0 0 0 0 0 0 0 0 0 0 0 0 127 0" result="hardAlpha"/>
<feOffset dy="4"/>
<feGaussianBlur stdDeviation="2"/>
<feComposite in2="hardAlpha" operator="out"/>
<feColorMatrix type="matrix" values="0 0 0 0 0 0 0 0 0 0 0 0 0 0 0 0 0 0 0.25 0"/>
<feBlend mode="normal" in2="BackgroundImageFix" result="effect1_dropShadow_4_4016"/>
<feBlend mode="normal" in="SourceGraphic" in2="effect1_dropShadow_4_4016" result="shape"/>
</filter>
</defs>
</svg>
