<svg width="80" height="80" viewBox="0 0 80 80" fill="none" xmlns="http://www.w3.org/2000/svg">
<path d="M64.1656 28.2374C63.3667 27.9645 62.562 27.7104 61.7516 27.4749C61.8859 26.9281 62.0099 26.3781 62.1234 25.8249C63.9516 16.9343 62.7563 9.77181 58.6766 7.414C54.7703 5.1515 48.3641 7.50931 41.9016 13.1468C41.2662 13.7031 40.6438 14.276 40.0344 14.8656C39.6281 14.4739 39.2115 14.0906 38.7844 13.7156C32.0109 7.68743 25.2219 5.14837 21.1469 7.514C17.2406 9.78119 16.0797 16.514 17.725 24.9406C17.8896 25.7739 18.0745 26.6036 18.2797 27.4296C17.3188 27.7031 16.3906 27.9952 15.5031 28.3046C7.57188 31.0781 2.5 35.4265 2.5 39.9359C2.5 44.5952 7.94375 49.2671 16.2141 52.0999C16.8849 52.3281 17.562 52.54 18.2453 52.7359C18.0234 53.6203 17.8271 54.5145 17.6563 55.4187C16.0938 63.6999 17.3125 70.2734 21.2109 72.5265C25.2375 74.8531 31.9922 72.4624 38.5766 66.6968C39.0974 66.2406 39.6182 65.7588 40.1391 65.2515C40.7974 65.888 41.4745 66.5057 42.1703 67.1046C48.5453 72.6015 54.8406 74.8218 58.7328 72.5624C62.7563 70.2281 64.0641 63.1656 62.3656 54.5734C62.2354 53.9171 62.0854 53.2473 61.9156 52.564C62.3906 52.4234 62.8557 52.2781 63.3109 52.1281C71.9047 49.2734 77.5031 44.6577 77.5031 39.9406C77.5 35.4093 72.2656 31.0327 64.1656 28.2374ZM44.0094 15.5687C49.5453 10.739 54.7203 8.83275 57.0797 10.1952C59.5906 11.6468 60.5672 17.4999 58.9891 25.1765C58.8849 25.6765 58.7724 26.1749 58.6516 26.6718C55.3479 25.9204 51.9977 25.39 48.6234 25.0843C46.6915 22.3013 44.5736 19.652 42.2844 17.1546C42.8448 16.6109 43.4188 16.0822 44.0063 15.5687H44.0094ZM24.6453 43.789C25.3234 45.1015 26.0323 46.3979 26.7719 47.6781C27.525 48.9843 28.3099 50.2713 29.1266 51.539C26.8048 51.2866 24.4976 50.9147 22.2141 50.4249C22.8766 48.2812 23.6922 46.0546 24.6453 43.789ZM24.6453 36.2374C23.7078 34.0202 22.9141 31.839 22.2625 29.7327C24.4031 29.2531 26.6844 28.8609 29.0625 28.564C28.2656 29.8077 27.499 31.0697 26.7625 32.3499C26.026 33.6301 25.3188 34.926 24.6406 36.2374H24.6453ZM26.3484 40.014C27.3359 37.9546 28.3995 35.9348 29.5391 33.9546C30.6776 31.9755 31.8896 30.0416 33.175 28.1531C35.4063 27.9843 37.6938 27.8952 40.0047 27.8952C42.3156 27.8952 44.6172 27.9843 46.8469 28.1546C48.1188 30.039 49.3234 31.9661 50.4609 33.9359C51.5984 35.9057 52.676 37.9161 53.6938 39.9671C52.6896 42.0338 51.6146 44.0619 50.4688 46.0515C49.3323 48.0307 48.1344 49.9702 46.875 51.8703C44.6484 52.0265 42.3438 52.1124 40 52.1124C37.6563 52.1124 35.3953 52.039 33.2094 51.8968C31.9146 50.002 30.6927 48.0598 29.5438 46.0702C28.3948 44.0807 27.3281 42.0619 26.3438 40.014H26.3484ZM53.2422 47.6562C53.9974 46.3458 54.7224 45.0182 55.4172 43.6734C56.3696 45.8329 57.2103 48.04 57.9359 50.2859C55.6256 50.8061 53.2896 51.2051 50.9375 51.4812C51.7313 50.2218 52.4995 48.9468 53.2422 47.6562ZM55.3859 36.239C54.6943 34.9213 53.975 33.6192 53.2281 32.3327C52.499 31.064 51.7391 29.8109 50.9484 28.5734C53.3406 28.8765 55.6359 29.2796 57.7875 29.7718C57.0957 31.9664 56.2942 34.1248 55.3859 36.239ZM40.0359 19.4499C41.5962 21.1548 43.0694 22.9373 44.45 24.7906C41.4969 24.6499 38.5417 24.6499 35.5844 24.7906C37.0422 22.8624 38.5344 21.0734 40.0359 19.4499ZM22.7594 10.2906C25.2688 8.83431 30.8172 10.9156 36.6656 16.114C37.0391 16.4468 37.4156 16.7952 37.7906 17.1562C35.4896 19.6532 33.3568 22.3002 31.4063 25.0796C28.0395 25.383 24.6959 25.9049 21.3969 26.6421C21.2063 25.8755 21.0344 25.1036 20.8813 24.3265C19.4672 17.1031 20.4031 11.6577 22.7594 10.2906ZM19.1016 49.6421C18.4766 49.464 17.8594 49.2708 17.25 49.0624C13.5938 47.8124 10.5734 46.1812 8.5 44.4046C6.64375 42.8124 5.70313 41.2234 5.70313 39.9359C5.70313 37.1999 9.775 33.7093 16.5656 31.3421C17.4188 31.0452 18.2792 30.7739 19.1469 30.5281C20.1554 33.7691 21.3768 36.9401 22.8031 40.0202C21.3598 43.143 20.1233 46.3572 19.1016 49.6421ZM36.4656 64.2781C33.5547 66.8281 30.6391 68.6359 28.0688 69.5468C25.7594 70.364 23.9203 70.3874 22.8094 69.7452C20.4438 68.3781 19.4594 63.0984 20.8016 56.0171C20.9609 55.1838 21.1432 54.3505 21.3484 53.5171C24.6805 54.2349 28.0576 54.7251 31.4563 54.9843C33.4259 57.7782 35.5763 60.4402 37.8938 62.9531C37.4281 63.4109 36.9516 63.8515 36.4656 64.2781ZM40.125 60.6499C38.6063 59.0078 37.0906 57.1906 35.6125 55.2374C37.049 55.2937 38.5115 55.3218 40 55.3218C41.5281 55.3218 43.0406 55.289 44.5313 55.2218C43.1557 57.1049 41.685 58.9166 40.125 60.6499ZM59.5813 65.1171C59.1344 67.5296 58.2359 69.139 57.125 69.7827C54.7609 71.1546 49.7063 69.3718 44.2563 64.6702C43.6313 64.1328 43.0063 63.5562 42.3703 62.9515C44.6426 60.4288 46.7427 57.7561 48.6563 54.9515C52.0737 54.662 55.4672 54.1373 58.8125 53.3812C58.9656 53.9999 59.101 54.6062 59.2188 55.1999C59.9703 58.9968 60.0781 62.4312 59.5813 65.1171ZM62.3 49.0796C61.8906 49.2156 61.4688 49.3468 61.0406 49.4749C59.9917 46.2186 58.7226 43.0373 57.2422 39.9531C58.6671 36.91 59.8864 33.7748 60.8922 30.5687C61.6594 30.7921 62.4047 31.0265 63.1219 31.2749C70.0625 33.6687 74.2969 37.2124 74.2969 39.9359C74.2969 42.8421 69.7234 46.614 62.3 49.0796Z" fill="black"/>
<path d="M39.9996 46.6484C41.3294 46.6527 42.6305 46.2624 43.7383 45.5267C44.8461 44.7911 45.7106 43.7433 46.2225 42.516C46.7344 41.2887 46.8706 39.9371 46.6138 38.6324C46.357 37.3276 45.7189 36.1284 44.7801 35.1866C43.8414 34.2447 42.6442 33.6027 41.3403 33.3416C40.0364 33.0806 38.6844 33.2124 37.4554 33.7203C36.2265 34.2282 35.1758 35.0893 34.4366 36.1947C33.6974 37.3 33.3028 38.5999 33.3027 39.9297C33.3009 40.8107 33.4727 41.6834 33.8083 42.4979C34.144 43.3125 34.6368 44.0529 35.2588 44.6769C35.8807 45.3009 36.6195 45.7962 37.433 46.1345C38.2465 46.4727 39.1186 46.6474 39.9996 46.6484Z" fill="black"/>
</svg>
