<svg width="24" height="27" viewBox="0 0 24 27" fill="none" xmlns="http://www.w3.org/2000/svg">
<g clip-path="url(#clip0_4082_9934)">
<path fill-rule="evenodd" clip-rule="evenodd" d="M16.8049 26.3776L16.7469 4.09929C16.5967 3.94923 16.3037 3.99455 16.1892 4.02798L15.4262 4.2642C15.332 3.95462 15.2098 3.65426 15.061 3.36683C14.5196 2.33426 13.7284 1.78826 12.7706 1.78678H12.7676C12.7036 1.78678 12.6404 1.79272 12.5765 1.79792L12.569 1.79866C12.5413 1.76458 12.5126 1.73138 12.4828 1.69912C12.0663 1.2534 11.5309 1.03575 10.8899 1.05432C9.6539 1.08998 8.42315 1.98289 7.42442 3.56889C6.72167 4.6854 6.18847 6.08718 6.03602 7.17249L3.60203 7.92649C2.88589 8.15158 2.86358 8.17386 2.76913 8.84912C2.69849 9.3602 0.82373 23.86 0.82373 23.86L16.5357 26.5774L16.8049 26.3776ZM11.6573 2.07278C11.4483 1.93535 11.2037 1.87146 10.9137 1.8774C9.00543 1.93238 7.34113 4.91346 6.9165 6.89986L8.74441 6.3338L9.07087 6.23277C9.31033 4.9714 9.91121 3.66249 10.6973 2.82009C10.9721 2.51823 11.2965 2.26549 11.6566 2.07278H11.6573ZM9.97442 5.95272L12.598 5.14003C12.6062 4.4566 12.5318 3.44632 12.1898 2.73318C11.8254 2.88323 11.519 3.1462 11.2989 3.38169C10.7091 4.01535 10.228 4.9818 9.97516 5.95272H9.97442ZM13.4198 4.88598L14.6394 4.50786C14.4445 3.87495 13.982 2.81415 13.0442 2.63586C13.3357 3.38838 13.4109 4.25975 13.4198 4.88598Z" fill="#95BF47"/>
<path d="M20.3273 5.75663C20.2336 5.74921 18.4176 5.72098 18.4176 5.72098C18.4176 5.72098 16.8983 4.24566 16.7481 4.09486C16.6899 4.04124 16.6162 4.00743 16.5376 3.99829V26.5737L23.3458 24.8807C23.3458 24.8807 20.5675 6.09315 20.5496 5.96463C20.541 5.91006 20.5144 5.85992 20.474 5.82223C20.4335 5.78453 20.3824 5.76144 20.3273 5.75663Z" fill="#5E8E3E"/>
<path d="M12.7629 9.26198L11.9716 12.2215C11.9716 12.2215 11.0896 11.8196 10.0433 11.8857C8.5099 11.9823 8.49354 12.9503 8.50916 13.1932C8.59244 14.5155 12.0735 14.8052 12.2691 17.9051C12.423 20.3439 10.9759 22.0131 8.89065 22.1439C6.38825 22.3021 5.01025 20.8253 5.01025 20.8253L5.54048 18.5685C5.54048 18.5685 6.9274 19.6152 8.03693 19.5446C8.76274 19.4993 9.02153 18.9095 8.99551 18.492C8.88619 16.7663 6.05137 16.8673 5.87215 14.0311C5.72193 11.6428 7.28882 9.22484 10.7476 9.00644C12.0802 8.92175 12.7629 9.26272 12.7629 9.26272" fill="white"/>
</g>
<defs>
<clipPath id="clip0_4082_9934">
<rect width="23.0533" height="26" fill="white" transform="translate(0.582031 0.83667)"/>
</clipPath>
</defs>
</svg>
