<svg width="187" height="247" viewBox="0 0 187 247" fill="none" xmlns="http://www.w3.org/2000/svg">
<path d="M184.987 148.937V160.545C184.987 164.862 182.8 168.956 179.098 171.255C178.874 171.405 178.669 171.536 178.482 171.648C170.575 176.246 158.518 176.751 151.677 172.769L140.35 166.208C137.378 164.526 135.807 162.227 135.695 159.816V135.03C135.807 137.105 136.929 139.067 139.116 140.693C139.378 140.88 139.639 141.049 139.901 141.198C140.051 141.31 140.2 141.404 140.35 141.479L151.677 148.04C158.518 151.965 170.519 151.46 178.482 146.918C179.042 146.582 179.585 146.226 180.108 145.853C180.557 145.516 180.986 145.18 181.398 144.843C183.529 142.993 184.706 140.974 184.987 139.011V148.937Z" fill="#0F83F5"/>
<path d="M181.677 132.226C183.583 133.796 184.985 135.983 184.985 139.011C184.705 140.974 183.527 142.993 181.396 144.843L181.621 132.226H181.677Z" fill="#3A3A3A"/>
<path d="M157.003 39.3073V28.7649C172.143 34.5968 184.704 45.4196 183.975 53.4386C183.022 64.6539 181.788 120.786 181.788 120.786L181.396 144.843C180.985 145.18 180.555 145.516 180.106 145.853C179.583 146.226 179.041 146.582 178.48 146.918C170.517 151.46 158.517 151.965 151.675 148.04C151.675 148.04 140.067 141.31 139.899 141.198V126.17C139.899 124.712 139.862 123.272 139.787 121.852L150.946 115.403C152.965 114.225 154.76 111.87 155.825 109.179C154.535 101.776 153.918 91.5706 157.003 83.2713C157.04 83.1591 157.096 83.0282 157.171 82.8787C158.236 80.187 158.573 77.215 157.9 74.3551C157.601 73.1588 157.302 71.9251 157.003 70.654C154.423 59.607 151.787 46.0365 156.498 39.812C156.647 39.5877 156.816 39.4194 157.003 39.3073Z" fill="white"/>
<path d="M157.002 83.2715V70.6543C157.301 71.9254 157.6 73.159 157.899 74.3553C158.572 77.2152 158.236 80.1873 157.17 82.879C157.095 83.0285 157.039 83.1594 157.002 83.2715Z" fill="white"/>
<path d="M157.003 70.6542V83.2714C153.807 91.5147 154.536 101.777 155.826 109.179C154.76 111.87 152.966 114.226 150.947 115.403L139.788 121.852L66.3839 164.19C66.4212 163.704 66.4399 163.218 66.4399 162.732C66.4399 147.872 58.9257 135.086 57.692 128.581C56.4583 122.076 52.3087 97.4027 42.9439 101.048C37.7288 103.066 41.6541 119.665 41.6541 129.198C41.6541 134.694 38.5699 141.198 35.9343 145.797C35.71 146.245 35.3736 146.582 35.0371 146.862V80.4115C35.0371 75.9815 37.7288 70.7663 41.0934 68.8037L150.947 5.43723C152.461 4.54001 153.807 4.48395 154.873 5.10079C156.162 5.82978 157.003 7.56816 157.003 9.97945V39.3074C156.817 39.4196 156.648 39.5878 156.499 39.8121C151.788 46.0366 154.424 59.6072 157.003 70.6542Z" fill="#EFF1F3"/>
<path d="M150.274 2.40914L154.873 5.1008C153.807 4.48396 152.461 4.54002 150.947 5.43725L41.0934 68.8037C37.7288 70.7664 35.0372 75.9815 35.0372 80.4115V146.862C34.0839 147.535 32.8502 147.703 31.7847 147.087C30.9436 146.638 30.3828 145.909 30.3828 144.731V77.7759C30.3828 73.2898 33.1306 68.0747 36.4391 66.1681L146.293 2.74558C147.807 1.84836 149.209 1.7923 150.274 2.40914Z" fill="#3A3A3A"/>
<path d="M139.901 129.478V141.198C139.639 141.049 139.378 140.88 139.116 140.694C136.929 139.067 135.807 137.105 135.695 135.03C135.695 132.675 137.602 130.712 139.901 129.478Z" fill="#3A3A3A"/>
<path d="M24.1578 104.132C26.1205 102.001 28.2514 99.758 30.3823 97.5149V144.731C30.3823 145.909 30.9431 146.638 31.7842 147.087C32.8497 147.703 34.0833 147.535 35.0366 146.862C35.3731 146.582 35.7095 146.245 35.9339 145.797C38.5695 141.198 41.6537 134.694 41.6537 129.198C41.6537 119.665 37.7283 103.066 42.9434 101.048C52.3082 97.4027 56.4579 122.076 57.6915 128.581C58.9252 135.086 66.4395 147.872 66.4395 162.732C66.4395 163.218 66.4208 163.704 66.3834 164.19C66.0469 172.713 62.9067 179.274 60.4393 183.032C58.7009 185.779 57.6915 188.976 57.6915 192.284V216.621C57.5046 216.733 57.299 216.846 57.0747 216.958C49.224 221.612 37.1675 222.061 30.3262 218.079L18.9988 211.574C18.6623 211.35 18.3258 211.145 17.9894 210.958V196.658C17.9894 191.892 17.3165 187.237 15.9146 182.695C12.2696 170.807 7.33486 148.376 5.31611 142.656C-3.43183 119.329 7.89561 113.328 23.8774 103.908L24.1578 104.132Z" fill="white"/>
<path d="M63.5799 219.033V230.584C63.5799 234.958 61.3929 238.996 57.7479 241.351C57.5236 241.463 57.2993 241.594 57.075 241.744C49.1682 246.286 37.1679 246.791 30.3265 242.809L18.9991 236.304C16.027 234.566 14.4569 232.267 14.3447 229.856V205.126C14.4569 207.201 15.5784 209.163 17.7654 210.733C17.8402 210.808 17.9149 210.883 17.9897 210.958C18.3262 211.145 18.6626 211.35 18.9991 211.575L30.3265 218.079C37.1679 222.061 49.2243 221.612 57.075 216.958C57.2993 216.846 57.5049 216.734 57.6919 216.621C58.0657 216.397 58.4022 216.173 58.7012 215.949C61.6172 213.874 63.2995 211.462 63.5799 209.051V219.033Z" fill="#0F83F5"/>
<path d="M57.6914 200.247C62.7944 202.602 63.5794 206.303 63.5794 209.051C63.2991 211.462 61.6168 213.874 58.7008 215.948C58.4017 216.173 58.0652 216.397 57.6914 216.621V200.247Z" fill="#3A3A3A"/>
<path d="M17.9897 197.331V210.957C17.9149 210.883 17.8402 210.808 17.7654 210.733C15.5784 209.163 14.4569 207.2 14.3447 205.125C14.3447 200.079 15.1298 198.621 17.9897 197.331Z" fill="#3A3A3A"/>
<path d="M35.0371 146.862V80.4115C35.0371 75.9815 37.7288 70.7663 41.0934 68.8037L150.947 5.43723C152.461 4.54001 153.807 4.48395 154.873 5.10079C156.162 5.82978 157.003 7.56816 157.003 9.97945V39.3074" stroke="#3A3A3A" stroke-width="3" stroke-linecap="round" stroke-linejoin="round"/>
<path d="M157.002 70.6543V83.2715" stroke="#3A3A3A" stroke-width="3" stroke-linecap="round" stroke-linejoin="round"/>
<path d="M139.788 121.852L66.3838 164.19" stroke="#3A3A3A" stroke-width="3" stroke-linecap="round" stroke-linejoin="round"/>
<path d="M155.825 109.179C154.76 111.87 152.965 114.226 150.946 115.403L139.787 121.852" stroke="#3A3A3A" stroke-width="3" stroke-linecap="round" stroke-linejoin="round"/>
<path d="M139.901 141.198C139.639 141.049 139.378 140.88 139.116 140.693C136.929 139.067 135.807 137.105 135.695 135.03V159.816C135.807 162.227 137.378 164.526 140.35 166.208L151.677 172.769C158.518 176.751 170.575 176.246 178.482 171.648C178.669 171.536 178.874 171.405 179.098 171.255C182.8 168.956 184.987 164.862 184.987 160.545V139.011C184.706 140.974 183.472 142.993 181.398 144.843C180.986 145.18 180.557 145.516 180.108 145.853C179.585 146.226 179.042 146.582 178.482 146.918C170.519 151.46 158.518 151.965 151.677 148.04C151.677 148.04 140.069 141.31 139.901 141.198Z" stroke="#3A3A3A" stroke-width="3" stroke-linecap="round" stroke-linejoin="round"/>
<path d="M184.984 139.011C184.984 135.983 183.582 133.796 181.676 132.226" stroke="#3A3A3A" stroke-width="3" stroke-linecap="round" stroke-linejoin="round"/>
<path d="M14.3447 205.126V229.856C14.4569 232.267 16.027 234.566 18.9991 236.304L30.3265 242.809C37.1679 246.791 49.1682 246.286 57.075 241.744C57.2993 241.594 57.5236 241.463 57.7479 241.351C61.3929 238.996 63.5799 234.958 63.5799 230.584V209.051C63.2995 211.462 61.6172 213.874 58.7012 215.949C58.4022 216.173 58.0657 216.397 57.6919 216.621C57.5049 216.734 57.2993 216.846 57.075 216.958C49.2243 221.612 37.1679 222.061 30.3265 218.079L18.9991 211.575C18.6626 211.35 18.3262 211.145 17.9897 210.958C17.9149 210.883 17.8402 210.808 17.7654 210.733C15.5784 209.163 14.4569 207.201 14.3447 205.126Z" stroke="#3A3A3A" stroke-width="3" stroke-linecap="round" stroke-linejoin="round"/>
<path d="M63.5794 209.051C63.5794 206.303 62.7944 202.602 57.6914 200.247" stroke="#3A3A3A" stroke-width="3" stroke-linecap="round" stroke-linejoin="round"/>
<path d="M14.3447 205.125C14.3447 200.079 15.1298 198.621 17.9897 197.331" stroke="#3A3A3A" stroke-width="3" stroke-linecap="round" stroke-linejoin="round"/>
<path d="M8.90527 123.142C9.01743 120.843 15.7466 113.104 24.1581 104.132C26.1207 102.001 28.2517 99.758 30.3826 97.5149" stroke="#3A3A3A" stroke-width="3" stroke-linecap="round" stroke-linejoin="round"/>
<path d="M17.9894 210.957V196.658C17.9894 191.891 17.3165 187.237 15.9146 182.695C12.2696 170.807 7.33486 148.376 5.31611 142.656C-3.43183 119.328 7.89561 113.328 23.8774 103.907" stroke="#3A3A3A" stroke-width="3" stroke-linecap="round" stroke-linejoin="round"/>
<path d="M57.6921 216.621V192.284C57.6921 188.976 58.7014 185.779 60.4398 183.032C62.9072 179.274 66.0475 172.713 66.3839 164.19C66.4213 163.704 66.44 163.218 66.44 162.732C66.44 147.872 58.9258 135.086 57.6921 128.581C56.4584 122.076 52.3087 97.4027 42.9439 101.048C37.7288 103.066 41.6542 119.665 41.6542 129.198C41.6542 134.694 38.57 141.198 35.9344 145.797C35.7101 146.245 35.3736 146.582 35.0372 146.862C34.0839 147.535 32.8502 147.703 31.7847 147.086C30.9436 146.638 30.3828 145.909 30.3828 144.731V77.7759C30.3828 73.2898 33.1306 68.0747 36.4391 66.1681L146.293 2.74558C147.807 1.84836 149.209 1.7923 150.274 2.40914L154.873 5.1008" stroke="#3A3A3A" stroke-width="3" stroke-linecap="round" stroke-linejoin="round"/>
<path d="M139.899 141.198V126.17C139.899 124.712 139.862 123.272 139.787 121.852" stroke="#3A3A3A" stroke-width="3" stroke-linecap="round" stroke-linejoin="round"/>
<path d="M181.395 144.843L181.788 120.786C181.788 120.786 183.021 64.6538 183.975 53.4385C184.704 45.4196 172.143 34.5968 157.002 28.7649" stroke="#3A3A3A" stroke-width="3" stroke-linecap="round" stroke-linejoin="round"/>
<path d="M158.237 119.161C158.237 119.161 156.891 115.011 155.826 109.179C154.536 101.777 153.919 91.571 157.003 83.2717C157.041 83.1595 157.097 83.0287 157.172 82.8791C158.237 80.1874 158.573 77.2154 157.901 74.3555C157.601 73.1592 157.302 71.9255 157.003 70.6544C154.424 59.6074 151.788 46.0369 156.499 39.8124C156.648 39.6255 156.816 39.4572 157.003 39.3077C163.004 33.8683 170.013 67.9067 172.873 73.6826" stroke="#3A3A3A" stroke-width="3" stroke-linecap="round" stroke-linejoin="round"/>
<path d="M135.695 135.03C135.695 132.675 137.602 130.712 139.901 129.478" stroke="#3A3A3A" stroke-width="3" stroke-linecap="round" stroke-linejoin="round"/>
<path d="M123.413 90.0565C125.32 84.9536 126.386 79.7385 126.386 74.8598C126.386 59.1584 115.338 52.7657 101.768 60.6164C88.1414 68.4671 77.1504 87.5891 77.1504 103.291C77.1504 118.936 88.1414 125.329 101.768 117.478C111.133 112.095 119.264 101.328 123.413 90.0565Z" fill="white"/>
<path d="M96.3268 89.72L89.3172 96.7857L96.3268 95.6641V98.6923L86.2891 100.094V96.8978L96.3268 86.6919V89.72Z" fill="#3A3A3A"/>
<path d="M103.898 76.3739L106.814 74.6355L99.8607 101.608L96.8887 103.347L103.898 76.3739Z" fill="#3A3A3A"/>
<path d="M117.245 79.0654V82.2057L107.207 92.4116V89.3835L114.217 82.3739L107.207 83.4394V80.4112L117.245 79.0654Z" fill="#3A3A3A"/>
<path d="M123.413 90.0565C125.32 84.9536 126.386 79.7385 126.386 74.8598C126.386 59.1584 115.338 52.7657 101.768 60.6164C88.1414 68.4671 77.1504 87.5891 77.1504 103.291C77.1504 118.936 88.1414 125.329 101.768 117.478C111.133 112.095 119.264 101.328 123.413 90.0565Z" stroke="#3A3A3A" stroke-width="3" stroke-linecap="round" stroke-linejoin="round"/>
<path d="M51.1856 79.6264C51.1856 80.9722 50.2324 82.6545 49.0547 83.3274C47.8771 84.0003 46.9238 83.4396 46.9238 82.0937C46.9238 80.6918 47.8771 79.0656 49.0547 78.3927C50.2324 77.7198 51.1856 78.2245 51.1856 79.6264Z" stroke="#3A3A3A" stroke-width="3" stroke-linecap="round" stroke-linejoin="round"/>
<path d="M59.4839 74.8598C59.4839 76.2057 58.5306 77.8879 57.353 78.5609C56.1754 79.2338 55.166 78.673 55.166 77.3272C55.166 75.9253 56.1754 74.2991 57.353 73.6261C58.5306 72.8971 59.4839 73.4579 59.4839 74.8598Z" stroke="#3A3A3A" stroke-width="3" stroke-linecap="round" stroke-linejoin="round"/>
<path d="M67.7276 70.0935C67.7276 71.4393 66.7743 73.0655 65.5967 73.7945C64.4191 74.4674 63.4658 73.9066 63.4658 72.5608C63.4658 71.1589 64.4191 69.5327 65.5967 68.8598C66.7743 68.1308 67.7276 68.6916 67.7276 70.0935Z" stroke="#3A3A3A" stroke-width="3" stroke-linecap="round" stroke-linejoin="round"/>
</svg>
