<svg width="372" height="351" viewBox="0 0 372 351" fill="none" xmlns="http://www.w3.org/2000/svg">
<path fill-rule="evenodd" clip-rule="evenodd" d="M26.2478 168.004C26.2478 168.004 10.4332 154.401 32.62 107.436C54.8068 60.4708 99.7392 70.7648 128.46 52.2916C170.896 24.9967 153.502 3.63629 206.416 0.193205C273.039 -4.1419 276.812 65.9137 310.144 65.9137C312.337 65.9137 364.241 44.9144 371.839 102.401C375.665 131.352 310.144 175.5 310.144 175.5C310.144 175.5 282.875 200.387 281.378 212.677C275.098 264.216 288.194 323.247 141.424 350.422C122.443 353.937 90.9237 341.224 73.5348 317.739C59.9117 299.341 5.26439 312.395 0.163218 251.907C-2.40788 221.421 26.2478 168.004 26.2478 168.004Z" fill="#9DB9E8"/>
<path d="M124.147 127.14C124.642 126.846 125.28 127.012 125.572 127.51L126.75 129.511C131.428 137.413 133.299 139.98 135.288 141.14C136.922 142.093 138.612 141.797 141.705 139.97L142.119 139.721C144.064 138.5 152.967 132.342 156.409 130.131C156.894 129.82 157.537 129.963 157.846 130.451C158.155 130.939 158.013 131.587 157.528 131.898L156.999 132.241C153.163 134.745 144.546 140.703 143.021 141.622C139.275 143.876 136.847 144.383 134.414 143.049L134.244 142.953C131.63 141.428 129.597 138.502 123.78 128.575C123.488 128.077 123.652 127.434 124.147 127.14Z" fill="white"/>
<path d="M141 139.251C141.569 139.175 142.093 139.577 142.169 140.151C142.523 142.816 143.372 145.489 144.72 148.172C144.979 148.688 144.774 149.318 144.261 149.579C143.748 149.841 143.122 149.634 142.863 149.117C141.413 146.23 140.492 143.333 140.106 140.429C140.03 139.855 140.43 139.328 141 139.251Z" fill="white"/>
<path fill-rule="evenodd" clip-rule="evenodd" d="M262.23 203.247C262.062 203.675 261.694 204.267 261.267 204.827L261.635 205.212L262.062 205.669L262.157 205.761C262.199 205.798 262.231 205.821 262.255 205.827C262.393 205.847 262.489 205.975 262.47 206.115C262.45 206.252 262.324 206.351 262.186 206.33C262.061 206.328 261.607 206.149 261.065 205.707C260.967 205.626 260.87 205.534 260.77 205.433C260.458 205.783 260.143 206.085 259.87 206.272C259.47 206.55 259.122 206.572 258.957 206.46C258.793 206.35 258.637 205.981 258.902 205.235C258.944 205.1 259.087 205.029 259.219 205.071C259.351 205.113 259.424 205.255 259.383 205.39C259.342 205.528 259.337 205.655 259.336 205.756L259.49 205.65C259.545 205.611 259.6 205.567 259.651 205.515C259.837 205.331 260.045 205.107 260.253 204.865C259.923 204.478 259.587 204.024 259.314 203.501C259.181 203.245 259.075 202.974 258.975 202.689C258.905 202.53 258.977 202.343 259.136 202.273C259.294 202.202 259.48 202.275 259.549 202.434C259.852 203.074 260.24 203.625 260.622 204.097L260.75 204.251C261.098 203.792 261.397 203.328 261.533 202.974C261.608 202.782 261.825 202.685 262.017 202.759C262.211 202.836 262.306 203.054 262.23 203.247Z" fill="white"/>
<path fill-rule="evenodd" clip-rule="evenodd" d="M107.393 71.0663L106.759 70.9507C103.217 70.2877 100.502 69.4737 95.4285 67.7027C94.8467 67.4996 94.5386 66.8601 94.7403 66.2744C94.942 65.6886 95.5771 65.3783 96.1589 65.5814L97.4232 66.0196C101.873 67.5487 104.37 68.2498 107.781 68.8552C119.256 70.8925 127.847 64.9607 128.55 53.6479C128.589 53.0291 129.118 52.5589 129.733 52.5976C130.347 52.6363 130.814 53.1693 130.776 53.7881C129.985 66.511 120.116 73.325 107.393 71.0663Z" fill="#00160A"/>
<path fill-rule="evenodd" clip-rule="evenodd" d="M136.066 83.1814L136.706 84.614L138.166 85.0358C138.245 85.0586 138.29 85.1415 138.268 85.221C138.261 85.2455 138.248 85.2678 138.23 85.2857L137.121 86.3972L137.183 87.9968C137.186 88.0794 137.122 88.149 137.04 88.1522C137.012 88.1533 136.985 88.1466 136.961 88.1327L135.705 87.4129C135.666 87.3904 135.619 87.387 135.577 87.4038L134.234 87.9408C134.158 87.9713 134.072 87.9338 134.041 87.8569C134.031 87.8309 134.028 87.8026 134.033 87.7751L134.316 86.1997L133.371 84.9437C133.322 84.8778 133.335 84.7839 133.4 84.734C133.42 84.7186 133.444 84.7087 133.469 84.7051L134.973 84.4919L135.805 83.163C135.848 83.0931 135.94 83.0722 136.01 83.1162C136.034 83.1319 136.054 83.1546 136.066 83.1814Z" fill="#00160A"/>
<path d="M282.727 47.1756C283.301 47.1344 283.798 47.569 283.839 48.1461C283.88 48.7233 283.449 49.2246 282.875 49.2658C278.769 49.5608 275.544 51.1629 274.111 55.1263C274.025 55.3649 273.954 55.5951 273.896 55.814L273.857 55.9643L273.92 55.8323C275.724 52.1239 279.203 49.5471 283.234 48.8932L283.498 48.8532C284.067 48.7733 284.593 49.173 284.673 49.7461C284.752 50.3192 284.355 50.8486 283.786 50.9286C280.04 51.455 276.837 53.9613 275.439 57.5562L275.348 57.7974C274.684 59.6348 273.09 60.5158 272.064 58.9434C271.438 57.9844 271.479 56.2811 272.156 54.4096C273.872 49.6625 277.809 47.5289 282.727 47.1756Z" fill="white"/>
<path d="M277.987 39.3699C278.561 39.3287 279.058 39.7632 279.099 40.3404C279.14 40.9176 278.709 41.4189 278.135 41.46C271.603 41.9293 265.876 46.2004 263.597 52.505C262.921 54.3739 262.796 55.9717 263.037 56.7809L263.067 56.8712L263.113 56.8044C263.229 56.6269 263.36 56.3721 263.488 56.0416L263.543 55.8953C265.95 49.236 271.787 44.5724 278.632 43.6102C279.202 43.5303 279.727 43.93 279.807 44.5031C279.886 45.0762 279.489 45.6056 278.92 45.6856C272.932 46.5273 267.813 50.5514 265.608 56.3174L265.499 56.612C264.606 59.0815 262.676 60.1483 261.442 58.2574C260.596 56.9616 260.655 54.5155 261.641 51.7883C264.203 44.7 270.644 39.8974 277.987 39.3699Z" fill="white"/>
<path d="M271.6 28.9621C272.173 28.9209 272.671 29.3554 272.712 29.9326C272.753 30.5098 272.321 31.0111 271.748 31.0523C262.432 31.7215 254.262 37.8135 251.012 46.8056C249.905 49.8658 249.813 52.4595 250.417 53.5376L250.472 53.6288C250.562 53.7659 250.532 53.7699 250.555 53.751L250.569 53.7418C250.875 53.5726 251.279 52.9963 251.648 52.0404L251.721 51.8442C255.041 42.66 263.091 36.2283 272.532 34.9013C273.101 34.8213 273.627 35.2211 273.706 35.7942C273.786 36.3673 273.389 36.8967 272.82 36.9767C264.247 38.1816 256.923 43.9598 253.798 52.2331L253.677 52.5609C252.522 55.756 250.206 57.0361 248.733 54.7795C247.635 53.0972 247.715 49.7983 249.056 46.0889C252.59 36.313 261.472 29.6896 271.6 28.9621Z" fill="white"/>
<path d="M260.197 19.1808C260.761 19.0695 261.307 19.4397 261.418 20.0076C261.528 20.5755 261.161 21.126 260.597 21.2372C252.163 22.9003 245.38 29.3865 243.413 37.9659C242.747 40.8695 242.948 43.2304 243.602 44.1312L243.688 44.2441L243.695 44.2598L243.707 44.2503C243.941 44.0377 244.215 43.4947 244.427 42.6528L244.471 42.4678C246.495 33.6441 253.176 26.814 261.71 24.5203C262.265 24.371 262.835 24.7033 262.983 25.2623C263.132 25.8214 262.802 26.3956 262.246 26.5449C254.558 28.6114 248.517 34.7062 246.579 42.6044L246.499 42.9392C245.786 46.0512 243.737 47.5368 242.077 45.5669C240.863 44.126 240.565 41.0688 241.385 37.4945C243.538 28.1024 250.964 21.0013 260.197 19.1808Z" fill="white"/>
<path d="M144.844 148.403L145.445 148.182C151.122 146.131 155.912 145.226 157.129 146.472C158.196 147.566 159.147 149.545 160.049 152.449C160.22 153.002 159.915 153.589 159.366 153.762C158.818 153.934 158.234 153.627 158.063 153.074C157.283 150.563 156.487 148.873 155.735 148.037L155.704 148.005L155.677 148.006C155.535 147.977 155.321 147.962 155.049 147.967C154.449 147.979 153.63 148.085 152.651 148.281C150.637 148.683 148.092 149.43 145.564 150.369C141.338 151.938 137.817 153.783 135.872 155.449C135.158 156.06 133.854 154.357 135.109 153.38C137.366 151.624 140.79 149.908 144.844 148.403Z" fill="white"/>
<path d="M141.987 128.609C141.987 132.104 145.657 135.888 146.438 136.103C146.993 136.256 137.442 142.521 137.442 142.521C133.992 142.978 131.965 140.042 131.965 135.666C131.965 135.088 141.987 128.03 141.987 128.609Z" fill="white"/>
<path fill-rule="evenodd" clip-rule="evenodd" d="M130.725 130.446C131.934 130.209 132.756 129.195 132.56 128.181C132.364 127.166 131.225 126.536 130.016 126.772C128.807 127.009 127.986 128.023 128.182 129.037C128.378 130.052 129.517 130.682 130.725 130.446Z" fill="#FFB61D"/>
<path d="M253.902 13.3706C254.468 13.2713 255.007 13.653 255.106 14.223C255.204 14.7931 254.825 15.3357 254.259 15.435C251.566 15.9073 248.851 17.5484 246.051 20.1587C242.416 23.5483 240.015 28.2319 238.691 34.4765C237.624 39.5077 238.608 45.7943 241.397 51.3208C244.569 57.6084 250.181 59.1623 256.724 60.3657C263.441 61.601 265.297 60.8381 271.644 58.5661L272.228 58.3525C273.096 58.0216 277.152 56.4238 278.127 56.1269C280.179 55.502 281.579 55.5543 282.594 56.6434C282.987 57.0653 282.966 57.7284 282.547 58.1244C282.154 58.4956 281.551 58.5003 281.153 58.1517L281.076 58.0773C280.777 57.756 280.157 57.7188 278.911 58.0786L278.729 58.1327C277.791 58.4182 273.393 60.1564 272.823 60.3657C265.968 62.8853 263.643 63.7683 256.35 62.4271C249.123 61.098 242.991 59.1082 239.541 52.2699C236.543 46.3268 235.486 39.5532 236.655 34.039C238.068 27.3742 240.685 22.3058 244.637 18.6212C247.731 15.7369 250.813 13.9124 253.902 13.3706Z" fill="white"/>
<path d="M302.856 96.7407C296.923 96.4353 292.252 101.048 292.203 107.241C292.162 112.458 295.08 116.755 299.09 117.587C300.711 117.924 303.824 117.519 306.133 116.215C309.639 114.322 312.319 110.43 312.658 107.114C313.208 101.711 308.864 97.05 302.856 96.7407Z" fill="white"/>
<path d="M195.359 95.6496C197.254 99.503 200.196 108.403 198.924 108.361C195.388 108.242 190.659 102.771 187.351 95.3749L187.09 94.78C184.201 88.0646 182.471 83.8457 184.48 83.0375C186.558 82.2016 191.448 87.6966 195.359 95.6496Z" fill="white"/>
<path fill-rule="evenodd" clip-rule="evenodd" d="M184.48 82.9536C186.558 82.1177 191.52 87.3616 195.431 95.3146C197.326 99.168 198.611 102.865 198.947 105.515C198.947 105.515 192.547 91.9389 188.644 86.9662C187.145 85.0561 184.48 82.9536 184.48 82.9536Z" fill="#E7EAEE"/>
<path d="M183.39 117.145C183.543 116.587 184.115 116.259 184.669 116.413C185.224 116.566 185.549 117.143 185.397 117.701C185.201 118.418 182.444 120.301 176.43 124.034L172.634 126.373C165.14 130.966 160.139 133.906 159.514 133.906C155.376 133.906 151.648 129.975 148.926 123.774C146.549 118.359 145.315 111.914 145.872 107.69C146.046 106.372 150.408 102.96 157.144 98.3874L158.108 97.7364C164.067 93.7396 169.16 90.7753 171.003 90.4009C171.566 90.2865 172.115 90.6535 172.229 91.2208C172.3 91.5756 155.875 105.515 154.271 114.767C153.184 121.032 157.291 131.709 159.33 131.806L159.514 131.81C159.348 131.81 159.402 131.771 159.421 131.76L159.609 131.663C159.747 131.59 159.911 131.501 160.1 131.396L160.966 130.909C161.297 130.72 161.666 130.507 162.07 130.272L163.103 129.668C165.074 128.509 167.535 127.033 170.044 125.504L172.431 124.043C175.333 122.258 177.955 120.612 179.926 119.333L180.941 118.669C181.57 118.254 182.101 117.895 182.525 117.597L182.68 117.488C182.914 117.322 183.109 117.179 183.26 117.061C183.26 117.061 183.432 116.993 183.39 117.145Z" fill="white"/>
<path d="M127.016 139.491C126.613 139.078 125.954 139.071 125.544 139.476C124.822 140.189 123.811 140.853 122.045 141.84L120.247 142.845C119.772 143.117 119.383 143.352 119.031 143.582C118.737 143.774 118.474 143.96 118.238 144.144C117.783 144.497 117.699 145.155 118.051 145.613C118.402 146.071 119.056 146.156 119.51 145.802C119.698 145.656 119.915 145.503 120.164 145.34C120.394 145.19 120.646 145.034 120.939 144.862L121.512 144.532L123.338 143.513C125.092 142.522 126.149 141.814 127.001 140.972C127.412 140.567 127.418 139.904 127.016 139.491Z" fill="#00160A"/>
<path fill-rule="evenodd" clip-rule="evenodd" d="M170.747 87.941C171.071 85.488 180.192 80.1856 184.354 79.8431C184.528 79.7331 184.714 79.6378 184.913 79.5579C188.518 78.1076 194.011 84.3202 198.417 93.0617L198.719 93.6685C200.708 97.7128 202.064 101.615 202.434 104.534C202.876 108.022 201.873 110.335 199.243 110.453C199.172 110.728 198.994 110.958 198.758 111.096L198.717 111.117L198.615 111.22C198.512 111.327 198.39 111.459 198.203 111.669L196.91 113.122C196.44 113.643 196.108 113.996 195.657 114.456C195.131 114.994 194.623 115.479 194.125 115.914C192.11 117.677 189.132 118.724 187.576 118.724C186.751 118.724 185.916 118.531 185.08 118.162C184.187 119.1 181.438 120.926 176.43 124.034L172.634 126.373C165.14 130.966 160.139 133.906 159.514 133.906C158.097 133.906 156.728 133.445 155.431 132.589C155.419 132.598 155.407 132.606 155.394 132.614L154.864 132.957C153.021 134.161 150.073 136.162 147.338 138.019L147.337 138.019L147.167 138.135C147.521 140.679 148.326 143.23 149.585 145.791C154.054 144.399 157.594 143.929 158.616 144.976C159.683 146.069 160.634 148.049 161.536 150.952C161.707 151.505 161.401 152.092 160.853 152.265C160.304 152.438 159.721 152.13 159.549 151.578C158.769 149.066 157.974 147.376 157.222 146.541L157.191 146.508L157.164 146.509C157.021 146.48 156.808 146.465 156.536 146.471C155.936 146.482 155.116 146.589 154.137 146.784C152.124 147.186 149.578 147.933 147.051 148.872C141.273 151.018 136.813 153.677 135.897 155.692C135.628 156.282 135.663 157.145 135.983 158.467L136.043 158.705C136.091 158.892 136.141 159.078 136.207 159.313L136.583 160.652L136.599 160.712C136.61 160.753 136.621 160.796 136.634 160.846C136.778 161.406 136.444 161.978 135.888 162.123C135.331 162.269 134.763 161.933 134.619 161.372L134.434 160.695L134.127 159.601C134.091 159.472 134.06 159.352 134.028 159.231C133.541 157.338 133.462 156.012 134.004 154.82C134.923 152.8 137.797 150.707 141.8 148.804L140.929 146.54L140.714 145.967C140.385 145.075 140.001 143.864 139.766 142.981C136.639 144.678 134.461 144.961 132.28 143.765L132.11 143.669C131.679 143.417 131.263 143.128 130.844 142.774L118.647 150.233C118.761 150.479 118.875 150.727 118.991 150.977C119.538 152.158 118.573 152.995 117.093 153.646L116.933 153.714C115.661 154.245 114.512 154.367 113.829 153.611C110.993 150.477 107.99 142.98 109.606 141.265C109.916 140.936 110.735 140.445 112.283 139.628L112.406 139.563C112.438 139.541 112.471 139.521 112.506 139.502L123.906 133.283C123.932 133.268 123.959 133.255 123.986 133.243C123.281 132.071 122.51 130.766 121.656 129.31C121.526 129.098 121.478 128.852 121.511 128.614C121.532 128.463 121.585 128.316 121.671 128.184C121.719 128.112 121.775 128.045 121.84 127.985C124.184 125.747 127.378 123.413 131.384 120.9L131.87 120.597C133.604 119.521 137.121 117.501 140.109 115.785C142.426 114.455 144.425 113.307 145.027 112.923L145.173 112.826C145.39 112.665 145.649 112.603 145.898 112.63C145.7 110.812 145.683 109.123 145.872 107.69C146.046 106.372 150.408 102.96 157.144 98.3874L158.108 97.7364C163.753 93.9498 168.622 91.0899 170.686 90.4813C170.63 89.543 170.648 88.6883 170.747 87.941ZM185.453 96.2354C182.939 90.6138 181.827 85.4621 182.67 82.3427C181.148 82.8295 179.246 83.7045 177.358 84.7951C174.848 86.2448 172.856 87.8652 172.81 88.217C172.325 91.8941 174.187 99.0477 177.281 105.425C180.59 112.247 184.528 116.629 187.576 116.629C187.868 116.629 188.703 116.455 189.54 116.161C190.731 115.742 191.846 115.132 192.76 114.333C193.214 113.935 193.685 113.486 194.176 112.984L194.768 112.369C195.117 111.997 195.477 111.597 196.039 110.963L196.822 110.082L196.856 110.045C192.935 108.602 188.834 103.517 185.767 96.9225L185.453 96.2354ZM170.913 92.6059C168.892 93.35 163.83 96.3757 158.307 100.125L157.422 100.729C154.937 102.437 152.64 104.102 150.906 105.459L150.424 105.839C149.65 106.457 149.024 106.989 148.57 107.416C148.342 107.63 148.162 107.813 148.036 107.959L147.947 108.064C147.928 108.084 147.923 108.076 147.93 108.01L147.935 107.966C147.933 107.983 147.931 107.998 147.93 108.01L147.902 108.235C146.902 117.077 153.252 131.518 159.33 131.806L159.473 131.809C159.485 131.81 159.498 131.81 159.514 131.81L159.473 131.809C159.358 131.803 159.403 131.77 159.421 131.76L159.609 131.663C159.747 131.59 159.911 131.501 160.1 131.396L160.966 130.909C161.297 130.72 161.666 130.507 162.07 130.272L163.103 129.668C165.074 128.509 167.535 127.033 170.044 125.504L172.431 124.043C175.333 122.258 177.955 120.612 179.926 119.333L180.941 118.669C181.57 118.254 182.101 117.895 182.525 117.597L182.68 117.488C182.905 117.328 183.093 117.19 183.242 117.075C180.562 115.095 177.922 111.437 175.579 106.69L175.411 106.345C173.153 101.691 171.52 96.6502 170.913 92.6059ZM146.185 114.661C145.434 115.137 143.219 116.41 140.755 117.827C137.835 119.506 134.564 121.387 132.962 122.381C129.18 124.728 126.13 126.905 123.866 128.954L124.616 130.228C127.898 135.772 129.798 138.689 131.327 140.337C130.819 139.124 130.556 137.585 130.556 135.655C130.556 135.566 130.567 135.48 130.587 135.397C130.486 134.996 130.629 134.555 130.98 134.295L131.689 133.765C132.114 133.441 132.814 132.903 133.609 132.291C135.35 130.952 137.549 129.26 138.333 128.694C140.801 126.914 142.62 125.915 144.276 125.569C145.067 125.403 145.682 125.874 145.86 126.604L145.889 126.737C145.931 126.954 145.939 127.168 145.938 127.634L145.937 127.782C145.928 129.526 146.1 130.532 146.833 131.694C147.335 132.489 148.073 133.215 149.1 133.865C149.207 133.933 149.298 134.017 149.372 134.113C151.029 132.992 152.582 131.95 153.727 131.203C151.922 129.443 150.296 126.897 148.926 123.774C147.649 120.866 146.702 117.66 146.185 114.661ZM200.37 104.799C200.034 102.148 198.749 98.4517 196.854 94.5983C192.943 86.6453 187.763 80.6679 185.685 81.5038C183.677 82.3119 184.201 88.0646 187.09 94.78L187.351 95.3749C190.659 102.771 195.388 108.242 198.924 108.361C200.196 108.403 200.694 107.357 200.37 104.799ZM125.061 135.015C126.866 137.954 128.185 139.895 129.334 141.246L117.772 148.316C116.588 145.702 115.528 143.269 114.5 140.797L124.898 135.125C124.956 135.093 125.011 135.056 125.061 135.015ZM147.589 146.452C146.467 144.115 145.692 141.772 145.266 139.425C143.772 140.437 142.472 141.313 141.636 141.86C141.779 142.583 142.311 144.299 142.77 145.519L143.624 147.732L143.705 147.948C144.544 147.591 145.422 147.243 146.33 146.906L146.931 146.686C147.152 146.606 147.371 146.528 147.589 146.452ZM147.552 135.346C146.486 134.602 145.669 133.756 145.077 132.818C144.118 131.299 143.867 130.002 143.856 128.043L143.855 127.868L143.708 127.923C142.653 128.336 141.394 129.081 139.812 130.206L139.545 130.397C138.792 130.941 136.648 132.59 134.919 133.921L134.918 133.921C133.957 134.66 133.125 135.301 132.73 135.599L132.637 135.668C132.639 139.154 133.503 140.753 135.11 141.529L135.239 141.589C135.622 141.759 135.895 141.845 136.676 142.061C136.692 142.065 136.707 142.069 136.722 142.074C137.533 141.8 138.462 141.342 139.571 140.687L139.984 140.437C140.901 139.862 143.36 138.192 146.065 136.355C146.555 136.023 147.053 135.684 147.552 135.346ZM112.661 141.799L112.821 142.181C113.926 144.82 115.074 147.433 116.378 150.283L116.885 151.388C116.718 151.501 116.5 151.62 116.26 151.726C115.915 151.877 115.564 151.984 115.301 152.02L115.217 152.028L115.091 151.875C114.105 150.654 112.962 148.579 112.136 146.516C111.696 145.417 111.383 144.409 111.241 143.635C111.184 143.319 111.157 143.054 111.159 142.853L111.165 142.721C111.167 142.689 111.168 142.672 111.16 142.669L111.191 142.648C111.367 142.526 111.816 142.261 112.484 141.896L112.661 141.799Z" fill="#00160A"/>
<path d="M103.739 245.891C108.943 275.104 128.446 297.064 153.334 302.242C157.903 303.192 165.813 303.318 174.005 302.25C184.559 300.875 194.83 297.72 203.864 292.607C228.679 279.178 247.509 251.772 249.949 227.78C252.093 206.707 244.097 187.238 229.622 173.35C229.622 173.35 184.151 195.837 161.829 208.619C142.406 219.741 103.739 245.891 103.739 245.891Z" fill="white"/>
<path d="M209.636 158.778C200.309 154.145 188.623 150.485 177.164 149.895C135.138 147.731 102.085 181.535 101.741 225.136C101.741 225.136 148.646 195.054 173.015 180.54C185.138 173.319 209.636 158.778 209.636 158.778Z" fill="white"/>
<path fill-rule="evenodd" clip-rule="evenodd" d="M296.078 136.557C295.936 143.842 288.28 155.967 275.974 169.687C267.059 179.626 256.685 189.233 247.987 195.707L247.446 196.106L247.805 197.715C249.92 207.049 252.682 217.196 251.638 227.428C249.106 252.263 229.813 280.283 204.318 294.049C195.019 299.301 184.449 302.541 173.607 303.951L172.574 304.079C164.49 305.038 156.754 304.879 152.026 303.897C133.676 300.088 118.141 287.173 108.748 268.481C108.717 268.418 108.692 268.354 108.674 268.288C107.437 268.998 105.774 269.792 105.014 270.052L102.932 270.76C80.4992 278.357 58.2594 284.713 49.1741 280.746C45.7155 279.236 44.5333 276.332 45.9797 272.43C47.3854 268.638 51.283 263.751 57.8221 257.67L58.1814 257.338C64.3778 251.618 78.138 241.168 99.4623 225.986L99.4678 225.707C100.508 180.721 135.213 146.426 178.837 149.226C192.18 150.082 202.806 154.856 208.113 157.788L210.447 156.527C232.338 144.742 249.902 136.457 263.304 131.499C285.343 123.344 296.242 127.157 296.078 136.557ZM264.022 136.331C239.378 145.449 200.431 165.956 146.205 198.944L144.557 199.947C102.332 225.684 74.3722 245.236 59.5878 258.882L58.8591 259.56L58.1682 260.212C47.0699 270.77 45.1027 276.685 50.0022 278.824C58.3892 282.486 80.9123 276.312 102.969 269.028L105.014 268.349C106.981 267.693 108.285 267.316 109.093 267.142C109.128 267.116 109.167 267.094 109.207 267.073C109.483 266.932 109.792 266.927 110.058 267.033C110.116 267.044 110.154 267.062 110.174 267.087C110.353 267.185 110.506 267.337 110.605 267.535C119.723 285.681 134.748 296.739 152.446 300.412C157.041 301.366 164.791 301.506 172.857 300.501L173.341 300.44C183.933 299.062 194.25 297.333 203.317 292.212C228.231 278.759 247.108 251.345 249.568 227.214C250.619 216.901 249.278 206.778 245.71 197.356C245.416 197.564 245.124 197.767 244.834 197.966C244.287 198.342 244.491 197.733 245.447 196.139C245.498 195.931 245.612 195.741 245.776 195.599L246.07 195.129C246.174 194.966 246.282 194.795 246.396 194.618L247.629 193.571C259.254 183.671 268.187 175.242 274.429 168.283L275.142 167.484C286.691 154.47 293.871 142.975 293.989 136.518C294.119 129.435 284.838 128.629 264.022 136.331ZM159.528 268.836C162.32 277.428 158.096 282.954 150.661 283.24C143.79 283.504 137.534 279.145 137.853 272.951C138.129 267.598 141.769 261.875 146.251 259.773C151.671 257.232 156.759 260.315 159.528 268.836ZM147.349 262.148C143.763 263.83 140.678 268.679 140.451 273.087C140.225 277.477 145.045 280.835 150.561 280.623C156.329 280.401 159.29 276.527 157.055 269.651C154.728 262.491 151.191 260.347 147.349 262.148ZM216.295 251.327C219.858 258.106 218.925 264.764 213.447 267.749L213.294 267.83L213.214 267.91C205.868 275.234 196.691 276.123 190.707 270.814L190.502 270.629C183.608 264.27 185.25 253.347 196.22 244.783C203.279 239.273 211.902 242.968 216.295 251.327ZM197.586 246.558C187.628 254.332 186.228 263.642 192.008 268.973C196.153 272.797 202.278 273.008 207.999 269.297L208.111 269.222L208.069 269.214C207.673 269.108 207.355 268.786 207.265 268.367L207.247 268.26C207.175 267.645 207.612 267.086 208.223 267.013C209.622 266.846 210.836 266.506 211.865 266.02L212.006 265.951L212.176 265.773C212.847 265.062 213.503 264.288 214.138 263.451L214.349 263.169C214.587 262.848 214.964 262.691 215.334 262.722L215.362 262.725L215.377 262.697C216.713 260.038 216.397 256.437 214.441 252.603L214.324 252.378C210.504 245.108 203.363 242.048 197.586 246.558ZM263.898 165.989C263.325 168.039 261.581 170.852 258.908 174.183C254.247 179.991 247.246 186.75 241.126 191.372L242.484 189.869C242.47 189.857 242.459 189.841 242.449 189.823L241.981 188.956C238.918 183.328 235.506 177.776 229.993 173.251C215.721 179.176 199.356 187.275 184.447 195.743L179.56 198.524C143.572 219.05 124.638 231.339 104.391 246.446C105.155 249.911 106.118 253.293 107.271 256.569C107.452 257.083 105.088 259.007 104.655 258.77C100.616 261.495 94.2909 263.474 90.69 263.577C87.1807 263.677 85.1532 262.247 86.1977 259.395C87.0714 257.009 90.3628 253.606 96.2861 249.046L96.9614 248.529L98.3267 247.496C120.619 230.692 142.689 217.055 183.424 193.918L185.129 192.954C213.068 177.252 245.422 163.105 260.242 161.799C263.288 161.531 264.669 163.228 263.898 165.989ZM101.68 248.479L97.0092 252.027C92.8426 255.208 89.8386 257.561 88.216 259.07L88.0969 259.182C86.1163 261.053 88.3581 261.547 90.631 261.482C94.0739 261.384 99.3482 258.755 103.813 256.362C102.987 253.789 102.276 251.158 101.68 248.479ZM174.739 237.102C175.296 237.244 175.633 237.814 175.492 238.375C175.35 238.936 174.784 239.275 174.227 239.133C171.429 238.418 169.776 238.692 169.24 239.451C168.884 239.954 169.081 240.813 169.746 241.361C170.266 241.789 170.958 241.993 171.435 241.889C171.849 241.798 172.081 241.477 172.081 240.672C172.081 240.094 172.547 239.624 173.121 239.624C173.696 239.624 174.162 240.094 174.162 240.672C174.162 242.422 173.293 243.626 171.877 243.937C170.739 244.186 169.414 243.794 168.428 242.983C166.974 241.784 166.499 239.715 167.544 238.236C168.69 236.615 171.201 236.197 174.739 237.102ZM129.029 233.255C130.634 233.74 131.325 234.98 131.543 236.842L131.564 237.044L131.591 237.35C131.594 237.401 131.598 237.453 131.602 237.509L131.656 238.573L131.673 238.812C131.681 238.918 131.69 239.004 131.701 239.08L131.729 239.241L131.746 239.311L131.775 239.337C132.096 239.654 132.181 240.15 131.973 240.56L131.92 240.653C131.609 241.139 130.965 241.279 130.482 240.966C129.817 240.534 129.666 240.09 129.586 238.815L129.52 237.568C129.512 237.455 129.504 237.358 129.493 237.247C129.375 236.027 129.079 235.458 128.431 235.263C126.614 234.715 125.571 235.274 125.24 236.498C124.946 237.588 125.372 238.733 126.118 239.052L126.306 239.122C126.794 239.332 127.052 239.885 126.888 240.403C126.713 240.955 126.128 241.259 125.58 241.083C123.599 240.447 122.657 238.077 123.232 235.948C123.874 233.571 126.105 232.374 129.029 233.255ZM204.105 217.212C206.986 221.291 206.451 226.481 201.827 228.83C201.314 229.09 200.688 228.883 200.43 228.366C200.171 227.85 200.377 227.219 200.89 226.959C204.237 225.258 204.619 221.556 202.409 218.426C200.261 215.386 197.272 215.052 195.218 218.337C193.04 221.819 193.198 223.864 194.766 224.784C196.011 225.515 198.015 225.361 198.566 224.764L198.62 224.698C198.953 224.227 199.603 224.117 200.071 224.452C200.539 224.788 200.649 225.442 200.315 225.913C199.158 227.55 195.857 227.85 193.718 226.594C190.979 224.986 190.717 221.601 193.457 217.22C196.39 212.53 201.175 213.065 204.105 217.212ZM160.961 211.204C161.502 211.204 161.946 211.62 161.997 212.151L162.002 212.252C162.002 212.436 162.172 212.642 162.783 213.093L163.36 213.511C163.99 213.973 164.294 214.26 164.581 214.717C165.237 215.762 165.609 216.825 165.609 218.076C165.609 221.278 160.831 225.633 155.616 227.571C149.365 229.894 144.243 228.172 142.849 221.713C142.727 221.147 143.083 220.589 143.645 220.466C144.207 220.343 144.761 220.702 144.883 221.268C145.965 226.28 149.699 227.537 154.896 225.605C159.383 223.938 163.528 220.16 163.528 218.076C163.528 217.27 163.284 216.573 162.822 215.837L162.759 215.749C162.653 215.614 162.488 215.468 162.189 215.245L161.503 214.747C160.362 213.9 159.92 213.329 159.92 212.252C159.92 211.673 160.386 211.204 160.961 211.204ZM165.846 153.13L165.188 153.205C129.679 157.504 103.041 186.101 101.588 224.475L105.398 221.776C116.334 214.046 129.027 205.218 143.479 195.289L146.295 193.576C154.702 188.469 162.74 183.663 170.413 179.155C170.273 178.907 170.234 178.604 170.329 178.312C170.865 176.663 171.361 175.555 172.269 174.446C175.113 170.973 179.008 169.276 181.768 171.457C182.039 171.672 182.176 171.995 182.165 172.318L184.617 170.91C192.336 166.485 199.641 162.399 206.535 158.645L203.842 157.873C199.849 156.742 194.881 155.4 189.932 154.366C189.978 157.682 187.513 160.329 183.417 162.151C179.936 163.699 175.4 164.532 172.174 164.338C166.14 163.976 162.743 158.647 165.846 153.13ZM228.135 198.632C230.682 205.637 228.581 212.007 222.222 211.966C213.163 211.906 204.316 203.942 205.746 196.807C206.384 193.623 208.761 190.808 212.893 189.403C219.493 187.158 225.543 191.501 228.135 198.632ZM213.559 191.388C210.144 192.549 208.28 194.758 207.786 197.221C206.651 202.884 214.354 209.819 222.236 209.87C226.751 209.9 228.304 205.192 226.181 199.353C223.934 193.173 218.913 189.568 213.559 191.388ZM137.042 166.584L137.116 166.692L137.616 167.494C137.862 167.901 138.082 168.301 138.291 168.731C140.595 173.476 140.536 179.696 136.636 188.329C134.869 192.241 130.368 197.497 126.437 200.634C121.418 204.639 117.67 205.549 113.197 205.054L111.87 204.897L111.708 204.882C111.62 204.876 111.563 204.875 111.501 204.877L111.41 204.881C111.34 204.885 111.316 204.881 111.312 204.872L111.312 204.865L111.279 204.919C110.977 205.355 110.391 205.498 109.92 205.235C109.418 204.953 109.237 204.315 109.516 203.81C109.89 203.132 110.515 202.826 111.311 202.788C111.522 202.778 111.745 202.785 112.01 202.807L112.32 202.838L113.179 202.943C117.253 203.44 120.494 202.702 125.144 198.992C128.836 196.045 133.127 191.034 134.741 187.462C138.391 179.382 138.444 173.817 136.421 169.652C136.286 169.375 136.146 169.111 135.994 168.846L135.776 168.48L135.339 167.785C135.034 167.295 135.181 166.648 135.668 166.341C136.125 166.053 136.718 166.165 137.042 166.584ZM260.423 163.887C253.771 164.473 243.342 167.782 231.32 172.703L231.671 173.016C235.017 176.039 241.768 183.206 243.881 188.318L245.985 185.969C251.178 180.152 254.946 175.785 257.289 172.866L257.763 172.268C260.002 169.407 261.449 167.016 261.895 165.422L261.958 165.179C262.236 164.028 261.914 163.756 260.423 163.887ZM160.783 167.291C163.373 168.551 164.424 171.358 162.72 173.903C162.399 174.383 161.752 174.509 161.275 174.186C160.799 173.862 160.673 173.211 160.994 172.731C161.931 171.332 161.403 169.92 159.877 169.177C158.27 168.395 156.509 168.845 155.601 170.552C154.763 172.126 154.706 174.256 155.374 175.651C155.961 176.876 156.815 177.111 158.119 176.123C158.578 175.775 159.23 175.868 159.576 176.33C159.922 176.792 159.83 177.449 159.37 177.797C156.996 179.597 154.645 178.951 153.5 176.562C152.54 174.559 152.617 171.723 153.766 169.563C155.232 166.807 158.221 166.044 160.783 167.291ZM173.875 175.778C173.39 176.371 173.043 176.996 172.722 177.799C175.404 176.231 178.04 174.698 180.63 173.202L180.555 173.158L180.483 173.106C178.894 171.85 176.093 173.07 173.875 175.778ZM169.438 152.81L168.527 152.874L168.467 152.952C164.869 157.529 166.255 161.244 171.167 161.772C174.696 162.151 184.062 159.515 185.16 158.59C186.23 157.689 187.584 155.617 187.792 153.938C184.614 153.337 181.504 152.894 178.73 152.751C175.896 152.605 173.101 152.609 170.352 152.756L169.438 152.81Z" fill="#00160A"/>
<path d="M263.39 136.59C285.43 128.436 284.925 130.855 264.108 138.557C239.464 147.676 146.44 204.81 146.44 204.81C104.215 230.546 101.056 226.574 141.983 201.53L144.506 199.989C144.981 199.699 191.577 170.089 224.873 154.247C228.619 152.465 260.881 137.519 263.39 136.59Z" fill="white"/>
<path fill-rule="evenodd" clip-rule="evenodd" d="M301.445 95.9942C294.616 95.6427 289.285 100.986 289.23 107.977C289.184 113.835 292.521 118.809 297.303 119.802C298.563 120.063 302.197 120.063 305.349 118.283L305.61 118.138C309.585 115.872 312.288 111.561 312.65 108.015C313.291 101.728 308.274 96.3458 301.445 95.9942ZM290.716 107.989C290.717 107.944 290.717 107.899 290.718 107.854C290.761 107.84 290.802 107.823 290.843 107.801C296.197 104.896 299.503 102.683 300.822 101.085C301.694 100.03 302.119 98.8402 302.084 97.5471C302.984 97.6471 303.841 97.8458 304.644 98.1303C304.639 98.169 304.637 98.2087 304.639 98.2489C304.704 100.11 304.211 101.597 303.164 102.756C301.96 104.087 300.502 105.353 298.844 106.548C297.072 107.825 295.168 108.953 293.265 109.918C292.821 110.143 292.398 110.349 292.002 110.534L291.427 110.796C291.345 110.833 291.269 110.867 291.198 110.897L291.027 110.97C290.817 110.026 290.708 109.026 290.716 107.989ZM291.445 112.417C291.916 113.731 292.598 114.896 293.442 115.844L293.886 115.587C300.873 111.514 305.211 108.314 306.853 106.057C308.513 103.775 309.104 102.022 308.733 100.831C308.724 100.803 308.717 100.775 308.712 100.746C307.981 99.9735 307.11 99.3089 306.129 98.7845C306.087 100.763 305.466 102.433 304.263 103.763C302.983 105.179 301.447 106.513 299.709 107.765C297.869 109.091 295.901 110.257 293.934 111.255C293.36 111.546 292.82 111.805 292.323 112.032L291.743 112.291L291.445 112.417ZM297.01 118.185C296.132 117.921 295.314 117.487 294.578 116.913C301.771 112.724 306.247 109.423 308.052 106.941C309.172 105.402 309.888 104.017 310.179 102.781C310.54 103.462 310.815 104.187 310.99 104.945C310.953 105.022 310.928 105.107 310.918 105.198C310.737 106.947 309.841 108.684 308.204 110.413C306.632 112.073 303.24 114.468 298.057 117.565L297.01 118.185ZM299.523 118.427C301.118 118.325 303.07 117.854 304.647 116.964C307.579 115.38 309.934 112.398 310.824 109.524C310.394 110.173 309.879 110.814 309.28 111.446C307.666 113.151 304.422 115.468 299.523 118.427ZM291.149 105.929L290.884 106.074C291.728 101.128 295.652 97.5797 300.594 97.477C300.646 98.4487 300.346 99.3206 299.679 100.128C298.601 101.434 295.741 103.388 291.149 105.929Z" fill="#00160A"/>
<path fill-rule="evenodd" clip-rule="evenodd" d="M355.106 81.6531C355.244 81.6691 355.341 81.7954 355.325 81.9341C355.325 82.1383 355.194 82.2487 355.019 82.3205C354.86 82.3844 354.608 82.3599 354.461 82.38C352.851 82.5051 351.586 81.3124 351.029 79.7753C350.494 78.2987 350.637 76.5331 351.607 75.4441C351.719 75.3158 351.913 75.3029 352.04 75.4154C352.168 75.5279 352.892 75.7234 352.78 75.8517C351.98 76.7924 351.438 77.3631 352.193 79.5959C352.948 81.8287 355.002 81.6411 355.106 81.6531Z" fill="#E7EAEE"/>
<path d="M98.8087 97.639C98.3857 97.3465 97.8073 97.4548 97.5168 97.8807C97.2264 98.3066 97.3339 98.889 97.7569 99.1814C98.2216 99.5027 98.6323 99.7993 98.9947 100.075C98.6043 100.388 98.2144 100.746 97.8092 101.154L96.9876 101.994C96.6263 102.361 96.6289 102.953 96.9933 103.317C97.3578 103.681 97.9461 103.678 98.3073 103.311L99.2931 102.308C99.6944 101.915 100.07 101.585 100.449 101.312C101.289 102.15 101.544 102.765 101.558 103.377L101.558 103.533L101.563 103.629C101.611 104.101 102.006 104.469 102.487 104.469C103 104.469 103.416 104.05 103.416 103.533L103.416 103.35C103.399 102.397 103.065 101.49 102.166 100.454C102.76 100.276 103.429 100.176 104.241 100.134C104.753 100.107 105.147 99.6666 105.12 99.1507C105.093 98.6347 104.656 98.2383 104.144 98.2653C102.735 98.3394 101.64 98.5759 100.664 99.0252C100.257 98.69 99.7952 98.3381 99.2738 97.9657L98.8087 97.639Z" fill="#00160A"/>
<path d="M238.027 302.628L238.671 302.631C242.274 302.664 245.088 302.991 250.39 303.848C250.998 303.947 251.412 304.522 251.314 305.135C251.216 305.747 250.644 306.163 250.036 306.065L248.299 305.79C243.912 305.112 241.384 304.873 238.027 304.873C226.375 304.873 218.936 312.217 220.195 323.481C220.264 324.097 219.824 324.652 219.212 324.722C218.6 324.791 218.048 324.348 217.979 323.732C216.564 311.064 225.108 302.628 238.027 302.628Z" fill="#00160A"/>
<path d="M247.051 307.161L246.942 307.064C246.837 306.974 246.675 306.986 246.587 307.093C246.495 307.199 246.509 307.359 246.614 307.45L246.726 307.546C246.831 307.637 246.989 307.624 247.081 307.518C247.169 307.412 247.159 307.251 247.051 307.161Z" fill="#00160A"/>
<path d="M226.847 309.508C226.447 309.185 225.862 309.249 225.54 309.652C224.243 311.278 223.297 312.862 222.706 314.409C222.132 315.913 221.937 318.441 222.086 322.055L222.122 322.818C222.149 323.334 222.586 323.731 223.098 323.703C223.611 323.676 224.004 323.236 223.977 322.72C223.78 318.944 223.948 316.372 224.441 315.08C224.957 313.727 225.805 312.307 226.989 310.824C227.31 310.421 227.247 309.832 226.847 309.508Z" fill="#00160A"/>
<path d="M236.987 306.413C237.442 306.176 238.003 306.355 238.239 306.814C238.475 307.272 238.297 307.837 237.841 308.075C235.954 309.059 234.513 310.709 233.508 313.062C232.43 315.586 231.548 317.839 230.862 319.819C230.693 320.307 230.163 320.564 229.679 320.394C229.194 320.224 228.939 319.691 229.108 319.203C229.809 317.178 230.707 314.885 231.801 312.323C232.969 309.588 234.7 307.606 236.987 306.413Z" fill="#00160A"/>
<path d="M242.388 306.364C242.05 305.976 241.463 305.936 241.077 306.277C239.526 307.645 238.335 308.889 237.501 310.018C236.673 311.138 235.703 312.814 234.581 315.055C234.35 315.517 234.534 316.079 234.992 316.312C235.451 316.544 236.009 316.359 236.24 315.898C237.318 313.744 238.239 312.153 238.991 311.135C239.738 310.125 240.842 308.972 242.301 307.684C242.687 307.344 242.726 306.753 242.388 306.364Z" fill="#00160A"/>
<path d="M238.996 316.929C238.61 317.269 238.023 317.23 237.685 316.842C237.347 316.453 237.385 315.862 237.771 315.521C239.231 314.234 240.335 313.081 241.081 312.071C241.834 311.053 242.754 309.462 243.833 307.308C244.063 306.847 244.622 306.661 245.08 306.894C245.539 307.126 245.723 307.689 245.492 308.15C244.37 310.392 243.4 312.067 242.572 313.188C241.738 314.316 240.547 315.561 238.996 316.929Z" fill="#00160A"/>
<path d="M231.961 307.176C231.539 306.883 230.96 306.989 230.669 307.414C228.592 310.443 227.265 312.706 226.679 314.243C226.09 315.786 225.684 317.866 225.448 320.494C225.401 321.008 225.778 321.463 226.289 321.51C226.8 321.556 227.252 321.177 227.298 320.662C227.52 318.192 227.896 316.272 228.413 314.914C228.896 313.649 230.022 311.697 231.781 309.091L232.198 308.477C232.489 308.052 232.384 307.47 231.961 307.176Z" fill="#00160A"/>
<path fill-rule="evenodd" clip-rule="evenodd" d="M214.323 301.659L214.964 303.092L216.423 303.514C216.502 303.536 216.548 303.619 216.525 303.699C216.518 303.723 216.505 303.746 216.487 303.763L215.378 304.875L215.44 306.475C215.443 306.557 215.38 306.627 215.297 306.63C215.27 306.631 215.242 306.624 215.218 306.611L213.963 305.891C213.924 305.868 213.876 305.865 213.834 305.882L212.492 306.419C212.415 306.449 212.329 306.411 212.299 306.335C212.288 306.309 212.286 306.28 212.29 306.253L212.573 304.677L211.629 303.421C211.579 303.355 211.592 303.262 211.657 303.212C211.678 303.196 211.701 303.186 211.726 303.183L213.23 302.97L214.062 301.641C214.106 301.571 214.198 301.55 214.267 301.594C214.292 301.61 214.311 301.632 214.323 301.659Z" fill="#00160A"/>
<path fill-rule="evenodd" clip-rule="evenodd" d="M266.023 101.1C266.365 101.405 266.792 101.955 267.169 102.551L267.654 102.335L268.227 102.087C268.342 102.034 268.417 101.993 268.44 101.959C268.506 101.835 268.658 101.788 268.783 101.854C268.903 101.919 268.952 102.073 268.886 102.196C268.841 102.314 268.519 102.683 267.921 103.043C267.813 103.109 267.693 103.169 267.564 103.229C267.785 103.644 267.958 104.045 268.039 104.367C268.162 104.842 268.064 105.178 267.902 105.296C267.744 105.413 267.346 105.435 266.741 104.929C266.629 104.843 266.612 104.684 266.696 104.573C266.781 104.462 266.938 104.442 267.05 104.527C267.165 104.613 267.281 104.661 267.375 104.696L267.33 104.514C267.312 104.45 267.29 104.382 267.259 104.316C267.15 104.077 267.012 103.804 266.857 103.524C266.384 103.704 265.845 103.867 265.263 103.946C264.979 103.984 264.69 103.992 264.39 103.989C264.217 104.001 264.067 103.869 264.056 103.694C264.045 103.52 264.176 103.37 264.348 103.358C265.049 103.29 265.696 103.112 266.267 102.912L266.455 102.844C266.146 102.358 265.814 101.916 265.531 101.666C265.377 101.529 265.361 101.291 265.496 101.135C265.634 100.978 265.87 100.962 266.023 101.1Z" fill="#00160A"/>
<path fill-rule="evenodd" clip-rule="evenodd" d="M61.4476 227.748C60.4758 227.812 58.9348 228.062 57.6752 228.565C56.5977 228.995 56.5977 240.708 60.2815 241.641C63.944 242.871 67.9488 241.243 67.4706 234.975C67.462 234.844 67.3566 234.488 67.2358 234.079C67.0588 233.481 66.8488 232.771 66.8615 232.493C66.9112 231.509 66.6544 230.679 65.9765 230.158C65.2462 228.599 63.8151 227.595 61.4476 227.748ZM60.9202 238.79C59.1173 237.434 59.1807 231.104 61.2382 230.681C62.5187 231.672 63.6876 233.103 64.0819 235.86C63.6407 237.379 62.7092 238.257 61.8948 239.025C61.8077 239.108 61.7219 239.188 61.6382 239.269C61.4057 239.136 61.1662 238.973 60.9202 238.79Z" fill="white"/>
<path fill-rule="evenodd" clip-rule="evenodd" d="M58.7309 235.1C58.5675 234.115 58.679 233.013 59.1707 231.836C59.3937 231.304 59.9799 230.869 60.7133 230.578C61.5707 230.237 62.6195 230.068 63.2808 230.024C64.892 229.92 65.8657 230.599 66.3622 231.653C66.8234 232.005 66.9979 232.566 66.9638 233.232C66.9492 233.548 67.3633 234.692 67.3777 234.911C67.7013 239.15 64.9755 240.252 62.4834 239.421C61.5365 239.906 60.6232 239.986 59.9359 239.472C59.3194 239.012 58.8461 238.044 58.7377 236.335C58.7088 235.894 58.7066 235.483 58.7309 235.1ZM63.1514 232.309C61.7214 232.591 61.6617 236.747 62.9103 237.633C63.0807 237.753 63.2466 237.859 63.4077 237.946C64.0113 237.398 64.4614 236.955 64.7167 236.049C64.9721 235.142 64.0382 232.956 63.1514 232.309Z" fill="#FFB61D"/>
<path d="M156.312 338.902C155.889 338.609 155.311 338.717 155.02 339.143C154.73 339.569 154.837 340.152 155.26 340.444C155.725 340.765 156.136 341.062 156.498 341.338C156.108 341.65 155.718 342.009 155.313 342.417L154.491 343.257C154.13 343.624 154.132 344.216 154.497 344.58C154.861 344.944 155.449 344.941 155.811 344.574L156.796 343.571C157.198 343.177 157.574 342.848 157.952 342.575C158.792 343.413 159.048 344.028 159.062 344.639L159.062 344.796L159.066 344.892C159.114 345.364 159.51 345.732 159.991 345.732C160.504 345.732 160.92 345.313 160.92 344.796L160.92 344.612C160.902 343.659 160.568 342.753 159.669 341.717C160.263 341.539 160.932 341.439 161.744 341.396C162.256 341.369 162.65 340.929 162.623 340.413C162.597 339.897 162.16 339.501 161.647 339.528C160.238 339.602 159.143 339.839 158.167 340.288C157.76 339.953 157.298 339.601 156.777 339.228L156.312 338.902Z" fill="#00160A"/>
<path d="M156.312 338.902C155.889 338.609 155.311 338.717 155.02 339.143C154.73 339.569 154.837 340.152 155.26 340.444C155.725 340.765 156.136 341.062 156.498 341.338C156.108 341.65 155.718 342.009 155.313 342.417L154.491 343.257C154.13 343.624 154.132 344.216 154.497 344.58C154.861 344.944 155.449 344.941 155.811 344.574L156.796 343.571C157.198 343.177 157.574 342.848 157.952 342.575C158.792 343.413 159.048 344.028 159.062 344.639L159.062 344.796L159.066 344.892C159.114 345.364 159.51 345.732 159.991 345.732C160.504 345.732 160.92 345.313 160.92 344.796L160.92 344.612C160.902 343.659 160.568 342.753 159.669 341.717C160.263 341.539 160.932 341.439 161.744 341.396C162.256 341.369 162.65 340.929 162.623 340.413C162.597 339.897 162.16 339.501 161.647 339.528C160.238 339.602 159.143 339.839 158.167 340.288C157.76 339.953 157.298 339.601 156.777 339.228L156.312 338.902Z" fill="#00160A"/>
<path fill-rule="evenodd" clip-rule="evenodd" d="M188.066 313.273L188.706 314.705L190.166 315.127C190.245 315.15 190.29 315.233 190.268 315.312C190.261 315.337 190.248 315.359 190.23 315.377L189.121 316.489L189.183 318.088C189.186 318.171 189.122 318.24 189.04 318.244C189.012 318.245 188.985 318.238 188.961 318.224L187.705 317.504C187.666 317.482 187.619 317.478 187.577 317.495L186.234 318.032C186.158 318.063 186.071 318.025 186.041 317.948C186.031 317.922 186.028 317.894 186.033 317.867L186.316 316.291L185.371 315.035C185.322 314.969 185.335 314.875 185.4 314.825C185.42 314.81 185.444 314.8 185.469 314.797L186.973 314.583L187.805 313.254C187.848 313.185 187.94 313.164 188.01 313.208C188.034 313.223 188.054 313.246 188.066 313.273Z" fill="#00160A"/>
<path fill-rule="evenodd" clip-rule="evenodd" d="M107.518 303.43L108.606 304.555L110.121 304.449C110.203 304.443 110.274 304.505 110.279 304.588C110.281 304.613 110.276 304.639 110.266 304.662L109.601 306.088L110.203 307.57C110.234 307.646 110.198 307.734 110.122 307.765C110.096 307.776 110.068 307.779 110.04 307.774L108.616 307.53C108.572 307.522 108.526 307.535 108.492 307.566L107.413 308.533C107.352 308.588 107.258 308.582 107.203 308.52C107.185 308.499 107.173 308.474 107.168 308.446L106.898 306.869L105.584 306.013C105.515 305.969 105.495 305.876 105.54 305.807C105.554 305.785 105.573 305.768 105.595 305.756L106.936 305.038L107.266 303.502C107.283 303.421 107.362 303.37 107.443 303.388C107.471 303.394 107.497 303.408 107.518 303.43Z" fill="#00160A"/>
<path fill-rule="evenodd" clip-rule="evenodd" d="M90.5238 200.841L91.164 202.274L92.6236 202.696C92.7025 202.718 92.7481 202.801 92.7254 202.881C92.7185 202.905 92.7054 202.928 92.6874 202.946L91.5785 204.057L91.6407 205.657C91.6439 205.739 91.58 205.809 91.4979 205.812C91.4702 205.813 91.4427 205.806 91.4185 205.793L90.1632 205.073C90.1239 205.05 90.0767 205.047 90.0347 205.064L88.6921 205.601C88.6157 205.631 88.5293 205.594 88.499 205.517C88.4888 205.491 88.486 205.462 88.4909 205.435L88.7735 203.86L87.829 202.604C87.7795 202.538 87.7924 202.444 87.8578 202.394C87.878 202.378 87.9018 202.369 87.9268 202.365L89.4304 202.152L90.2625 200.823C90.3063 200.753 90.3981 200.732 90.4675 200.776C90.4922 200.792 90.5118 200.814 90.5238 200.841Z" fill="#00160A"/>
<path fill-rule="evenodd" clip-rule="evenodd" d="M90.375 202.268L90.6469 202.877L91.2669 203.056C91.3004 203.065 91.3198 203.101 91.3101 203.134C91.3072 203.145 91.3016 203.154 91.294 203.162L90.823 203.634L90.8494 204.314C90.8507 204.349 90.8236 204.378 90.7887 204.38C90.777 204.38 90.7653 204.377 90.755 204.371L90.2218 204.065C90.2051 204.056 90.1851 204.055 90.1672 204.062L89.5969 204.29C89.5645 204.303 89.5278 204.287 89.5149 204.254C89.5106 204.243 89.5094 204.231 89.5115 204.219L89.6315 203.55L89.2303 203.017C89.2093 202.989 89.2148 202.949 89.2426 202.928C89.2511 202.921 89.2612 202.917 89.2719 202.915L89.9106 202.825L90.264 202.26C90.2826 202.231 90.3216 202.222 90.3511 202.24C90.3616 202.247 90.3699 202.257 90.375 202.268Z" fill="#E7EAEE"/>
<path fill-rule="evenodd" clip-rule="evenodd" d="M14.4113 263.694L15.0516 265.127L16.5111 265.549C16.59 265.571 16.6356 265.654 16.613 265.734C16.606 265.758 16.5929 265.781 16.575 265.798L15.4661 266.91L15.5282 268.51C15.5314 268.592 15.4675 268.662 15.3855 268.665C15.3577 268.666 15.3302 268.659 15.3061 268.646L14.0507 267.926C14.0115 267.903 13.9642 267.9 13.9223 267.917L12.5796 268.454C12.5033 268.484 12.4169 268.447 12.3866 268.37C12.3763 268.344 12.3735 268.315 12.3784 268.288L12.661 266.712L11.7166 265.456C11.667 265.391 11.6799 265.297 11.7454 265.247C11.7656 265.231 11.7893 265.221 11.8144 265.218L13.318 265.005L14.15 263.676C14.1938 263.606 14.2856 263.585 14.355 263.629C14.3798 263.645 14.3993 263.667 14.4113 263.694Z" fill="#00160A"/>
<path fill-rule="evenodd" clip-rule="evenodd" d="M78.74 135.059L79.2051 135.385C79.727 135.758 81.6754 137.607 82.0829 137.943C83.0571 137.492 84.1523 137.256 85.5616 137.182C86.074 137.155 86.5111 137.551 86.5379 138.067C86.5647 138.583 86.171 139.023 85.6585 139.05C84.8466 139.093 84.1771 139.193 83.5829 139.371C84.483 140.407 84.8169 141.313 84.8342 142.266L84.8343 142.45C84.8343 142.967 84.4183 143.385 83.9052 143.385C83.4241 143.385 83.0285 143.017 82.9809 142.546L82.9761 142.45L82.9761 142.293C82.9623 141.682 82.7066 141.067 81.8666 140.229C81.4882 140.502 81.1122 140.831 80.711 141.224L79.7252 142.228C79.3639 142.595 78.7757 142.597 78.4112 142.234C78.0468 141.87 78.0442 141.278 78.4054 140.911L79.2271 140.07C79.6322 139.662 80.0221 139.304 80.4125 138.991C79.727 137.416 77.1577 135.726 77.4481 135.3C77.7386 134.874 78.317 134.766 78.74 135.059Z" fill="#00160A"/>
<path fill-rule="evenodd" clip-rule="evenodd" d="M258.003 242.948L259.269 243.867L260.742 243.497C260.822 243.477 260.902 243.526 260.922 243.606C260.928 243.631 260.928 243.657 260.921 243.681L260.513 245.202L261.361 246.556C261.405 246.626 261.384 246.719 261.315 246.763C261.291 246.778 261.264 246.786 261.236 246.786L259.792 246.794C259.746 246.795 259.704 246.816 259.676 246.851L258.78 247.992C258.729 248.057 258.635 248.068 258.571 248.017C258.549 247.999 258.533 247.976 258.523 247.95L257.986 246.443L256.544 245.831C256.468 245.799 256.433 245.711 256.465 245.635C256.475 245.611 256.49 245.591 256.51 245.575L257.707 244.634L257.767 243.064C257.77 242.981 257.84 242.917 257.922 242.92C257.951 242.921 257.979 242.931 258.003 242.948Z" fill="#00160A"/>
<path fill-rule="evenodd" clip-rule="evenodd" d="M272.544 184.317L272.927 185.84L274.292 186.51C274.365 186.547 274.396 186.636 274.36 186.711C274.349 186.734 274.332 186.753 274.311 186.768L273.028 187.669L272.813 189.255C272.802 189.337 272.727 189.394 272.646 189.383C272.618 189.379 272.592 189.368 272.571 189.35L271.459 188.421C271.424 188.392 271.378 188.381 271.334 188.39L269.919 188.684C269.838 188.701 269.76 188.649 269.743 188.568C269.738 188.54 269.74 188.512 269.749 188.486L270.299 186.984L269.586 185.581C269.548 185.508 269.577 185.418 269.65 185.38C269.673 185.368 269.698 185.363 269.723 185.364L271.241 185.417L272.289 184.253C272.345 184.192 272.439 184.188 272.499 184.243C272.521 184.263 272.536 184.289 272.544 184.317Z" fill="#00160A"/>
<path fill-rule="evenodd" clip-rule="evenodd" d="M239.43 123.033L239.814 124.556L241.178 125.226C241.252 125.262 241.283 125.352 241.247 125.426C241.236 125.449 241.219 125.469 241.198 125.484L239.914 126.384L239.7 127.97C239.688 128.052 239.614 128.11 239.532 128.099C239.505 128.095 239.479 128.083 239.457 128.065L238.345 127.137C238.31 127.108 238.265 127.096 238.22 127.106L236.805 127.4C236.725 127.416 236.646 127.364 236.63 127.283C236.624 127.256 236.626 127.228 236.636 127.201L237.186 125.699L236.472 124.297C236.435 124.224 236.464 124.133 236.537 124.096C236.559 124.084 236.585 124.078 236.61 124.079L238.127 124.132L239.176 122.969C239.231 122.908 239.325 122.903 239.386 122.959C239.408 122.979 239.423 123.004 239.43 123.033Z" fill="#00160A"/>
<path fill-rule="evenodd" clip-rule="evenodd" d="M337.256 137.953L337.821 137.902C338.459 137.85 339.037 137.821 339.564 137.814C340.023 136.839 340.711 135.949 341.743 134.98C342.118 134.628 342.706 134.649 343.056 135.026C343.406 135.404 343.385 135.996 343.01 136.349C342.415 136.907 341.966 137.417 341.625 137.938C342.976 138.149 343.81 138.627 344.431 139.346L344.549 139.486C344.879 139.882 344.828 140.472 344.435 140.804C344.066 141.116 343.528 141.09 343.19 140.759L343.126 140.689L343.025 140.569C342.625 140.11 342.036 139.804 340.858 139.706C340.742 140.16 340.664 140.655 340.608 141.216L340.493 142.623C340.451 143.138 340.002 143.52 339.49 143.478C338.979 143.435 338.599 142.983 338.641 142.468L338.734 141.293C338.784 140.718 338.854 140.191 338.954 139.699C338.501 139.722 337.997 139.761 337.435 139.815C336.924 139.865 336.47 139.489 336.421 138.974C336.372 138.46 336.745 138.003 337.256 137.953Z" fill="#00160A"/>
<path fill-rule="evenodd" clip-rule="evenodd" d="M262.23 202.53C262.062 202.958 261.694 203.55 261.267 204.111L261.635 204.495L262.062 204.953L262.157 205.045C262.199 205.082 262.231 205.104 262.255 205.11C262.393 205.131 262.489 205.259 262.47 205.399C262.45 205.536 262.324 205.634 262.186 205.614C262.061 205.612 261.607 205.433 261.065 204.99C260.967 204.91 260.87 204.818 260.77 204.716C260.458 205.067 260.143 205.368 259.87 205.555C259.47 205.834 259.122 205.856 258.957 205.743C258.793 205.633 258.637 205.265 258.902 204.519C258.944 204.384 259.087 204.313 259.219 204.355C259.351 204.397 259.424 204.539 259.383 204.674C259.342 204.812 259.337 204.939 259.336 205.04L259.49 204.934C259.545 204.895 259.6 204.851 259.651 204.799C259.837 204.615 260.045 204.391 260.253 204.148C259.923 203.762 259.587 203.308 259.314 202.784C259.181 202.529 259.075 202.258 258.975 201.973C258.905 201.814 258.977 201.627 259.136 201.556C259.294 201.486 259.48 201.559 259.549 201.718C259.852 202.357 260.24 202.909 260.622 203.381L260.75 203.535C261.098 203.076 261.397 202.612 261.533 202.258C261.608 202.065 261.825 201.969 262.017 202.043C262.211 202.12 262.306 202.338 262.23 202.53Z" fill="#E7EAEE"/>
<path d="M253.159 11.8738C253.725 11.7745 254.264 12.1562 254.363 12.7262C254.461 13.2963 254.082 13.839 253.516 13.9382C250.823 14.4105 247.582 16.0312 244.782 18.6415C241.147 22.0311 238.465 26.815 237.141 33.0597C236.074 38.0908 237.055 44.715 239.843 50.2415C243.015 56.5291 248.114 60.804 254.657 62.0073C261.374 63.2426 267.057 62.4754 273.404 60.2035L273.989 59.9898C274.174 59.9192 274.505 59.7906 274.92 59.6293L274.921 59.629C276.449 59.0352 279.12 57.9977 279.887 57.7642C281.939 57.1394 283.339 57.1917 284.354 58.2807C284.747 58.7027 284.726 59.3658 284.307 59.7617C283.914 60.133 283.311 60.1377 282.913 59.7891L282.836 59.7147C282.537 59.3934 281.918 59.3562 280.672 59.7159L280.489 59.77C279.813 59.9758 277.34 60.9361 275.798 61.5348L275.797 61.5351C275.2 61.767 274.742 61.9446 274.583 62.003C267.728 64.5227 261.576 65.41 254.283 64.0687C247.056 62.7396 241.437 58.0289 237.987 51.1906C234.989 45.2475 233.937 38.1363 235.106 32.6222C236.519 25.9574 239.416 20.7886 243.368 17.104C246.462 14.2197 250.07 12.4156 253.159 11.8738Z" fill="#00160A"/>
<path d="M260.197 16.9356C260.761 16.8244 261.307 17.1945 261.418 17.7624C261.528 18.3303 261.161 18.8808 260.597 18.992C252.163 20.6551 245.38 27.1413 243.413 35.7207C242.747 38.6243 242.948 40.9852 243.602 41.886L243.688 41.9989L243.695 42.0146L243.707 42.0051C243.941 41.7926 244.215 41.2495 244.427 40.4076L244.471 40.2227C246.495 31.3989 253.176 24.5688 261.71 22.2751C262.265 22.1258 262.835 22.4581 262.983 23.0172C263.132 23.5762 262.802 24.1505 262.246 24.2997C254.558 26.3662 248.517 32.461 246.579 40.3593L246.499 40.6941C245.786 43.8061 243.737 45.2916 242.077 43.3217C240.863 41.8809 240.565 38.8236 241.385 35.2493C243.538 25.8572 250.964 18.7561 260.197 16.9356Z" fill="#00160A"/>
<path d="M272.712 28.4358C272.671 27.8587 272.173 27.4241 271.6 27.4653C261.472 28.1928 252.59 34.8163 249.056 44.5921C247.715 48.3016 247.635 51.6004 248.733 53.2827C250.206 55.5393 252.522 54.2592 253.677 51.0641L253.798 50.7363C256.924 42.4631 264.247 36.6848 272.82 35.4799C273.389 35.3999 273.786 34.8705 273.706 34.2974C273.627 33.7243 273.101 33.3245 272.532 33.4045C263.091 34.7315 255.041 41.1632 251.721 50.3474L251.648 50.5437C251.279 51.4995 250.875 52.0759 250.569 52.245L250.555 52.2542C250.553 52.256 250.551 52.2577 250.549 52.259C250.547 52.2612 250.546 52.2625 250.544 52.2623C250.543 52.2621 250.542 52.2592 250.539 52.2522C250.532 52.2367 250.518 52.2014 250.472 52.132L250.417 52.0408C249.813 50.9627 249.905 48.369 251.012 45.3088C254.262 36.3167 262.432 30.2247 271.748 29.5555C272.321 29.5143 272.753 29.013 272.712 28.4358Z" fill="#00160A"/>
<path d="M277.244 38.6215C277.817 38.5803 278.315 39.0148 278.356 39.592C278.397 40.1692 277.965 40.6705 277.392 40.7117C270.86 41.1809 265.132 45.452 262.853 51.7566C262.178 53.6255 262.052 55.2233 262.294 56.0325L262.324 56.1228L262.37 56.056C262.486 55.8786 262.617 55.6237 262.745 55.2932L262.8 55.1469C265.207 48.4876 271.044 43.824 277.889 42.8619C278.458 42.7819 278.984 43.1816 279.064 43.7547C279.143 44.3278 278.746 44.8572 278.177 44.9372C272.188 45.7789 267.07 49.803 264.865 55.569L264.755 55.8636C263.863 58.3331 261.932 59.3999 260.698 57.509C259.853 56.2132 259.912 53.7671 260.898 51.0399C263.46 43.9516 269.9 39.149 277.244 38.6215Z" fill="#00160A"/>
<path d="M282.728 47.0633C282.688 46.4861 282.19 46.0516 281.616 46.0928C276.698 46.4461 272.385 49.6625 270.669 54.4096C269.993 56.2811 269.951 57.9844 270.577 58.9434C271.603 60.5158 273.198 59.6348 273.862 57.7974L273.952 57.5562C275.35 53.9613 278.554 51.455 282.299 50.9286C282.869 50.8486 283.266 50.3192 283.186 49.7461C283.107 49.173 282.581 48.7733 282.012 48.8532L281.748 48.8932C277.716 49.5471 274.237 52.1239 272.434 55.8323L272.37 55.9643L272.409 55.814C272.467 55.5951 272.539 55.3649 272.625 55.1263C274.058 51.1629 277.658 48.478 281.765 48.183C282.338 48.1418 282.769 47.6405 282.728 47.0633Z" fill="#00160A"/>
<path fill-rule="evenodd" clip-rule="evenodd" d="M277.244 38.6215C277.817 38.5803 278.315 39.0148 278.356 39.592C278.397 40.1692 277.965 40.6705 277.392 40.7117C270.86 41.1809 265.132 45.452 262.853 51.7566C262.178 53.6255 262.052 55.2233 262.294 56.0325L262.324 56.1228L262.37 56.056C262.486 55.8786 262.617 55.6237 262.745 55.2932L262.8 55.1469C265.207 48.4876 271.044 43.824 277.889 42.8619C278.458 42.7819 278.984 43.1816 279.064 43.7547C279.143 44.3278 278.746 44.8572 278.177 44.9372C272.188 45.7789 267.07 49.803 264.865 55.569L264.755 55.8636C263.863 58.3331 261.932 59.3999 260.698 57.509C259.853 56.2132 259.912 53.7671 260.898 51.0399C263.46 43.9516 269.9 39.149 277.244 38.6215Z" fill="#00160A"/>
<path d="M212.437 175.037C234.252 164.762 252.492 159.335 263.848 158.338C267.326 158.033 268.903 159.964 268.023 163.104C267.369 165.435 265.377 168.635 262.325 172.424C257.004 179.029 249.988 184.681 243.001 189.938C254.179 179.55 257.03 175.205 260.477 170.926L261.018 170.245C263.574 166.991 265.227 164.272 265.735 162.458L265.808 162.183C266.125 160.873 265.758 160.563 264.055 160.713C252.956 161.687 234.786 167.125 213.05 177.385C191.279 187.662 190.656 185.294 212.437 175.037Z" fill="white"/>
<path d="M112.661 141.799L112.821 142.181C113.926 144.82 115.074 147.433 116.378 150.283L116.885 151.388C116.718 151.501 116.5 151.62 116.26 151.726C115.915 151.877 115.564 151.984 115.301 152.02L115.217 152.028L115.091 151.875C114.105 150.654 112.962 148.579 112.136 146.516C111.696 145.417 111.383 144.409 111.241 143.635C111.184 143.319 111.157 143.054 111.159 142.853L111.165 142.721C111.167 142.689 111.168 142.672 111.16 142.669L111.191 142.648C111.367 142.526 111.816 142.261 112.484 141.896L112.661 141.799Z" fill="white"/>
<path fill-rule="evenodd" clip-rule="evenodd" d="M140.24 132.241C140.922 131.399 141.808 131.525 142.929 132.21L143.217 132.393L144.024 132.93C144.249 133.076 144.347 133.126 144.478 133.179C144.783 133.301 144.932 133.65 144.811 133.957C144.689 134.264 144.343 134.414 144.038 134.292L143.93 134.247C143.723 134.158 143.568 134.065 143.15 133.786L142.572 133.398C142.476 133.336 142.394 133.283 142.313 133.233C141.642 132.824 141.337 132.781 141.16 132.998C141.049 133.136 141.077 133.428 141.298 134.028L141.54 134.657C142.023 135.946 142.025 136.523 141.166 137.015C140.427 137.438 140.047 137.24 138.985 136.192L138.728 135.935C138.047 135.251 137.691 135.013 137.461 135.062C137.385 135.078 137.296 135.133 137.187 135.249C137.06 135.386 137.024 135.824 137.102 136.6L137.222 137.613C137.361 138.852 137.305 139.173 136.797 139.515C136.098 139.986 135.167 139.454 133.442 137.894C133.198 137.673 133.177 137.294 133.397 137.048C133.616 136.802 133.992 136.782 134.237 137.003C134.974 137.67 135.531 138.104 135.92 138.327L136.007 138.374L136.08 138.411L136.081 138.336L136.077 138.157C136.069 138.01 136.051 137.832 136.015 137.53L135.939 136.908C135.794 135.647 135.839 134.946 136.32 134.43C136.587 134.144 136.886 133.961 137.215 133.891C137.979 133.728 138.521 134.057 139.423 134.943L139.877 135.394C140.368 135.869 140.55 135.99 140.578 135.974C140.69 135.91 140.673 135.712 140.372 134.933L140.24 134.595C139.82 133.508 139.739 132.857 140.24 132.241Z" fill="#00160A"/>
<path d="M205.156 34.7895L204.591 34.8402C204.08 34.89 203.706 35.3472 203.756 35.8615C203.786 36.1724 203.964 36.4329 204.212 36.5794L204.114 36.6497C203.695 36.9479 203.596 37.5316 203.892 37.9535C204.188 38.3755 204.768 38.4757 205.187 38.1775L206.142 37.4967C206.114 37.7169 206.09 37.9442 206.069 38.1796L205.976 39.3551C205.934 39.8699 206.314 40.322 206.825 40.3648C207.337 40.4075 207.786 40.0248 207.828 39.5099L207.943 38.1033C207.973 37.8022 208.009 37.5201 208.055 37.253C208.381 37.8763 208.446 38.3563 208.377 38.8104L208.35 38.9648L208.338 39.0598C208.304 39.5327 208.63 39.9644 209.104 40.0485C209.609 40.1383 210.091 39.7985 210.18 39.2897L210.212 39.1085C210.31 38.4772 210.265 37.8417 210.011 37.1361C210.144 37.2322 210.258 37.3392 210.36 37.456L210.46 37.5761L210.525 37.6463C210.863 37.9769 211.401 38.0028 211.769 37.6914C212.163 37.3593 212.214 36.7693 211.884 36.3735L211.766 36.2327C211.725 36.1844 211.682 36.1373 211.638 36.0912C212.123 36.1197 212.553 35.7639 212.614 35.2714C212.676 34.7586 212.314 34.2918 211.805 34.2287C210.929 34.1203 210.163 34.0958 209.458 34.1596C209.711 33.86 210.004 33.5558 210.345 33.2357C210.72 32.8834 210.741 32.2914 210.391 31.9135C210.041 31.5356 209.453 31.5148 209.078 31.8671C208.448 32.4581 207.947 33.0197 207.547 33.5893C207.393 33.4245 207.231 33.2555 207.061 33.0822L206.659 32.6791C206.293 32.3172 205.704 32.3226 205.345 32.6913C204.985 33.06 204.991 33.6522 205.357 34.0142C205.611 34.2655 205.846 34.5034 206.062 34.7287C205.774 34.7434 205.472 34.7636 205.156 34.7895Z" fill="#00160A"/>
<path d="M169.349 41.2714C169.126 41.0411 168.765 41.0475 168.543 41.2857C168.32 41.5239 168.321 41.9036 168.544 42.1338C168.755 42.3522 168.944 42.5546 169.113 42.7429C168.756 42.8954 168.397 43.0929 168.013 43.3368L167.431 43.7131C167.175 43.8772 167.119 44.2055 167.306 44.4463C167.493 44.6872 167.852 44.7494 168.108 44.5853L168.806 44.1365C169.171 43.9115 169.5 43.7412 169.831 43.6217C170.333 44.325 170.438 44.7757 170.374 45.1937L170.357 45.2928L170.349 45.3538C170.325 45.6571 170.523 45.9323 170.814 45.9838C171.124 46.0388 171.421 45.8186 171.478 45.492L171.499 45.3756C171.594 44.7695 171.492 44.1588 171.06 43.4044C171.353 43.3998 171.672 43.4217 172.034 43.4682C172.349 43.5088 172.632 43.3077 172.665 43.0191C172.699 42.7305 172.471 42.4637 172.156 42.4231C171.465 42.3342 170.886 42.3241 170.356 42.3962C170.138 42.1262 169.885 41.838 169.594 41.5277L169.349 41.2714Z" fill="#00160A"/>
<path fill-rule="evenodd" clip-rule="evenodd" d="M49.615 197.229L50.2552 198.662L51.7147 199.083C51.7936 199.106 51.8393 199.189 51.8166 199.268C51.8096 199.293 51.7965 199.315 51.7786 199.333L50.6697 200.445L50.7318 202.044C50.735 202.127 50.6711 202.197 50.5891 202.2C50.5613 202.201 50.5338 202.194 50.5097 202.18L49.2543 201.46C49.2151 201.438 49.1678 201.435 49.1259 201.451L47.7832 201.988C47.7069 202.019 47.6205 201.981 47.5902 201.904C47.5799 201.878 47.5771 201.85 47.5821 201.823L47.8647 200.247L46.9202 198.991C46.8707 198.925 46.8835 198.831 46.949 198.782C46.9692 198.766 46.9929 198.756 47.018 198.753L48.5216 198.539L49.3536 197.211C49.3974 197.141 49.4892 197.12 49.5587 197.164C49.5834 197.179 49.603 197.202 49.615 197.229Z" fill="#00160A"/>
<path fill-rule="evenodd" clip-rule="evenodd" d="M58.1521 117.717L58.7924 119.15L60.2519 119.572C60.3308 119.595 60.3764 119.677 60.3538 119.757C60.3468 119.781 60.3337 119.804 60.3158 119.822L59.2069 120.933L59.269 122.533C59.2722 122.615 59.2083 122.685 59.1263 122.688C59.0985 122.689 59.071 122.683 59.0469 122.669L57.7915 121.949C57.7523 121.926 57.705 121.923 57.6631 121.94L56.3204 122.477C56.2441 122.507 56.1577 122.47 56.1274 122.393C56.1171 122.367 56.1143 122.339 56.1192 122.311L56.4018 120.736L55.4574 119.48C55.4078 119.414 55.4207 119.32 55.4862 119.27C55.5064 119.255 55.5301 119.245 55.5552 119.241L57.0588 119.028L57.8908 117.699C57.9346 117.629 58.0264 117.608 58.0958 117.652C58.1206 117.668 58.1401 117.691 58.1521 117.717Z" fill="#00160A"/>
<path d="M77.4902 244.309C77.9671 243.96 78.6344 244.067 78.9807 244.547C79.327 245.027 64.2295 257.409 58.3727 263.083L57.692 263.748C54.3468 267.043 51.8803 269.897 50.4901 272.153C49.0169 274.544 48.9224 275.842 49.8735 276.373C53.482 278.387 58.6702 279.368 66.1008 278.128L66.8643 277.997C69.6928 277.498 90.9692 272.826 90.6323 272.95L90.5015 272.99C89.8307 273.169 81.1673 276.185 78.1772 276.952L77.8157 277.044C73.2446 278.202 69.6675 278.995 66.4496 279.532C58.5864 280.844 52.9684 280.557 48.839 278.253C46.4561 276.923 46.6458 274.316 48.6765 271.02C50.2738 268.429 53.0832 265.225 56.8929 261.534C62.828 255.784 71.1758 248.925 77.4902 244.309Z" fill="white"/>
<path fill-rule="evenodd" clip-rule="evenodd" d="M188.654 95.365C188.915 95.1905 189.264 95.2649 189.435 95.5312L193.287 101.541C193.458 101.808 193.385 102.165 193.124 102.339C192.864 102.514 192.515 102.44 192.344 102.173L188.492 96.163C188.321 95.8967 188.394 95.5394 188.654 95.365Z" fill="#00160A"/>
<path fill-rule="evenodd" clip-rule="evenodd" d="M188.842 90.9244C189.141 90.7475 189.535 90.8365 189.723 91.1232L192.374 95.1661C192.562 95.4527 192.473 95.8285 192.174 96.0054C191.876 96.1823 191.482 96.0933 191.294 95.8067L188.642 91.7638C188.454 91.4771 188.544 91.1013 188.842 90.9244Z" fill="#00160A"/>
</svg>
